<svg xmlns="http://www.w3.org/2000/svg" viewBox="0 0 197.2359 197.23187" height="197.232" width="197.236"><path d="M71.736 194.844c-39.217-11.6-67.2-45.272-71.248-85.734C-4.248 61.77 25.935 17.204 71.72 3.936c52.032-15.078 106.811 14.482 122.657 66.188 1.135 3.705 2.534 9.338 2.848 10.438.314 1.1-6.31-5.07-13.518-12.215C172.198 56.94 171.16 55.03 169.63 56.121c-4.374 3.118-3.814 7.07-10.463 5.015-11.741-3.626-24.356-3.825-35.29-1.02-8.409 2.157-15.2 5.522-22.711 13.967-2.641 2.969-6.064 9.93-7.472 12.58-1.496 2.815-4.008 12.237-4.225 12.482-.216.244-2.935-3.05-6.765-6.875-1.563-1.56-3.738-2.728-4.681-3.69-2.588-2.637-2.295-3.242-3.401-2.45-3.332 2.385-4.397 2.482-9.415.862-6.49-2.096-9.346-2.031-14.551.332-5.278 2.396-8.262 7.047-8.267 12.885-.005 5.561 1.676 9 8.63 17.651 9.146 11.381 9.15 18.446 2.32 21.069l-3.173 1.31-2.103.093-5.326-6.535c-4.262-5.23-7.65-9.437-8.576-9.437-1.163 0-3.318 3.041-3.772 5.63-.363 2.063-.848 4.73-.569 8.37.11 1.434 1.403 5.124 2.445 6.86.66 1.099.634.694 1.194 1.575l23.248 24.766c14.39 15.332 25.53 25.7 25.259 25.67-.271-.028-5.747-1.062-10.229-2.387z" fill="#fff"/><path d="M90.442 198.25l-8.661-1.039-25.492-25.446c-19.534-19.499-23.472-25.349-24.411-27.116-.086-.161-.146-.261-.088-.305.166-.125.794.188 1.132-.175.615-.66.998-2.527 1.526-2.464 1.086.132 2.614 3.11 6.844 4.237 7.92 2.11 11.794.655 16.566-1.335 8.127-3.39 12.382-11.873 11.04-19.027-.982-5.232-2.815-8.357-9.376-15.98-3.19-3.707-6.326-7.723-6.969-8.924-3.076-5.75.194-10.77 7.013-10.77 3.259 0 4.563.604 6.867 3.183 1.564 1.75 3.128 4.89 3.476 6.977 1.513 9.091 3.45 8.294 5.545-2.282.863-4.358 1.766-8.497 2.007-9.197.267-.775 2.746 1.057 6.32 4.67l5.882 5.943-.474 9.129c-.491 9.447.125 13.088 2.413 17.967 3.33 7.101 8.016 12.614 15.117 15.944 5.012 2.351 9.346 4.764 19.665 4.764 9.975 0 17.51-3.651 21.554-5.644 3.164-1.558 4.929-3.78 7.069-6.038 1.843-1.943 3.626-4.44 5.433-7.067 2.603-3.783 1.317-5.722-.238-5.722-.992 0-2.626 1.432-5.468 4.377-6.273 6.498-15.279 8.462-23.414 9.123-16.465 1.337-27.977-7.044-27.918-24.104.064-18.822 11.677-37.028 26.114-44.886 7.038-3.83 16.413-3.7 22.878-2.747 4.573.673 8.25 1.303 9.75 4.354 1.028 2.088-.51 7.911.232 11.206.93 4.138 1.937 3.504 2.644 3.504.708 0 2.492-5.532 4.395-13.629l3.202-12.482 12.448 11.684 12.21 11.689.368 2.382.517 7.106c.826 11.34-.13 25.256-2.83 35.25-2.509 9.286-10.434 25.674-15.96 33-16.696 22.14-43.494 37.556-68.69 39.514-4.287.334-9.712.643-10.989.664-1.11.017-4.606.144-9.249-.289zm-48.153-58.554c-3.432-2.13-4.807-4.487-5.838-10.006l-.854-4.571 7.894 7.847c4.341 4.316 7.141 6.767 7.141 6.918 0 .993-6.22 1.13-8.343-.188z" fill="#f2f2f2"/></svg>