<svg xmlns="http://www.w3.org/2000/svg" viewBox="0 0 280.94296 161.04373" height="161.044" width="280.943"><path d="M133.002 160.867a1.16 1.16 0 0 1 .75 0c.206.083.037.151-.375.151-.413 0-.582-.068-.375-.15zm3.756-1.901c0-.743.059-1.046.13-.675.072.371.072.979 0 1.35-.071.371-.13.067-.13-.675zm-18.306.693a2.462 2.462 0 0 1 1.05 0c.288.076.052.137-.525.137-.578 0-.814-.061-.525-.137zm26.85-2.392a1.16 1.16 0 0 1 .75 0c.206.083.037.151-.375.151-.413 0-.582-.068-.375-.15zm-12.202-2.976c.015-.35.086-.42.182-.181.086.216.076.475-.024.575-.1.1-.17-.078-.158-.394zm-28.5-1.8c.015-.35.086-.42.182-.181.086.216.076.475-.024.575-.1.1-.17-.078-.158-.394zm32.002-2.724a1.16 1.16 0 0 1 .75 0c.206.083.037.151-.375.151-.413 0-.582-.068-.375-.15zm58.996-2.876l-.571-.675.675.571c.634.537.811.779.571.779-.057 0-.36-.304-.675-.675zm-96.796-2.824a1.16 1.16 0 0 1 .75 0c.206.083.037.151-.375.151-.413 0-.582-.068-.375-.15zm104.736-6.626c-.373-.476-.362-.487.114-.113.5.391.658.638.411.638-.062 0-.298-.236-.525-.525zm-33.018-29.08c.217-.087.476-.076.575.024.1.1-.077.17-.393.157-.35-.014-.42-.085-.182-.181zm-131.043-8.308c0-.063.236-.299.525-.525.475-.374.486-.363.113.113-.392.5-.638.658-.638.412zm185.4 0c0-.063.236-.299.525-.525.475-.374.486-.363.113.113-.392.5-.638.658-.638.412zm14.238-20.587c0-7.838.039-11.044.086-7.125.048 3.919.048 10.331 0 14.25-.047 3.919-.086.712-.086-7.125zm17.687 8.55c0-3.135.044-4.377.098-2.76a99.901 99.901 0 0 1 0 5.7c-.054 1.518-.099.195-.098-2.94zm-79.175 3.75c.644-.66 1.239-1.2 1.321-1.2.083 0-.377.54-1.021 1.2-.645.66-1.24 1.2-1.322 1.2-.083 0 .377-.54 1.022-1.2zm-14.116-12.3c0-5.693.04-8.021.09-5.175.05 2.846.05 7.504 0 10.35s-.09.517-.09-5.175zm19.724-.75c.006-.495.074-.661.15-.37.076.292.07.697-.012.9-.082.204-.144-.035-.138-.53zm0-2.4c.006-.495.074-.661.15-.37.076.292.07.697-.012.9-.082.204-.144-.035-.138-.53zm73.564-6c0-2.805.045-3.993.1-2.64a78.387 78.387 0 0 1 .001 5.1c-.055 1.452-.1.345-.1-2.46zM1.207 42.772c-.083-.216-.108-1.937-.055-3.825l.096-3.431.064 3.674.065 3.674 52.725.077 52.725.077-52.735.074c-43.274.06-52.761.003-52.885-.32zm197.518.169c14.575-.043 38.335-.043 52.8 0 14.466.043 2.542.078-26.498.078s-40.876-.035-26.302-.078zm-70.668-12.583c.292-.076.697-.071.9.011.203.082-.035.144-.53.138-.495-.006-.662-.073-.37-.15zm21.445.01c.206-.084.543-.084.75 0 .206.082.037.15-.375.15-.413 0-.582-.068-.375-.15zm67.275-1.117c0-.063.333-.179.74-.257.408-.078.67-.026.583.115-.154.249-1.323.374-1.323.142zm-14.139-8.51c-.373-.476-.362-.487.114-.113.5.391.658.638.411.638-.062 0-.298-.236-.525-.525zm8.739-2.288c0-.063.236-.299.525-.525.475-.374.486-.363.113.113-.392.5-.638.658-.638.412zm-31.65-2.587c-.102-.165-.043-.3.132-.3s.318.135.318.3c0 .165-.06.3-.133.3-.072 0-.215-.135-.317-.3zM175.1 11.79c.015-.35.086-.42.182-.181.086.216.076.475-.024.575-.1.1-.17-.078-.158-.394zm-41.043-.633c.292-.076.697-.071.9.011.203.082-.035.144-.53.138-.495-.006-.662-.073-.37-.15zM179.3 9.09c.015-.35.086-.42.182-.181.086.216.076.475-.024.575-.1.1-.17-.078-.158-.394zm-48.98-.33c.217-.087.476-.076.575.024.1.1-.077.17-.393.157-.35-.014-.42-.085-.182-.181zm.38-.87c.015-.35.086-.42.182-.181.086.216.076.475-.024.575-.1.1-.17-.078-.158-.394zM92.024 6.866c0-.413.068-.581.151-.375.084.206.084.544 0 .75-.083.206-.151.037-.151-.375zm25.59-3.32c-.108-.176-.133-.384-.055-.463.08-.079.223.065.321.32.203.528.03.621-.266.143zm17.943-1.088c.292-.076.697-.071.9.011.203.082-.035.144-.53.138-.495-.006-.662-.073-.37-.15zM130.92.06c.217-.087.476-.076.575.024.1.1-.077.17-.393.157-.35-.014-.42-.085-.182-.181z" fill="#d0d0d0"/><path d="M134.22 160.86c.217-.086.476-.075.575.025.1.1-.077.17-.393.157-.35-.014-.42-.085-.182-.181zm35.082-2.993a1.16 1.16 0 0 1 .75 0c.206.083.037.151-.375.151-.413 0-.582-.068-.375-.15zm-32.55-1.151c.003-.66.065-.895.137-.522.072.373.069.913-.006 1.2-.075.287-.134-.018-.13-.678zm5.648-3.625c.015-.35.086-.42.182-.181.086.216.076.475-.024.575-.1.1-.17-.078-.158-.394zm-7.143-3.333c.292-.076.697-.071.9.011.203.082-.035.144-.53.138-.495-.006-.662-.073-.37-.15zm-18.6-1.8c.292-.076.697-.071.9.011.203.082-.035.144-.53.138-.495-.006-.662-.073-.37-.15zm164.133-29.792c0-1.898.049-2.674.108-1.725.06.949.06 2.501 0 3.45-.06.949-.108.172-.108-1.725zm-109.37-9.805c.217-.087.476-.076.575.024.1.1-.077.17-.393.157-.35-.014-.42-.085-.182-.181zm-67.602-23.795c0-10.643.038-14.996.084-9.675.045 5.321.045 14.029 0 19.35-.046 5.321-.084.967-.084-9.675zm30.582 14.1c0-2.888.045-4.069.1-2.625a83.543 83.543 0 0 1 0 5.25c-.055 1.444-.1.262-.1-2.625zm8.108 1.125l-.881-.975.975.88c.536.486.975.924.975.976 0 .232-.248.028-1.07-.881zM21.314 77.666c0-6.848.04-9.649.087-6.225.048 3.424.048 9.026 0 12.45-.048 3.424-.087.622-.087-6.225zm185.4 0c0-6.848.04-9.649.087-6.225.048 3.424.048 9.026 0 12.45-.048 3.424-.087.622-.087-6.225zM183.2 77.49c.015-.35.086-.42.182-.181.086.216.076.475-.024.575-.1.1-.17-.078-.158-.394zm-48.8-17.225c0-2.888.045-4.069.1-2.625a83.543 83.543 0 0 1 0 5.25c-.055 1.444-.1.262-.1-2.625zm42.598-.075l-.571-.675.675.571c.37.315.675.618.675.675 0 .24-.242.063-.779-.571zm-50.521-29.653c0-.15.27-.272.6-.272.33 0 .6.052.6.115s-.27.185-.6.272c-.33.086-.6.034-.6-.115zm24.38-.18c.292-.076.697-.071.9.011.203.082-.035.144-.53.138-.495-.006-.662-.073-.37-.15zm70.241-10.667l-.571-.675.675.571c.37.315.675.618.675.675 0 .24-.242.063-.779-.571zm-52.784-8.045c-.108-.176-.133-.384-.055-.463.08-.079.223.065.321.32.203.529.03.621-.266.143zm-35.612-.479a1.16 1.16 0 0 1 .75 0c.206.083.037.151-.375.151-.413 0-.582-.068-.375-.15zm-37.378-1.9c0-.413.068-.581.151-.375.084.206.084.544 0 .75-.083.206-.151.037-.151-.375zm79.834-.9c0-.743.059-1.046.13-.675.072.371.072.979 0 1.35-.071.371-.13.067-.13-.675zm-83.134-.3c0-.413.068-.581.151-.375.084.206.084.544 0 .75-.083.206-.151.037-.151-.375zm44.7 0c0-.413.068-.581.151-.375.084.206.084.544 0 .75-.083.206-.151.037-.151-.375zM130.7 6.99c.015-.35.086-.42.182-.181.086.216.076.475-.024.575-.1.1-.17-.078-.158-.394zm6.952-.64a6.627 6.627 0 0 1 1.65 0c.453.069.082.125-.825.125-.908 0-1.28-.056-.825-.125zm-14.306-3.473c.113-.296.28-.462.373-.37.092.092 0 .334-.205.538-.296.294-.33.26-.168-.168zM129.39.866c-.087-.33-.035-.6.115-.6.15 0 .272.27.272.6 0 .33-.052.6-.115.6-.064 0-.186-.27-.272-.6zm2.43-.805c.217-.087.476-.076.575.024.1.1-.077.17-.393.157-.35-.014-.42-.085-.182-.181z" fill="#b0b0b0"/><path d="M135.257 160.858c.292-.076.697-.071.9.011.203.082-.035.144-.53.138-.495-.006-.662-.073-.37-.15zm12.163.003c.217-.087.476-.076.575.024.1.1-.077.17-.393.157-.35-.014-.42-.085-.182-.181zm-4.685-2.045c.006-.495.074-.661.15-.37.076.292.07.697-.012.9-.082.204-.144-.035-.138-.53zm9.865-1.525c.015-.35.086-.42.182-.181.086.216.076.475-.024.575-.1.1-.17-.078-.158-.394zm-15.848-2.675c.003-.66.065-.895.137-.522.072.373.069.913-.006 1.2-.075.287-.134-.018-.13-.678zm-8.775.468c0-.156.133-.365.296-.466.17-.105.22.015.118.282-.2.52-.414.615-.414.184zm-5.231-5.33c-.163-.428-.128-.462.168-.168.205.203.297.445.205.538-.093.092-.26-.074-.373-.37zm11.474.007c.217-.087.476-.076.575.023.1.1-.077.171-.393.158-.35-.014-.42-.085-.182-.181zm38.082-41.394a1.16 1.16 0 0 1 .75 0c.206.083.037.151-.375.151-.413 0-.582-.068-.375-.151zM49.8 98.666c0-2.888.045-4.069.1-2.625a83.559 83.559 0 0 1 0 5.25c-.055 1.444-.1.262-.1-2.625zm21.9 0c0-2.888.045-4.069.1-2.625a83.559 83.559 0 0 1 0 5.25c-.055 1.444-.1.262-.1-2.625zm-63.462.975c-.373-.476-.362-.487.114-.113.5.391.658.638.411.638-.062 0-.298-.236-.525-.525zm185.4 0c-.373-.476-.362-.487.114-.113.5.391.658.638.411.638-.062 0-.298-.236-.525-.525zM135.5 76.59c.015-.35.086-.42.182-.181.086.216.076.475-.024.575-.1.1-.17-.078-.158-.394zM0 60.266c0-2.888.045-4.069.1-2.625a83.559 83.559 0 0 1 0 5.25c-.055 1.444-.1.262-.1-2.625zm49.8 0c0-2.888.045-4.069.1-2.625a83.559 83.559 0 0 1 0 5.25c-.055 1.444-.1.262-.1-2.625zm135.6 0c0-2.888.045-4.069.1-2.625a83.543 83.543 0 0 1 0 5.25c-.055 1.444-.1.262-.1-2.625zm92.391-20.85c0-1.98.05-2.751.108-1.713a36.93 36.93 0 0 1 0 3.6c-.06.942-.107.093-.107-1.887zm-142.39-8.749a1.16 1.16 0 0 1 .75 0c.207.083.038.151-.374.151-.413 0-.582-.068-.375-.15zm6.92-.006c.216-.087.475-.076.574.024.1.1-.077.17-.393.157-.35-.014-.42-.085-.182-.181zm67.28-7.47c.014-.35.085-.42.18-.181.087.216.077.475-.023.575-.1.1-.17-.078-.158-.394zm-77.78-12.03c.216-.087.475-.076.574.024.1.1-.077.17-.393.157-.35-.014-.42-.085-.182-.181zm-36.497-.695c0-.413.068-.581.151-.375.084.206.084.544 0 .75-.083.206-.151.037-.151-.375zm-3.3-1.2c0-.413.068-.581.151-.375.084.206.084.544 0 .75-.083.206-.151.037-.151-.375zM136.7 6.99c.015-.35.086-.42.182-.181.086.216.076.475-.024.575-.1.1-.17-.078-.158-.394zm-6-.9c.015-.35.086-.42.182-.181.086.216.076.475-.024.575-.1.1-.17-.078-.158-.394zm4.235-2.675c.006-.495.074-.661.15-.37.076.292.07.697-.012.9-.082.204-.144-.035-.138-.53zM132.702.067a1.16 1.16 0 0 1 .75 0c.206.083.037.151-.375.151-.413 0-.582-.068-.375-.15z" fill="#8f8f8f"/><path d="M136.724 152.966c0-.413.068-.581.151-.375.084.206.084.544 0 .75-.083.206-.151.037-.151-.375zm.928-1.95c.003-.66.065-.895.137-.522.072.373.069.913-.006 1.2-.075.287-.134-.018-.13-.678zm-5.152-.625c.015-.35.086-.42.182-.181.086.216.076.475-.024.575-.1.1-.17-.078-.158-.394zm.82-.63c.217-.087.476-.076.575.024.1.1-.077.17-.393.157-.35-.014-.42-.085-.182-.181zm49.482-6.594a1.16 1.16 0 0 1 .75 0c.206.083.037.151-.375.151-.413 0-.582-.068-.375-.15zm-13.294-13.451c0-4.455.042-6.32.093-4.143.05 2.176.051 5.821 0 8.1-.051 2.278-.093.498-.093-3.957zm4.012-21.355c.217-.087.476-.076.575.024.1.1-.077.17-.393.157-.35-.014-.42-.085-.182-.181zm-60.405-28.895c0-7.838.039-11.044.086-7.125.048 3.919.048 10.331 0 14.25-.047 3.919-.086.712-.086-7.125zm149.077-.6c0-2.063.048-2.906.107-1.875a40.018 40.018 0 0 1 0 3.75c-.059 1.031-.107.187-.107-1.875zM135.5 81.69c.015-.35.086-.42.182-.181.086.216.076.475-.024.575-.1.1-.17-.078-.158-.394zm-46.093-8.975c0-4.125.042-5.854.094-3.843a182.04 182.04 0 0 1 0 7.5c-.052 2.114-.094.468-.094-3.657zM48 60.266c0-2.888.045-4.069.1-2.625a83.559 83.559 0 0 1 0 5.25c-.055 1.444-.1.262-.1-2.625zm185.4 0c0-2.888.045-4.069.1-2.625a83.543 83.543 0 0 1 0 5.25c-.055 1.444-.1.262-.1-2.625zM27.552 35.74c14.478-.043 38.17-.043 52.65 0 14.478.043 2.632.078-26.325.078-28.958 0-40.804-.035-26.325-.078zm171.3 0c14.478-.043 38.17-.043 52.65 0 14.478.043 2.632.078-26.325.078-28.958 0-40.804-.035-26.325-.078zm-64.65-5.074a1.16 1.16 0 0 1 .75 0c.206.083.037.151-.375.151-.413 0-.582-.068-.375-.15zm9 0a1.16 1.16 0 0 1 .75 0c.206.083.037.151-.375.151-.413 0-.582-.068-.375-.15zm-85.978-8.801c0-.413.068-.581.151-.375.084.206.084.544 0 .75-.083.206-.151.037-.151-.375zm34.811-11.25c.006-.495.073-.661.15-.37.076.292.07.697-.012.9-.082.204-.144-.035-.138-.53zm44.758-6.578c-.09-.236-.104-.742-.03-1.125.102-.54.141-.48.173.263.04.95.058.96 1.766 1.068l1.725.108-1.735.057c-1.265.041-1.779-.059-1.898-.371zM129.2 1.59c.015-.35.086-.42.182-.181.086.216.076.475-.024.575-.1.1-.17-.078-.158-.394zm4.702-1.524a1.16 1.16 0 0 1 .75 0c.206.083.037.151-.375.151-.413 0-.582-.068-.375-.15z" fill="#757575"/><path d="M146.82 158.16c.217-.086.476-.075.575.025.1.1-.077.17-.393.157-.35-.014-.42-.085-.182-.181zm-24.074-1.982c.113-.296.28-.462.373-.37.092.092 0 .334-.205.538-.296.294-.33.26-.168-.168zm25.274-6.717c.217-.087.476-.076.575.024.1.1-.077.17-.393.157-.35-.014-.42-.085-.182-.181zm-63.196-7.295c0-.413.068-.581.151-.375.084.206.084.544 0 .75-.083.206-.151.037-.151-.375zm89.733-33.808c.292-.076.697-.071.9.011.203.082-.035.144-.53.138-.495-.006-.662-.073-.37-.15zm9.65-7.292c0-4.208.042-5.929.094-3.825a191.27 191.27 0 0 1 0 7.65c-.052 2.104-.094.382-.094-3.825zm51.293-2.4c0-2.888.045-4.069.1-2.625a83.543 83.543 0 0 1 0 5.25c-.055 1.444-.1.262-.1-2.625zM28.514 77.816c0-6.93.04-9.722.087-6.205a550.58 550.58 0 0 1 0 12.6c-.048 3.413-.087.535-.087-6.395zm185.4 0c0-6.93.04-9.722.087-6.205.048 3.517.048 9.187 0 12.6-.048 3.413-.087.535-.087-6.395zm-58.803 1.65c0-5.528.04-7.789.09-5.025.05 2.764.05 7.286 0 10.05-.05 2.764-.09.502-.09-5.025zm-19.538 0c0-1.073.054-1.511.12-.975a9.54 9.54 0 0 1 0 1.95c-.066.536-.12.097-.12-.975zM23.7 60.266c0-2.888.045-4.069.1-2.625a83.559 83.559 0 0 1 0 5.25c-.055 1.444-.1.262-.1-2.625zm185.4 0c0-2.888.045-4.069.1-2.625a83.543 83.543 0 0 1 0 5.25c-.055 1.444-.1.262-.1-2.625zm26.4 0c0-2.888.045-4.069.1-2.625a83.543 83.543 0 0 1 0 5.25c-.055 1.444-.1.262-.1-2.625zm-63.009-20.85c0-1.98.05-2.751.108-1.713a36.579 36.579 0 0 1-.001 3.6c-.06.942-.107.093-.107-1.887zm-39.49-8.749a1.16 1.16 0 0 1 .75 0c.207.083.038.151-.374.151-.413 0-.582-.068-.375-.15zm11.556-.01c.292-.075.697-.07.9.012.203.082-.035.144-.53.138-.495-.006-.662-.073-.37-.15zm-76.28-4.704c0-.063.236-.299.525-.525.475-.374.486-.363.113.113-.392.5-.638.658-.638.412zm23.781-13.387c0-.743.059-1.046.13-.675.072.371.072.979 0 1.35-.071.371-.13.067-.13-.675zm87.242-.775c.015-.35.086-.42.182-.181.086.216.076.475-.024.575-.1.1-.17-.078-.158-.394zm-21.98-2.13c.217-.087.476-.076.575.024.1.1-.077.17-.393.157-.35-.014-.42-.085-.182-.181zm-5.643-1.595c-.27-.175-.308-.293-.093-.296a.7.7 0 0 1 .543.296c.23.372.126.372-.45 0zm-16.753-1.2c0-.413.068-.581.151-.375.084.206.084.544 0 .75-.083.206-.151.037-.151-.375zM164.3 4.89c.015-.35.086-.42.182-.181.086.216.076.475-.024.575-.1.1-.17-.078-.158-.394zm-33.6-.3c.015-.35.086-.42.182-.181.086.216.076.475-.024.575-.1.1-.17-.078-.158-.394zm4.856-4.54c.456-.07 1.13-.068 1.5.004.369.07-.004.127-.83.125-.824-.002-1.126-.06-.67-.13z" fill="#535353"/><path d="M166.638 156.64c-.373-.475-.362-.486.114-.112.288.226.525.462.525.525 0 .246-.247.088-.639-.412zm-66.036-.873a1.16 1.16 0 0 1 .75 0c.206.083.037.151-.375.151-.413 0-.582-.068-.375-.15zm103.575-9.814c0-.063.236-.299.525-.525.475-.374.486-.363.113.113-.392.5-.638.658-.638.412zm1.558-3.337c.006-.495.074-.661.15-.37.076.292.07.697-.012.9-.082.204-.144-.035-.138-.53zm-12.035-.925c.015-.35.086-.42.182-.181.086.216.076.475-.024.575-.1.1-.17-.078-.158-.394zm-110.162-2.75c-.373-.476-.362-.487.114-.113.288.226.525.462.525.525 0 .246-.247.088-.639-.412zm25.37-9.225c0-4.455.042-6.32.093-4.143.05 2.176.051 5.821 0 8.1-.051 2.278-.093.498-.093-3.957zM72.126 114.64c38.335-.042 100.975-.042 139.2 0 38.225.042 6.86.076-69.7.076s-107.835-.034-69.5-.076zm104.226-6.29a6.63 6.63 0 0 1 1.65 0c.453.069.082.125-.825.125-.908 0-1.28-.056-.825-.125zm-7.932-.29c.217-.087.476-.076.575.024.1.1-.077.17-.393.157-.35-.014-.42-.085-.182-.181zm-146.7-3.6c.217-.087.476-.076.575.024.1.1-.077.17-.393.157-.35-.014-.42-.085-.182-.181zm4.5 0c.217-.087.476-.076.575.024.1.1-.077.17-.393.157-.35-.014-.42-.085-.182-.181zm180.9 0c.217-.087.476-.076.575.024.1.1-.077.17-.393.157-.35-.014-.42-.085-.182-.181zm4.5 0c.217-.087.476-.076.575.024.1.1-.077.17-.393.157-.35-.014-.42-.085-.182-.181zM39.477 99.716c.387-.413.772-.75.854-.75.083 0-.167.337-.554.75-.388.412-.772.75-.855.75-.082 0 .167-.338.555-.75zm185.4 0c.387-.413.772-.75.854-.75.083 0-.167.337-.554.75-.388.412-.772.75-.855.75-.082 0 .167-.338.555-.75zm-94.362-20.25c0-7.838.039-11.044.086-7.125.048 3.919.048 10.331 0 14.25-.047 3.919-.086.712-.086-7.125zm133.784 9.15c0-2.805.045-3.993.1-2.64a78.387 78.387 0 0 1 .001 5.1c-.055 1.452-.1.345-.1-2.46zm-102.122 4.237c0-.063.236-.299.525-.525.475-.374.486-.363.113.113-.392.5-.638.658-.638.412zM44 88.59c.015-.35.086-.42.182-.181.086.216.076.475-.024.575-.1.1-.17-.078-.158-.394zm185.4 0c.015-.35.086-.42.182-.181.086.216.076.475-.024.575-.1.1-.17-.078-.158-.394zM3.824 87.866c0-.413.068-.581.151-.375.084.206.084.544 0 .75-.083.206-.151.037-.151-.375zm185.4 0c0-.413.068-.581.151-.375.084.206.084.544 0 .75-.083.206-.151.037-.151-.375zm75.073-18.15c0-2.475.047-3.448.103-2.161a59.572 59.572 0 0 1-.001 4.5c-.057 1.188-.103.136-.103-2.34zM162.438 66.34c-.373-.476-.362-.487.114-.113.5.391.658.638.411.638-.062 0-.298-.236-.525-.525zM107.4 60.266c0-2.888.045-4.069.1-2.625a83.543 83.543 0 0 1 0 5.25c-.055 1.444-.1.262-.1-2.625zm49.62-5.905c.217-.087.476-.076.575.024.1.1-.077.17-.393.157-.35-.014-.42-.085-.182-.181zm4.182.006a1.16 1.16 0 0 1 .75 0c.206.083.037.151-.375.151-.413 0-.582-.068-.375-.151zm-54.71-14.951c0-1.98.048-2.751.107-1.713a36.579 36.579 0 0 1-.001 3.6c-.06.942-.107.093-.107-1.887zm24.86-8.757a2.463 2.463 0 0 1 1.05 0c.288.075.052.137-.525.137-.578 0-.814-.062-.525-.137zm14.7 0a2.463 2.463 0 0 1 1.05 0c.288.075.052.137-.525.137-.578 0-.814-.062-.525-.137zm64.986-4.218c-.373-.476-.362-.487.114-.113.5.391.658.638.411.638-.062 0-.298-.236-.525-.525zM92.035 14.516c.006-.495.073-.661.15-.37.076.292.07.697-.012.9-.082.204-.144-.035-.138-.53zM179.3 12.69c.015-.35.086-.42.182-.181.086.216.076.475-.024.575-.1.1-.17-.078-.158-.394zm-15.786-.145c-.108-.176-.133-.384-.055-.463.08-.079.223.065.321.32.203.529.03.621-.266.143zm-23.437-3.88c0-1.238.053-1.744.118-1.125s.065 1.631 0 2.25-.118.112-.118-1.125zM130.1 9.69c.015-.35.086-.42.182-.181.086.216.076.475-.024.575-.1.1-.17-.078-.158-.394zm5.757-.933c.292-.076.697-.071.9.011.203.082-.035.144-.53.138-.495-.006-.662-.073-.37-.15zm-.933-.692c0-.413.068-.581.151-.375.084.206.084.544 0 .75-.083.206-.151.037-.151-.375zm32.353-.413c0-.063.236-.299.525-.525.475-.374.486-.363.113.113-.392.5-.638.658-.638.412zM149.9 5.49c.015-.35.086-.42.182-.181.086.216.076.475-.024.575-.1.1-.17-.078-.158-.394zm-19.176-1.925c0-.413.068-.581.151-.375.084.206.084.544 0 .75-.083.206-.151.037-.151-.375zm9.322-.3c0-.578.062-.814.137-.525.076.289.076.761 0 1.05-.075.289-.137.052-.137-.525zM124.296.829c.204-.205.446-.298.539-.205.092.092-.075.26-.37.373-.428.162-.462.128-.168-.168zm13.806-.775a4.274 4.274 0 0 1 1.35 0c.37.072.067.13-.675.13-.743 0-1.047-.058-.675-.13z" fill="#2f2f2f"/><path d="M130.396 157.6c-1.059-1.74-2.037-3.233-2.172-3.317-.136-.084-.247.378-.247 1.028 0 .649-.085 1.602-.188 2.117-.148.743-.086.938.3.938.36 0 .488.284.488 1.09v1.088l-1.125-.186a17.978 17.978 0 0 0-2.325-.193c-.66-.004-1.352-.108-1.537-.229-.472-.309-.161-2.17.33-1.98.437.166.62-.664.925-4.165.165-1.901.125-2.325-.223-2.325-.312 0-.391-.29-.298-1.09l.128-1.09 1.987.188c1.093.103 2.262.189 2.597.19.448 0 1.033.718 2.21 2.706.88 1.487 1.72 2.777 1.866 2.868.145.09.265-.587.265-1.504 0-.918-.135-1.668-.3-1.668-.165 0-.3-.473-.3-1.05v-1.05h4.8v1.05c0 .733-.136 1.05-.45 1.05-.38 0-.45.683-.45 4.35v4.35h-4.356l-1.925-3.165zm13.63 2.902c-.837-.179-.9-.285-.9-1.54v-1.346l1.455-.093c1.087-.07 1.546.034 1.82.408.469.642 1.526.45 1.526-.278 0-.41-.508-.737-1.95-1.257-2.188-.79-3.3-1.844-3.3-3.127 0-2.66 1.85-3.746 6.038-3.546 1.455.07 2.704.187 2.776.26.071.073.176.673.233 1.333l.103 1.2-1.18.096c-.649.053-1.484-.066-1.855-.265-.775-.414-1.615-.196-1.615.42 0 .257.698.616 1.802.925 2.435.684 3.316 1.487 3.51 3.198.285 2.53-1.747 3.913-5.647 3.84-1.054-.02-2.32-.122-2.815-.228zm12.046-1.286c-.298-1.115-.23-1.45.298-1.45.433 0 .469-.292.293-2.396-.3-3.604-.466-4.204-1.159-4.204-.438 0-.558.151-.45.567.12.457-.057.6-.923.74-.59.096-1.133.114-1.207.04-.074-.074-.198-.794-.275-1.602l-.141-1.467 1.76-.203c.967-.11 3.288-.415 5.156-.676 1.932-.27 3.504-.36 3.644-.212.136.145.337.819.447 1.498.182 1.118.135 1.252-.494 1.42-1.148.308-1.744.22-1.744-.255 0-.259-.271-.45-.638-.45-.535 0-.611.133-.475.825.09.454.325 1.943.523 3.309.313 2.153.432 2.461.89 2.316.416-.132.56.043.676.816.08.541.013 1.07-.151 1.174-.165.105-1.126.28-2.137.387a55.54 55.54 0 0 0-2.772.36c-.792.14-.961.058-1.12-.537zm-39.75.045c-3.766-.791-5.253-3.408-4.13-7.27.572-1.968 1.988-3.386 3.703-3.708 1.317-.248 4.224.194 5.895.896l1.164.488-.208 1.57c-.115.862-.247 1.606-.293 1.653-.047.046-.814-.02-1.706-.15-1.356-.194-1.626-.335-1.652-.862-.018-.347-.127-.784-.243-.971-.258-.417-1.571-.452-1.82-.05-.316.511-1.037 5.108-.87 5.544.374.975 2.215.866 2.215-.13 0-.305-.157-.607-.348-.67-.222-.075-.272-.417-.138-.95.193-.767.298-.82 1.322-.668.613.092 1.765.255 2.562.362 1.382.187 1.439.232 1.25.983-.108.434-.388.896-.622 1.028-.254.143-.426.711-.426 1.407 0 .642-.15 1.26-.332 1.372-.548.34-3.928.42-5.322.126zm-9.068-1.92l-2.872-.625.256-.975c.14-.536.45-.975.686-.975.426 0 .71-.786 1.35-3.75.179-.825.396-1.736.484-2.025.104-.342-.002-.525-.304-.525-.36 0-.421-.216-.277-.975.102-.536.23-1.027.283-1.09.092-.11 5.249.875 5.47 1.043.271.206-.35 1.922-.695 1.922-.5 0-.555.16-1.24 3.575-.44 2.194-.484 2.853-.193 2.95.408.136.498 1.229.145 1.75-.154.228-1.081.138-3.093-.3zm60.773.139c-1.37-.566-1.977-1.675-2.482-4.524-.37-2.09-.619-2.812-1-2.912-.397-.103-1-1.779-.751-2.085.074-.09 4.498-.993 4.87-.993.412 0 .837 1.908.454 2.036-.362.12.799 5.5 1.299 6.018.598.621 1.771-.094 1.55-.944-.093-.352-.395-1.69-.673-2.975-.327-1.517-.647-2.335-.91-2.335-.224 0-.407-.26-.407-.576 0-.316-.075-.77-.167-1.008-.126-.33.414-.58 2.25-1.04l2.417-.608.247.941c.172.656.131 1.032-.135 1.24-.304.24-.237.888.33 3.208.787 3.222.734 3.907-.396 5.125-1.244 1.34-4.814 2.127-6.496 1.432zm-70.067-2.25c-1.926-.709-3.583-1.67-3.583-2.075 0-.428.603-2.29.741-2.29.608 0 2.759 1.053 3.075 1.505.464.662 1.428.791 1.77.237.137-.222-.224-.707-.951-1.275-2.338-1.826-2.835-2.52-2.835-3.962 0-1.5.851-2.63 2.243-2.98 1.508-.378 6.119.996 7.03 2.095.184.22.208.718.062 1.249-.22.799-.351.875-1.392.81-.674-.043-1.426-.333-1.82-.702-.668-.628-1.644-.696-1.812-.126-.048.165.609.772 1.46 1.35 2.716 1.841 3.327 4.128 1.572 5.883-.61.61-.998.714-2.605.696-1.039-.012-2.368-.198-2.955-.414zm79.658-.502c-.14-.637-.08-1.015.188-1.18.325-.201.323-.524-.01-1.838-.852-3.357-1.255-4.444-1.649-4.444-.439 0-.77-.634-.77-1.473 0-.41.73-.727 3.4-1.475 4.139-1.158 5.397-1.2 6.834-.222 2.124 1.443 3.205 5.802 1.88 7.577-.33.443-.935 1.054-1.342 1.358-.665.497-7.11 2.624-7.974 2.632-.193.002-.443-.419-.557-.935zm6.44-3.667c-.01-.355-.382-1.658-.825-2.895-.664-1.852-.932-2.268-1.516-2.35-1.285-.182-1.336.323-.357 3.496l.931 3.018.893-.312c.629-.219.887-.502.874-.957zm-96.066.733c-2.604-.96-4.8-1.812-4.88-1.892-.317-.317.632-1.899 1.084-1.808.672.135 2.893-5.461 2.402-6.052-.253-.305-.248-.608.018-1.193.196-.43.437-.783.534-.783.097 0 2.027.675 4.289 1.5 2.262.825 4.253 1.5 4.425 1.5.432 0 .394.439-.2 2.323-.556 1.763-.722 1.822-2.86 1.007-.751-.286-.792-.38-.473-1.08.404-.885.133-1.292-.941-1.417-.59-.068-.778.1-1.015.9-.24.817-.198 1.051.255 1.382.776.568.382 1.455-.544 1.223-.617-.155-.749-.024-1.077 1.072-.206.686-.321 1.301-.256 1.366.064.065.532.2 1.04.302.844.169.94.106 1.127-.747.237-1.08.224-1.076 2.008-.468l1.357.462-.614 2.088c-.338 1.148-.69 2.081-.78 2.075-.09-.007-2.295-.799-4.899-1.76zm101.831-.923c-.244-.7-.22-.946.11-1.13.627-.351-1.522-6.075-2.28-6.075-.346 0-.599-.318-.731-.922-.111-.506-.156-.96-.099-1.006.16-.13 4.25-1.633 4.718-1.733.231-.05.597.343.826.886.363.86.356.975-.06.975-.56 0-.484.295.986 3.807.705 1.685 1.156 2.408 1.433 2.302.412-.159 1.05.725 1.05 1.455 0 .345-4.582 2.336-5.376 2.336-.146 0-.405-.403-.577-.895zm-111.206-2.975c-.5-.125-2.417-.944-4.261-1.82l-3.353-1.591.445-.86c.26-.503.688-.86 1.033-.86.817 0 3.496-5.246 2.99-5.855-.293-.354-.085-1.213.455-1.877.037-.046 1.605.64 3.484 1.523 4.315 2.028 5.368 3.088 5.364 5.395-.004 1.929-1.075 4.373-2.298 5.244-1.029.732-2.593 1.017-3.859.7zm1.399-5.099c.61-1.385 1.045-2.684.967-2.887-.078-.202-.437-.507-.799-.676-.615-.288-.747-.121-2.054 2.587-1.269 2.63-1.351 2.93-.902 3.281 1.037.81 1.635.316 2.788-2.305zm116.967 4.71c-1.83-.941-3.006-3.16-3.006-5.665 0-1.552.112-1.884.972-2.863 1.946-2.216 5.898-3.221 7.78-1.98 1.805 1.19 2.948 3.422 2.948 5.756 0 1.304-.143 1.668-1.053 2.674-1.123 1.243-3.22 2.303-5.128 2.593-.883.134-1.498.008-2.513-.514zm4.213-2.352c.833-.445.727-1.184-.535-3.734-.894-1.806-1.25-2.255-1.79-2.255-1.261 0-1.34.896-.282 3.217.905 1.987 1.579 3.083 1.894 3.083.073 0 .394-.14.713-.31zm-92.12-15.44v-7.95H2.577v-6.9h278.1v6.9h-111.3v15.9h-60.3v-7.95zm63.293-21.472c-15.936-.565-24.11-2.985-29.842-8.835-3.117-3.18-5.032-6.724-6.045-11.186-.715-3.148-.88-11.598-.297-15.273.9-5.684 3.263-10.51 6.585-13.444 4.268-3.771 11.937-5.69 19.81-4.956 12.159 1.134 18.85 7.404 20.309 19.032.923 7.361-.826 13.453-5.163 17.98-.721.752-1.264 1.512-1.205 1.687.067.201 1.472.318 3.83.318h3.726v15l-2.625-.047a742.89 742.89 0 0 1-9.083-.276zm-10.454-15.147c1.694-.876 1.762-1.396 1.762-13.63 0-12.317-.058-12.75-1.824-13.662-.71-.368-1.49-.469-2.913-.378-1.72.11-2.038.23-2.779 1.059-1.158 1.297-1.244 2.394-1.131 14.384.093 9.863.12 10.286.726 11.1.345.466.953 1.014 1.35 1.217 1.012.52 3.727.47 4.81-.09zM20.183 104.338c-6.439-.68-10.674-2.852-13.338-6.84-2.637-3.95-3.056-6.915-3.063-21.707l-.005-10.425h-3.6v-10.2h23.4v10.2h-2.4v12.78c0 13.901.048 14.335 1.678 15.078 1.106.504 3.473.422 4.287-.147 1.48-1.038 1.535-1.57 1.535-15.102v-12.61h-2.7v-10.2h21.9v10.2h-3.549l-.132 12.526c-.11 10.463-.214 12.843-.636 14.459-.825 3.166-2.168 5.54-4.214 7.448-2.955 2.758-6.055 3.976-11.607 4.561-3.173.334-4.223.332-7.556-.02zm185.4 0c-6.439-.68-10.674-2.852-13.338-6.84-2.637-3.95-3.056-6.915-3.063-21.707l-.005-10.425h-3.6v-10.2h23.4v10.2h-2.4v12.78c0 13.901.048 14.335 1.678 15.078 1.106.504 3.473.422 4.287-.147 1.48-1.038 1.535-1.57 1.535-15.102v-12.61h-2.7v-10.2h21.9v10.2h-3.549l-.132 12.526c-.11 10.463-.214 12.843-.635 14.459-.826 3.166-2.169 5.54-4.214 7.448-2.956 2.758-6.056 3.976-11.608 4.561-3.173.334-4.223.332-7.556-.02zM49.977 98.666v-5.1h3.6v-28.2h-3.6v-10.2l11.475.007 11.475.007 8.1 12.435c4.455 6.839 8.2 12.438 8.325 12.443.123.005.225-3.3.225-7.342v-7.35h-3.9v-10.2h21.6v10.2h-3.6v38.4H86.35l-9.071-13.95c-4.99-7.673-9.124-13.95-9.188-13.95-.063 0-.115 3.982-.115 8.85v8.85h3.6v10.2h-21.6v-5.1zm59.4 0v-5.1h3.9v-28.2h-3.9v-10.2h24.9v10.2h-3.9v28.2h3.9v10.2h-24.9v-5.1zm126.3 0v-5.1h3.6v-28.2h-3.6v-10.2h42.6v18.9h-13.8v-8.7h-7.8v9.9h5.4v7.2h-5.4v11.1h7.8v-9.9h13.8v20.1h-42.6v-5.1zm-102.58-57.957c.825-2.341 1.435-4.426 1.356-4.634-.08-.207-1.772-1.466-3.76-2.799-1.99-1.332-3.616-2.491-3.616-2.576 0-.084 2.115-.115 4.7-.069l4.7.085 1.27-4.295c.698-2.362 1.33-4.356 1.405-4.43.075-.076.72 1.91 1.435 4.41l1.299 4.549 4.82-.21c2.897-.127 4.7-.102 4.52.062-.164.15-1.957 1.4-3.984 2.778-2.724 1.853-3.635 2.627-3.498 2.97.605 1.517 2.833 7.933 2.833 8.16 0 .15-1.317-.751-2.925-2.002a291.9 291.9 0 0 0-3.718-2.855l-.792-.582-3.669 2.848c-2.018 1.566-3.716 2.847-3.773 2.847-.057 0 .571-1.916 1.397-4.257zM1.377 39.416v-3.45h105v6.9h-105v-3.45zm171.3 0v-3.45h105v6.9h-105v-3.45zm42.1-10.97a8.736 8.736 0 0 1-3.262-1.866c-1.27-1.149-1.429-1.44-1.565-2.852-.128-1.339-.01-1.859.798-3.499 1.677-3.407 3.926-4.025 7.726-2.123 1.144.571 2.4 1.381 2.792 1.799l.714.76-.703 1.5c-.387.825-.811 1.5-.944 1.5-.132 0-.855-.298-1.606-.663-.992-.482-1.313-.79-1.174-1.125.484-1.164.455-1.473-.172-1.809-.996-.533-1.393-.208-2.544 2.077-1.219 2.42-1.31 3.166-.441 3.631.704.377 1.335.02 1.636-.926.168-.532.262-.52 1.784.226l1.606.788-.785 1.6c-.899 1.833-1.053 1.872-3.86.982zm-153.85-.63c-1.186-.656-2.042-1.625-2.737-3.1-1.147-2.432-.866-4.47.834-6.058.972-.907 3.724-2.109 5.377-2.347l1.374-.198.654 1.573c.36.866.618 1.604.576 1.64-.285.241-2.66 1.34-2.896 1.34-.16 0-.374-.258-.474-.572-.1-.315-.388-.652-.642-.75-.611-.234-1.616.326-1.616.902 0 .834 2.053 4.92 2.572 5.12 1.096.42 1.767-.712 1.203-2.032-.159-.37.15-.635 1.338-1.145.85-.366 1.582-.622 1.627-.57.045.054.372.762.727 1.574l.645 1.477-.82.857c-1.951 2.035-6.023 3.24-7.742 2.289zm144.381-3.658c-1.275-.538-2.389-1.05-2.476-1.137-.327-.327.488-1.982.957-1.944.656.053 2.925-5.435 2.472-5.98-.377-.454-.054-1.93.423-1.936.189-.002 1.519.487 2.956 1.087l2.614 1.09-.427.826c-.234.454-.675.89-.979.97-.739.193-3.039 5.581-2.52 5.902.268.165.274.456.023 1.175-.183.525-.421.948-.529.94-.107-.008-1.239-.455-2.514-.993zm-134.945-.079c-.203-.532-.198-.908.014-1.163.44-.53-2.018-6.246-2.591-6.026-.357.137-1.524-1.513-1.257-1.775.054-.053 1.821-.783 3.928-1.622 4.92-1.962 6.378-1.986 7.37-.122.428.803.46 2.691.05 2.945-.512.316-.332.704.375.804.416.06.847.467 1.125 1.066.247.534.608.913.802.844.308-.112 1.15 1.583.908 1.826-.051.05-.987.429-2.08.84l-1.986.748-.71-1.864c-.557-1.46-.862-1.886-1.407-1.965-.383-.055-.836.039-1.005.209-.447.447.317 2.142.966 2.142.571 0 1.379 1.463 1.001 1.813-.285.264-4.623 2.087-4.966 2.087-.131 0-.373-.354-.537-.787zm3.742-7.185c.564-.563.559-.508.123-1.464-.355-.78-.978-.96-1.711-.495-.334.211-.344.461-.052 1.345.386 1.171.894 1.361 1.64.614zm125.122 4.89c-1.32-.507-2.435-.944-2.477-.971-.236-.153.647-1.947.958-1.947.383 0 1.069-1.228 1.069-1.914 0-.212-.476-.531-1.057-.71-1.036-.318-1.066-.303-1.502.742-.31.742-.352 1.178-.137 1.437.329.396-.086 1.945-.52 1.945-.752 0-4.884-1.609-4.88-1.9.01-.916.408-1.703.824-1.63.675.118 2.65-5.793 2.079-6.22-.289-.216-.331-.568-.152-1.253l.25-.953 2.772.92c1.525.506 2.804.944 2.842.973.23.173-.72 1.963-1.043 1.963-.352 0-.976 1.147-.976 1.796 0 .254 2.075 1.061 2.209.859.51-.773.773-1.88.489-2.056-.352-.218-.118-1.69.311-1.955.387-.24 5.392 1.676 5.38 2.06-.019.601-.723 1.546-1.153 1.546-.608 0-2.834 5.831-2.303 6.035.312.12.33.377.082 1.184-.174.567-.395 1.017-.49 1-.097-.016-1.255-.444-2.575-.951zm-117.604-2.12c-.342-.807-.338-.963.026-1.045.569-.13.576-.085-.59-3.353-.669-1.875-1.188-2.885-1.517-2.95-.567-.114-1.211-1.53-.852-1.873.418-.398 9.096-3.038 9.49-2.887.21.08.593.912.854 1.849l.474 1.702-.79.301c-.436.166-1.149.373-1.586.461-.69.139-.82.042-.991-.739-.192-.871-.229-.888-1.242-.577-.707.217-.993.458-.883.745.09.233.244.747.344 1.143.143.57.323.685.858.55.465-.117.737-.014.869.33.238.62-.005 1.045-.598 1.045-.458 0-.425.3.22 2.025.29.777.274.772 1.318.375.79-.301.81-.467.24-1.99-.095-.254 2.163-1.31 2.799-1.31.116 0 1.305 4.006 1.215 4.096-.041.04-2.14.743-4.665 1.562l-4.59 1.488-.403-.948zm10.242-3.231c-.109-.544-.064-1.058.1-1.16.165-.102.331-2.14.378-4.651l.084-4.469 2.1-.537c3.324-.85 3.049-1.015 5.453 3.275 1.179 2.104 2.29 3.791 2.47 3.75.18-.041.347.262.372.675.024.412.058.91.075 1.105.017.21-1.01.583-2.497.91-2.025.443-2.575.477-2.77.169-.35-.55-.31-1.665.064-1.79.434-.145.015-1.144-.48-1.144-.946 0-1.978.618-1.88 1.126.055.288.257.524.447.524.463 0 .577.157.804 1.103.181.758.103.83-1.383 1.256-3.256.935-3.12.941-3.337-.142zm4.858-5.225c.127-.112-1.118-2.542-1.302-2.542-.08 0-.144.684-.144 1.52 0 1.438.036 1.509.675 1.313.37-.114.718-.245.77-.291zm86.19 5.394c-1.381-.391-2.558-.758-2.614-.814-.284-.284.434-1.864.817-1.799.636.108 2.163-6.136 1.58-6.462-.29-.163-.335-.477-.159-1.119.287-1.045.094-1.054 4.84.233 4.33 1.176 5.258 1.915 5.022 4.008-.173 1.532-1.07 2.693-2.285 2.956-.433.094-1.53-.023-2.437-.26-.907-.236-1.69-.39-1.738-.342-.048.049-.167.578-.264 1.176-.157.967-.106 1.087.468 1.087.551 0 .616.12.448.825-.366 1.53-.171 1.504-3.677.511zm5.363-5.984c.348-.915.136-1.547-.582-1.734-.409-.107-.62.116-.866.92-.375 1.223-.251 1.562.574 1.562.352 0 .704-.3.874-.748zm-12 4.426c-1.072-.248-1.996-.492-2.053-.543-.29-.258.359-1.935.748-1.935.29 0 .414-.233.351-.664-.137-.952-1.945-1.326-2.22-.46-.108.34-.032.696.175.824.579.358.076 2.161-.552 1.978-.274-.08-1.297-.287-2.272-.46-.976-.174-1.804-.35-1.84-.392-.216-.252.293-2.026.582-2.026.192 0 1.223-1.768 2.29-3.929l1.942-3.928 1.2.164c.66.09 1.889.312 2.731.494l1.532.33.192 2.46c.105 1.352.192 3.237.193 4.188 0 .95.156 1.977.346 2.28.19.306.255.903.144 1.346-.232.923-.568.95-3.488.273zm-.9-6.678c0-.825-.073-1.5-.164-1.5-.268 0-1.308 2.502-1.147 2.762.08.13.41.238.73.238.498 0 .582-.215.582-1.5zm-71.5 5.8c-.373-.374-.212-1.9.202-1.9.32 0 .279-.627-.212-3.15-.506-2.604-.705-3.15-1.15-3.15-.338 0-.54.222-.54.594 0 .405-.263.652-.824.775-.454.1-.978.227-1.165.283-.278.083-1.124-2.829-.892-3.069.063-.064 7.966-1.632 10.117-2.007l1.086-.189.204 1.542c.113.847.164 1.575.115 1.616-.05.041-.597.167-1.215.279-.903.163-1.125.111-1.125-.26 0-.273-.263-.464-.638-.464-.534 0-.611.133-.477.825.088.454.334 1.871.546 3.15.307 1.852.49 2.325.903 2.325.334 0 .59.327.72.921.112.507.147.977.08 1.045-.133.132-4.673 1.034-5.21 1.034-.178 0-.414-.09-.524-.2zm61.9-1.152l-1.95-.312.09-2.17c.087-2.113.068-2.178-.717-2.477-.443-.168-.848-.263-.9-.211-.052.052-.186.663-.297 1.358-.168 1.05-.12 1.264.286 1.264.51 0 .671 1.052.259 1.692-.35.543-5.847-.16-5.632-.72.09-.232.162-.68.162-.997 0-.316.185-.575.411-.575.44 0 .62-.829.96-4.425.178-1.882.141-2.175-.275-2.175-.381 0-.443-.203-.296-.975.102-.536.22-1.018.262-1.07.135-.167 7.456.85 8.462 1.175 2.053.665 2.577 3.214.987 4.804-.885.885-.886.891-.295 1.482.418.418.537.814.405 1.342-.104.414-.032.938.16 1.17.224.269.263.728.109 1.276l-.24.857-1.95-.313zm-1.67-6.92c.859-.86.394-2.228-.757-2.228-.841 0-1.276 2.187-.497 2.501.62.25.761.22 1.253-.273zm-51.433 6.43c-.002-.224-.086-.712-.185-1.083-.134-.498-.053-.675.307-.675.526 0 .515-.208-.235-4.5-.24-1.373-.473-1.95-.787-1.95-.283 0-.48-.353-.54-.965-.105-1.085-.179-1.05 3.367-1.562 1.14-.164 2.187-.229 2.325-.143.474.292.285 1.92-.222 1.92-.355 0-.435.206-.316.825.087.454.24 1.567.34 2.475.293 2.66.472 3.3.923 3.3.235 0 .427.259.427.575 0 .317.075.77.166 1.01.127.331-.208.48-1.425.63-.875.11-2.165.278-2.866.375-.963.134-1.276.078-1.28-.231zm8.684-1.683c-1.588-4.304-2.896-7.272-3.205-7.273-.228-.001-.375-.41-.375-1.039 0-.934.095-1.053.975-1.204.536-.093 1.785-.2 2.775-.239 1.78-.07 1.8-.061 1.899.797.054.477-.07.972-.275 1.099-.29.18-.219.809.321 2.818.383 1.422.798 2.65.924 2.728.126.078.319-.906.429-2.185.11-1.28.265-2.563.346-2.852.094-.34-.02-.525-.324-.525-.656 0-.652-1.966.004-2.218.26-.1 1.34-.182 2.4-.182h1.925V1.59c0 .564-.126 1.07-.281 1.125-.155.055-.67 1.989-1.146 4.298l-.864 4.198-1.18.21c-.648.115-1.823.217-2.611.227-1.296.015-1.462-.062-1.737-.808zm28.22.508c-2.727-.56-4.027-2.297-4.018-5.367.009-3.338 1.333-5.086 4.205-5.554 1.371-.224 4.616.27 5.8.881.69.357.753.539.659 1.926l-.104 1.53-1.096-.003c-1.637-.006-2.446-.302-2.446-.894 0-.728-.73-1.268-1.556-1.15-.587.083-.723.341-.927 1.748-.509 3.512.134 5.481 1.508 4.616.692-.436.857-1.316.247-1.316-.503 0-.624-.797-.218-1.436.184-.291.836-.337 2.63-.188l2.386.2-.117 1.001c-.064.551-.271.973-.46.937-.208-.039-.379.487-.434 1.335-.05.782-.259 1.463-.472 1.545-.863.331-4.328.448-5.587.19zm-19.257-1.333c-.085-.724-.001-1.05.267-1.05.292 0 .39-.708.39-2.826 0-3.077-.145-3.774-.782-3.774-.278 0-.418-.353-.418-1.05V.266h5.25c5.912 0 5.435-.237 5.059 2.508l-.19 1.392h-1.46c-1.422 0-1.46-.024-1.46-.9 0-.829-.083-.9-1.05-.9-1.024 0-1.05.028-1.05 1.2 0 1.08.076 1.2.75 1.2.6 0 .75.15.75.75 0 .604-.148.75-.767.75-.717 0-.76.083-.675 1.275.087 1.197.152 1.28 1.068 1.369.955.092.975.07.975-1.125v-1.22h3v4.5h-9.535l-.122-1.05z"/></svg>