<svg xmlns="http://www.w3.org/2000/svg" viewBox="0 0 253.71689 178.80002" height="190.72" width="270.631"><path d="M215.503 176.55c.298-.33.61-.6.693-.6.082 0-.095.27-.393.6-.299.33-.61.6-.693.6-.083 0 .094-.27.393-.6zm-178.989-1.425c-.373-.476-.362-.486.114-.113.288.226.525.462.525.525 0 .247-.247.088-.639-.412zm175.539-.825c.387-.412.772-.75.854-.75.083 0-.167.338-.554.75-.388.413-.772.75-.855.75-.082 0 .167-.337.555-.75zm-172.539-1.875c-.373-.476-.362-.486.114-.113.5.392.658.638.411.638-.062 0-.298-.236-.525-.525zm167.835-7.275c0-1.072.054-1.511.12-.975a9.54 9.54 0 0 1 0 1.95c-.066.536-.12.098-.12-.975zM12.814 154.425c-.373-.476-.362-.486.114-.113.5.392.658.638.411.638-.062 0-.298-.236-.525-.525zm126.501-2.754c-.094-.154-.057-.35.083-.437.14-.087.255.039.255.28 0 .505-.095.55-.338.157zm93.738-2.571c.387-.412.772-.75.854-.75.083 0-.167.338-.554.75-.388.413-.772.75-.855.75-.082 0 .167-.337.555-.75zm-10.43-3.15c0-.577.06-.814.136-.525.076.289.076.761 0 1.05-.075.289-.137.053-.137-.525zm-35.47.187c0-.063.236-.299.525-.525.475-.373.486-.363.113.113-.392.5-.638.659-.638.412zM7.414 140.325c-.373-.476-.362-.486.114-.113.5.392.658.638.411.638-.062 0-.298-.236-.525-.525zM236.7 135.45c0-.412.068-.581.151-.375.084.206.084.544 0 .75-.083.206-.151.038-.151-.375zm-102.704-1.705c.217-.087.476-.076.575.024.1.1-.077.17-.393.157-.35-.014-.42-.085-.182-.18zm1.8 0c.217-.087.476-.076.575.024.1.1-.077.17-.393.157-.35-.014-.42-.085-.182-.18zm-75.393-3.395c.298-.33.61-.6.693-.6.082 0-.095.27-.393.6-.299.33-.61.6-.693.6-.083 0 .094-.27.393-.6zm117.3 0c.298-.33.61-.6.693-.6.082 0-.095.27-.393.6-.299.33-.61.6-.693.6-.083 0 .094-.27.393-.6zm-164.007-2.305c.217-.087.476-.076.575.024.1.1-.077.17-.393.157-.35-.014-.42-.085-.182-.18zm235.407-2.195c.298-.33.61-.6.693-.6.082 0-.095.27-.393.6-.299.33-.61.6-.693.6-.083 0 .094-.27.393-.6zm-109.21-21.9c0-9.157.038-12.904.084-8.325.047 4.579.047 12.071 0 16.65-.046 4.579-.084.833-.084-8.325zm103.66 14.587c0-.063.236-.299.525-.525.475-.373.486-.363.113.113-.392.5-.638.659-.638.412zm-232.331-8.975c.113-.296.28-.462.373-.37.092.092 0 .335-.205.538-.296.294-.33.26-.168-.168zm1.574-10.317c.217-.087.476-.076.575.024.1.1-.077.17-.393.157-.35-.014-.42-.085-.182-.18zm-8.822-2.87l-.571-.675.675.572c.634.537.811.778.571.778-.057 0-.36-.304-.675-.675zm237.948-1.513c.113-.296.28-.462.373-.37.092.092 0 .335-.205.538-.296.294-.33.26-.168-.168zM6.814 81.825c-.373-.476-.362-.486.114-.113.288.226.525.462.525.525 0 .247-.247.088-.639-.412zm218.4-13.2c-.373-.476-.362-.486.114-.113.288.226.525.462.525.525 0 .247-.247.088-.639-.412zm7.66-4.95l-.571-.675.675.572c.37.314.675.618.675.675 0 .24-.242.062-.779-.572zm-205.978-2.53c.217-.087.476-.076.575.024.1.1-.077.17-.393.157-.35-.014-.42-.085-.182-.18zm199.5 0c.217-.087.476-.076.575.024.1.1-.077.17-.393.157-.35-.014-.42-.085-.182-.18zm-155.48-1.874c-.095-.154-.058-.35.082-.437.14-.087.255.039.255.28 0 .505-.095.55-.338.157zm-51.942-4.596L18.403 54l.675.572c.634.537.811.778.571.778-.057 0-.36-.304-.675-.675zm33.779-.938c0-.063.236-.299.525-.525.475-.373.486-.363.113.113-.392.5-.638.659-.638.412zm-27.9-.88c0-.052.438-.491.975-.976l.975-.881-.881.975c-.822.909-1.07 1.113-1.07.881zM237.01 48.6c.006-.495.074-.661.15-.37.076.293.07.698-.012.9-.082.204-.144-.035-.138-.53zM25.476 47.075c.015-.35.086-.42.182-.181.086.216.076.475-.024.575-.1.1-.17-.078-.158-.394zm191.038-5.15c-.373-.476-.362-.486.114-.113.288.226.525.462.525.525 0 .247-.247.088-.639-.412zm14.439-2.025c.387-.412.772-.75.854-.75.083 0-.167.338-.554.75-.388.413-.772.75-.855.75-.082 0 .167-.337.555-.75z" fill="#d2d2d2"/><path d="M211.889 177.375l-1.186-1.275 1.275 1.186c.7.652 1.275 1.226 1.275 1.275 0 .227-.262 0-1.364-1.186zm2.264.525c.387-.412.772-.75.854-.75.083 0-.167.338-.554.75-.388.413-.772.75-.855.75-.082 0 .167-.337.555-.75zm-1.2-4.463c0-.063.236-.299.525-.525.475-.373.486-.363.113.113-.392.5-.638.659-.638.412zM47.149 165.15c0-1.072.054-1.511.12-.975a9.548 9.548 0 0 1 0 1.95c-.066.536-.12.098-.12-.975zm17.362-8.85c.006-.495.073-.661.15-.37.076.293.07.698-.012.9-.082.204-.144-.035-.138-.53zm18 0c.006-.495.074-.661.15-.37.076.293.07.698-.012.9-.082.204-.144-.035-.138-.53zm3.063-.147c.018-.485.215-.764.56-.795.336-.03.37.003.093.091-.241.076-.493.433-.56.794-.1.541-.117.525-.093-.09zm19.137.147c.006-.495.074-.661.15-.37.076.293.07.698-.012.9-.082.204-.144-.035-.138-.53zm50.1 0c.006-.495.073-.661.15-.37.076.293.07.698-.012.9-.082.204-.144-.035-.138-.53zm16.5 0c.006-.495.073-.661.15-.37.076.293.07.698-.012.9-.082.204-.144-.035-.138-.53zm13.5 0c.006-.495.073-.661.15-.37.076.293.07.698-.012.9-.082.204-.144-.035-.138-.53zm-84.715-.955c.217-.087.476-.076.575.024.1.1-.077.17-.393.157-.35-.014-.42-.085-.182-.18zm50.1 0c.217-.087.476-.076.575.024.1.1-.077.17-.393.157-.35-.014-.42-.085-.182-.18zm43.615-1.445c.006-.495.073-.661.15-.37.076.293.07.698-.012.9-.082.204-.144-.035-.138-.53zm1.832-7.35c0-.907.056-1.279.125-.825a6.63 6.63 0 0 1 0 1.65c-.07.454-.125.083-.125-.825zm7.935 1.301a1.16 1.16 0 0 1 .75 0c.206.084.037.152-.375.152-.413 0-.582-.068-.375-.152zm-117.75-1.508a2.462 2.462 0 0 1 1.05 0c.288.076.052.137-.525.137-.578 0-.814-.061-.525-.137zm4.205 0c.292-.077.697-.072.9.01.203.083-.035.145-.53.139-.495-.006-.662-.074-.37-.15zm84.278-1.143c.006-.495.073-.661.15-.37.076.293.07.698-.012.9-.082.204-.144-.035-.138-.53zm-39.415-11.455c.217-.086.476-.076.575.024.1.1-.077.17-.393.158-.35-.015-.42-.086-.182-.182zM213.071 129c0-2.31.048-3.215.105-2.012a51.261 51.261 0 0 1-.001 4.2c-.058 1.107-.104.122-.104-2.188zm-187.295 3.275c.015-.35.086-.42.182-.181.086.216.076.475-.024.575-.1.1-.17-.078-.158-.394zm.024-1.325c0-.412.068-.581.151-.375.084.206.084.544 0 .75-.083.206-.151.038-.151-.375zm-6.947-1.613c0-.063.236-.299.525-.525.475-.373.486-.363.113.113-.392.5-.638.659-.638.412zm-8.625-.994a2.463 2.463 0 0 1 1.05 0c.288.076.052.137-.525.137-.578 0-.814-.061-.525-.137zm3.006-4.893c0-.742.059-1.046.13-.675.072.371.072.979 0 1.35-.071.371-.13.068-.13-.675zm224.28-7.425c-.373-.476-.362-.486.114-.113.288.226.525.462.525.525 0 .247-.247.088-.639-.412zm-7.114-.675c0-.412.068-.581.151-.375.084.206.084.544 0 .75-.083.206-.151.038-.151-.375zm-139.287-6.825c-.06-.289-.041-8.017.043-17.175l.154-16.65.071 17.175c.04 9.446.02 17.175-.043 17.175-.064 0-.165-.236-.225-.525zm-79.217-9.28c.217-.087.476-.076.575.024.1.1-.077.17-.393.157-.35-.014-.42-.085-.182-.18zm229.2 0c.217-.087.476-.076.575.024.1.1-.077.17-.393.157-.35-.014-.42-.085-.182-.18zm.82-3.674c-.095-.154-.036-.364.132-.468.167-.104.305.022.305.28 0 .526-.18.604-.438.188zM1.175 88.775c.015-.35.086-.42.182-.181.086.216.076.475-.024.575-.1.1-.17-.078-.158-.394zm0-1.8c.015-.35.086-.42.182-.181.086.216.076.475-.024.575-.1.1-.17-.078-.158-.394zm243.877-.238c0-.063.236-.299.525-.525.475-.373.486-.363.113.113-.392.5-.638.659-.638.412zM22.903 82.35c.298-.33.61-.6.693-.6.082 0-.095.27-.393.6-.299.33-.61.6-.693.6-.083 0 .094-.27.393-.6zM213.07 78.9c0-2.31.048-3.215.105-2.012a51.261 51.261 0 0 1-.001 4.2c-.058 1.107-.104.122-.104-2.188zM13.453 81.15c0-.165.143-.3.317-.3.175 0 .235.135.133.3-.102.165-.245.3-.318.3-.073 0-.132-.135-.132-.3zm111.45-3.3c.298-.33.61-.6.693-.6.082 0-.095.27-.393.6-.299.33-.61.6-.693.6-.083 0 .094-.27.393-.6zm20.371-.075l-.571-.675.675.572c.634.537.811.778.571.778-.057 0-.36-.304-.675-.675zm96.029-9.825c.298-.33.61-.6.693-.6.082 0-.095.27-.393.6-.299.33-.61.6-.693.6-.083 0 .094-.27.393-.6zM96.91 63.9c.006-.495.073-.661.15-.37.076.293.07.698-.012.9-.082.204-.144-.035-.138-.53zm1.263-.147c.018-.485.215-.764.56-.795.336-.03.37.004.093.091-.241.076-.493.433-.56.795-.1.54-.117.524-.093-.091zm13.137.147c.006-.495.073-.661.15-.37.076.293.07.698-.012.9-.082.204-.144-.035-.138-.53zm65.1 0c.006-.495.074-.661.15-.37.076.293.07.698-.012.9-.082.204-.144-.035-.138-.53zm-158.135-.625c.015-.35.086-.42.182-.181.086.216.076.475-.024.575-.1.1-.17-.078-.158-.394zm74.02-.33c.217-.087.476-.076.575.024.1.1-.077.17-.393.157-.35-.014-.42-.085-.182-.18zM59.411 61.5c.006-.495.073-.661.15-.37.076.293.07.698-.012.9-.082.204-.144-.035-.138-.53zm23.411-3.15c0-.577.062-.814.137-.525.076.289.076.761 0 1.05-.075.289-.137.053-.137-.525zm50.1 0c0-.577.062-.814.137-.525.076.289.076.761 0 1.05-.075.289-.137.053-.137-.525zm26.7 0c0-.577.062-.814.137-.525.076.289.076.761 0 1.05-.075.289-.137.053-.137-.525zm-123.82-3.3c.3-.33.611-.6.694-.6.082 0-.095.27-.393.6-.299.33-.61.6-.693.6-.083 0 .094-.27.393-.6zm25.44-.9c0-.907.057-1.279.126-.825a6.627 6.627 0 0 1 0 1.65c-.07.454-.125.083-.125-.825zm106.936 1.301a1.16 1.16 0 0 1 .75 0c.206.084.037.152-.375.152-.413 0-.582-.068-.375-.152zm-152.964-.626c-.373-.476-.362-.486.114-.113.288.226.525.462.525.525 0 .247-.247.088-.639-.412zM81.6 54.75c0-.412.068-.581.151-.375.084.206.084.544 0 .75-.083.206-.151.038-.151-.375zm50.1 0c0-.412.068-.581.151-.375.084.206.084.544 0 .75-.083.206-.151.038-.151-.375zm26.7 0c0-.412.068-.581.151-.375.084.206.084.544 0 .75-.083.206-.151.038-.151-.375zm-74.657-1.2c0-.907.056-1.279.125-.825a6.63 6.63 0 0 1 0 1.65c-.07.454-.125.083-.125-.825zm50.1 0c0-.907.056-1.279.125-.825a6.63 6.63 0 0 1 0 1.65c-.07.454-.125.083-.125-.825zm26.7 0c0-.907.056-1.279.125-.825a6.63 6.63 0 0 1 0 1.65c-.07.454-.125.083-.125-.825zm-62.115.393a2.463 2.463 0 0 1 1.05 0c.288.076.052.137-.525.137-.578 0-.814-.061-.525-.137zm4.205-.001c.292-.076.697-.071.9.011.203.082-.035.145-.53.138-.495-.006-.662-.073-.37-.149zm-70.655-5.09c.206-.084.543-.084.75 0 .206.083.037.15-.375.15-.413 0-.582-.067-.375-.15zm188.855-.01c.292-.076.697-.07.9.011.203.082-.035.145-.53.139-.495-.007-.662-.074-.37-.15zM107.581 14.638c.373-.072.913-.07 1.2.006.287.075-.018.134-.678.13-.66-.003-.895-.064-.522-.136zm38.997 0a4.274 4.274 0 0 1 1.35 0c.37.072.067.13-.675.13-.743 0-1.047-.058-.675-.13z" fill="#b3b3b3"/><path d="M90.887 156.396c-.025-.592-.212-.83-.71-.9-.663-.094-.675-.167-.686-4.446l-.012-4.35.095 4.275c.09 4.047.127 4.275.696 4.275.673 0 1.005.59.793 1.407-.095.364-.152.278-.176-.261zm46.824-.096c.006-.495.074-.661.15-.37.076.293.07.698-.012.9-.082.204-.144-.035-.138-.53zm23.076.095c-.027-.637-.207-.831-.86-.93l-.824-.125.834-.045c.888-.048 1.262.45 1.026 1.362-.094.364-.152.277-.176-.262zm13.524-.095c.006-.495.073-.661.15-.37.076.293.07.698-.012.9-.082.204-.144-.035-.138-.53zm4.476.097c-.021-.493-.237-.856-.56-.94-.491-.129-.49-.14.01-.172.608-.04.932.573.725 1.372-.094.365-.152.28-.175-.26zM75.65 154.35c0-1.072.054-1.511.12-.975a9.54 9.54 0 0 1 0 1.95c-.066.536-.12.098-.12-.975zm53.7 0c0-1.072.054-1.511.12-.975a9.54 9.54 0 0 1 0 1.95c-.066.536-.12.098-.12-.975zm-65.553.995c.217-.087.476-.076.575.024.1.1-.077.17-.393.157-.35-.014-.42-.085-.182-.18zm18 0c.217-.087.476-.076.575.024.1.1-.077.17-.393.157-.35-.014-.42-.085-.182-.18zm14.024-.067c-.093-.15.102-.201.432-.115.7.183.79.387.168.387-.237 0-.508-.122-.6-.272zm7.8 0c-.093-.15.102-.201.432-.115.7.183.79.387.168.387-.237 0-.508-.122-.6-.272zm31.558.073a1.16 1.16 0 0 1 .75 0c.206.083.037.152-.375.152-.413 0-.582-.069-.375-.152zm6.618-.006c.217-.086.476-.076.575.024.1.1-.077.17-.393.158-.35-.015-.42-.086-.182-.182zm4.124-.067c-.093-.15.102-.201.432-.115.7.183.79.387.168.387-.237 0-.508-.122-.6-.272zm7.8 0c-.093-.15.102-.201.432-.115.7.183.79.387.168.387-.237 0-.508-.122-.6-.272zm16.876.067c.217-.086.476-.076.575.024.1.1-.077.17-.393.158-.35-.015-.42-.086-.182-.182zm13.5 0c.217-.086.476-.076.575.024.1.1-.077.17-.393.158-.35-.015-.42-.086-.182-.182zm16.782.006a1.16 1.16 0 0 1 .75 0c.206.083.037.152-.375.152-.413 0-.582-.069-.375-.152zm-91.195-.318c.54-.067 1.35-.066 1.8.003.45.068.01.123-.98.12-.99-.001-1.36-.057-.82-.124zm89.828-.833c.006-.495.074-.661.15-.37.076.293.07.698-.012.9-.082.204-.144-.035-.138-.53zm-87.3-.3c.006-.495.074-.661.15-.37.076.293.07.698-.012.9-.082.204-.144-.035-.138-.53zm91.165-.325c.015-.35.086-.42.182-.181.086.216.076.475-.024.575-.1.1-.17-.078-.158-.394zm-131.043-1.533c.292-.076.697-.071.9.011.203.082-.035.145-.53.139-.495-.006-.662-.074-.37-.15zm53.7 0c.292-.076.697-.071.9.011.203.082-.035.145-.53.139-.495-.006-.662-.074-.37-.15zm45.604-.613c.788-.062 2.003-.061 2.7.002.696.063.05.114-1.434.113-1.485-.001-2.055-.053-1.266-.115zm-98.115-3.979c0-.577.062-.814.137-.525.076.289.076.761 0 1.05-.075.289-.137.053-.137-.525zm1.074.695c.217-.087.476-.076.575.024.1.1-.077.17-.393.157-.35-.014-.42-.085-.182-.18zm52.626-.695c0-.577.062-.814.137-.525.076.289.076.761 0 1.05-.075.289-.137.053-.137-.525zm1.074.695c.217-.087.476-.076.575.024.1.1-.077.17-.393.157-.35-.014-.42-.085-.182-.18zm66.282.006a1.16 1.16 0 0 1 .75 0c.206.083.037.151-.375.151-.413 0-.582-.068-.375-.15zM91.2 147.15c0-.413.068-.581.151-.375.084.206.084.544 0 .75-.083.206-.151.037-.151-.375zm112.2 0c0-.413.068-.581.151-.375.084.206.084.544 0 .75-.083.206-.151.037-.151-.375zm-143.332-1.332c-.091-.238-.103-.677-.026-.975.095-.365.152-.28.176.26.021.493.238.856.56.94.492.129.491.14-.01.172-.294.02-.609-.16-.7-.397zm18 0c-.091-.238-.103-.677-.026-.975.095-.365.152-.28.176.26.021.493.237.856.56.94.492.129.491.14-.01.172-.293.02-.608-.16-.7-.397zm27.3 0c-.091-.238-.103-.677-.026-.975.095-.365.152-.28.176.26.021.493.237.856.56.94.492.129.491.14-.01.172-.293.02-.608-.16-.7-.397zm61.5 0c-.091-.238-.103-.677-.026-.975.095-.365.152-.28.176.26.021.493.237.856.56.94.492.129.491.14-.01.172-.293.02-.608-.16-.7-.397zm7.928.227c.217-.087.476-.076.575.024.1.1-.077.17-.393.157-.35-.014-.42-.085-.182-.18zm5.572-.227c-.091-.238-.103-.677-.026-.975.095-.365.152-.28.176.26.021.493.237.856.56.94.492.129.491.14-.01.172-.293.02-.608-.16-.7-.397zm-167.572-.073c.217-.087.476-.076.575.024.1.1-.077.17-.393.157-.35-.014-.42-.085-.182-.18zm34.615-.545c.006-.495.073-.661.15-.37.076.293.07.698-.012.9-.082.204-.144-.035-.138-.53zm48 0c.006-.495.073-.661.15-.37.076.293.07.698-.012.9-.082.204-.144-.035-.138-.53zm14.4 0c.006-.495.073-.661.15-.37.076.293.07.698-.012.9-.082.204-.144-.035-.138-.53zm21.6 0c.006-.495.074-.661.15-.37.076.293.07.698-.012.9-.082.204-.144-.035-.138-.53zm14.1 0c.006-.495.074-.661.15-.37.076.293.07.698-.012.9-.082.204-.144-.035-.138-.53zm10.2 0c.006-.495.074-.661.15-.37.076.293.07.698-.012.9-.082.204-.144-.035-.138-.53zm15.6 0c.006-.495.073-.661.15-.37.076.293.07.698-.012.9-.082.204-.144-.035-.138-.53zm69.185.545c.217-.087.476-.076.575.024.1.1-.077.17-.393.157-.35-.014-.42-.085-.182-.18zm-227.082-12.02c-.373-.476-.362-.486.114-.113.288.226.525.462.525.525 0 .247-.247.088-.639-.412zm111.46-3.75l-.571-.675.675.572c.634.537.811.778.571.778-.057 0-.36-.304-.675-.675zm-120.46-4.05c-.373-.476-.362-.486.114-.113.5.392.658.638.411.638-.062 0-.298-.236-.525-.525zm15.339-.788c0-.063.236-.299.525-.525.475-.373.486-.363.113.113-.392.5-.638.659-.638.412zM36.9 119.85c0-.412.068-.581.151-.375.084.206.084.544 0 .75-.083.206-.151.038-.151-.375zm112.2 0c0-.412.068-.581.151-.375.084.206.084.544 0 .75-.083.206-.151.038-.151-.375zm5.1 0c0-.412.068-.581.151-.375.084.206.084.544 0 .75-.083.206-.151.038-.151-.375zm-32.917-7.2c0-4.207.042-5.929.094-3.825a191.27 191.27 0 0 1 0 7.65c-.052 2.104-.094.383-.094-3.825zm109.093 3.725c.015-.35.086-.42.182-.181.086.216.076.475-.024.575-.1.1-.17-.078-.158-.394zm-220.58-2.73c.217-.087.476-.076.575.024.1.1-.077.17-.393.157-.35-.014-.42-.085-.182-.18zm233.382.006a1.16 1.16 0 0 1 .75 0c.206.083.037.152-.375.152-.413 0-.582-.069-.375-.152zM19.003 110.55c.298-.33.61-.6.693-.6.082 0-.095.27-.393.6-.299.33-.61.6-.693.6-.083 0 .094-.27.393-.6zm190.768-7.05c0-2.31.048-3.215.105-2.012a51.261 51.261 0 0 1-.001 4.2c-.058 1.107-.104.122-.104-2.188zM7.414 102.225c-.373-.476-.362-.486.114-.113.288.226.525.462.525.525 0 .247-.247.088-.639-.412zM149.1 88.35c0-.412.068-.581.151-.375.084.206.084.544 0 .75-.083.206-.151.038-.151-.375zM1.176 87.875c.015-.35.086-.42.182-.181.086.216.076.475-.024.575-.1.1-.17-.078-.158-.394zM249.011 74.7c.006-.495.074-.661.15-.37.076.293.07.698-.012.9-.082.204-.144-.035-.138-.53zm-226.633-.649a1.16 1.16 0 0 1 .75 0c.206.084.037.152-.375.152-.413 0-.582-.068-.375-.152zm208.218-.006c.217-.087.476-.076.575.024.1.1-.077.17-.393.157-.35-.014-.42-.085-.182-.18zM69.311 63.9c.006-.495.073-.661.15-.37.076.293.07.698-.012.9-.082.204-.144-.035-.138-.53zm34.176.096c-.025-.592-.212-.83-.71-.9-.663-.094-.675-.167-.686-4.446l-.012-4.35.095 4.275c.09 4.047.127 4.275.696 4.275.673 0 1.005.59.793 1.407-.095.364-.152.278-.176-.261zm90.866-.061c0-.463-.212-.77-.6-.872-.563-.147-.596-.38-.536-3.71l.065-3.553.094 3.492c.087 3.18.148 3.507.686 3.647.396.104.59.411.59.933 0 .428-.067.778-.15.778-.082 0-.15-.322-.15-.715zm-174.3.302c0-.063.236-.299.525-.525.475-.373.486-.363.113.113-.392.5-.638.659-.638.412zm167.496-2.287c0-1.072.054-1.511.12-.975a9.54 9.54 0 0 1 0 1.95c-.066.536-.12.098-.12-.975zM66.778 62.951a1.16 1.16 0 0 1 .75 0c.206.084.037.152-.375.152-.413 0-.582-.068-.375-.152zm6.618-.006c.217-.087.476-.076.575.024.1.1-.077.17-.393.157-.35-.014-.42-.085-.182-.18zm14.624-.067c-.093-.15.102-.201.432-.115.7.183.79.387.168.387-.237 0-.508-.122-.6-.272zm7.8 0c-.093-.15.102-.201.432-.115.7.183.79.387.168.387-.237 0-.508-.122-.6-.272zm14.776.067c.217-.087.476-.076.575.024.1.1-.077.17-.393.157-.35-.014-.42-.085-.182-.18zm54.882.006a1.16 1.16 0 0 1 .75 0c.206.084.037.152-.375.152-.413 0-.582-.068-.375-.152zm10.218-.006c.217-.087.476-.076.575.024.1.1-.077.17-.393.157-.35-.014-.42-.085-.182-.18zM18.3 62.25c0-.412.068-.581.151-.375.084.206.084.544 0 .75-.083.206-.151.038-.151-.375zm60.928.385a6.627 6.627 0 0 1 1.65 0c.453.069.082.125-.825.125-.908 0-1.28-.056-.825-.125zm50.1 0a6.627 6.627 0 0 1 1.65 0c.453.069.082.125-.825.125-.908 0-1.28-.056-.825-.125zm26.7 0a6.627 6.627 0 0 1 1.65 0c.453.069.082.125-.825.125-.908 0-1.28-.056-.825-.125zm8.083-.835c.006-.495.074-.661.15-.37.076.293.07.698-.012.9-.082.204-.144-.035-.138-.53zm-82.224-.075c-.028-.554.114-.668.79-.634.68.033.71.063.17.168-.362.07-.718.356-.791.634-.095.36-.144.31-.169-.168zm50.1 0c-.028-.554.114-.668.79-.634.68.033.71.063.17.168-.362.07-.718.356-.791.634-.095.36-.144.31-.169-.168zm26.7 0c-.028-.554.114-.668.79-.634.68.033.71.063.17.168-.362.07-.718.356-.791.634-.095.36-.144.31-.169-.168zm9.29-.55c.014-.35.085-.42.18-.181.087.216.077.475-.023.575-.1.1-.17-.078-.158-.394zm30.519-3.985c.087-3.08.058-3.27-.525-3.422-.457-.12-.607-.384-.573-1.015l.045-.853.122.794c.072.47.36.857.705.947.533.14.583.437.583 3.48 0 1.831-.102 3.33-.225 3.33-.124 0-.183-1.467-.132-3.26zm-14.263 2.452c.292-.076.697-.071.9.011.203.082-.035.145-.53.139-.495-.007-.662-.074-.37-.15zm-104.705-2.41a13.061 13.061 0 0 1 2.25 0c.618.064.112.117-1.125.117-1.238 0-1.744-.053-1.125-.118zm50.1 0a13.061 13.061 0 0 1 2.25 0c.618.064.112.117-1.125.117-1.238 0-1.744-.053-1.125-.118zm26.7 0a13.061 13.061 0 0 1 2.25 0c.618.064.112.117-1.125.117-1.238 0-1.744-.053-1.125-.118zm-96.15-1.48c.206-.084.543-.084.75 0 .206.083.037.15-.375.15-.413 0-.582-.067-.375-.15zm125.244-.702c0-.577.062-.814.137-.525.076.289.076.761 0 1.05-.075.289-.137.053-.137-.525zm1.074.695c.217-.087.476-.076.575.024.1.1-.077.17-.393.157-.35-.014-.42-.085-.182-.18zM103.8 54.75c0-.412.068-.581.151-.375.084.206.084.544 0 .75-.083.206-.151.038-.151-.375zm64.2 0c0-.412.068-.581.151-.375.084.206.084.544 0 .75-.083.206-.151.038-.151-.375zm-88.772-.815a6.627 6.627 0 0 1 1.65 0c.453.069.082.125-.825.125-.908 0-1.28-.056-.825-.125zm50.1 0a6.627 6.627 0 0 1 1.65 0c.453.069.082.125-.825.125-.908 0-1.28-.056-.825-.125zm26.7 0a6.627 6.627 0 0 1 1.65 0c.453.069.082.125-.825.125-.908 0-1.28-.056-.825-.125zm-80.96-.517c-.091-.238-.103-.677-.026-.975.095-.365.152-.28.176.26.021.493.237.856.56.94.492.129.491.14-.01.172-.293.02-.608-.16-.7-.397zm31.8 0c-.091-.238-.103-.677-.026-.975.095-.365.152-.28.176.26.021.493.237.856.56.94.492.129.491.14-.01.172-.293.02-.608-.16-.7-.397zm5.528.227c.217-.087.476-.076.575.024.1.1-.077.17-.393.157-.35-.014-.42-.085-.182-.18zm7.372-.227c-.091-.238-.103-.677-.026-.975.095-.365.152-.28.176.26.021.493.237.856.56.94.492.129.491.14-.01.172-.293.02-.608-.16-.7-.397zm5.4 0c-.091-.238-.103-.677-.026-.975.095-.365.152-.28.176.26.021.493.237.856.56.94.492.129.491.14-.01.172-.293.02-.608-.16-.7-.397zm26.7 0c-.091-.238-.103-.677-.026-.975.095-.365.152-.28.176.26.021.493.237.856.56.94.492.129.491.14-.01.172-.293.02-.608-.16-.7-.397zm20.1 0c-.091-.238-.103-.677-.026-.975.095-.365.152-.28.176.26.021.493.237.856.56.94.492.129.491.14-.01.172-.293.02-.608-.16-.7-.397zm18 0c-.091-.238-.103-.677-.026-.975.095-.365.152-.28.176.26.021.493.237.856.56.94.492.129.491.14-.01.172-.293.02-.608-.16-.7-.397zM63.01 52.8c.006-.495.073-.661.15-.37.076.293.07.698-.012.9-.082.204-.144-.035-.138-.53zm24.6 0c.006-.495.074-.661.15-.37.076.293.07.698-.012.9-.082.204-.144-.035-.138-.53zm29.1 0c.006-.495.074-.661.15-.37.076.293.07.698-.012.9-.082.204-.144-.035-.138-.53zm22.5 0c.006-.495.074-.661.15-.37.076.293.07.698-.012.9-.082.204-.144-.035-.138-.53zm88.8-5.7c.006-.495.074-.661.15-.37.076.293.07.698-.012.9-.082.204-.144-.035-.138-.53zm-6.837-12.225l-.571-.675.675.571c.37.315.675.619.675.675 0 .24-.242.063-.779-.571zM111.328 14.627a64.1 64.1 0 0 1 4.65 0c1.278.056.232.102-2.325.102-2.558 0-3.604-.046-2.325-.102zm28.213 0a59.572 59.572 0 0 1 4.5 0c1.19.057.137.104-2.338.103-2.475 0-3.448-.047-2.162-.103z" fill="#8c8c8c"/><path d="M38.93 177.525l-.727-.825.825.727c.77.68.962.923.727.923-.054 0-.425-.371-.825-.825zm3.144-2.25l-.571-.675.675.572c.634.537.811.778.571.778-.057 0-.36-.304-.675-.675zm183.44-22.35c-.373-.476-.362-.486.114-.113.5.392.658.638.411.638-.062 0-.298-.236-.525-.525zm5.786-5.775c0-.412.068-.581.151-.375.084.206.084.544 0 .75-.083.206-.151.038-.151-.375zM78.695 112.2c0-11.55.037-16.231.083-10.403.045 5.828.045 15.278 0 21-.046 5.722-.083.953-.083-10.597zm36.602-8.25c0-16.087.036-22.669.08-14.625.045 8.044.045 21.206 0 29.25-.044 8.044-.08 1.463-.08-14.625zm34.436 24.392c.292-.076.697-.071.9.011.203.082-.035.145-.53.139-.495-.007-.662-.074-.37-.15zm-14.855-2.99c.206-.084.543-.084.75 0 .206.083.037.15-.375.15-.413 0-.582-.067-.375-.15zm62.307-9.252c0-4.785.042-6.7.092-4.257.05 2.444.05 6.36 0 8.7-.05 2.342-.092.342-.092-4.443zM36.995 97.05c0-12.292.037-17.321.083-11.175a1850.1 1850.1 0 0 1 0 22.35c-.046 6.146-.083 1.118-.083-11.175zm112.197 7.05c0-8.415.038-11.9.085-7.746.047 4.155.047 11.04 0 15.3-.047 4.26-.085.861-.085-7.554zm5.103-7.05c0-12.292.037-17.321.083-11.175a1850.1 1850.1 0 0 1 0 22.35c-.046 6.146-.083 1.118-.083-11.175zM11.376 110.675c.015-.35.086-.42.182-.181.086.216.076.475-.024.575-.1.1-.17-.078-.158-.394zM121.285 96.6c0-4.785.042-6.7.092-4.257.05 2.444.05 6.36 0 8.7-.05 2.342-.092.342-.092-4.443zm132.243 4.2c.003-.66.065-.895.137-.521.072.373.069.913-.006 1.2-.075.286-.134-.019-.13-.679zm-56.344-9.6c0-4.455.042-6.32.093-4.143.05 2.176.051 5.821 0 8.1s-.093.498-.093-3.957zM13.476 77.975c.015-.35.086-.42.182-.181.086.216.076.475-.024.575-.1.1-.17-.078-.158-.394zM243.9 61.65c0-.412.068-.581.151-.375.084.206.084.544 0 .75-.083.206-.151.038-.151-.375zm-26.47-6.825l-.727-.825.825.727c.453.4.825.772.825.825 0 .236-.243.044-.923-.727zm20.573.225c.298-.33.61-.6.693-.6.082 0-.095.27-.393.6-.299.33-.61.6-.693.6-.083 0 .094-.27.393-.6zM16.476 48.575c.015-.35.086-.42.182-.181.086.216.076.475-.024.575-.1.1-.17-.078-.158-.394zm102.277-33.91c1.761-.224 4.133-.248 4.004-.04-.077.124-1.178.205-2.447.18-1.27-.025-1.97-.088-1.557-.14zm15.233-.035c.705-.063 1.785-.063 2.4.002.614.065.037.116-1.283.115-1.32 0-1.823-.054-1.117-.117z" fill="#757575"/><path d="M41.014 174.225c-.373-.476-.362-.486.114-.113.288.226.525.462.525.525 0 .247-.247.088-.639-.412zm46.338-7.2c22.082-.042 58.127-.042 80.1 0 21.973.042 3.906.077-40.15.077-44.054 0-62.032-.034-39.95-.077zm105.444-9.88c.217-.087.476-.076.575.024.1.1-.077.17-.393.157-.35-.014-.42-.085-.182-.18zm-174-.3c.217-.087.476-.076.575.024.1.1-.077.17-.393.157-.35-.014-.42-.085-.182-.18zm28.615-.545c.006-.495.073-.661.15-.37.076.293.07.698-.012.9-.082.204-.144-.035-.138-.53zm45 0c.006-.495.073-.661.15-.37.076.293.07.698-.012.9-.082.204-.144-.035-.138-.53zm4.2 0c.006-.495.074-.661.15-.37.076.293.07.698-.012.9-.082.204-.144-.035-.138-.53zm8.7 0c.006-.495.073-.661.15-.37.076.293.07.698-.012.9-.082.204-.144-.035-.138-.53zm26.1 0c.006-.495.074-.661.15-.37.076.293.07.698-.012.9-.082.204-.144-.035-.138-.53zm4.5 0c.006-.495.074-.661.15-.37.076.293.07.698-.012.9-.082.204-.144-.035-.138-.53zm6.6 0c.006-.495.074-.661.15-.37.076.293.07.698-.012.9-.082.204-.144-.035-.138-.53zm4.2 0c.006-.495.074-.661.15-.37.076.293.07.698-.012.9-.082.204-.144-.035-.138-.53zm9 0c.006-.495.074-.661.15-.37.076.293.07.698-.012.9-.082.204-.144-.035-.138-.53zm11.1 0c.006-.495.073-.661.15-.37.076.293.07.698-.012.9-.082.204-.144-.035-.138-.53zm67.385.545c.217-.087.476-.076.575.024.1.1-.077.17-.393.157-.35-.014-.42-.085-.182-.18zm-36.426-1.722c.023-1.038.166-1.512.483-1.597.31-.084.34-.044.095.131-.195.14-.412.858-.482 1.598l-.128 1.345.032-1.477zM50.773 150.75c0-2.557.046-3.604.103-2.325a64.1 64.1 0 0 1 0 4.65c-.057 1.279-.103.233-.103-2.325zm12.6.15c0-2.475.047-3.448.103-2.161a59.572 59.572 0 0 1-.001 4.5c-.057 1.188-.103.136-.103-2.339zm18 0c0-2.475.047-3.448.103-2.161a59.572 59.572 0 0 1-.001 4.5c-.057 1.188-.103.136-.103-2.339zm53.37 2.85c0-.907.056-1.279.125-.825a6.63 6.63 0 0 1 0 1.65c-.07.454-.125.083-.125-.825zm24.295.15c.002-.825.06-1.127.13-.67.069.455.067 1.13-.004 1.5-.071.368-.128-.005-.125-.83zm11.11-.45c0-1.072.055-1.511.122-.975a9.555 9.555 0 0 1 0 1.95c-.067.536-.121.098-.121-.975zm13.525-2.55c0-2.475.047-3.448.103-2.161a59.572 59.572 0 0 1-.001 4.5c-.057 1.188-.103.136-.103-2.339zm-75.001-.15c0-2.392.046-3.371.103-2.175a55.448 55.448 0 0 1 0 4.35c-.057 1.196-.103.218-.103-2.175zm66.874 2.55c.002-.99.057-1.359.124-.82.067.54.065 1.35-.003 1.8-.068.451-.123.01-.121-.98zm-62.55-.055c.217-.087.476-.076.575.024.1.1-.077.17-.393.157-.35-.014-.42-.085-.182-.18zm81.6 0c.217-.087.476-.076.575.024.1.1-.077.17-.393.157-.35-.014-.42-.085-.182-.18zm-97.847-1.22c-.077-.124.49-.185 1.257-.135 2.191.14 2.457.287.59.325-.94.02-1.77-.066-1.847-.19zm50.1 0c-.077-.124.49-.185 1.257-.135 2.191.14 2.457.287.59.325-.94.02-1.77-.066-1.847-.19zm-70.338-.825c.006-.495.074-.661.15-.37.076.293.07.698-.012.9-.082.204-.144-.035-.138-.53zm53.7 0c.006-.495.074-.661.15-.37.076.293.07.698-.012.9-.082.204-.144-.035-.138-.53zm-64.5-.3c.006-.495.073-.661.15-.37.076.293.07.698-.012.9-.082.204-.144-.035-.138-.53zm53.7 0c.006-.495.074-.661.15-.37.076.293.07.698-.012.9-.082.204-.144-.035-.138-.53zm66.611-.15c0-.577.062-.814.137-.525.076.289.076.761 0 1.05-.075.289-.137.053-.137-.525zm-129.91-.15c.005-.495.072-.661.149-.37.076.293.07.698-.012.9-.082.204-.144-.035-.138-.53zm102.943-2.1c.001-1.32.054-1.823.118-1.117.063.706.062 1.786-.002 2.4-.065.614-.117.037-.116-1.283zm-24.302-.15c0-1.237.053-1.744.118-1.125s.065 1.631 0 2.25-.118.113-.118-1.125zm-114.579.825l-.571-.675.675.572c.634.537.811.778.571.778-.057 0-.36-.304-.675-.675zm149.969-1.125c0-.907.056-1.279.125-.825a6.63 6.63 0 0 1 0 1.65c-.07.454-.125.083-.125-.825zm5.403-.15c.002-.99.057-1.359.124-.82.067.54.065 1.35-.003 1.8-.068.451-.123.01-.121-.98zm-34.57-.025c.015-.35.086-.42.182-.181.086.216.076.475-.024.575-.1.1-.17-.078-.158-.394zm-57.502-.54c-.087-.23-.114-1.006-.059-1.726.097-1.267.105-1.253.244.416.146 1.752.103 2.058-.185 1.31zm1.726-.185c0-.412.068-.581.151-.375.084.206.084.544 0 .75-.083.206-.151.038-.151-.375zm-20.689-1.95c.006-.495.073-.661.15-.37.076.293.07.698-.012.9-.082.204-.144-.035-.138-.53zm18 0c.006-.495.074-.661.15-.37.076.293.07.698-.012.9-.082.204-.144-.035-.138-.53zm102.3 0c.006-.495.073-.661.15-.37.076.293.07.698-.012.9-.082.204-.144-.035-.138-.53zm-171.278-2.458c.292-.076.697-.071.9.011.203.082-.035.145-.53.139-.495-.006-.662-.074-.37-.15zm10.72-1.105c0-.063.236-.299.525-.525.475-.373.486-.363.113.113-.392.5-.638.659-.638.412zm124.743-5.192c.217-.087.476-.076.575.024.1.1-.077.17-.393.157-.35-.014-.42-.085-.182-.18zm90.807-2.495c.298-.33.61-.6.693-.6.082 0-.095.27-.393.6-.299.33-.61.6-.693.6-.083 0 .094-.27.393-.6zm-12.08-2.4c0-.577.06-.814.136-.525.076.289.076.761 0 1.05-.075.289-.137.053-.137-.525zm12.253-6.175c.015-.35.086-.42.182-.181.086.216.076.475-.024.575-.1.1-.17-.078-.158-.394zM64.2 119.85c0-.412.068-.581.151-.375.084.206.084.544 0 .75-.083.206-.151.038-.151-.375zm117.3 0c0-.412.068-.581.151-.375.084.206.084.544 0 .75-.083.206-.151.038-.151-.375zM9.214 118.125c-.373-.476-.362-.486.114-.113.5.392.658.638.411.638-.062 0-.298-.236-.525-.525zm11.52-30.883c.291-.076.696-.071.9.011.202.082-.036.145-.531.139-.495-.007-.662-.074-.37-.15zm211.5 0c.291-.076.696-.071.9.011.202.082-.036.145-.531.139-.495-.007-.662-.074-.37-.15zM13.5 79.05c0-.412.068-.581.151-.375.084.206.084.544 0 .75-.083.206-.151.038-.151-.375zm-9.024-5.275c.015-.35.086-.42.182-.181.086.216.076.475-.024.575-.1.1-.17-.078-.158-.394zm16.257-2.433c.292-.076.697-.071.9.011.203.082-.035.145-.53.139-.495-.007-.662-.074-.37-.15zm211.195.001a2.463 2.463 0 0 1 1.05 0c.288.076.052.138-.525.138-.578 0-.814-.062-.525-.138zM11.914 67.725c-.373-.476-.362-.486.114-.113.288.226.525.462.525.525 0 .247-.247.088-.639-.412zm46.482-2.98c.217-.087.476-.076.575.024.1.1-.077.17-.393.157-.35-.014-.42-.085-.182-.18zm4.615-.845c.006-.495.073-.661.15-.37.076.293.07.698-.012.9-.082.204-.144-.035-.138-.53zm4.5 0c.006-.495.073-.661.15-.37.076.293.07.698-.012.9-.082.204-.144-.035-.138-.53zm7.5 0c.006-.495.074-.661.15-.37.076.293.07.698-.012.9-.082.204-.144-.035-.138-.53zm9.6 0c.006-.495.074-.661.15-.37.076.293.07.698-.012.9-.082.204-.144-.035-.138-.53zm4.2 0c.006-.495.074-.661.15-.37.076.293.07.698-.012.9-.082.204-.144-.035-.138-.53zm36.3 0c.006-.495.074-.661.15-.37.076.293.07.698-.012.9-.082.204-.144-.035-.138-.53zm14.1 0c.006-.495.074-.661.15-.37.076.293.07.698-.012.9-.082.204-.144-.035-.138-.53zm12.6 0c.006-.495.073-.661.15-.37.076.293.07.698-.012.9-.082.204-.144-.035-.138-.53zm38.1 0c.006-.495.074-.661.15-.37.076.293.07.698-.012.9-.082.204-.144-.035-.138-.53zm-27.54-1.177c.022-1.038.165-1.512.482-1.597.31-.084.34-.044.095.131-.195.14-.412.858-.482 1.598l-.128 1.345.032-1.477zM66.342 61.35c0-.907.056-1.279.125-.825a6.627 6.627 0 0 1 0 1.65c-.07.454-.125.083-.125-.825zm43.83-2.85c0-2.475.047-3.448.103-2.161a59.572 59.572 0 0 1-.001 4.5c-.057 1.188-.103.136-.103-2.339zm32.4-.15c0-2.557.046-3.604.103-2.325a64.145 64.145 0 0 1 0 4.65c-.057 1.279-.103.233-.103-2.325zm32.7.15c0-2.475.047-3.448.103-2.161a59.572 59.572 0 0 1-.001 4.5c-.057 1.188-.103.136-.103-2.339zm-96.927 2.4c.002-.99.057-1.359.124-.82.067.54.065 1.35-.003 1.8-.068.451-.123.01-.121-.98zm50.1 0c.002-.99.057-1.359.124-.82.067.54.065 1.35-.003 1.8-.068.451-.123.01-.121-.98zm26.7 0c.002-.99.057-1.359.124-.82.067.54.065 1.35-.003 1.8-.068.451-.123.01-.121-.98zm-94.95-.055c.217-.087.476-.076.575.024.1.1-.077.17-.393.157-.35-.014-.42-.085-.182-.18zm28.753-1.22c-.077-.124.49-.185 1.257-.135 2.191.14 2.457.287.59.325-.94.02-1.77-.066-1.847-.19zm99.462-.825c.006-.495.074-.661.15-.37.076.293.07.698-.012.9-.082.204-.144-.035-.138-.53zm-136.789-.45c0-.577.062-.814.137-.525.076.289.076.761 0 1.05-.075.289-.137.053-.137-.525zm125.99.15c.005-.495.073-.661.149-.37.076.293.07.698-.012.9-.082.204-.144-.035-.138-.53zm-29.7-.3c.005-.495.073-.661.149-.37.076.293.07.698-.012.9-.082.204-.144-.035-.138-.53zm-81.559-2.25c0-1.237.053-1.744.118-1.125s.065 1.631 0 2.25-.118.113-.118-1.125zm11.99-.3c0-.907.056-1.279.125-.825a6.63 6.63 0 0 1 0 1.65c-.07.454-.125.083-.125-.825zm50.1 0c0-.907.056-1.279.125-.825a6.63 6.63 0 0 1 0 1.65c-.07.454-.125.083-.125-.825zm26.7 0c0-.907.056-1.279.125-.825a6.63 6.63 0 0 1 0 1.65c-.07.454-.125.083-.125-.825zm-82.567-.175c.015-.35.086-.42.182-.181.086.216.076.475-.024.575-.1.1-.17-.078-.158-.394zm9.82-.33c.217-.087.476-.076.575.024.1.1-.077.17-.393.157-.35-.014-.42-.085-.182-.18zm13.678-.21c-.087-.23-.114-1.006-.059-1.726.097-1.267.105-1.253.244.416.146 1.752.103 2.058-.185 1.31zm1.726-.185c0-.412.068-.581.151-.375.084.206.084.544 0 .75-.083.206-.151.038-.151-.375zm34.696.395c.217-.087.476-.076.575.024.1.1-.077.17-.393.157-.35-.014-.42-.085-.182-.18zm26.7 0c.217-.087.476-.076.575.024.1.1-.077.17-.393.157-.35-.014-.42-.085-.182-.18zM111.311 52.8c.006-.495.073-.661.15-.37.076.293.07.698-.012.9-.082.204-.144-.035-.138-.53zm.6 0c.006-.495.074-.661.15-.37.076.293.07.698-.012.9-.082.204-.144-.035-.138-.53zm12 0c.006-.495.074-.661.15-.37.076.293.07.698-.012.9-.082.204-.144-.035-.138-.53zm52.5 0c.006-.495.074-.661.15-.37.076.293.07.698-.012.9-.082.204-.144-.035-.138-.53zm25.5 0c.006-.495.074-.661.15-.37.076.293.07.698-.012.9-.082.204-.144-.035-.138-.53zM225 44.85c0-.412.068-.581.151-.375.084.206.084.544 0 .75-.083.206-.151.038-.151-.375z" fill="#4e4e4e"/><path d="M41.34 177.375c.736-.784 1.377-1.425 1.425-1.425.225 0-.013.27-1.337 1.513l-1.425 1.337 1.337-1.425zm174.763-1.725c.298-.33.61-.6.693-.6.082 0-.095.27-.393.6-.299.33-.61.6-.693.6-.083 0 .094-.27.393-.6zm-5.25.206c0-.051.438-.49.975-.975l.975-.881-.881.975c-.822.909-1.07 1.113-1.07.881zm-170.879-2.681l-.571-.675.675.572c.634.537.811.778.571.778-.057 0-.36-.304-.675-.675zm200.729-19.125c.298-.33.61-.6.693-.6.082 0-.095.27-.393.6-.299.33-.61.6-.693.6-.083 0 .094-.27.393-.6zm-8.25-3.994c0-.051.438-.49.975-.975l.975-.881-.881.975c-.822.909-1.07 1.113-1.07.881zm-210.23-2.906c0-.577.061-.814.136-.525.076.289.076.761 0 1.05-.075.289-.137.053-.137-.525zm8.4-1.2c0-.577.061-.814.136-.525.076.289.076.761 0 1.05-.075.289-.137.053-.137-.525zm-23.049-5.775l-.571-.675.675.572c.634.537.811.778.571.778-.057 0-.36-.304-.675-.675zm222.74-1.35c-.373-.476-.362-.486.114-.113.288.226.525.462.525.525 0 .247-.247.088-.639-.412zm-80.436-2.374a1.16 1.16 0 0 1 .75 0c.206.084.037.152-.375.152-.413 0-.582-.068-.375-.152zm-89.325-6.514c0-.063.236-.299.525-.525.475-.373.486-.363.113.113-.392.5-.638.659-.638.412zm117.3 0c0-.063.236-.299.525-.525.475-.373.486-.363.113.113-.392.5-.638.659-.638.412zm56.221-.862l-.571-.675.675.572c.634.537.811.778.571.778-.057 0-.36-.304-.675-.675zM13.303 125.85c-.102-.165-.043-.3.132-.3s.318.135.318.3c0 .165-.06.3-.133.3-.072 0-.215-.135-.317-.3zm187.743-1.124a213.94 213.94 0 0 1 8.1 0c2.176.051.312.093-4.143.093s-6.236-.042-3.957-.093zm-62.793-.19c0-.062.236-.298.525-.524.475-.373.486-.363.113.113-.392.5-.638.659-.638.412zM64.295 97.05c0-12.292.037-17.321.083-11.175a1850.1 1850.1 0 0 1 0 22.35c-.046 6.146-.083 1.118-.083-11.175zm117.3 0c0-12.292.037-17.321.083-11.175a1850.1 1850.1 0 0 1 0 22.35c-.046 6.146-.083 1.118-.083-11.175zm62.558 21.15c.387-.412.772-.75.854-.75.083 0-.167.338-.554.75-.388.413-.772.75-.855.75-.082 0 .167-.337.555-.75zM1.378 115.438a4.274 4.274 0 0 1 1.35 0c.37.072.067.13-.675.13-.743 0-1.047-.058-.675-.13zm249.603 0c.373-.072.913-.07 1.2.006.287.075-.018.134-.678.13-.66-.003-.895-.065-.522-.136zm-228.205-.863c.015-.35.086-.42.182-.181.086.216.076.475-.024.575-.1.1-.17-.078-.158-.394zm227.077-3.238c0-.063.236-.299.525-.525.475-.373.486-.363.113.113-.392.5-.638.659-.638.412zm-235.8-8.1c0-.063.236-.299.525-.525.475-.373.486-.363.113.113-.392.5-.638.659-.638.412zM0 101.55c0-.412.068-.581.151-.375.084.206.084.544 0 .75-.083.206-.151.038-.151-.375zm20.881-1.112c.373-.072.913-.07 1.2.006.287.075-.018.134-.678.13-.66-.003-.895-.064-.522-.136zm210.747.005a2.463 2.463 0 0 1 1.05 0c.288.076.052.137-.525.137-.578 0-.814-.061-.525-.137zm-31.5-1.217c1.773-.053 4.676-.053 6.45 0 1.773.053.322.097-3.225.097-3.548 0-5-.044-3.225-.097zM11.076 94.775c.015-.35.086-.42.182-.181.086.216.076.475-.024.575-.1.1-.17-.078-.158-.394zm227.638-5.15c-.373-.476-.362-.486.114-.113.288.226.525.462.525.525 0 .247-.247.088-.639-.412zm-230.84-3.15l-.571-.675.675.572c.634.537.811.778.571.778-.057 0-.36-.304-.675-.675zm193.172-3.45a213.94 213.94 0 0 1 8.1 0c2.176.052.312.094-4.143.094s-6.236-.042-3.957-.093zm-66.168-.574a1.16 1.16 0 0 1 .75 0c.206.084.037.152-.375.152-.413 0-.582-.068-.375-.152zM6.974 81.675L6.403 81l.675.572c.634.537.811.778.571.778-.057 0-.36-.304-.675-.675zm9.629-5.025c.298-.33.61-.6.693-.6.082 0-.095.27-.393.6-.299.33-.61.6-.693.6-.083 0 .094-.27.393-.6zM4.5 74.85c0-.412.068-.581.151-.375.084.206.084.544 0 .75-.083.206-.151.038-.151-.375zm220.73-6.525l-.727-.825.825.727c.453.4.825.772.825.825 0 .236-.243.044-.923-.727zm9.97-6.075c0-.412.068-.581.151-.375.084.206.084.544 0 .75-.083.206-.151.038-.151-.375zM9.628 61.5c.004-.66.065-.895.137-.521.072.373.069.913-.006 1.2-.075.286-.134-.019-.13-.679zm18.305-3.058c.292-.076.697-.071.9.011.203.082-.035.145-.53.139-.495-.007-.662-.074-.37-.15zm196.795.001a2.463 2.463 0 0 1 1.05 0c.288.076.052.138-.525.138-.578 0-.814-.062-.525-.138zm9.225-3.506c0-.063.236-.299.525-.525.475-.373.486-.363.113.113-.392.5-.638.659-.638.412zm-6.339-2.812c-.373-.476-.362-.486.114-.113.5.392.658.638.411.638-.062 0-.298-.236-.525-.525zm-11.084-10.5l-.727-.825.825.727c.453.4.825.772.825.825 0 .236-.243.044-.923-.727zM86.953 25.45c3.22-.218 7.133-.232 7.004-.025-.077.124-1.988.2-4.247.17-2.26-.029-3.5-.094-2.757-.145zm14.175-.022a47.381 47.381 0 0 1 4.05 0c1.113.057.202.104-2.025.104-2.228 0-3.14-.047-2.025-.104zm49.125.022c3.22-.218 7.133-.232 7.004-.025-.077.124-1.988.2-4.247.17-2.26-.029-3.5-.094-2.757-.145zm14.175-.022a47.381 47.381 0 0 1 4.05 0c1.113.057.202.104-2.025.104-2.228 0-3.14-.047-2.025-.104z" fill="#323232"/><path d="M212.137 177.375l-1.24-1.275 1.64-1.8c4.937-5.42 9.248-10.924 11.948-15.256.786-1.261 1.493-2.294 1.57-2.294.453 0 2.798 1.62 2.798 1.932 0 .556-3.798 6.205-6.541 9.729-1.975 2.537-8.648 10.239-8.871 10.239-.035 0-.621-.574-1.304-1.275zm-173.824-.75c-2.594-2.678-5.436-6.068-8.175-9.754-2.611-3.513-5.743-8.277-5.548-8.44.417-.346 3.005-1.733 3.067-1.642.043.06 1.143 1.727 2.445 3.702 2.597 3.94 6.982 9.506 10.363 13.153l2.173 2.344-1.154 1.18c-.634.65-1.231 1.182-1.327 1.182-.095 0-.925-.776-1.844-1.725zm9.04-11.475v-1.8h159.9v3.6h-159.9v-1.8zm22.52-8.146c-2.599-.472-3.926-2.605-3.914-6.289.016-4.498 2.932-6.983 7.35-6.264.91.148 1.785.351 1.948.452.163.1.296.85.296 1.665 0 1.44-.026 1.482-.881 1.482-.775 0-.893-.118-.975-.975-.092-.95-.135-.977-1.66-1.065-2.812-.163-3.981 1.166-3.983 4.525-.002 3.378 1.088 5.015 3.34 5.015 1.869 0 2.059-.183 2.059-1.982 0-1.526-.043-1.618-.75-1.618-.6 0-.75-.15-.75-.75 0-.733.05-.75 2.25-.75 2.173 0 2.25.025 2.25.718 0 .395-.203.796-.45.89-.337.13-.45.67-.45 2.148 0 1.947-.014 1.98-.975 2.37-1.357.55-3.137.712-4.704.428zm53.7 0c-2.599-.472-3.926-2.605-3.914-6.289.016-4.498 2.932-6.983 7.35-6.264.91.148 1.785.351 1.948.452.163.1.296.85.296 1.665 0 1.44-.026 1.482-.881 1.482-.775 0-.893-.118-.975-.975-.092-.95-.135-.977-1.66-1.065-2.812-.163-3.981 1.166-3.983 4.525-.002 3.378 1.088 5.015 3.34 5.015 1.869 0 2.059-.183 2.059-1.982 0-1.526-.043-1.618-.75-1.618-.6 0-.75-.15-.75-.75 0-.733.05-.75 2.25-.75 2.173 0 2.25.025 2.25.718 0 .395-.203.796-.45.89-.337.13-.45.67-.45 2.148 0 1.947-.014 1.98-.975 2.37-1.357.55-3.137.712-4.704.428zm66.88.008c-1.754-.333-2.69-1.04-3.546-2.68-.605-1.158-.682-1.667-.586-3.899.133-3.075.829-4.463 2.723-5.43 1.37-.699 4.26-.846 5.684-.29.747.292.825.463.825 1.83 0 1.467-.024 1.507-.881 1.507-.775 0-.893-.118-.975-.975-.09-.938-.15-.978-1.545-1.067-2.6-.166-3.8 1.332-3.8 4.742 0 3.48 1.183 4.9 3.948 4.742 1.601-.092 1.603-.093 1.693-1.163.083-1 .148-1.062.975-.94.842.123.885.2.885 1.603 0 1.254-.1 1.51-.675 1.722-1.163.428-3.32.564-4.725.298zm10.05.2c-.165-.062-.807-.197-1.425-.3-1.12-.188-1.125-.196-1.125-1.643 0-1.05.132-1.505.474-1.637.812-.311 1.026-.206 1.026.508 0 .99.555 1.41 1.86 1.41 1.323 0 2.34-.827 2.34-1.903 0-.934-.703-1.521-2.726-2.277-2.245-.839-3.074-1.754-3.074-3.394 0-1.625.466-2.49 1.684-3.12 1.09-.565 3.802-.64 5.09-.14.732.283.826.473.826 1.677 0 1.301-.037 1.357-.88 1.357-.738 0-.896-.134-.975-.825-.086-.74-.228-.834-1.393-.918-1.66-.12-2.209.33-2.093 1.714.087 1.024.184 1.11 2.177 1.91 2.511 1.007 3.066 1.472 3.505 2.939.283.946.248 1.3-.228 2.256-.31.625-.9 1.373-1.313 1.663-.714.502-3.112.965-3.75.724zm-152.85-.912c0-.467.17-.75.45-.75.38 0 .45-.733.45-4.8s-.07-4.8-.45-4.8c-.28 0-.45-.283-.45-.75 0-.736.042-.75 2.359-.75 6.194 0 8.27 1.524 8.24 6.05-.01 1.494-.195 2.365-.73 3.435-1.236 2.466-2.694 3.077-7.394 3.102-2.444.013-2.475.004-2.475-.737zm7.334-2.025c1.436-1.436 1.687-3.705.699-6.314-.42-1.109-1.659-1.711-3.518-1.711h-1.515v9h1.68c1.495 0 1.787-.107 2.654-.975zm4.966 2.025c0-.55.16-.75.6-.75.575 0 .6-.2.6-4.8 0-4.067-.07-4.8-.45-4.8-.28 0-.45-.283-.45-.75 0-.729.06-.75 2.1-.75 2.012 0 2.1.03 2.1.715 0 .463-.212.77-.6.872-.568.148-.6.41-.6 4.835 0 4.478.025 4.678.6 4.678.44 0 .6.2.6.75 0 .733-.05.75-2.25.75s-2.25-.017-2.25-.75zm18 0c0-.55.16-.75.6-.75.575 0 .6-.2.6-4.8 0-4.067-.07-4.8-.45-4.8-.28 0-.45-.283-.45-.75 0-.729.06-.75 2.1-.75 2.012 0 2.1.03 2.1.715 0 .463-.212.77-.6.872-.568.148-.6.41-.6 4.835 0 4.478.025 4.678.6 4.678.44 0 .6.2.6.75 0 .733-.05.75-2.25.75s-2.25-.017-2.25-.75zm7.8 0c0-.6.15-.75.75-.75h.75v-9.338l-.975.094c-.748.072-.998.252-1.071.769-.1.706-.294.795-1.08.493-.343-.132-.474-.588-.474-1.65v-1.468h9.6v1.5c0 .825-.102 1.502-.225 1.504-.124.002-.53.086-.9.185-.574.154-.675.064-.675-.604 0-.697-.118-.785-1.05-.785h-1.05v9.3h.75c.6 0 .75.15.75.75 0 .741-.03.75-2.55.75s-2.55-.009-2.55-.75zm6.9 0c0-.441.172-.75.418-.75.491 0 .478.03 2.132-4.8.706-2.062 1.38-3.986 1.499-4.275.164-.402.067-.525-.417-.525-.475 0-.632-.187-.632-.75 0-.726.065-.75 2.025-.75h2.025l1.95 5.55c1.525 4.343 2.064 5.55 2.475 5.55.36 0 .525.236.525.75 0 .738-.04.75-2.4.75s-2.4-.012-2.4-.75c0-.542.16-.75.582-.75.754 0 .907-.292.592-1.125-.235-.622-.443-.675-2.63-.675-2.209 0-2.387.047-2.555.675-.266.993-.236 1.125.26 1.125.28 0 .45.283.45.75 0 .723-.07.75-1.95.75s-1.95-.027-1.95-.75zm7.5-4.41c0-.706-1.542-5.398-1.717-5.224-.14.14-1.865 5.195-1.88 5.509-.002.041.807.075 1.797.075 1.198 0 1.8-.12 1.8-.36zm5.4 4.41c0-.467.17-.75.45-.75.38 0 .45-.733.45-4.8s-.07-4.8-.45-4.8c-.28 0-.45-.283-.45-.75 0-.729.06-.75 2.1-.75 2.012 0 2.1.03 2.1.715 0 .463-.212.77-.6.872-.567.148-.6.41-.6 4.7v4.542l1.875-.09c1.797-.085 1.879-.123 1.97-.914.08-.69.237-.825.975-.825.875 0 .88.009.88 1.8v1.8h-8.7v-.75zm26.1 0c0-.467.17-.75.45-.75.38 0 .45-.733.45-4.8s-.07-4.8-.45-4.8c-.28 0-.45-.283-.45-.75 0-.74.03-.75 2.535-.75 4.993 0 6.765.88 6.765 3.36 0 1.418-.389 2.263-1.454 3.164-.438.37-.622.674-.409.675.213 0 .781.879 1.263 1.951.663 1.478 1.023 1.95 1.487 1.95.453 0 .613.195.613.75 0 .733-.05.75-2.25.75s-2.25-.017-2.25-.75c0-.467.17-.75.45-.75.622 0 .556-.544-.238-1.95-.624-1.104-.791-1.207-2.095-1.291l-1.417-.092v1.667c0 1.466.072 1.666.6 1.666.44 0 .6.2.6.75 0 .729-.06.75-2.1.75s-2.1-.021-2.1-.75zm6.651-6.346c.37-.335.549-.918.549-1.79 0-1.565-.489-1.914-2.68-1.914h-1.52v4.2h1.551c1.023 0 1.738-.17 2.1-.496zm4.449 6.346c0-.441.172-.75.418-.75.491 0 .478.03 2.132-4.8.706-2.062 1.38-3.986 1.499-4.275.164-.402.067-.525-.417-.525-.475 0-.632-.187-.632-.75 0-.726.065-.75 2.025-.75h2.025l1.95 5.55c1.525 4.343 2.064 5.55 2.475 5.55.36 0 .525.236.525.75 0 .738-.04.75-2.4.75s-2.4-.012-2.4-.75c0-.542.16-.75.582-.75.754 0 .907-.292.592-1.125-.235-.622-.443-.675-2.63-.675-2.209 0-2.387.047-2.555.675-.266.993-.236 1.125.26 1.125.28 0 .45.283.45.75 0 .723-.07.75-1.95.75s-1.95-.027-1.95-.75zm7.5-4.41c0-.706-1.542-5.398-1.717-5.224-.14.14-1.865 5.195-1.88 5.509-.002.041.807.075 1.797.075 1.198 0 1.8-.12 1.8-.36zm5.7 4.41c0-.467.17-.75.45-.75.38 0 .45-.733.45-4.8s-.07-4.8-.45-4.8c-.286 0-.45-.288-.45-.788v-.788l3.375.135c4.877.194 6.053.96 6.013 3.916-.034 2.522-1.359 3.685-4.58 4.022l-1.808.188v1.458c0 1.419.023 1.457.9 1.457.76 0 .9.117.9.75 0 .738-.04.75-2.4.75s-2.4-.012-2.4-.75zm6.533-6.017c.505-.354.667-.766.667-1.701 0-1.772-.623-2.332-2.597-2.332h-1.603v4.5h1.433c.812 0 1.722-.203 2.1-.467zm4.567 6.017c0-.467.17-.75.45-.75.38 0 .45-.733.45-4.8s-.07-4.8-.45-4.8c-.28 0-.45-.283-.45-.75 0-.729.06-.75 2.1-.75 2.012 0 2.1.03 2.1.715 0 .463-.212.77-.6.872-.51.133-.6.41-.6 1.835v1.678h5.7v-1.8c0-1.6-.067-1.8-.6-1.8-.44 0-.6-.2-.6-.75 0-.733.05-.75 2.25-.75s2.25.017 2.25.75c0 .55-.16.75-.6.75-.575 0-.6.2-.6 4.8 0 4.067.068 4.8.45 4.8.28 0 .45.283.45.75 0 .729-.06.75-2.1.75-2.013 0-2.1-.03-2.1-.715 0-.463.211-.77.6-.872.523-.137.6-.41.6-2.135v-1.978h-5.7v2.1c0 1.9.057 2.1.6 2.1.44 0 .6.2.6.75 0 .729-.06.75-2.1.75s-2.1-.021-2.1-.75zm13.2 0c0-.55.16-.75.6-.75.575 0 .6-.2.6-4.8 0-4.067-.07-4.8-.45-4.8-.28 0-.45-.283-.45-.75 0-.729.06-.75 2.1-.75 2.012 0 2.1.03 2.1.715 0 .463-.212.77-.6.872-.568.148-.6.41-.6 4.835 0 4.478.025 4.678.6 4.678.44 0 .6.2.6.75 0 .733-.05.75-2.25.75s-2.25-.017-2.25-.75zm-164.327-.143c-1.951-.885-3.292-2.034-4.71-4.035-1.514-2.135-2.95-4.89-2.733-5.24.288-.467 3.78-1.015 5.4-.848 3.17.328 5.782 2.093 8.469 5.724.715.967 1.299 1.71 1.297 1.65-.002-.06-.272-.964-.6-2.01-.371-1.184-.596-2.744-.596-4.135 0-2.674.783-4.496 2.663-6.194 1.433-1.295 3.615-2.47 3.932-2.118.633.702 1.284 3.572 1.423 6.272.135 2.616.072 3.211-.462 4.42-1.313 2.967-3.48 4.92-7.008 6.315-2.486.984-5.18 1.06-7.075.2zm215.927.317c-3.824-1.324-6.94-3.818-8.18-6.544-.908-2-.9-5.729.018-8.69.368-1.188.78-2.228.916-2.312.463-.286 2.894 1.152 4.277 2.53 2.472 2.463 3.037 6.386 1.512 10.492l-.612 1.65.808-1.05c1.883-2.445 4.442-4.845 5.959-5.587 2.098-1.026 4.815-1.255 7.082-.596l1.686.49-.454 1.087c-1.31 3.136-4.426 6.868-6.74 8.075-1.144.596-5.047.88-6.272.455zm-221.55-14.542c-2.705-1.283-4.897-4.155-6.284-8.233-.529-1.556-.632-2.197-.378-2.353.192-.119 1.448-.216 2.792-.216 2.149 0 2.681.117 4.419.973 2.245 1.105 3.516 2.43 5.511 5.747.745 1.238 1.266 1.913 1.159 1.5-.108-.412-.275-1.77-.371-3.015-.338-4.36 1.305-7.302 5.073-9.085 2.638-1.248 2.811-1.175 3.24 1.365.692 4.104-.036 7.576-2.076 9.9-3.083 3.51-9.408 5.163-13.085 3.417zm225.689.139c-3.685-1.178-6.604-3.746-7.535-6.627-.578-1.79-.666-5.51-.184-7.759l.32-1.494 1.134.4c3.154 1.113 5.589 3.2 6.342 5.434.453 1.343.538 4.016.206 6.425l-.227 1.65 1.118-2.1c1.555-2.918 4.26-5.591 6.387-6.313 1.635-.555 6.053-.783 6.5-.336.114.113-.036.98-.333 1.928-1.295 4.127-3.575 7.273-6.23 8.596-1.913.953-4.886 1.03-7.498.196zm-89.975-6.135c-1.68-.6-3.207-1.646-3.753-2.57l-.496-.84-1.532.419c-3.854 1.052-8.913.715-12.046-.8-3.135-1.519-5.47-4.713-6.297-8.614-.623-2.942-.63-36.186-.009-39.12 1.648-7.776 8.557-11.48 17.718-9.503 4.746 1.025 8.157 4.757 9.123 9.98.213 1.153.326 7.856.322 19.192-.005 18.08-.118 19.998-1.31 22.304-.641 1.239-.116 1.88 1.709 2.085l1.406.159v7.722l-1.875-.013c-1.03-.007-2.363-.188-2.96-.401zm-8.426-10.984c1.007-.457 1.417-.877 1.881-1.927.574-1.297.591-1.961.512-19.487-.08-17.793-.093-18.16-.7-18.973-1.16-1.552-2.07-2.015-3.964-2.015-2.201 0-3.47.701-4.274 2.363-.57 1.18-.593 1.903-.593 18.976 0 15.633.057 17.893.484 18.959.987 2.468 3.855 3.375 6.654 2.104zm-89.653 8.395c-5.626-.88-9.158-4.215-10.332-9.754-.369-1.742-.444-6-.448-25.418l-.005-23.325h9v23.41c0 25.352-.052 24.534 1.635 26.09.723.667 1.073.75 3.165.75 2.091 0 2.441-.083 3.164-.75 1.687-1.556 1.636-.738 1.636-26.09V74.85h8.4l-.005 23.625c-.005 25.519-.013 25.67-1.617 28.806-1.416 2.768-4.237 4.95-7.378 5.704-2.033.489-5.346.655-7.215.362zm117.3 0c-5.626-.88-9.158-4.215-10.332-9.754-.369-1.742-.444-6-.448-25.418l-.005-23.325h9v23.41c0 25.352-.051 24.534 1.635 26.09.723.667 1.073.75 3.165.75s2.441-.083 3.164-.75c1.687-1.556 1.636-.738 1.636-26.09V74.85h8.4l-.004 23.625c-.005 25.519-.013 25.67-1.617 28.806-1.416 2.768-4.238 4.95-7.379 5.704-2.033.489-5.345.655-7.215.362zM70.453 103.95v-29.1H81.81l.45 1.575c.248.866 2.287 8.393 4.53 16.725 2.243 8.333 4.2 15.42 4.35 15.75.166.367.279-6.13.291-16.725l.02-17.325h8.1v58.2H90.27l-.45-1.575c-.247-.866-2.749-10.08-5.558-20.475-2.81-10.395-5.234-19.17-5.388-19.5-.176-.378-.287 7.202-.3 20.475l-.02 21.075h-8.1v-29.1zm35.7 0v-29.1h9v58.2h-9v-29.1zm81.9 0v-29.1h24.9v8.1h-15.9v16.5h12.6v8.1h-12.6v17.4h15.9v8.1h-24.9v-29.1zM8.503 127.969c-4.036-.987-6.755-4.903-7.8-11.233l-.192-1.163 2.5.13c2.924.154 4.967 1.077 6.749 3.05 1.065 1.179 3.393 5.706 3.393 6.599 0 .254.1.525.225.6.123.077.232-1.164.24-2.757.02-3.583.74-5.47 2.77-7.258 1.275-1.122 4.332-2.387 5.768-2.387 1.27 0 .957 5.84-.474 8.865-1.932 4.086-8.267 6.755-13.18 5.554zm231.384-.028c-1.982-.334-4.431-1.519-5.919-2.862-2.248-2.032-3.315-5.037-3.315-9.335v-2.276l1.4.192c1.673.23 4.103 1.3 5.356 2.36 1.85 1.566 3.096 5.7 2.688 8.922-.165 1.31-.141 1.283.705-.802 1.27-3.133 2.238-4.643 3.972-6.202 1.777-1.598 3.7-2.288 6.375-2.288h1.787l-.173 1.425c-.457 3.755-2.508 7.906-4.707 9.524-1.994 1.468-4.742 1.92-8.17 1.342zM6.697 113.01C2.751 111.646.86 108.614.264 102.697c-.319-3.16-.263-3.292 1.294-3.054 2.375.364 4.462 1.347 5.889 2.775 1.697 1.699 2.53 3.377 3.39 6.825l.661 2.657.202-2.022c.322-3.228 1.037-4.953 2.775-6.69 1.79-1.79 3.63-2.538 6.24-2.538h1.757l-.182 1.575c-.477 4.115-2.124 7.586-4.373 9.216-2.733 1.98-7.932 2.706-11.222 1.569zm232.307-.017c-3.006-.994-4.944-2.58-6.225-5.091-.6-1.178-1.526-5.137-1.526-6.529v-.802l2.175.143c4.939.324 7.48 2.935 8.443 8.677.231 1.38.434 2.234.451 1.897.056-1.119.949-4.153 1.743-5.922 1.349-3.006 4.34-5.129 8.113-5.757l1.275-.212-.005 1.902c-.015 5.52-2.292 9.958-5.913 11.528-1.778.771-6.43.862-8.531.166zM9.804 98.846C3.727 97.889.777 93.105 1.59 85.522l.215-2.008.937.206c1.764.387 3.494 1.301 4.88 2.578 2.189 2.019 3.13 4.354 3.605 8.945l.201 1.944.49-1.944c.713-2.824 2.065-5.058 3.758-6.21 1.808-1.23 3.09-1.58 5.803-1.581 2.575-.002 2.56-.039 1.441 3.485-.851 2.68-2.428 5.128-4.007 6.221-2.322 1.606-5.676 2.228-9.108 1.688zm228.464-.103c-1.943-.492-4.014-1.7-5.082-2.962-1.573-1.86-3.733-7.492-3.124-8.144.135-.144 1.437-.202 2.893-.128 3.107.157 4.507.754 6.222 2.652 1.273 1.41 1.824 2.553 2.593 5.389l.528 1.95.03-1.35c.099-4.55 1.55-8.294 3.95-10.191 1.506-1.191 4.586-2.546 5.227-2.3.53.204.794 4.05.446 6.503-.8 5.646-3.845 8.39-9.766 8.803-1.508.106-2.946.024-3.917-.222zM12.703 84.495c-2.675-.685-4.22-1.499-5.592-2.945-1.77-1.863-2.16-2.909-2.3-6.157-.13-3.003.57-7.443 1.174-7.443.16 0 .86.285 1.555.634 4.344 2.182 6.038 5.377 5.858 11.048-.053 1.645-.015 2.896.083 2.78.098-.117.487-.993.864-1.948.813-2.057 2.908-4.498 4.602-5.362 1.554-.793 4.1-1.02 6.3-.564 1.974.41 1.955.283.514 3.462-2.54 5.605-7.297 7.971-13.058 6.495zm222.79.25c-2.092-.44-3.829-1.432-5.228-2.989-1.272-1.414-2.976-4.476-3.363-6.04-.18-.727-.096-.808 1.161-1.125 3.11-.783 6.107-.19 8.233 1.63 1.377 1.179 2.24 2.467 3.277 4.897l.718 1.682-.174-1.986c-.23-2.638.268-5.953 1.16-7.712.397-.784 1.352-2.006 2.121-2.716 1.507-1.39 3.965-2.65 4.363-2.24.135.14.458 1.295.718 2.566 1.464 7.15-.684 11.689-6.36 13.442-2.415.746-4.85.963-6.627.59zM18.102 70.96c-3.408-.86-6.558-3.238-7.649-5.774-.925-2.151-.759-6.296.382-9.508.434-1.221.927-2.36 1.096-2.529.432-.432 1.62.25 3.31 1.9 3.034 2.963 3.67 6.628 2.235 12.9-.1.438.24.064.817-.9 1.238-2.066 3.342-4.189 4.909-4.952.841-.41 1.827-.584 3.3-.583 2.23 0 5.252.827 5.247 1.434-.005.654-1.722 3.352-3.125 4.913-.848.943-2.118 1.914-3.233 2.47-1.591.796-2.138.914-4.112.887-1.253-.017-2.682-.133-3.177-.258zm210.8-.2c-.715-.263-2.132-1.256-3.15-2.21-1.8-1.683-4.232-5.246-3.923-5.745.084-.136 1.104-.537 2.267-.89 4.61-1.4 8.467.358 11.13 5.073.494.873.939 1.548.989 1.498.05-.05-.115-.967-.365-2.039-.637-2.731-.426-6.93.432-8.583 1.127-2.171 3.937-4.915 5.033-4.915.446 0 1.73 3.115 2.2 5.34.621 2.935.442 5.153-.58 7.2-1.105 2.21-2.121 3.116-5.073 4.522-1.98.942-2.554 1.075-4.95 1.145-1.901.056-3.098-.063-4.01-.397zm-172.85-6.15c-1.754-.332-2.69-1.039-3.546-2.679-.605-1.158-.682-1.667-.586-3.899.133-3.075.829-4.463 2.723-5.43 1.37-.699 4.26-.847 5.684-.29.747.292.825.463.825 1.83 0 1.467-.024 1.507-.881 1.507-.775 0-.893-.118-.975-.975-.09-.938-.15-.979-1.545-1.067-2.6-.166-3.8 1.332-3.8 4.742 0 3.479 1.183 4.9 3.948 4.742 1.601-.092 1.603-.093 1.693-1.163.083-1 .148-1.062.975-.94.842.123.885.2.885 1.602 0 1.255-.1 1.51-.675 1.722-1.163.429-3.32.565-4.725.299zm109.05.201c-.165-.062-.807-.198-1.425-.301-1.12-.187-1.125-.195-1.125-1.642 0-1.05.132-1.506.474-1.637.812-.311 1.026-.206 1.026.508 0 .989.555 1.41 1.86 1.41 1.323 0 2.34-.827 2.34-1.903 0-.934-.703-1.521-2.726-2.277-2.245-.839-3.074-1.754-3.074-3.394 0-1.625.466-2.49 1.684-3.12 1.09-.565 3.802-.64 5.09-.14.732.283.826.473.826 1.677 0 1.301-.037 1.357-.88 1.357-.738 0-.896-.134-.975-.825-.086-.74-.228-.835-1.393-.918-1.66-.12-2.209.33-2.093 1.714.087 1.024.184 1.11 2.177 1.91 2.511 1.007 3.066 1.472 3.505 2.939.283.946.248 1.3-.228 2.256-.31.625-.9 1.373-1.313 1.663-.714.502-3.112.965-3.75.723zm16.67-.208c-2.599-.472-3.926-2.605-3.914-6.289.016-4.498 2.932-6.983 7.35-6.264.91.148 1.785.351 1.948.452.163.1.296.85.296 1.665 0 1.44-.026 1.482-.881 1.482-.775 0-.893-.118-.975-.975-.092-.95-.135-.977-1.66-1.065-2.812-.163-3.981 1.166-3.983 4.525-.002 3.378 1.088 5.015 3.34 5.015 1.869 0 2.059-.183 2.059-1.982 0-1.526-.043-1.618-.75-1.618-.6 0-.75-.15-.75-.75 0-.733.05-.75 2.25-.75 2.173 0 2.25.025 2.25.718 0 .395-.203.796-.45.89-.337.13-.45.67-.45 2.148 0 1.947-.014 1.98-.975 2.37-1.357.55-3.137.712-4.704.428zM63.254 63.9c0-.467.17-.75.45-.75.38 0 .45-.733.45-4.8s-.07-4.8-.45-4.8c-.28 0-.45-.283-.45-.75 0-.74.03-.75 2.535-.75 4.993 0 6.765.88 6.765 3.36 0 1.418-.389 2.263-1.454 3.164-.438.37-.622.674-.409.675.213 0 .781.879 1.263 1.951.663 1.478 1.023 1.95 1.487 1.95.453 0 .613.195.613.75 0 .733-.05.75-2.25.75s-2.25-.017-2.25-.75c0-.467.17-.75.45-.75.622 0 .556-.544-.238-1.95-.624-1.104-.791-1.207-2.095-1.291l-1.417-.092v1.667c0 1.466.072 1.666.6 1.666.44 0 .6.2.6.75 0 .729-.06.75-2.1.75s-2.1-.021-2.1-.75zm6.651-6.346c.37-.335.549-.918.549-1.79 0-1.565-.489-1.914-2.68-1.914h-1.52v4.2h1.551c1.023 0 1.738-.17 2.1-.496zm5.349 6.346c0-.467.17-.75.45-.75.38 0 .45-.733.45-4.8s-.07-4.8-.45-4.8c-.28 0-.45-.283-.45-.75v-.75h8.4v1.5c0 1.467-.02 1.5-.9 1.5-.7 0-.9-.133-.9-.6 0-.533-.2-.6-1.8-.6h-1.8v3.6h4.5v1.8h-4.5v3.629l1.875-.09c1.684-.08 1.884-.158 1.97-.764.075-.525.292-.675.975-.675.866 0 .88.025.88 1.65v1.65h-8.7v-.75zm9.6 0c0-.441.172-.75.418-.75.491 0 .478.03 2.132-4.8.706-2.062 1.38-3.986 1.499-4.275.164-.402.067-.525-.417-.525-.475 0-.632-.187-.632-.75 0-.726.065-.75 2.025-.75h2.025l1.95 5.55c1.525 4.343 2.064 5.55 2.475 5.55.36 0 .525.236.525.75 0 .738-.04.75-2.4.75s-2.4-.013-2.4-.75c0-.542.16-.75.582-.75.754 0 .907-.292.592-1.125-.235-.622-.443-.675-2.63-.675-2.209 0-2.387.047-2.555.675-.266.993-.236 1.125.26 1.125.28 0 .45.283.45.75 0 .723-.07.75-1.95.75s-1.95-.027-1.95-.75zm7.5-4.41c0-.706-1.542-5.398-1.717-5.224-.14.14-1.865 5.195-1.88 5.509-.002.041.807.075 1.797.075 1.198 0 1.8-.12 1.8-.36zm6 4.41c0-.6.15-.75.75-.75h.75v-9.338l-.975.094c-.748.072-.998.252-1.071.769-.1.707-.294.795-1.08.493-.343-.132-.474-.588-.474-1.65V52.05h9.6v1.5c0 .825-.102 1.502-.225 1.504-.124.003-.53.086-.9.185-.574.154-.675.064-.675-.604 0-.697-.118-.785-1.05-.785h-1.05v9.3h.75c.6 0 .75.15.75.75 0 .741-.03.75-2.55.75s-2.55-.009-2.55-.75zm8.4 0c0-.55.16-.75.6-.75.575 0 .6-.2.6-4.8 0-4.067-.07-4.8-.45-4.8-.28 0-.45-.283-.45-.75 0-.729.06-.75 2.1-.75 2.012 0 2.1.03 2.1.715 0 .463-.212.77-.6.872-.568.148-.6.41-.6 4.835 0 4.478.025 4.678.6 4.678.44 0 .6.2.6.75 0 .733-.05.75-2.25.75s-2.25-.017-2.25-.75zm9.125-2.475c-2.527-7.148-2.767-7.726-3.243-7.822-.284-.057-.482-.397-.482-.825 0-.706.068-.728 2.25-.728 2.2 0 2.25.017 2.25.75 0 .453-.172.75-.433.75-.237 0-.504.116-.592.258-.17.276 2.14 7.515 2.538 7.952.13.142.828-1.613 1.552-3.9 1.196-3.783 1.266-4.169.775-4.256-.346-.061-.54-.358-.54-.825 0-.697.085-.729 1.95-.729 1.88 0 1.95.027 1.95.75 0 .44-.173.75-.417.75-.271 0-1.08 1.932-2.325 5.548l-1.908 5.548-1.093.002-1.092.002-1.14-3.225zm9.475 2.475c0-.467.17-.75.45-.75.38 0 .45-.733.45-4.8s-.07-4.8-.45-4.8c-.28 0-.45-.283-.45-.75v-.75h8.4v1.5c0 1.467-.02 1.5-.9 1.5-.7 0-.9-.133-.9-.6 0-.533-.2-.6-1.8-.6h-1.8v3.6h4.5v1.8h-4.5v3.629l1.875-.09c1.684-.08 1.884-.158 1.97-.764.075-.525.292-.675.975-.675.866 0 .88.025.88 1.65v1.65h-8.7v-.75zm14.1 0c0-.467.17-.75.45-.75.38 0 .45-.733.45-4.8s-.07-4.8-.45-4.8c-.28 0-.45-.283-.45-.75 0-.736.042-.75 2.359-.75 6.194 0 8.27 1.524 8.24 6.05-.01 1.494-.195 2.365-.73 3.435-1.236 2.466-2.694 3.077-7.394 3.102-2.444.013-2.475.003-2.475-.737zm7.334-2.025c1.436-1.436 1.687-3.705.699-6.314-.42-1.109-1.659-1.711-3.518-1.711h-1.515v9h1.68c1.495 0 1.787-.107 2.654-.975zm5.266 2.025c0-.467.17-.75.45-.75.38 0 .45-.733.45-4.8s-.07-4.8-.45-4.8c-.28 0-.45-.283-.45-.75v-.75h8.4v1.5c0 1.467-.02 1.5-.9 1.5-.7 0-.9-.133-.9-.6 0-.533-.2-.6-1.8-.6h-1.8v3.6h4.5v1.8h-4.5v3.629l1.875-.09c1.684-.08 1.884-.158 1.97-.764.075-.525.292-.675.975-.675.866 0 .88.025.88 1.65v1.65h-8.7v-.75zm19.8 0c0-.55.16-.75.6-.75.575 0 .6-.2.6-4.8 0-4.067-.07-4.8-.45-4.8-.28 0-.45-.283-.45-.75 0-.729.06-.75 2.1-.75 2.012 0 2.1.03 2.1.715 0 .463-.212.77-.6.872-.568.148-.6.41-.6 4.835 0 4.478.025 4.678.6 4.678.44 0 .6.2.6.75 0 .733-.05.75-2.25.75s-2.25-.017-2.25-.75zm18.3 0c0-.467.17-.75.45-.75.38 0 .45-.733.45-4.8s-.07-4.8-.45-4.8c-.28 0-.45-.283-.45-.75 0-.705.094-.75 1.575-.746l1.575.004 2.527 4.21c1.39 2.317 2.639 4.28 2.775 4.364.136.085.248-1.475.248-3.464 0-3.418-.034-3.618-.6-3.618-.44 0-.6-.2-.6-.75 0-.729.06-.75 2.1-.75s2.1.021 2.1.75c0 .467-.17.75-.45.75-.384 0-.45.819-.45 5.568v5.568l-1.084-.093c-1.047-.09-1.174-.24-3.709-4.376-1.443-2.356-2.71-4.37-2.816-4.475-.105-.106-.191 1.518-.191 3.608 0 3.6.031 3.8.6 3.8.44 0 .6.2.6.75 0 .729-.06.75-2.1.75s-2.1-.021-2.1-.75zM24.337 57.78c-2.09-.772-4.955-2.817-5.944-4.243-2.241-3.235-2.195-6.695.153-11.537 1.882-3.88 1.754-3.804 3.56-2.114 2.288 2.14 3.158 4.173 3.153 7.364-.003 1.974-.176 3.024-.767 4.65-.42 1.155-.857 2.37-.972 2.7-.118.343.15.15.627-.45 1.46-1.836 3.415-3.55 4.858-4.261 2.164-1.067 4.999-.965 7.623.274 1.113.525 2.025 1.051 2.025 1.169 0 .45-2.507 3.433-3.723 4.43-2.339 1.916-3.66 2.43-6.477 2.516-1.926.06-2.934-.063-4.116-.499zm197.08-.194c-1.853-.935-4.388-3.167-5.623-4.949-.852-1.23-.857-1.26-.28-1.7 2.492-1.893 6.674-2.31 9.312-.928 1.423.746 4.927 4.13 4.927 4.758 0 .156.125.283.279.283.153 0-.036-.776-.421-1.725-2.235-5.507-1.603-10.11 1.848-13.464 1.653-1.607 1.765-1.55 3.423 1.748 1.188 2.362 2.058 5.315 2.066 7.012.016 3.257-2.287 6.39-6.158 8.379-2.143 1.1-2.563 1.208-5.062 1.293-2.46.084-2.88.015-4.312-.707zM28.605 45.759c-.34-1.072.432-5.198 1.334-7.126 1.687-3.606 5.307-6.405 9.569-7.4 2.19-.51 2.154-.594 1.252 2.934-1.35 5.282-3.944 8.466-8.833 10.844-1.514.736-2.839 1.339-2.944 1.339-.105 0-.275-.266-.378-.59zm193.923-.268c-5.82-2.483-8.87-6.486-10.132-13.3l-.261-1.41.933.174c1.706.315 4.173 1.276 5.822 2.267 2.827 1.698 4.7 4.293 5.636 7.805.443 1.664.581 5.329.2 5.315-.123-.005-1.113-.387-2.198-.85zm-107.376-6.8c0-.127 1.012-3.367 2.25-7.2 1.237-3.834 2.25-7.088 2.25-7.23-.001-.144-2.775-2.286-6.165-4.761l-6.163-4.5 7.746-.08 7.746-.08 2.408-7.42 2.41-7.42 2.482 7.42 2.482 7.42 7.69.08 7.69.08-2.088 1.534a6537.87 6537.87 0 0 0-6.186 4.554l-4.098 3.02.98 3.096c.539 1.703 1.593 5.02 2.342 7.37.75 2.35 1.208 4.18 1.018 4.064-.19-.116-3.029-2.142-6.31-4.502-3.797-2.733-6.087-4.2-6.3-4.036a868.9 868.9 0 0 1-5.284 3.803c-2.723 1.95-5.39 3.877-5.925 4.282-.537.405-.975.632-.975.506zm-15.394-2.886l-3.244-2.368-3.16 2.277c-1.74 1.252-3.21 2.228-3.27 2.169-.06-.06.415-1.767 1.055-3.793l1.163-3.685-3.15-2.302-3.148-2.303 3.989-.15 3.988-.15 1.228-3.9 1.227-3.9 1.333 3.9 1.333 3.9 4.009.084 4.01.084-3.11 2.28a288.11 288.11 0 0 0-3.233 2.39c-.068.06.433 1.825 1.112 3.924.68 2.098 1.207 3.837 1.173 3.863-.034.027-1.521-1.017-3.305-2.32zm63.282.006l-3.262-2.35-.938.659a235.2 235.2 0 0 0-3.135 2.272c-1.209.888-2.25 1.562-2.313 1.498-.064-.063.407-1.774 1.047-3.8l1.163-3.685-3.15-2.302-3.148-2.303 3.974-.15 3.973-.15 1.24-3.9 1.238-3.9 1.336 3.9 1.337 3.9 4.009.084 4.01.084-3.11 2.28a288.11 288.11 0 0 0-3.233 2.39c-.068.06.433 1.825 1.112 3.924.68 2.098 1.207 3.834 1.173 3.857-.034.022-1.53-1.016-3.323-2.308z"/></svg>