<svg xmlns="http://www.w3.org/2000/svg" viewBox="0 0 269.23946 180.09192" height="192.098" width="287.189"><path d="M146.19 179.53c-.108-.176-.133-.384-.055-.463.08-.078.223.065.321.32.203.529.03.622-.266.143zm.786-2.555c.015-.35.086-.42.182-.181.086.216.076.475-.024.575-.1.1-.17-.078-.158-.394zm11.54-2.504c-.095-.154-.058-.35.082-.437.14-.087.255.039.255.28 0 .505-.095.55-.338.157zm-11.84-1.696c.015-.35.086-.42.182-.181.086.216.076.475-.024.575-.1.1-.17-.078-.158-.394zm-18.08-1.83c.217-.087.476-.076.575.024.1.1-.077.17-.393.157-.35-.014-.42-.085-.182-.18zm20.157-.077c0-.156.133-.365.296-.466.17-.105.22.015.118.282-.2.52-.414.615-.414.184zm.923-1.093c.015-.35.086-.42.182-.181.086.216.076.475-.024.575-.1.1-.17-.078-.158-.394zm53.038-5.15c-.373-.476-.362-.486.114-.113.288.226.525.462.525.525 0 .247-.247.088-.639-.412zm-129.6-.3c-.373-.476-.362-.486.114-.113.288.226.525.462.525.525 0 .247-.247.088-.639-.412zm-.838-2.05c.015-.35.086-.42.182-.181.086.216.076.475-.024.575-.1.1-.17-.078-.158-.394zm77.424-6.725c0-.413.068-.581.151-.375.084.206.084.544 0 .75-.083.206-.151.037-.151-.375zm-17.147-10.313c0-.063.236-.299.525-.525.475-.373.486-.363.113.113-.392.5-.638.659-.638.412zm13.461-.712c-.373-.476-.362-.486.114-.113.288.226.525.462.525.525 0 .247-.247.088-.639-.412zm-41.961.112c0-.063.236-.299.525-.525.475-.373.486-.363.113.113-.392.5-.638.659-.638.412zm-2.4-1.8c0-.063.236-.299.525-.525.475-.373.486-.363.113.113-.392.5-.638.659-.638.412zm107.181-10.087c0-.742.059-1.046.13-.675.072.371.072.979 0 1.35-.071.371-.13.068-.13-.675zm-104.06-1.575l-.571-.675.675.571c.634.538.811.779.571.779-.057 0-.36-.304-.675-.675zm-35.746-17.85c8.043-.044 21.206-.044 29.25 0 8.043.045 1.462.08-14.625.08-16.088 0-22.67-.035-14.625-.08zm91.35 0c8.62-.044 22.728-.044 31.35 0 8.62.044 1.567.08-15.675.08-17.243 0-24.297-.036-15.675-.08zm-152.504-2.25l-.571-.675.675.572c.634.537.811.778.571.778-.057 0-.36-.304-.675-.675zm-3.398-8.2c.015-.35.086-.42.182-.181.086.216.076.475-.024.575-.1.1-.17-.078-.158-.394zm0-1.2c.015-.35.086-.42.182-.181.086.216.076.475-.024.575-.1.1-.17-.078-.158-.394zm187.898-8.3l-.571-.675.675.572c.634.537.811.778.571.778-.057 0-.36-.304-.675-.675zm22.8 0l-.571-.675.675.572c.634.537.811.778.571.778-.057 0-.36-.304-.675-.675zM7.753 93.337c0-.063.236-.299.525-.525.475-.373.486-.363.113.113-.392.5-.638.659-.638.412zM93.6 81.15c0-.412.068-.581.151-.375.084.206.084.544 0 .75-.083.206-.151.038-.151-.375zm155.076-.775c.015-.35.086-.42.182-.181.086.216.076.475-.024.575-.1.1-.17-.078-.158-.394zm-223.58-1.53c.217-.087.476-.076.575.024.1.1-.077.17-.393.157-.35-.014-.42-.085-.182-.18zM248.7 77.85c0-.412.068-.581.151-.375.084.206.084.544 0 .75-.083.206-.151.038-.151-.375zm-217.997-1.2c.298-.33.61-.6.693-.6.082 0-.095.27-.393.6-.299.33-.61.6-.693.6-.083 0 .094-.27.393-.6zM13.776 65.675c.015-.35.086-.42.182-.181.086.216.076.475-.024.575-.1.1-.17-.078-.158-.394zm193.5-1.8c.015-.35.086-.42.182-.181.086.216.076.475-.024.575-.1.1-.17-.078-.158-.394zm-193.5-.9c.015-.35.086-.42.182-.181.086.216.076.475-.024.575-.1.1-.17-.078-.158-.394zm251.302-2.445a17.182 17.182 0 0 1 2.55 0c.7.064.127.115-1.275.115-1.403 0-1.977-.051-1.275-.115zM35.975 47.727c-.27-.326-.262-.475.038-.648.214-.124.29-.115.167.02-.122.135-.072.427.112.648.184.222.267.403.184.403-.082 0-.308-.19-.501-.423zM10.003 38.25c.644-.66 1.239-1.2 1.321-1.2.083 0-.377.54-1.021 1.2-.645.66-1.24 1.2-1.322 1.2-.083 0 .377-.54 1.022-1.2zm14.1.3c.298-.33.61-.6.693-.6.082 0-.095.27-.393.6-.299.33-.61.6-.693.6-.083 0 .094-.27.393-.6zm96.85-11.7c0-1.237.053-1.744.118-1.125s.065 1.631 0 2.25-.118.113-.118-1.125zm78.6 0c0-1.237.053-1.744.118-1.125s.065 1.631 0 2.25-.118.113-.118-1.125zm-98.05-11.4c.298-.33.61-.6.693-.6.082 0-.095.27-.393.6-.299.33-.61.6-.693.6-.083 0 .094-.27.393-.6zm-2.527-5.875c.015-.35.086-.42.182-.181.086.216.076.475-.024.575-.1.1-.17-.078-.158-.394zm2.798-7.7l-.571-.675.675.571c.634.538.811.779.571.779-.057 0-.36-.304-.675-.675z" fill="#d3d3d3"/><path d="M146.053 178.668c0-.156.133-.365.296-.466.17-.105.22.015.118.282-.2.52-.414.615-.414.184zm-14.757-5.923c.217-.087.476-.076.575.024.1.1-.077.17-.393.157-.35-.014-.42-.085-.182-.18zm12.876-1.019c.106-.406.242-.542.317-.317.072.216-.012.536-.186.71-.222.223-.262.106-.131-.393zm-50.676-.48c.217-.088.476-.077.575.023.1.1-.077.17-.393.157-.35-.014-.42-.085-.182-.18zm71.18-.271c.015-.35.086-.42.182-.181.086.216.076.475-.024.575-.1.1-.17-.078-.158-.394zm-23.498-1.824a1.16 1.16 0 0 1 .75 0c.206.084.037.152-.375.152-.413 0-.582-.068-.375-.152zM91.528 145.2c.003-.66.065-.895.137-.522.072.374.069.914-.006 1.2-.075.287-.134-.018-.13-.678zm17.1 0c.003-.66.065-.895.137-.522.072.374.069.914-.006 1.2-.075.287-.134-.018-.13-.678zm27.3 0c.003-.66.065-.895.137-.522.072.374.069.914-.006 1.2-.075.287-.134-.018-.13-.678zm6.21-.067c-.082-.697-.035-1.153.104-1.013.14.14.207.71.15 1.267-.102.988-.108.982-.254-.254zm18.09.067c.003-.66.065-.895.137-.522.072.374.069.914-.006 1.2-.075.287-.134-.018-.13-.678zm-2.67-2.85c0-1.402.051-1.976.114-1.275.063.701.063 1.849 0 2.55-.063.701-.115.128-.115-1.275zm-60.33 1.285a6.63 6.63 0 0 1 1.65 0c.453.069.082.125-.825.125-.908 0-1.28-.056-.825-.125zm26.868-2.39c.217-.087.476-.076.575.024.1.1-.077.17-.393.157-.35-.014-.42-.085-.182-.18zm31.8-6.9c.217-.087.476-.076.575.024.1.1-.077.17-.393.157-.35-.014-.42-.085-.182-.18zm-1.368-1.145c.003-.66.065-.895.137-.522.072.374.069.914-.006 1.2-.075.287-.134-.018-.13-.678zm-57.296-1.565c.456-.07 1.13-.067 1.5.004.369.07-.004.127-.83.125-.824-.002-1.126-.06-.67-.13zm15.632-21.385c0-1.732.05-2.441.11-1.575.06.866.06 2.284 0 3.15-.06.866-.11.158-.11-1.575zm31.8 0c0-1.732.05-2.441.11-1.575.06.866.06 2.284 0 3.15-.06.866-.11.158-.11-1.575zm-112.461-1.2c.298-.33.61-.6.693-.6.082 0-.095.27-.393.6-.299.33-.61.6-.693.6-.083 0 .094-.27.393-.6zm-9.489-17.025c-.373-.476-.362-.486.114-.113.288.226.525.462.525.525 0 .247-.247.088-.639-.412zm232.782-3.58c.217-.087.476-.076.575.024.1.1-.077.17-.393.157-.35-.014-.42-.085-.182-.18zm-160.482-.62c-.373-.476-.362-.486.114-.113.5.392.658.638.411.638-.062 0-.298-.236-.525-.525zm-89.384-6.3l-.727-.825.825.727c.77.68.962.923.727.923-.054 0-.425-.371-.825-.825zm201.646-18.55c.015-.35.086-.42.182-.181.086.216.076.475-.024.575-.1.1-.17-.078-.158-.394zm-17.498-4.524a1.16 1.16 0 0 1 .75 0c.206.084.037.152-.375.152-.413 0-.582-.068-.375-.152zm54.375-.495c0-.052.438-.49.975-.975l.975-.881-.882.975c-.82.909-1.068 1.113-1.068.881zm-24.34-6.287c.128-.127 3.058-.195 6.51-.15l6.28.082-6.51.15c-3.582.082-6.407.045-6.28-.082zM39.6 40.05c0-.412.068-.581.151-.375.084.206.084.544 0 .75-.083.206-.151.038-.151-.375zm68.191-25.5c0-8.002.04-11.276.086-7.275.048 4.001.048 10.549 0 14.55-.047 4.001-.086.728-.086-7.275zm40.799 2.1c0-6.847.04-9.649.087-6.225.048 3.424.048 9.026 0 12.45-.048 3.424-.087.623-.087-6.225zm8.401-2.1c0-8.002.04-11.276.086-7.275.048 4.001.048 10.549 0 14.55-.047 4.001-.086.728-.086-7.275zm29.4 0c0-8.002.04-11.276.086-7.275.048 4.001.048 10.549 0 14.55-.047 4.001-.086.728-.086-7.275zM82.903 27.15c.298-.33.61-.6.693-.6.082 0-.095.27-.393.6-.299.33-.61.6-.693.6-.083 0 .094-.27.393-.6zm-3.369-5.4c0-.742.059-1.046.13-.675.072.371.072.979 0 1.35-.071.371-.13.068-.13-.675zm14.698-8.915c.456-.07 1.13-.067 1.5.004.369.071-.004.127-.83.125-.824-.002-1.126-.06-.67-.13zm9.844-4.46c.015-.35.086-.42.182-.181.086.216.076.475-.024.575-.1.1-.17-.078-.158-.394zM79.534 7.35c0-.742.059-1.046.13-.675.072.371.072.979 0 1.35-.071.371-.13.068-.13-.675zm40.82-5.1c0-1.237.052-1.744.117-1.125s.065 1.631 0 2.25-.118.113-.118-1.125zm78.6 0c0-1.237.052-1.744.117-1.125s.065 1.631 0 2.25-.118.113-.118-1.125z" fill="#b3b3b3"/><path d="M150.122 178.138c-.163-.428-.128-.462.168-.168.205.204.297.446.205.538-.093.092-.26-.074-.373-.37zm52.354-19.463c.015-.35.086-.42.182-.181.086.216.076.475-.024.575-.1.1-.17-.078-.158-.394zm-82.727-2.45c5.581-.046 14.626-.046 20.1 0 5.475.046.909.083-10.146.083-11.055 0-15.534-.037-9.954-.083zm46.749-10.93c-.04-.961-.153-1.121-.87-1.23l-.825-.125.834-.045c.942-.05 1.221.397 1.033 1.655-.11.728-.134.691-.172-.255zm-25.712-1.529c-.08-.211-.107-3.012-.058-6.225l.088-5.841.068 6.053c.062 5.479.118 6.066.594 6.19.492.129.491.14-.01.172-.293.02-.6-.138-.681-.349zm10.592.185a1.16 1.16 0 0 1 .75 0c.206.084.037.152-.375.152-.413 0-.582-.068-.375-.152zm-55-6.251c0-3.3.044-4.69.098-3.091.054 1.6.054 4.3 0 6-.053 1.7-.097.391-.097-2.909zm17.08 3.45c0-1.402.051-1.976.114-1.275.063.701.063 1.849 0 2.55-.063.701-.115.128-.115-1.275zm6.138.395c.217-.087.476-.076.575.024.1.1-.077.17-.393.157-.35-.014-.42-.085-.182-.18zm5.4-.3c.217-.087.476-.076.575.024.1.1-.077.17-.393.157-.35-.014-.42-.085-.182-.18zm18.98-2.07c.015-.35.086-.42.182-.181.086.216.076.475-.024.575-.1.1-.17-.078-.158-.394zm9.357.267c.292-.076.697-.071.9.011.203.082-.035.145-.53.139-.495-.006-.662-.074-.37-.15zm-33.895-2.042c.002-.825.06-1.127.13-.67.069.455.067 1.13-.004 1.5-.071.368-.128-.005-.125-.83zm-12.61-.3c.003-.66.065-.895.137-.522.072.374.069.914-.006 1.2-.075.287-.134-.018-.13-.678zm6.625-3.15c0-1.237.053-1.744.118-1.125s.065 1.631 0 2.25-.118.113-.118-1.125zm-43.375.979c.866-.06 2.283-.06 3.15 0 .866.06.157.11-1.575.11-1.733 0-2.442-.05-1.575-.11zm10.5 0c.866-.06 2.283-.06 3.15 0 .866.06.157.11-1.575.11-1.733 0-2.442-.05-1.575-.11zm104.1 0c.866-.06 2.283-.06 3.15 0 .866.06.157.11-1.575.11-1.733 0-2.442-.05-1.575-.11zm10.5 0c.866-.06 2.283-.06 3.15 0 .866.06.157.11-1.575.11-1.733 0-2.442-.05-1.575-.11zm-40.182-.584c.217-.087.476-.076.575.024.1.1-.077.17-.393.157-.35-.014-.42-.085-.182-.18zm2.257-2.195c0-1.237.053-1.744.118-1.125s.065 1.631 0 2.25-.118.113-.118-1.125zm-24.457 1.595c.217-.087.476-.076.575.024.1.1-.077.17-.393.157-.35-.014-.42-.085-.182-.18zm-13.818-.294a1.16 1.16 0 0 1 .75 0c.206.084.037.152-.375.152-.413 0-.582-.068-.375-.152zm-80.23-2.126c3.6-.048 9.405-.048 12.9 0 3.495.048.55.087-6.545.087s-9.955-.039-6.355-.087zm70.948.02c.217-.087.476-.076.575.024.1.1-.077.17-.393.157-.35-.014-.42-.085-.182-.18zm18.882.006a1.16 1.16 0 0 1 .75 0c.206.083.037.151-.375.151-.413 0-.582-.068-.375-.15zm8.1 0a1.16 1.16 0 0 1 .75 0c.206.083.037.151-.375.151-.413 0-.582-.068-.375-.15zm15.15-.008a2.465 2.465 0 0 1 1.05 0c.288.076.052.137-.525.137-.578 0-.814-.061-.525-.137zm9.468.002c.217-.087.476-.076.575.024.1.1-.077.17-.393.157-.35-.014-.42-.085-.182-.18zm10.5 0c.217-.087.476-.076.575.024.1.1-.077.17-.393.157-.35-.014-.42-.085-.182-.18zm43.632-.02a593.82 593.82 0 0 1 13.05 0c3.588.048.652.087-6.525.087-7.178 0-10.114-.039-6.525-.087zM54.364 110.25c0-1.732.05-2.441.11-1.575.06.866.06 2.284 0 3.15-.06.866-.11.158-.11-1.575zm47.739-18c.298-.33.61-.6.693-.6.082 0-.095.27-.393.6-.299.33-.61.6-.693.6-.083 0 .094-.27.393-.6zm-84.207-5.905c.217-.087.476-.076.575.024.1.1-.077.17-.393.157-.35-.014-.42-.085-.182-.18zm99.38-1.77c.015-.35.086-.42.182-.181.086.216.076.475-.024.575-.1.1-.17-.078-.158-.394zM0 65.25c0-.412.068-.581.151-.375.084.206.084.544 0 .75-.083.206-.151.038-.151-.375zm0-2.7c0-.412.068-.581.151-.375.084.206.084.544 0 .75-.083.206-.151.038-.151-.375zm100.753-3.413c0-.063.236-.299.525-.525.475-.373.486-.363.113.113-.392.5-.638.659-.638.412zm-6.82-41.795c.292-.076.697-.071.9.011.203.082-.035.145-.53.139-.495-.007-.662-.074-.37-.15zm24.318-3.842c.001-1.155.056-1.59.12-.968.065.622.064 1.567-.001 2.1-.067.532-.12.023-.119-1.132zm78.6 0c.001-1.155.056-1.59.12-.968.065.622.064 1.567-.001 2.1-.067.532-.12.023-.119-1.132z" fill="#919191"/><path d="M111.496 177.245c.217-.087.476-.076.575.024.1.1-.077.17-.393.157-.35-.014-.42-.085-.182-.18zm-24.82-7.17c.015-.35.086-.42.182-.181.086.216.076.475-.024.575-.1.1-.17-.078-.158-.394zm35.74-.605c-.213-.231-.255-.42-.093-.42.312 0 .763.57.585.74-.058.055-.28-.09-.492-.32zm45.617-3.328c.292-.076.697-.071.9.011.203.082-.035.145-.53.139-.495-.006-.662-.074-.37-.15zM57.934 132.75c0-.742.059-1.046.13-.675.072.371.072.979 0 1.35-.071.371-.13.068-.13-.675zm88.269-1.5c.298-.33.61-.6.693-.6.082 0-.095.27-.393.6-.299.33-.61.6-.693.6-.083 0 .094-.27.393-.6zm-22.35-.413c0-.063.236-.299.525-.525.475-.373.486-.363.113.113-.392.5-.638.659-.638.412zM18.796 86.345c.217-.087.476-.076.575.024.1.1-.077.17-.393.157-.35-.014-.42-.085-.182-.18zM.011 63.9c.006-.495.073-.661.15-.37.076.293.07.698-.012.9-.082.204-.144-.035-.138-.53zm72.785-5.455c.217-.087.476-.076.575.024.1.1-.077.17-.393.157-.35-.014-.42-.085-.182-.18zM84.9 57.45c0-.412.068-.581.151-.375.084.206.084.544 0 .75-.083.206-.151.038-.151-.375zm20.278-.799a1.16 1.16 0 0 1 .75 0c.206.084.037.152-.375.152-.413 0-.582-.068-.375-.152zm44.4-.6a1.16 1.16 0 0 1 .75 0c.206.084.037.152-.375.152-.413 0-.582-.068-.375-.152zm83.896-21.176l-.571-.675.675.571c.37.315.675.619.675.675 0 .24-.242.063-.779-.571zM74.785 14.55c0-4.867.042-6.859.092-4.425.05 2.434.05 6.416 0 8.85-.05 2.434-.092.443-.092-4.425zm-15.021-1.5c0-1.732.05-2.441.11-1.575.06.866.06 2.284 0 3.15-.06.866-.11.158-.11-1.575zm78.313-9.109c-.086-.224-.108-1.203-.047-2.175L138.14 0l.056 2.013.057 2.014 2.625.1 2.625.1-2.635.061c-1.99.047-2.673-.038-2.791-.347zm11.96.188c.788-.062 2.003-.061 2.7.002.696.063.05.114-1.434.113-1.485-.001-2.055-.053-1.266-.115z" fill="#707070"/><path d="M140.433 179.942c.292-.076.697-.071.9.011.203.082-.035.145-.53.139-.495-.006-.662-.074-.37-.15zm.163-1.497c.217-.087.476-.076.575.024.1.1-.077.17-.393.157-.35-.014-.42-.085-.182-.18zm26.7-1.5c.217-.087.476-.076.575.024.1.1-.077.17-.393.157-.35-.014-.42-.085-.182-.18zm.3-1.5c.217-.087.476-.076.575.024.1.1-.077.17-.393.157-.35-.014-.42-.085-.182-.18zm-77.418-.894a1.16 1.16 0 0 1 .75 0c.206.084.037.152-.375.152-.413 0-.582-.068-.375-.152zm-.282-1.506c.217-.087.476-.076.575.024.1.1-.077.17-.393.157-.35-.014-.42-.085-.182-.18zm42.138-1.595c0-.742.059-1.046.13-.675.072.371.072.979 0 1.35-.071.371-.13.068-.13-.675zm64.344-2.599a1.16 1.16 0 0 1 .75 0c.206.084.037.152-.375.152-.413 0-.582-.068-.375-.152zm-7.702-4.176c.015-.35.086-.42.182-.181.086.216.076.475-.024.575-.1.1-.17-.078-.158-.394zm18.6-2.4c.015-.35.086-.42.182-.181.086.216.076.475-.024.575-.1.1-.17-.078-.158-.394zM120.956 144c0-1.32.053-1.823.117-1.117.063.706.062 1.786-.002 2.4-.065.614-.117.037-.116-1.283zm2.095-.6c.001-1.155.056-1.59.12-.968.065.622.064 1.567-.001 2.1-.067.532-.12.023-.119-1.132zm4.627.551a1.16 1.16 0 0 1 .75 0c.206.084.037.152-.375.152-.413 0-.582-.068-.375-.152zm-13.05-.32a13.065 13.065 0 0 1 2.25 0c.618.065.112.118-1.125.118-1.238 0-1.744-.053-1.125-.118zm4.068-2.086c.217-.087.476-.076.575.024.1.1-.077.17-.393.157-.35-.014-.42-.085-.182-.18zm33.732-3.245c.003-.66.065-.895.137-.522.072.374.069.914-.006 1.2-.075.287-.134-.018-.13-.678zm6.3 0c.003-.66.065-.895.137-.522.072.374.069.914-.006 1.2-.075.287-.134-.018-.13-.678zm-14.717-.6c.006-.495.073-.661.15-.37.076.293.07.698-.012.9-.082.204-.144-.035-.138-.53zm-28.923-1.572c.871-.06 2.221-.06 3 .001.778.062.065.112-1.585.111-1.65 0-2.287-.051-1.415-.112zm16.508-2.383c.217-.087.476-.076.575.024.1.1-.077.17-.393.157-.35-.014-.42-.085-.182-.18zm1.953-1.895c0-1.072.054-1.511.12-.975a9.54 9.54 0 0 1 0 1.95c-.066.536-.12.098-.12-.975zm-12.896-.6c0-1.237.053-1.744.118-1.125s.065 1.631 0 2.25-.118.113-.118-1.125zm-6.182.383c.533-.066 1.478-.067 2.1-.002.622.065.187.12-.968.121-1.155.001-1.665-.052-1.132-.118zM91.828 130.2c.003-.66.065-.895.137-.522.072.374.069.914-.006 1.2-.075.287-.134-.018-.13-.678zm17.1 0c.003-.66.065-.895.137-.522.072.374.069.914-.006 1.2-.075.287-.134-.018-.13-.678zm27.3 0c.003-.66.065-.895.137-.522.072.374.069.914-.006 1.2-.075.287-.134-.018-.13-.678zm6 0c.003-.66.065-.895.137-.522.072.374.069.914-.006 1.2-.075.287-.134-.018-.13-.678zm18.3 0c.003-.66.065-.895.137-.522.072.374.069.914-.006 1.2-.075.287-.134-.018-.13-.678zm10.2 0c.003-.66.065-.895.137-.522.072.374.069.914-.006 1.2-.075.287-.134-.018-.13-.678zM90.403 57.45c.298-.33.61-.6.693-.6.082 0-.095.27-.393.6-.299.33-.61.6-.693.6-.083 0 .094-.27.393-.6zm113.211-2.625c-.373-.476-.362-.486.114-.113.288.226.525.462.525.525 0 .247-.247.088-.639-.412zm29.739-9.788c0-.063.236-.299.525-.525.475-.373.486-.363.113.113-.392.5-.638.659-.638.412zm-9.9-9.9c0-.063.236-.299.525-.525.475-.373.486-.363.113.113-.392.5-.638.659-.638.412z" fill="#4e4e4e"/><path d="M132.011 178.5c.006-.495.073-.661.15-.37.076.293.07.698-.012.9-.082.204-.144-.035-.138-.53zm-1.789-1.35c0-.577.062-.814.137-.525.076.289.076.761 0 1.05-.075.289-.137.053-.137-.525zm28.392.075c-.373-.476-.362-.486.114-.113.288.226.525.462.525.525 0 .247-.247.088-.639-.412zm-25.761-1.96c0-.37-.371-.51-1.575-.594l-1.575-.11 1.584-.056c1.188-.041 1.629.06 1.762.408.098.255.094.547-.009.65-.103.103-.187-.031-.187-.297zm25.95-.515c.102-.165.245-.3.317-.3.073 0 .133.135.133.3 0 .165-.143.3-.318.3-.175 0-.234-.135-.132-.3zm-20.85-4.013c0-.063.236-.299.525-.525.475-.373.486-.363.113.113-.392.5-.638.659-.638.412zm-63.075-.686a1.16 1.16 0 0 1 .75 0c.206.084.037.152-.375.152-.413 0-.582-.068-.375-.152zm85.575-2.201c-.27-.175-.308-.293-.093-.295a.7.7 0 0 1 .543.295c.23.372.126.372-.45 0zm7.125-.199a1.16 1.16 0 0 1 .75 0c.206.084.037.152-.375.152-.413 0-.582-.068-.375-.152zm29.418-.306c.217-.087.476-.076.575.024.1.1-.077.17-.393.157-.35-.014-.42-.085-.182-.18zm-2.92-5.37c.015-.35.086-.42.182-.181.086.216.076.475-.024.575-.1.1-.17-.078-.158-.394zm15.024-.125c0-.412.068-.581.151-.375.084.206.084.544 0 .75-.083.206-.151.038-.151-.375zm-150.347-1.313c0-.063.236-.299.525-.525.475-.373.486-.363.113.113-.392.5-.638.659-.638.412zm139.461-1.012c-.373-.476-.362-.486.114-.113.288.226.525.462.525.525 0 .247-.247.088-.639-.412zm-123.036.026a1.16 1.16 0 0 1 .75 0c.206.084.037.152-.375.152-.413 0-.582-.068-.375-.152zm34.4-4.001c.029-.395 2.482-.45 20.129-.453l20.096-.003-20.004.08c-15.617.063-20.03.162-20.129.453-.07.211-.11.178-.092-.077zm-77.444-22.8c0-.743.059-1.046.13-.675.072.371.072.979 0 1.35-.071.371-.13.067-.13-.675zm-13.338-18.505c.217-.087.476-.076.575.024.1.1-.077.17-.393.157-.35-.014-.42-.085-.182-.18zm188.219-3.919l-.062-3.073-31.125-.078-31.125-.078 31.134-.073c25.622-.061 31.161-.004 31.287.324.084.218.108 1.67.053 3.225l-.1 2.827-.062-3.074zm-189.582-.284c.292-.076.697-.071.9.011.203.082-.035.145-.53.139-.495-.007-.662-.074-.37-.15zm5.17-1.892c.298-.33.61-.6.693-.6.082 0-.095.27-.393.6-.299.33-.61.6-.693.6-.083 0 .094-.27.393-.6zm46.425-1.125c8.043-.044 21.206-.044 29.25 0 8.043.045 1.462.08-14.625.08-16.088 0-22.67-.035-14.625-.08zm-55.575-7.688c0-.063.236-.299.525-.525.475-.373.486-.363.113.113-.392.5-.638.659-.638.412zm78.843-2.792c.217-.087.476-.076.575.024.1.1-.077.17-.393.157-.35-.014-.42-.085-.182-.18zm159.3-.6c.217-.087.476-.076.575.024.1.1-.077.17-.393.157-.35-.014-.42-.085-.182-.18zM8.053 93.3c.387-.412.772-.75.854-.75.083 0-.167.338-.554.75-.388.413-.772.75-.855.75-.082 0 .167-.337.555-.75zm98.661-.075c-.373-.476-.362-.486.114-.113.5.392.658.638.411.638-.062 0-.298-.236-.525-.525zm157.389-1.875c.298-.33.61-.6.693-.6.082 0-.095.27-.393.6-.299.33-.61.6-.693.6-.083 0 .094-.27.393-.6zM17.296 90.245c.217-.087.476-.076.575.024.1.1-.077.17-.393.157-.35-.014-.42-.085-.182-.18zm219.057-1.408c0-.063.236-.299.525-.525.475-.373.486-.363.113.113-.392.5-.638.659-.638.412zm-46.177-1.262c.015-.35.086-.42.182-.181.086.216.076.475-.024.575-.1.1-.17-.078-.158-.394zM81.6 82.65c0-.412.068-.581.151-.375.084.206.084.544 0 .75-.083.206-.151.038-.151-.375zm155.1-3.3c0-.412.068-.581.151-.375.084.206.084.544 0 .75-.083.206-.151.038-.151-.375zM30.553 77.137c0-.063.236-.299.525-.525.475-.373.486-.363.113.113-.392.5-.638.659-.638.412zm-13.239-.712c-.373-.476-.362-.486.114-.113.288.226.525.462.525.525 0 .247-.247.088-.639-.412zm137.52-13.875c0-.742.059-1.046.13-.675.072.371.072.979 0 1.35-.071.371-.13.068-.13-.675zm10.442.125c.015-.35.086-.42.182-.181.086.216.076.475-.024.575-.1.1-.17-.078-.158-.394zm-82.823.062c0-.063.236-.299.525-.525.475-.373.486-.363.113.113-.392.5-.638.659-.638.412zm-41.25-3.487l-5.7-.17 5.775-.065c3.693-.042 5.775.043 5.775.235 0 .165-.034.27-.075.235-.042-.036-2.64-.141-5.775-.235zm219.375-4.399a1.16 1.16 0 0 1 .75 0c.206.084.037.152-.375.152-.413 0-.582-.068-.375-.152zm-157.482-3.006c.217-.087.476-.076.575.024.1.1-.077.17-.393.157-.35-.014-.42-.085-.182-.18zm154.8-.3c.217-.087.476-.076.575.024.1.1-.077.17-.393.157-.35-.014-.42-.085-.182-.18zm-34.322-6.77l-.571-.675.675.571c.37.315.675.619.675.675 0 .24-.242.063-.779-.571zM11.053 37.537c0-.063.236-.299.525-.525.475-.373.486-.363.113.113-.392.5-.638.659-.638.412zm26.961-2.212c-.373-.476-.362-.486.114-.113.288.226.525.462.525.525 0 .247-.247.088-.639-.412zm-8.436-5.674a1.16 1.16 0 0 1 .75 0c.206.084.037.152-.375.152-.413 0-.582-.068-.375-.152zm47.418-4.506c.217-.087.476-.076.575.024.1.1-.077.17-.393.157-.35-.014-.42-.085-.182-.18zm37.932-.317a47.381 47.381 0 0 1 4.05 0c1.113.057.202.104-2.025.104-2.228 0-3.14-.047-2.025-.104zm78.6 0a47.381 47.381 0 0 1 4.05 0c1.113.057.202.104-2.025.104-2.228 0-3.14-.047-2.025-.104zm-64.909-2.566c.132-.13 1.374-.197 2.762-.148l2.522.09-2.762.148c-1.519.082-2.653.041-2.522-.09zM38.3 16.125a730.444 730.444 0 0 1 14.4 0c3.907.048.624.086-7.296.086s-11.117-.039-7.105-.086zm169.383-.17c-.084-.22-.108-1.672-.054-3.228l.1-2.827.062 3.075.063 3.075h28.178l.103-3.075.102-3.075-.017 3.15-.017 3.15-14.184.078c-11.605.064-14.21.005-14.337-.323zm-93.345-4.626c.788-.062 2.003-.061 2.7.002.696.063.05.114-1.434.113-1.485-.001-2.055-.053-1.266-.115zm78.6 0c.788-.062 2.003-.061 2.7.002.696.063.05.114-1.434.113-1.485-.001-2.055-.053-1.266-.115zm-98.56-7.196a9.548 9.548 0 0 1 1.95 0c.537.067.098.121-.974.121-1.073 0-1.512-.054-.975-.121zm20.4-.005a40.031 40.031 0 0 1 3.75 0c1.032.058.188.106-1.874.106-2.063 0-2.907-.048-1.875-.106zm78.6 0a40.031 40.031 0 0 1 3.75 0c1.032.058.188.106-1.874.106-2.063 0-2.907-.048-1.875-.106zm-116.38-.283c.216-.087.475-.076.574.024.1.1-.077.17-.393.157-.35-.014-.42-.085-.182-.18z" fill="#333"/><path d="M125.742 179.262c-.528-.322-1.198-1.03-1.488-1.574-.667-1.25-.663-4.262.007-5.558 1.211-2.34 3.985-3.229 7.167-2.294.398.117.525.477.525 1.484 0 1.219-.063 1.33-.75 1.33-.633 0-.75-.14-.75-.9 0-.869-.048-.9-1.37-.9-.753 0-1.63.139-1.947.309-.944.505-1.483 1.923-1.483 3.9 0 1.63.098 1.936.877 2.714.964.965 2.492 1.182 3.44.489.815-.596.558-2.43-.36-2.56-.46-.065-.66-.267-.595-.6.08-.417.401-.484 1.893-.397 2.065.12 2.19.185 1.745.896-.18.287-.42 1.21-.536 2.048-.255 1.85-.821 2.202-3.553 2.2-1.316-.001-2.142-.173-2.822-.587zm12.436.381c-.388-.101-.525-.445-.525-1.315 0-1.057.077-1.178.75-1.178.458 0 .75.17.75.44 0 1.318 3.07 1.294 3.672-.03.509-1.116.037-1.606-2.264-2.352-1.108-.359-2.212-.912-2.452-1.23-.687-.908-.555-2.365.306-3.388.884-1.05 2.719-1.469 4.552-1.038 1.037.244 1.144.364 1.229 1.383.085 1.02.028 1.115-.675 1.115-.568 0-.768-.156-.768-.6 0-.509-.2-.6-1.314-.6-1.53 0-2.142.54-1.864 1.646.155.62.514.845 1.997 1.257 2.317.645 3.28 1.512 3.28 2.952 0 2.235-1.273 3.165-4.26 3.11-1.039-.019-2.126-.096-2.414-.172zm8.175-.658c0-.364.191-.635.45-.635.512 0 .571-1.24.253-5.325-.13-1.671-.314-2.475-.566-2.475-.335 0-.874-.863-.668-1.07.046-.046.927-.179 1.957-.296 1.778-.2 1.874-.179 1.874.427 0 .39-.19.639-.489.639-.433 0-.466.352-.289 3.075.254 3.891.421 4.725.951 4.725.235 0 .427.27.427.6 0 .505-.202.6-1.275.604-.702.002-1.58.086-1.95.185-.545.146-.675.058-.675-.454zm-28.934-3.055c-2.51-4.683-2.446-4.623-2.687-2.507-.112.977-.28 2.35-.375 3.052-.154 1.136-.106 1.275.433 1.275.447 0 .567.15.458.568-.124.472-.358.545-1.397.431-2.103-.23-2.598-.393-2.598-.855 0-.244.258-.444.573-.444.624 0 .645-.083 1.254-4.894.304-2.406.287-2.68-.192-3.03-.647-.473-.333-1.077.557-1.072 1.701.01 1.99.306 3.839 3.933.999 1.96 1.94 3.563 2.092 3.563.152 0 .277-.453.277-1.006 0-.553.086-1.836.192-2.85.166-1.588.125-1.844-.3-1.844-.292 0-.492-.244-.492-.6 0-.654.492-.735 2.475-.407 1.217.2 1.417.577.617 1.162-.409.3-.563 1.197-.793 4.608l-.285 4.237h-.934c-.882 0-1.034-.185-2.714-3.32zm34.26 2.651c-.067-.203.109-.574.392-.825.474-.42.483-.733.115-4.056a393.17 393.17 0 0 0-.416-3.675c-.01-.041-.22-.075-.467-.075-.25 0-.45-.267-.45-.6 0-.519.193-.597 1.425-.58 1.405.02 1.45.05 3.31 2.325 2.552 3.123 3.376 4.044 3.5 3.915.093-.1-.167-2.146-.597-4.685-.12-.711-.324-.975-.752-.975-.38 0-.586-.204-.586-.578 0-.477.293-.615 1.672-.788 1.895-.237 2.748.17 1.805.86-.52.38-.516.554.096 4.521.35 2.27.559 4.252.464 4.406-.095.153-.536.272-.98.264-.645-.012-1.347-.643-3.492-3.14-1.477-1.72-2.738-3.072-2.804-3.007-.065.066-.022 1.286.097 2.712.197 2.358.28 2.618.929 2.864 1.19.453.86 1.084-.68 1.295-1.981.272-2.441.24-2.58-.178zm-42.376-.381c-.165-.057-.942-.19-1.725-.295-1.144-.154-1.425-.306-1.425-.773 0-.382.206-.582.6-.582.33 0 .604-.101.61-.225.005-.124.257-1.822.56-3.775.458-2.96.481-3.576.14-3.707-.226-.086-.41-.391-.41-.678 0-.453.182-.49 1.425-.285.783.129 1.593.242 1.8.252.573.028.446 1.16-.144 1.274-.76.146-1.783 7.121-1.119 7.627.24.183.438.555.438.825 0 .482-.147.549-.75.342zm-6.45-.96c-.621-.1-.927-.544-1.776-2.58a207.065 207.065 0 0 0-1.766-4.11l-.74-1.65-.546 2.55c-.674 3.154-.69 3.6-.122 3.6.485 0 .62.759.184 1.03-.147.09-1.024.011-1.95-.175-1.322-.265-1.684-.458-1.684-.896 0-.343.213-.559.552-.559.461 0 .685-.6 1.364-3.669.707-3.195.755-3.71.37-3.992-.815-.596-.082-1.125 1.248-.9l1.208.204 1.578 3.878c.868 2.134 1.664 3.879 1.77 3.879.106 0 .362-1.046.57-2.325.207-1.279.445-2.561.528-2.85.099-.341-.012-.525-.318-.525-.277 0-.47-.258-.47-.628 0-.585.108-.614 1.575-.416.866.117 1.676.273 1.8.346.429.255.222.929-.33 1.073-.464.122-.67.862-1.26 4.535-.387 2.415-.778 4.37-.87 4.345a16.437 16.437 0 0 0-.915-.165zm62.19-.978c-1.305-.795-1.955-2.181-2.115-4.51-.115-1.687-.038-2.09.57-2.974 1.195-1.735 2.147-2.247 4.42-2.375l2.047-.116.194.97c.314 1.568.244 1.793-.556 1.793-.554 0-.75-.16-.75-.61 0-.335-.197-.684-.438-.777-.718-.275-2.507.473-3.19 1.334-.532.672-.612 1.08-.485 2.505.263 2.96 1.71 4.453 3.868 3.992 1.353-.29 1.77-.686 1.57-1.489-.137-.543-.026-.704.563-.817.653-.125.765 0 1.027 1.144l.293 1.283-1.435.618c-1.867.803-4.293.816-5.584.03zm8.61-1.192c0-.34.135-.62.3-.62.426 0 .372-1.147-.167-3.506-.836-3.663-1.05-4.294-1.463-4.294-.535 0-.866-.887-.39-1.048.203-.069 1.585-.405 3.07-.746 1.485-.342 2.919-.69 3.186-.772.363-.112.563.15.787 1.033.272 1.071.242 1.198-.314 1.344-.361.094-.752-.028-.948-.296-.483-.661-3.249.02-3.034.748.08.268.233.858.34 1.312.227.946.334.964 2.43.406 1.524-.406 1.548-.402 1.679.282.119.624-.039.737-1.547 1.112l-1.68.416.062 1.301c.034.716.169 1.405.3 1.533.131.128.88.084 1.664-.097 1.172-.27 1.425-.447 1.425-.994 0-.464.218-.706.725-.803.636-.121.763.012 1.035 1.08.17.671.282 1.237.25 1.26-.033.02-1.545.402-3.36.846-1.815.445-3.537.879-3.825.966-.382.114-.525-.012-.525-.463zm-86.32-1.21c-2.291-1.04-3.05-3.421-2.019-6.343 1.162-3.292 4.309-4.416 7.757-2.771 1.142.544 1.194.67.891 2.182-.15.754-.323.934-.825.863-.479-.069-.634-.304-.634-.96 0-1.01-.574-1.328-2.449-1.36-1.035-.017-1.379.134-2.013.888-.81.963-1.384 2.602-1.387 3.961-.002 1.144 1.388 2.558 2.748 2.795 1.183.207 1.461-.049 1.856-1.706.15-.627.065-.823-.408-.947-.679-.177-.822-1.112-.17-1.112.235 0 1.112.158 1.95.352 1.147.264 1.523.486 1.523.9 0 .301-.207.548-.46.548-.495 0-.543.095-1.037 2.025l-.327 1.275-1.863-.007c-1.184-.004-2.326-.216-3.132-.583zm-7.053-2.058c-.782-.276-1.424-.603-1.425-.727l-.002-.525c0-.165.252-.3.56-.3.445 0 .748-.599 1.48-2.925 1.35-4.282 1.405-4.575.87-4.575-.31 0-.403-.195-.293-.617.11-.42.317-.557.647-.43.267.103 1.06.341 1.76.53 1.396.374 1.795 1.298.635 1.471-.54.08-.81.663-1.712 3.675-.765 2.556-.967 3.614-.71 3.7.48.16.469 1.278-.012 1.248-.207-.013-1.016-.25-1.798-.525zm106.13-.032c-.092-.288.287-1.524.843-2.747 1.661-3.658 1.835-4.372 1.27-5.234-.844-1.289-2.72-.822-2.72.676 0 .631-.161.858-.658.929-.548.078-.693-.094-.868-1.023-.231-1.233.069-1.614 1.891-2.403 1.43-.619 2.637-.516 3.593.306 1.177 1.013 1.09 2.627-.303 5.651-.59 1.279-.965 2.325-.835 2.325s1.024-.271 1.988-.603c1.374-.472 1.804-.521 1.993-.225.535.843.488.871-3.586 2.122-2.27.698-2.454.714-2.609.226zm-114.212-2.58c-.772-.401-1.48-.852-1.571-1-.092-.15 0-.742.204-1.318.329-.926.452-1.017 1.067-.786.514.192.648.413.51.845-.436 1.375 3.044 2.229 3.745.919.44-.821.007-1.542-1.63-2.717-2.104-1.512-2.44-3.117-.984-4.708.81-.885 3.052-.923 4.705-.08 1.443.737 1.604.988 1.357 2.112-.152.69-.36.893-.922.893-.603 0-.726-.15-.726-.877 0-.733-.17-.932-1.036-1.218-.755-.25-1.201-.253-1.65-.013-1.115.597-.754 1.597 1.186 3.284 1.607 1.398 1.8 1.687 1.8 2.7 0 .79-.225 1.378-.736 1.93-.998 1.077-3.29 1.092-5.319.035zm122.34-1.435c-1.148-1.22-1.989-3.487-1.987-5.357.001-1.066.186-1.621.77-2.316.831-.987 2.405-1.579 3.5-1.316 2.585.622 4.852 6.294 3.363 8.419-.672.96-2.009 1.565-3.456 1.565-1.032 0-1.42-.176-2.19-.995zm3.732-.759c.912-.738.845-2.237-.207-4.58-.875-1.95-1.562-2.519-2.699-2.233-1.464.367-1.511 2.823-.106 5.577.914 1.792 1.85 2.177 3.012 1.236zm-133.423-.713c-2.584-1.048-3.61-1.603-3.5-1.89.086-.225.445-.45.799-.5.504-.073.965-.832 2.142-3.52 1.026-2.346 1.383-3.467 1.132-3.55-.424-.142-.492-.86-.104-1.1.267-.165 5.958 2.077 6.455 2.542.34.318-.366 2.087-.83 2.08-.633-.009-1.11-.491-.934-.948.126-.33-.205-.6-1.208-.983-.76-.29-1.428-.48-1.483-.42-.179.19-1.074 2.446-.992 2.502.043.029.84.355 1.77.725 1.382.548 1.664.777 1.54 1.25-.188.72-.305.719-2.181-.021-.838-.33-1.583-.6-1.657-.6-.187 0-1.043 2.09-1.043 2.546 0 .205.629.613 1.397.906 1.321.505 1.418.506 1.776.017.3-.41.502-.45.986-.19.535.286.57.442.283 1.298-.178.535-.407 1.055-.508 1.156-.102.101-1.83-.484-3.84-1.3zm138.75-1.295c-1.154-.626-2.76-4.004-2.757-5.797.004-1.872.508-2.684 2.103-3.39 1.725-.763 2.803-.529 4.037.875 1.34 1.528 2.058 3.276 2.066 5.032.008 1.76-.467 2.571-1.903 3.253-1.26.598-2.478.607-3.546.027zm3.525-1.776c.559-.853.396-2.031-.54-3.912-.754-1.514-1.694-2.55-2.315-2.55-.917 0-1.814.897-1.814 1.814 0 1.2 1.028 3.814 1.839 4.678.894.951 2.196.937 2.83-.03zm-150.32-.667c-.33-.062-1.785-.678-3.234-1.37-1.817-.867-2.605-1.4-2.542-1.716.052-.264.345-.424.687-.377.485.066.912-.555 2.31-3.364 1.385-2.783 1.633-3.492 1.286-3.686-.277-.156-.338-.388-.171-.658.211-.342.672-.236 2.53.58 4.093 1.8 5.425 3.547 4.714 6.188-.805 2.989-3.166 4.852-5.58 4.403zm1.692-1.766c1.175-.608 2.492-3.338 2.216-4.594-.253-1.155-2.065-2.735-3.135-2.735-.175 0-1.065 1.49-1.978 3.311l-1.66 3.311 1.283.582c1.566.711 2.1.732 3.274.125zm153.718 1.136c-.107-.277-.053-.55.12-.608.172-.057.581-.33.91-.606.59-.495.58-.536-.796-3.434l-1.394-2.933-.852.816c-.651.624-.934.733-1.203.464-.27-.27-.251-.54.077-1.155.556-1.043 1.928-2.509 2.347-2.509.18 0 1.153 1.654 2.164 3.675 1.01 2.021 1.888 3.73 1.95 3.799.064.068.475-.04.914-.24.64-.292.849-.286 1.047.026.452.712.404.746-3.542 2.515-1.41.632-1.566.65-1.742.19zm-102.46-6.215c0-.395 2.417-.45 19.95-.45 17.534 0 19.95.055 19.95.45s-2.416.45-19.95.45c-17.533 0-19.95-.054-19.95-.45zm106.057-11.311c-3.956-1.79-7.287-3.353-7.401-3.472-.115-.12.017-.633.293-1.143l.502-.925 7.184 3.26c3.951 1.793 7.242 3.317 7.312 3.388.07.07-.058.582-.284 1.137l-.412 1.01-7.194-3.255zM43.45 146.54c-.208-.5-.325-.957-.262-1.016.278-.258 14.254-6.474 14.557-6.474.326 0 1.205 1.725.974 1.913-.314.255-14.333 6.487-14.592 6.487-.165 0-.47-.41-.677-.91zm83.254-.18c-.495-.066-1.474-.27-2.175-.454l-1.275-.334v-4.122h1.182c1.145 0 1.184.034 1.275 1.105.079.94.228 1.143.993 1.354 1.226.34 3.092 0 3.781-.69.366-.366.569-.991.569-1.752 0-1.452-.543-1.892-3.381-2.74-3.584-1.07-5.16-3.229-4.404-6.034.5-1.86 1.896-3.099 3.976-3.53 1.7-.354 2.44-.303 4.934.338l1.275.327v3.759l-1.2.114-1.2.115v-1.098c0-.885-.131-1.133-.675-1.279-2.79-.748-5.071.933-4.077 3.004.319.666.918 1.028 2.913 1.76 3.142 1.153 4.483 2.251 4.863 3.98.856 3.889-2.638 6.815-7.374 6.178zm22.975-.123c-1.94-.4-3.362-1.48-4.368-3.32-.766-1.4-.9-2-1-4.467-.095-2.374-.005-3.137.532-4.565.791-2.1 2.665-3.87 4.733-4.47 1.721-.5 4.586-.46 6.228.086l1.2.4.088 2.174.088 2.175h-2.426v-1.19c0-1.516-.686-1.927-2.906-1.743-1.718.143-2.77.734-3.826 2.15-.538.721-.618 1.263-.618 4.18 0 2.962.079 3.48.68 4.446.924 1.488 2.45 2.178 4.323 1.956.804-.095 1.593-.254 1.754-.353.16-.1.293-1.118.293-2.264v-2.082h-.9c-.829 0-.9-.083-.9-1.05v-1.05h6v1.015c0 .763-.15 1.054-.6 1.172-.545.142-.6.41-.6 2.863v2.707l-1.58.591c-1.972.738-4.464.995-6.195.639zM91.753 145.2c0-.92.093-1.05.75-1.05h.75v-6.45c0-6.25-.019-6.45-.6-6.45-.49 0-.6-.2-.6-1.09v-1.09l4.62.14c4.287.13 4.742.2 6.315.97 2.836 1.387 3.995 3.964 3.677 8.173-.324 4.283-2.297 6.794-5.957 7.578-.817.176-3.166.319-5.22.319h-3.735v-1.05zm10.292-2.495c1.254-1.214 1.708-2.637 1.708-5.351 0-4.027-1.675-5.804-5.47-5.804h-2.03v12.364l2.385-.109c2.226-.1 2.453-.174 3.407-1.1zm6.808 2.495c0-.92.093-1.05.75-1.05h.75v-6.45c0-6.25-.019-6.45-.6-6.45-.486 0-.6-.2-.6-1.05v-1.05h11.4v4.2h-1.18c-1.065 0-1.19-.08-1.275-.825-.094-.812-.132-.826-2.42-.913l-2.325-.087v4.825h6v2.4h-6v5.124l2.475-.087 2.475-.087.094-.975c.088-.919.162-.975 1.275-.975h1.18v4.5h-12v-1.05zm27.3.02c0-.838.124-1.046.675-1.124.672-.096.675-.116.756-6.471.079-6.223.066-6.375-.525-6.375-.493 0-.606-.197-.606-1.05v-1.05h5.7v1.03c0 .838-.125 1.046-.675 1.124-.673.096-.676.116-.756 6.471l-.081 6.375h.756c.664 0 .756.128.756 1.05v1.05h-6v-1.03zm24.3-.02c0-.92.092-1.05.75-1.05h.75v-6.45c0-6.25-.019-6.45-.6-6.45-.488 0-.6-.2-.6-1.063v-1.063l2.14.088 2.14.088 3.485 5.601c1.917 3.081 3.586 5.703 3.71 5.825.123.123.225-1.959.225-4.626v-4.85h-.75c-.658 0-.75-.13-.75-1.05v-1.05h6v1.05c0 .92-.093 1.05-.75 1.05h-.75v15h-2.865l-3.713-6c-2.042-3.3-3.76-6-3.818-6-.057 0-.104 2.227-.104 4.95v4.95h.75c.657 0 .75.13.75 1.05v1.05h-6v-1.05zm-88.5-.844c0-.051.405-1.292.9-2.756.495-1.464.9-2.698.9-2.74 0-.043-1.095-.862-2.433-1.82l-2.434-1.74 3.017-.085 3.017-.086.986-3.006.985-3.007 1.003 3.007 1.002 3.007 2.995.085 2.994.085-2.284 1.632c-1.256.898-2.34 1.725-2.41 1.837-.07.112.275 1.392.766 2.844.49 1.452.84 2.693.775 2.758-.064.064-1.16-.632-2.436-1.547-1.275-.915-2.47-1.576-2.656-1.47-.185.106-1.247.846-2.358 1.644-1.86 1.337-2.33 1.61-2.33 1.358zm114.6 0c0-.051.405-1.292.9-2.756.495-1.464.9-2.698.9-2.74 0-.043-1.095-.862-2.433-1.82l-2.434-1.74 3.017-.085 3.017-.086.991-3.029.992-3.029.93 2.965.93 2.964 3.062.15 3.062.15-2.285 1.632c-1.257.898-2.338 1.718-2.402 1.823-.065.104.27 1.394.743 2.867.474 1.472.81 2.728.748 2.79-.063.062-1.03-.558-2.151-1.378-1.12-.82-2.19-1.577-2.375-1.682-.186-.105-1.37.549-2.63 1.453-2.12 1.522-2.582 1.8-2.582 1.551zM45.724 139.48c-.632-.632-.594-1.207.129-1.929.68-.68.995-.73 1.82-.29.657.353.79 1.76.22 2.33-.505.505-1.61.448-2.169-.111zm173.302.125c-.542-.543-.458-1.585.175-2.158.73-.66 1.341-.626 2.01.113.815.901.301 2.21-.915 2.33-.493.048-1.064-.08-1.27-.285zM32.353 132.75v-1.2h25.5v2.4h-25.5v-1.2zm176.7 0v-1.2h25.8v2.4h-25.8v-1.2zM45.675 127.8c-.455-.695-.455-.805 0-1.5.87-1.328 2.578-.832 2.578.75 0 1.582-1.708 2.078-2.578.75zm173.45.279c-.26-.26-.472-.723-.472-1.029 0-.306.212-.77.471-1.029.26-.259.722-.471 1.029-.471.306 0 .769.212 1.028.471.26.26.472.723.472 1.029 0 .306-.213.77-.472 1.029-.26.259-.722.471-1.028.471-.307 0-.77-.212-1.029-.471zm-168.772-4.551c-3.878-1.758-7.108-3.238-7.18-3.29-.07-.053.091-.555.359-1.117l.487-1.02 7.292 3.3c4.01 1.815 7.326 3.334 7.368 3.376.207.206-.631 1.971-.93 1.96-.19-.007-3.519-1.452-7.396-3.21zm158.23 2.285c-.28-.543-.39-1.03-.245-1.083.146-.053 3.505-1.57 7.465-3.371l7.2-3.275.361.808c.199.444.367.943.373 1.108.01.234-11.841 5.778-14.14 6.615-.362.132-.647-.094-1.014-.802zm-89.22-7.838c.006-.041 1.267-5.947 2.803-13.125 1.535-7.177 2.762-13.09 2.725-13.14-.037-.049-.949.527-2.026 1.28-3.889 2.718-6.39 3.437-9.957 2.863-3.828-.616-6.394-2.287-7.532-4.907-.298-.685-.572-1.292-.61-1.349-.038-.056-1.126.967-2.418 2.275-1.703 1.723-2.927 2.66-4.447 3.403-2.018.986-2.23 1.025-5.548 1.025-3.933 0-5.285-.434-7.453-2.393-2.685-2.425-3.577-6.106-3.058-12.611.909-11.377 4.042-19.442 9.49-24.42 3.147-2.877 6.438-4.304 11.184-4.851 2.93-.338 5.327.121 7.168 1.372 1.017.691 1.128.71 1.318.229.115-.29.218-.83.23-1.201l.02-.675h6.3c5.007 0 6.3.081 6.3.394 0 .217-1.422 7.069-3.16 15.225-1.74 8.157-3.242 15.653-3.34 16.658-.167 1.72-.125 1.885.717 2.827.792.887 1.106 1.017 2.75 1.135 2.007.146 4.097-.44 4.905-1.375.257-.297 1.925-7.537 3.956-17.164 1.932-9.157 3.58-16.886 3.663-17.175.137-.479.707-.525 6.436-.525h6.285l-.188.75c-.22.879 0 .918 1.54.275 2.831-1.183 8.507-1.134 11.651.101 6.265 2.461 7.723 8.648 5.107 21.674-2.21 11.008-6.554 17.969-12.729 20.403-.866.342-2.604.76-3.86.928-2.808.378-5.764-.15-8.507-1.52-1.003-.502-1.857-.878-1.897-.837-.04.042-1.093 4.851-2.337 10.687-1.245 5.836-2.336 10.684-2.425 10.772-.332.333-13.093 3.257-13.056 2.992zm27.23-28.848c2.774-1.45 4.637-5.813 6.799-15.927 1.324-6.193 1.79-10.418 1.387-12.593-.64-3.46-1.761-4.51-4.813-4.503-1.608.004-2.26.167-3.605.9l-1.641.896-3.212 15c-2.474 11.559-3.13 15.084-2.858 15.365 1.13 1.166 6.29 1.725 7.943.862zm-45.313-.759c1.425-1.032 3.373-3.475 3.373-4.23 0-.397 4.414-21.754 5.242-25.362.302-1.313-3.417-2.58-5.738-1.954-5.238 1.41-10.16 12.655-10.516 24.028-.128 4.11-.097 4.424.563 5.698.957 1.845 2.32 2.702 4.298 2.702 1.25 0 1.802-.175 2.778-.882zm-86.872 25.758c-7.856-1.362-11.814-9.804-8.284-17.67 1.06-2.362 3.652-4.825 5.89-5.596 2.432-.839 6.893-.704 9.028.273 2.64 1.21 3.565 3.561 2.819 7.173l-.229 1.107-1.538-.957c-1.38-.858-1.775-.956-3.837-.956-2.972 0-4.352.815-5.559 3.282-.7 1.431-.797 1.95-.697 3.723.089 1.568.293 2.318.854 3.137 1.894 2.764 6.232 3.294 9.224 1.127 1.159-.84 2.911-3.749 3.649-6.058.447-1.402 4.505-19.28 4.4-19.386-.045-.044-1.013.302-2.153.768-4.02 1.645-5.71 1.996-9.572 1.99-2.586-.005-4.108-.158-5.4-.546C4.64 83.028.253 75.632.256 64.05.258 50.103 7.427 37.8 18.605 32.562c7.535-3.531 17.3-3.827 23.45-.71 2.245 1.138 4.196 3.133 5.161 5.278.73 1.623.84 2.236.83 4.638-.01 2.44-.113 2.97-.877 4.486-.477.946-1.223 1.977-1.659 2.292-1.816 1.313-5.77 1.18-8.28-.28l-1.273-.739 1.097-.963c1.455-1.277 2.54-3.764 2.71-6.214.12-1.707.03-2.154-.712-3.589-1.205-2.324-2.715-3.094-5.8-2.954-3.202.145-5.533 1.304-8.694 4.324-5.084 4.858-8.999 12.6-10.375 20.519-.695 4-.48 10.188.45 12.884 1.314 3.815 3.763 6.446 6.752 7.252.67.181 2.365.274 3.768.207 2.105-.1 2.828-.274 4.147-.992.878-.479 1.835-1.215 2.127-1.636.295-.425 1.296-4.168 2.25-8.415.946-4.207 1.787-7.886 1.868-8.175.134-.476.668-.525 5.678-.525 4.623 0 5.53.071 5.53.434 0 1.162-7.964 36.62-8.757 38.99-2.858 8.538-7.201 13.099-14.15 14.86-2.642.67-7.304.962-9.438.592zm40.145-3.876v-3h58.2v6h-58.2v-3zm90.3 0v-3h62.1v6h-62.1v-3zM47.149 95.475c.327-1.365 9.204-43.354 9.204-43.536 0-.104 2.835-.189 6.3-.189s6.298.101 6.295.225c-.002.124-.208 1.088-.456 2.143-.25 1.055-.415 1.957-.368 2.003.046.047.96-.508 2.031-1.233 7.137-4.827 14.674-3.547 14.693 2.497.006 1.921-.605 3.48-1.886 4.816-1.781 1.857-4.121 2.528-6.032 1.73-1.139-.476-1.691-1.38-2.127-3.481-.27-1.309-.946-2.1-1.792-2.1-1.445 0-3.729.944-4.899 2.025L66.895 61.5 63.55 77.4l-3.645 17.325-.302 1.425H46.988l.161-.675zm117.672-1.194c2.694-12.733 12.467-58.266 12.516-58.312.19-.178 12.522-1.712 12.66-1.575.088.089-.852 4.874-2.09 10.634-1.24 5.76-2.253 10.715-2.254 11.011 0 .467.172.421 1.275-.335 3.978-2.73 8.687-4.248 11.384-3.67 4.875 1.046 8.94 5.98 8.94 10.849 0 .618-.944 5.502-2.1 10.854-2.092 9.696-2.377 11.734-1.79 12.83.876 1.637 4.427 1.997 6.997.71 2.24-1.124 2.503-1.457 2.887-3.674.192-1.102 1.756-8.67 3.477-16.816 1.721-8.148 3.13-14.864 3.13-14.925 0-.062 2.835-.112 6.3-.112s6.299.034 6.298.075c0 .041-1.486 7.089-3.3 15.661-3.206 15.148-3.633 17.877-2.99 19.08.874 1.633 4.43 1.999 6.979.718.838-.42 1.999-1.146 2.58-1.612l1.055-.846.06-3.863c.199-12.675 5.159-23.133 12.81-27.01 3.89-1.971 8.433-2.76 12.6-2.19 5.194.71 7.547 3.139 6.885 7.101l-.24 1.436-2.414.086-2.413.086.13-1.809c.164-2.263-.343-3.156-2.057-3.617-.975-.263-1.555-.23-2.912.164-5.572 1.62-10.567 12.825-10.57 23.71-.002 5.15 1.035 7.764 3.59 9.055 3.204 1.619 9.06.226 13.734-3.267.866-.648 1.575-1.13 1.575-1.073 0 .863-.797 3.925-1.256 4.823-.86 1.687-3.084 3.957-4.863 4.966-3.459 1.961-9.578 3.032-13.926 2.437-4.274-.585-7.866-3.092-9.25-6.459-.306-.742-.698-1.35-.872-1.35-.173-.001-.78.482-1.35 1.075-1.53 1.593-5.512 4.528-7.518 5.54-2.562 1.294-4.315 1.597-6.936 1.2-4.114-.622-7.078-2.685-8.038-5.594l-.323-.977-2.61 2.097c-1.434 1.153-3.746 2.662-5.136 3.352-2.375 1.18-2.674 1.253-4.97 1.222-3.945-.052-7.142-1.41-8.632-3.666-2.137-3.237-2.064-5.854.502-17.846 1.088-5.084 1.978-9.982 1.978-10.884 0-4.366-2.951-6.254-7.248-4.637-.934.351-1.879.856-2.1 1.122-.221.266-2.101 8.462-4.177 18.214L177.053 96l-6.315.08-6.315.082.398-1.881zm62.382-47.6c-3.26-.834-5.354-3.487-5.354-6.781 0-3.924 2.929-6.852 6.854-6.852 3.925 0 6.854 2.928 6.854 6.852 0 1.953-.537 3.323-1.864 4.752-1.54 1.662-4.414 2.56-6.49 2.029zM75.529 28.95c-3.014-.518-5.021-2.217-5.67-4.802-.227-.9-.31-4.351-.248-10.35.088-8.656.117-9.047.764-10.257C71.62 1.21 73.945.044 77.366.033c4.422-.015 7.074 2.358 7.418 6.633l.15 1.884h-5.181V7.09c0-1.666-.734-2.858-1.948-3.163-.893-.224-2.394.466-2.843 1.306-.192.358-.31 3.897-.31 9.317s.118 8.959.31 9.317c.45.84 1.95 1.53 2.843 1.306 1.214-.305 1.948-1.497 1.948-3.163v-1.46h5.182l-.158 1.966c-.223 2.775-1.321 4.516-3.524 5.585-1.884.914-3.74 1.19-5.724.85zm12.924-14.43V.09l5.175.118c5.634.13 6.565.349 8.144 1.924 3.342 3.334 2.759 11.266-1.013 13.767-.498.33-.905.7-.906.82 0 .122 1.147 2.838 2.55 6.037 1.402 3.198 2.55 5.9 2.55 6.004 0 .104-1.114.189-2.475.189h-2.475l-2.39-5.85c-2.298-5.63-2.42-5.85-3.224-5.85h-.836v11.7h-5.1V14.52zm9.415-1.81c1.112-.507 1.461-1.701 1.34-4.59-.14-3.37-.564-3.851-3.554-4.02l-2.101-.119v9.068h1.786c.982 0 2.12-.153 2.53-.339zm10.085 1.839V.15h12.3v3.9h-7.2v7.5h5.1v3.9h-5.1v9.6h7.8v3.9h-12.9v-14.4zm15.091 13.725c.086-.371 1.417-6.85 2.958-14.4l2.8-13.723 2.47-.001c2.315-.001 2.479.041 2.626.674.086.371 1.37 6.615 2.852 13.875 1.483 7.26 2.752 13.436 2.821 13.725.112.468-.145.525-2.358.525h-2.482l-.524-3.461-.523-3.461-2.585.086-2.586.086-.376 2.7c-.614 4.41-.35 4.05-2.973 4.05-2.207 0-2.272-.02-2.12-.675zm9.809-10.265c0-.517-1.55-10.21-1.648-10.308-.17-.169-.336.673-1.042 5.277-.85 5.546-.926 5.171 1.04 5.171.907 0 1.65-.063 1.65-.14zm10.5-1.51V4.05h-5.1V.15h15.6v3.9h-5.4v24.9h-5.1V16.5zm13.8-1.95V.15h5.1v28.8h-5.1v-14.4zm14.297 13.725c-.313-1.26-6.197-27.823-6.197-27.974 0-.083 1.182-.151 2.626-.151h2.627l1.767 10.425c.971 5.734 1.882 10.553 2.023 10.71.159.176.257.155.257-.057 0-.527 3.61-20.889 3.724-21.002.055-.055 1.238-.061 2.628-.013l2.528.087-3.3 14.325-3.3 14.325h-2.608c-2.454 0-2.617-.04-2.775-.675zm15.103-13.725V.15h12.3v3.9h-7.2v7.5h5.1v3.9h-5.1v9.6h7.8v3.9h-12.9v-14.4zm-155.4-1.5v-3h28.5v6h-28.5v-3zm176.7 0v-3h28.2v6h-28.2v-3z"/></svg>