<svg xmlns="http://www.w3.org/2000/svg" viewBox="0 0 286.77787 196.66606" height="209.777" width="305.896"><path d="M46.618 161.298c0-9.323.038-13.136.085-8.475.046 4.661.046 12.289 0 16.95-.047 4.661-.085.847-.085-8.475zm80.522-9.825c-.374-.476-.363-.486.113-.113.289.226.525.462.525.525 0 .247-.246.088-.638-.412zm2.162-50.65c.014-.35.085-.42.18-.181.087.216.077.475-.023.575-.1.1-.17-.078-.157-.394zm-125.903-2.9l-.571-.675.675.571c.634.538.811.779.571.779-.057 0-.36-.304-.675-.675zm125.903-2.5c.014-.35.085-.42.18-.181.087.216.077.475-.023.575-.1.1-.17-.078-.157-.394zM46.624 36.198l.004-17.55h96.675l96.675-.001-96.598.076-96.597.076-.081 17.475-.081 17.474.003-17.55z" fill="#cecece"/><path d="M95.003 178.173c26.606-.042 70.144-.042 96.75 0 26.606.042 4.837.077-48.375.077-53.213 0-74.981-.035-48.375-.077zm68.892-22.575c0-2.228.048-3.139.105-2.025a47.4 47.4 0 0 1 0 4.05c-.057 1.114-.105.202-.105-2.025zm-9.031 1.95c.002-.825.06-1.127.13-.67.068.455.066 1.13-.005 1.5-.071.368-.127-.005-.125-.83zm-3.142.845c.216-.087.475-.076.575.024.1.1-.078.17-.394.157-.35-.014-.42-.085-.181-.18zm-28.916-.493c-.083-.218-.113-1.67-.065-3.225.085-2.783.098-2.827.837-2.856.652-.025.662-.013.075.095-.646.118-.675.25-.675 3.084v2.96l.825.125.825.125-.835.045c-.459.025-.903-.134-.987-.352zm35.677-2.002c0-1.403.051-1.976.115-1.275.063.701.063 1.849 0 2.55-.064.701-.115.127-.115-1.275zm-26.723.9c0-.743.058-1.046.13-.675.071.371.071.979 0 1.35-.072.371-.13.067-.13-.675zm61.442-1.375c.014-.35.085-.42.18-.181.087.216.077.475-.023.575-.1.1-.17-.078-.157-.394zm-61.448-2.375c.003-.66.064-.895.136-.522.072.374.07.914-.006 1.2-.075.287-.134-.018-.13-.678zm7.968-1.555c.216-.087.475-.076.575.024.1.1-.078.17-.394.157-.35-.014-.42-.085-.181-.18zm12.3 0c.216-.087.475-.076.575.024.1.1-.078.17-.394.157-.35-.014-.42-.085-.181-.18zm-5.32-.57c.014-.35.085-.42.18-.181.087.216.077.475-.023.575-.1.1-.17-.078-.157-.394zm-19.99-39.275c0-5.445.04-7.715.09-5.044.05 2.67.05 7.126 0 9.9s-.09.589-.09-4.856zm47.389 4.8c0-2.805.044-3.993.1-2.64a78.387 78.387 0 0 1 0 5.1c-.055 1.452-.1.345-.1-2.46zm-68.1-10.2c.001-2.97.046-4.144.1-2.61a88.794 88.794 0 0 1 0 5.4c-.055 1.436-.1.18-.1-2.79zm71.715-8.25c0-7.508.039-10.579.087-6.825.047 3.754.047 9.896 0 13.65-.048 3.754-.087.682-.087-6.825zm91.8 0c0-7.508.039-10.579.087-6.825.047 3.754.047 9.896 0 13.65-.048 3.754-.087.682-.087-6.825zm-188.688.9c.299-.33.61-.6.693-.6.082 0-.094.27-.393.6-.299.33-.61.6-.693.6-.083 0 .094-.27.393-.6zm25.172-9.6c0-2.723.045-3.836.101-2.475a73.483 73.483 0 0 1 0 4.95c-.056 1.361-.101.247-.101-2.475zm20.711-5.55c0-5.115.041-7.25.091-4.744.05 2.506.05 6.691 0 9.3-.05 2.61-.09.559-.09-4.556zm-42.41 3.575c.015-.35.086-.42.182-.181.086.216.076.475-.024.575-.1.1-.17-.078-.157-.394zm89.8-7.775c0-2.805.044-3.993.1-2.64a78.387 78.387 0 0 1 0 5.1c-.055 1.452-.1.345-.1-2.46zm-93.302-1.125l-.571-.675.675.571c.371.315.675.619.675.675 0 .24-.242.063-.779-.571zm44.003-29.8c.014-.35.085-.42.18-.181.087.216.077.475-.023.575-.1.1-.17-.078-.157-.394zm17.1 0c.014-.35.085-.42.18-.181.087.216.077.475-.023.575-.1.1-.17-.078-.157-.394zm3.6 0c.014-.35.085-.42.18-.181.087.216.077.475-.023.575-.1.1-.17-.078-.157-.394zm-27.68-.63c.216-.087.475-.076.575.024.1.1-.078.17-.394.157-.35-.014-.42-.085-.181-.181zM124 46.698c.022-.87.143-1.057.706-1.09.532-.031.552-.01.092.094-.396.09-.626.444-.706 1.09-.114.917-.118.913-.092-.094zm23.39-1.95c0-1.815.05-2.519.109-1.564.06.955.06 2.44-.001 3.3-.06.86-.11.079-.109-1.736zm-15.031 1.65c0-.743.058-1.046.13-.675.071.371.071.979 0 1.35-.072.371-.13.067-.13-.675zm35.4 0c0-.743.058-1.046.13-.675.071.371.071.979 0 1.35-.072.371-.13.067-.13-.675zm25.442-2.275c.014-.35.085-.42.18-.181.088.216.077.475-.023.575-.1.1-.17-.078-.157-.394zm-69.199-1.325c.024-1.284.069-1.352.925-1.393.823-.04.831-.032.09.093-.704.12-.824.3-.924 1.393l-.115 1.257.024-1.35zm8.35-.15c.004-.66.065-.895.137-.522.072.374.07.914-.006 1.2-.075.287-.134-.018-.13-.678zm35.4 0c.004-.66.065-.895.137-.522.072.374.07.914-.006 1.2-.075.287-.134-.018-.13-.678zm-23.1-1.5c.004-.66.065-.895.137-.522.072.374.07.914-.006 1.2-.075.287-.134-.018-.13-.678zm-26.831-.055c.216-.087.475-.076.575.024.1.1-.078.17-.394.157-.35-.014-.42-.085-.181-.181zm37.88-.57c.014-.35.085-.42.18-.181.088.216.077.475-.023.575-.1.1-.17-.078-.157-.394z" fill="#b3b3b3"/><path d="M42.653 183.28a13.065 13.065 0 0 1 2.25 0c.619.064.112.117-1.125.117-1.238 0-1.744-.053-1.125-.118zm199.35 0a9.54 9.54 0 0 1 1.95 0c.536.067.097.121-.975.121-1.073 0-1.511-.054-.975-.12zm-144.9-8.707c25.451-.042 67.099-.042 92.55 0 25.451.042 4.627.077-46.275.077-50.903 0-71.726-.035-46.275-.077zm129.81-19.425c0-5.94.04-8.413.09-5.495.048 2.919.048 7.779 0 10.8-.05 3.022-.09.635-.09-5.305zm-91.253 3.15c0-.743.058-1.046.13-.675.071.371.071.979 0 1.35-.072.371-.13.067-.13-.675zm3.462.095c.216-.087.475-.076.575.024.1.1-.078.17-.394.157-.35-.014-.42-.085-.181-.18zm-6.616-.307c.374-.072.914-.07 1.2.006.287.075-.018.134-.678.13-.66-.003-.895-.064-.522-.136zm13.384-2.938c0-1.815.05-2.519.11-1.564.06.955.06 2.44-.001 3.3-.06.86-.11.079-.109-1.736zm-7.993 2.274c-.13-.499-.091-.616.131-.393.175.174.258.494.186.71-.075.225-.21.089-.317-.317zm-53.895-1.999c.014-.35.085-.42.18-.181.087.216.077.475-.023.575-.1.1-.17-.078-.157-.394zm68.123-.125c0-.413.068-.581.152-.375a1.16 1.16 0 0 1 0 .75c-.084.206-.152.037-.152-.375zm50.077.125c.014-.35.085-.42.18-.181.087.216.077.475-.023.575-.1.1-.17-.078-.157-.394zm-75.577-.425c0-.413.068-.581.152-.375a1.16 1.16 0 0 1 0 .75c-.084.206-.152.037-.152-.375zm22.811-.15c.006-.495.074-.661.15-.37.076.293.07.698-.011.9-.083.204-.145-.035-.139-.53zm-16.783-.665a6.63 6.63 0 0 1 1.65 0c.454.069.082.125-.825.125-.908 0-1.279-.056-.825-.125zm20.672-1.585c0-.413.068-.581.152-.375a1.16 1.16 0 0 1 0 .75c-.084.206-.152.037-.152-.375zm-19.247.028c0-.15.27-.201.6-.115.33.086.6.209.6.272 0 .063-.27.115-.6.115-.33 0-.6-.122-.6-.272zm8.176-.778c.003-.66.064-.895.136-.522.072.374.069.914-.006 1.2-.075.287-.134-.018-.13-.678zm-9.901-.057a2.462 2.462 0 0 1 1.05 0c.289.076.052.137-.525.137-.578 0-.814-.061-.525-.137zm-12.028-.693c0-.413.068-.581.152-.375a1.16 1.16 0 0 1 0 .75c-.084.206-.152.037-.152-.375zm9 0c0-.413.068-.581.152-.375a1.16 1.16 0 0 1 0 .75c-.084.206-.152.037-.152-.375zm14.1 0c0-.413.068-.581.152-.375a1.16 1.16 0 0 1 0 .75c-.084.206-.152.037-.152-.375zm12.6 0c0-.413.068-.581.152-.375a1.16 1.16 0 0 1 0 .75c-.084.206-.152.037-.152-.375zm94.858-9.3c0-1.403.051-1.976.115-1.275.063.701.063 1.849 0 2.55-.064.701-.115.127-.115-1.275zM41.5 116.448c0-2.805.044-3.993.1-2.64a78.387 78.387 0 0 1 0 5.1c-.055 1.452-.1.345-.1-2.46zm158.4 0c0-2.805.044-3.993.1-2.64a78.387 78.387 0 0 1 0 5.1c-.055 1.452-.1.345-.1-2.46zm23.4 0c0-2.805.044-3.993.1-2.64a78.387 78.387 0 0 1 0 5.1c-.055 1.452-.1.345-.1-2.46zm-188.223 1.237c0-.063.236-.299.525-.525.476-.373.486-.363.113.113-.392.5-.638.659-.638.412zm10.038-19.687c0-7.508.039-10.579.087-6.825.047 3.754.047 9.896 0 13.65-.048 3.754-.087.682-.087-6.825zm103.196.15c0-5.28.04-7.398.09-4.706.05 2.692.05 7.012 0 9.6s-.09.386-.09-4.894zm8.074 6.75c0-1.568.05-2.209.112-1.425s.062 2.066 0 2.85c-.061.784-.112.142-.112-1.425zm-27.015-6.75c.002-.99.058-1.359.124-.82.067.54.066 1.35-.003 1.8-.068.451-.123.01-.121-.98zm27.012-7.05c0-1.403.051-1.976.115-1.275.063.701.063 1.849 0 2.55-.064.701-.115.127-.115-1.275zm-72.03-2.25c.004-.66.065-.895.137-.522.072.374.07.914-.006 1.2-.075.287-.134-.018-.13-.678zm-42.852-9.3c0-2.805.044-3.993.1-2.64a78.387 78.387 0 0 1 0 5.1c-.055 1.452-.1.345-.1-2.46zm209.382-22.95c0-1.403.051-1.976.115-1.275.063.701.063 1.849 0 2.55-.064.701-.115.127-.115-1.275zm-23.969-14.1c0-6.353.04-8.951.088-5.775.049 3.176.049 8.374 0 11.55-.048 3.176-.088.577-.088-5.775zm-97.589 6c0-.413.068-.581.152-.375a1.16 1.16 0 0 1 0 .75c-.084.206-.152.037-.152-.375zm6.935-.6c0-.743.058-1.046.13-.675.071.371.071.979 0 1.35-.072.371-.13.067-.13-.675zm3.565.6c0-.413.068-.581.152-.375a1.16 1.16 0 0 1 0 .75c-.084.206-.152.037-.152-.375zm31.835-.6c0-.743.058-1.046.13-.675.071.371.071.979 0 1.35-.072.371-.13.067-.13-.675zm-38.554-.212c.374-.072.914-.07 1.2.006.287.075-.018.134-.678.13-.66-.003-.895-.064-.522-.136zm21.784-2.938c0-1.815.05-2.519.11-1.564.06.955.06 2.44-.001 3.3-.06.86-.11.079-.109-1.736zm13.616 2.938c.374-.072.914-.07 1.2.006.287.075-.018.134-.678.13-.66-.003-.895-.064-.522-.136zm-49.38-.688c0-.413.067-.581.15-.375.084.206.084.544 0 .75-.083.206-.15.037-.15-.375zm-3.9-2.4c0-.413.067-.581.15-.375.084.206.084.544 0 .75-.083.206-.15.037-.15-.375zm-31.224-.475c.014-.35.085-.42.18-.181.087.216.077.475-.023.575-.1.1-.17-.078-.157-.394zm118.2 0c.014-.35.085-.42.18-.181.087.216.077.475-.023.575-.1.1-.17-.078-.157-.394zm-68.95-.34a6.627 6.627 0 0 1 1.65 0c.455.069.083.125-.824.125-.908 0-1.279-.056-.825-.125zm35.4 0a6.627 6.627 0 0 1 1.65 0c.455.069.083.125-.824.125-.908 0-1.279-.056-.825-.125zm-40.25-1.16c.014-.35.085-.42.18-.181.087.216.077.475-.023.575-.1.1-.17-.078-.157-.394zm-8.048-1.175c.003-.66.064-.895.136-.522.072.374.069.914-.006 1.2-.075.287-.134-.018-.13-.678zm14.324.778c0-.15.27-.201.6-.115.33.086.6.209.6.272 0 .063-.27.115-.6.115-.33 0-.6-.122-.6-.272zm15.6-.107c0-.264-.304-.538-.675-.61l-.675-.13.684-.04c.66-.04 1.238.687.853 1.072-.103.103-.187-.029-.187-.292zm19.8.107c0-.15.27-.201.6-.115.33.086.6.209.6.272 0 .063-.27.115-.6.115-.33 0-.6-.122-.6-.272zm-54.3-.141c0-.063.236-.299.525-.525.476-.373.486-.363.113.113-.392.5-.638.659-.638.412zm17.175-.694a2.463 2.463 0 0 1 1.05 0c.289.076.052.137-.525.137-.578 0-.814-.061-.525-.137zm13.669.002c.216-.087.475-.076.575.024.1.1-.078.17-.394.157-.35-.014-.42-.085-.181-.181zm21.73-.002a2.463 2.463 0 0 1 1.05 0c.29.076.053.137-.524.137-.578 0-.814-.061-.525-.137zm-46.827-.693c0-.413.068-.581.152-.375a1.16 1.16 0 0 1 0 .75c-.084.206-.152.037-.152-.375zm8.4 0c0-.413.068-.581.152-.375a1.16 1.16 0 0 1 0 .75c-.084.206-.152.037-.152-.375zm22.5 0c0-.413.068-.581.152-.375a1.16 1.16 0 0 1 0 .75c-.084.206-.152.037-.152-.375zm9 0c0-.413.068-.581.152-.375a1.16 1.16 0 0 1 0 .75c-.084.206-.152.037-.152-.375zm3.9 0c0-.413.068-.581.152-.375a1.16 1.16 0 0 1 0 .75c-.084.206-.152.037-.152-.375z" fill="#8e8e8e"/><path d="M41.52 163.548c0-10.56.037-14.837.083-9.503.046 5.333.046 13.973 0 19.2-.046 5.226-.084.863-.084-9.697zm17.993-8.4c0-5.94.04-8.413.09-5.495.048 2.919.048 7.779 0 10.8-.05 3.022-.09.635-.09-5.305zm38.889.275c.014-.35.085-.42.18-.181.087.216.077.475-.023.575-.1.1-.17-.078-.157-.394zm-29.78-2.73c.216-.087.475-.076.575.024.1.1-.078.17-.394.157-.35-.014-.42-.085-.181-.18zm148.8 0c.216-.087.475-.076.575.024.1.1-.078.17-.394.157-.35-.014-.42-.085-.181-.18zM.002 89.123c.014-.35.085-.42.18-.181.087.216.077.475-.023.575-.1.1-.17-.078-.157-.394zm41.523-55.475l.003-20.1 2.25-.019 2.25-.019-2.173.107-2.173.106-.08 20.013-.08 20.012.003-20.1zm17.99 8.85c0-6.353.039-8.951.087-5.775.05 3.176.05 8.374 0 11.55-.048 3.176-.088.577-.088-5.775zm9.107 4.295c.216-.087.475-.076.575.024.1.1-.078.17-.394.157-.35-.014-.42-.085-.181-.181zm36 0c.216-.087.475-.076.575.024.1.1-.078.17-.394.157-.35-.014-.42-.085-.181-.181zm112.8 0c.216-.087.475-.076.575.024.1.1-.078.17-.394.157-.35-.014-.42-.085-.181-.181zm-119.02-2.67c.014-.35.085-.42.18-.181.087.216.077.475-.023.575-.1.1-.17-.078-.157-.394zm143.294-30.642c.533-.066 1.478-.067 2.1-.002.623.065.187.12-.968.12-1.155.002-1.664-.051-1.132-.118z" fill="#717171"/><path d="M244.925 163.398l.003-19.05 2.925-.017 2.926-.017-2.849.103-2.848.103-.08 18.964-.081 18.964.003-19.05zM34.867 144.275a59.572 59.572 0 0 1 4.5 0c1.188.057.136.104-2.34.103-2.474 0-3.447-.047-2.16-.103zm12.73.007c.532-.067 1.477-.068 2.1-.002.622.065.186.119-.97.12-1.154.001-1.663-.052-1.13-.118zm53.88-.008c23.072-.043 60.737-.043 83.7 0 22.963.042 4.086.077-41.95.077-46.034 0-64.822-.035-41.75-.077zm135.276.006a13.065 13.065 0 0 1 2.25 0c.619.064.112.117-1.125.117-1.238 0-1.744-.053-1.125-.117zm-65.944-34.282c0-4.373.042-6.161.093-3.975.051 2.186.051 5.764 0 7.95s-.093.397-.093-3.975zm-35.87 6.075c-.373-.476-.362-.486.114-.113.289.226.525.462.525.525 0 .247-.246.088-.638-.412zm-73.041-8.925c0-2.475.047-3.448.103-2.161a59.572 59.572 0 0 1 0 4.5c-.058 1.188-.104.136-.103-2.339zm51.302-.45c0-2.723.045-3.836.101-2.475a73.483 73.483 0 0 1 0 4.95c-.056 1.361-.101.247-.101-2.475zm-51.3-17.25c0-2.805.045-3.993.1-2.64a78.387 78.387 0 0 1 .001 5.1c-.055 1.452-.1.345-.1-2.46zm108.908-3.45c0-4.208.042-5.929.094-3.825s.052 5.546 0 7.65-.094.382-.094-3.825zm-57.61 2.7c0-2.393.046-3.371.103-2.175a55.409 55.409 0 0 1 0 4.35c-.057 1.196-.104.217-.104-2.175zM.001 88.223c.014-.35.085-.42.18-.181.087.216.077.475-.023.575-.1.1-.17-.078-.157-.394zM274.9 79.548c0-2.805.044-3.993.1-2.64a77.972 77.972 0 0 1 0 5.1c-.055 1.452-.1.345-.101-2.46zM34.867 53.975a59.572 59.572 0 0 1 4.5 0c1.188.057.136.104-2.34.103-2.474 0-3.447-.047-2.16-.103zm12.73.006c.532-.066 1.477-.067 2.1-.002.622.065.186.12-.97.12-1.154.002-1.663-.051-1.13-.118zm53.88-.008c23.072-.042 60.737-.042 83.7 0s4.086.077-41.95.077c-46.034 0-64.822-.035-41.75-.077zm135.276.006a13.061 13.061 0 0 1 2.25 0c.619.065.112.118-1.125.118-1.238 0-1.744-.053-1.125-.118zm8.163-.156c-.079-.206-.108-9.353-.064-20.325l.08-19.95.073 20.164.073 20.164 2.925.098 2.925.098-2.935.063c-2.119.046-2.974-.041-3.077-.312zm-143.439-22.95c23.072-.042 60.737-.042 83.7 0s4.086.077-41.95.077c-46.034 0-64.822-.035-41.75-.077zm-4.35-8.7c25.465-.042 67.045-.042 92.4 0 25.356.042 4.52.077-46.3.077-50.82 0-71.564-.035-46.1-.077z" fill="#545454"/><path d="M50.817 159.498c0-8.333.039-11.741.086-7.575.047 4.166.047 10.984 0 15.15s-.086.757-.086-7.575zm184.8 0c0-8.333.039-11.741.086-7.575.047 4.166.047 10.984 0 15.15-.048 4.166-.086.757-.086-7.575zm-134.29 6.375c23.155-.042 60.955-.042 84 0 23.046.042 4.1.077-42.1.077s-65.054-.035-41.9-.077zm18.95-6.807c0-.238.123-.508.273-.6.15-.093.201.101.115.432-.183.7-.387.789-.387.168zm9 0c0-.238.123-.508.273-.6.15-.093.201.101.115.432-.183.7-.387.789-.387.168zm14.1 0c0-.238.123-.508.273-.6.15-.093.201.101.115.432-.183.7-.387.789-.387.168zm12.681.007c.038-.317.272-.63.52-.698.29-.08.332-.034.12.125-.182.136-.416.45-.52.698-.133.316-.169.279-.12-.125zm-19.204-.925c.003-.66.064-.895.136-.522.072.374.069.914-.006 1.2-.075.287-.134-.018-.13-.678zm21.768.245c.216-.087.475-.076.575.024.1.1-.078.17-.394.157-.35-.014-.42-.085-.181-.181zm39.018-1.22c-.374-.476-.363-.487.113-.113.289.226.525.462.525.525 0 .246-.246.088-.638-.412zm-55.138-.25c.014-.35.085-.42.18-.181.087.216.077.475-.023.575-.1.1-.17-.078-.157-.394zm12.74-1.4c.174-.456-.011-.532-1.407-.58l-1.607-.053 1.467-.114c1.6-.125 2.357.27 1.725.897-.303.3-.338.27-.178-.15zm-20.517-.525c0-.413.068-.581.152-.375a1.16 1.16 0 0 1 0 .75c-.084.206-.152.037-.152-.375zm3.577-2.275c.014-.35.085-.42.18-.181.087.216.077.475-.023.575-.1.1-.17-.078-.157-.394zm15.5.276a1.16 1.16 0 0 1 .75 0c.207.083.038.151-.374.151-.413 0-.581-.068-.375-.15zm-12.28-.306c.216-.087.475-.076.575.024.1.1-.078.17-.394.157-.35-.014-.42-.085-.181-.181zm20.1-1.2c.216-.087.475-.076.575.024.1.1-.078.17-.394.157-.35-.014-.42-.085-.181-.181zm-129.14-9.695c0-1.403.052-1.976.116-1.275.063.701.063 1.849 0 2.55-.064.701-.115.127-.115-1.275zm-16.08-19.699a1.16 1.16 0 0 1 .75 0c.207.084.038.152-.374.152-.413 0-.581-.068-.375-.152zm5.12-.006c.216-.087.475-.076.575.024.1.1-.078.17-.394.157-.35-.014-.42-.085-.181-.18zm128.38.006a1.16 1.16 0 0 1 .75 0c.207.084.038.152-.374.152-.413 0-.581-.068-.375-.152zm4.8 0a1.16 1.16 0 0 1 .75 0c.207.084.038.152-.374.152-.413 0-.581-.068-.375-.152zm-87.101-5.651c0-2.805.044-3.993.1-2.64a78.387 78.387 0 0 1 0 5.1c-.055 1.452-.1.345-.1-2.46zm18 0c0-2.805.044-3.993.1-2.64a78.387 78.387 0 0 1 0 5.1c-.055 1.452-.1.345-.1-2.46zm112.5 0c0-2.805.044-3.993.1-2.64a78.387 78.387 0 0 1 0 5.1c-.055 1.452-.1.345-.1-2.46zm51 0c0-2.805.044-3.993.1-2.64a78.387 78.387 0 0 1 0 5.1c-.055 1.452-.1.345-.1-2.46zM.704 112.998c0-3.383.044-4.766.098-3.075.053 1.691.053 4.459 0 6.15-.054 1.691-.098.307-.098-3.075zm88.512-15c0-7.508.039-10.579.087-6.825.047 3.754.047 9.896 0 13.65-.048 3.754-.087.682-.087-6.825zm105.3 0c0-7.508.039-10.579.087-6.825.047 3.754.047 9.896 0 13.65-.048 3.754-.087.682-.087-6.825zm58.2 0c0-7.508.039-10.579.087-6.825.047 3.754.047 9.896 0 13.65-.048 3.754-.087.682-.087-6.825zm22.17 10.8c0-1.568.05-2.209.112-1.425s.062 2.066 0 2.85c-.061.784-.112.142-.112-1.425zm-235.826-1.8c0-.743.058-1.046.13-.675.071.371.071.979 0 1.35-.072.371-.13.067-.13-.675zm72.032-9.45c.001-1.98.05-2.751.108-1.713a36.54 36.54 0 0 1 0 3.6c-.06.942-.108.093-.108-1.887zm-25.491-18c0-2.805.044-3.993.1-2.64a78.387 78.387 0 0 1 0 5.1c-.055 1.452-.1.345-.1-2.46zm112.5 0c0-2.805.044-3.993.1-2.64a78.387 78.387 0 0 1 0 5.1c-.055 1.452-.1.345-.1-2.46zm51 0c0-2.805.044-3.993.1-2.64a78.387 78.387 0 0 1 0 5.1c-.055 1.452-.1.345-.1-2.46zm-113.673.15c.299-.33.61-.6.693-.6.082 0-.094.27-.393.6-.299.33-.61.6-.693.6-.083 0 .094-.27.393-.6zm-65.306-5.005c.216-.087.475-.076.575.024.1.1-.078.17-.394.157-.35-.014-.42-.085-.181-.181zm-52.5-.6c.216-.087.475-.076.575.024.1.1-.078.17-.394.157-.35-.014-.42-.085-.181-.181zm5.1 0c.216-.087.475-.076.575.024.1.1-.078.17-.394.157-.35-.014-.42-.085-.181-.181zm127.2 0c.216-.087.475-.076.575.024.1.1-.078.17-.394.157-.35-.014-.42-.085-.181-.181zm4.8 0c.216-.087.475-.076.575.024.1.1-.078.17-.394.157-.35-.014-.42-.085-.181-.181zM32.482 56.598c0-1.403.052-1.976.116-1.275.063.701.063 1.849 0 2.55-.064.701-.115.127-.115-1.275zm18.336-18.45c0-8.745.038-12.28.085-7.854.046 4.425.046 11.58 0 15.9-.047 4.32-.085.699-.085-8.046zm184.8 0c0-8.745.038-12.28.085-7.854.046 4.425.046 11.58 0 15.9-.047 4.32-.086.699-.085-8.046zm-114.14 10.518c0-.238.122-.508.272-.6.15-.093.201.101.115.432-.183.7-.387.789-.387.168zm4.58.007c.038-.316.272-.63.52-.698.29-.079.332-.034.12.125-.182.136-.416.45-.52.698-.133.316-.169.279-.12-.125zm3.82-.007c0-.238.122-.508.272-.6.15-.093.201.101.115.432-.183.7-.387.789-.387.168zm6.9 0c0-.238.122-.508.272-.6.15-.093.201.101.115.432-.183.7-.387.789-.387.168zm13.2.054c0-.263-.236-.54-.525-.615-.492-.129-.492-.14.009-.172.542-.036 1.045.736.703 1.078-.103.103-.188-.028-.188-.291zm2.4-.054c0-.238.122-.508.272-.6.15-.093.201.101.115.432-.183.7-.387.789-.387.168zm12.9 0c0-.238.122-.508.272-.6.15-.093.201.101.115.432-.183.7-.387.789-.387.168zm-41.156-.673c.216-.087.475-.076.575.024.1.1-.078.17-.394.157-.35-.014-.42-.085-.181-.181zm-53.944-1.708c0-.063.236-.299.525-.525.476-.373.486-.363.113.113-.392.5-.638.659-.638.412zm65.147-1.687c0-.413.068-.581.152-.375a1.16 1.16 0 0 1 0 .75c-.084.206-.152.037-.152-.375zm35.4 0c0-.413.068-.581.152-.375a1.16 1.16 0 0 1 0 .75c-.084.206-.152.037-.152-.375zm-51.103-2.005c.216-.087.475-.076.575.024.1.1-.078.17-.394.157-.35-.014-.42-.085-.181-.181zm25.8-.3c.216-.087.475-.076.575.024.1.1-.078.17-.394.157-.35-.014-.42-.085-.181-.181zm16.556-.995c-.27-.175-.308-.293-.093-.295.197-.003.44.13.543.295.23.372.126.372-.45 0zm-22.997-.463c-.097-.255-.11-.53-.028-.612.082-.082.22.127.309.463.187.715-.021.825-.28.149zm17.1 0c-.097-.255-.093-.547.01-.65.102-.103.186.027.186.288 0 .261.17.543.375.626.294.119.292.157-.009.175-.211.013-.464-.184-.562-.439zm3.22-.312c.015-.35.086-.42.182-.181.086.216.076.475-.024.575-.1.1-.17-.078-.157-.394zm5.1 0c.015-.35.086-.42.182-.181.086.216.076.475-.024.575-.1.1-.17-.078-.157-.394z" fill="#343434"/><path d="M93.878 189.925c-29.983-4.257-48.155-6.712-49.725-6.718l-2.475-.009v-39h-9v-4.8h218.1v4.779l-2.925.086-2.925.086-.077 19.385-.078 19.386-3.072.153c-1.69.084-24.618 3.14-50.95 6.79-26.332 3.65-48.27 6.62-48.75 6.603-.48-.018-22.136-3.051-48.123-6.74zm146.1-28.64v-17.113l-2.175.088-2.175.088-.078 15.075-.078 15.075H50.983l-.077-15.075-.078-15.075-2.175-.088-2.175-.088v34.226h193.5v-17.113zm-12.9-6.137v-10.95h-167.7v21.9h167.7v-10.95zm-88.95 4.39c-.781-.167-.912-.34-.993-1.316-.071-.858.017-1.124.375-1.124.266 0 .468.256.468.594 0 .75 1.262 1.11 2.272.65.54-.246.728-.568.728-1.253 0-.785-.166-.988-1.125-1.37-2.054-.818-2.444-1.1-2.754-1.99-.493-1.414.246-2.82 1.681-3.198.631-.166 1.62-.203 2.198-.082.895.188 1.063.356 1.14 1.145.072.724-.042.96-.524 1.087-.495.13-.616.02-.616-.561 0-.624-.142-.722-1.04-.722-.745 0-1.133.176-1.373.623-.508.95-.148 1.439 1.643 2.23 1.854.82 2.345 1.499 2.212 3.055-.146 1.709-2.072 2.71-4.292 2.233zm12.9.059c-1.169-.253-2.007-.839-2.464-1.722-.634-1.227-.624-4.268.018-5.497.853-1.634 3.095-2.38 5.37-1.784.702.183.826.373.826 1.26 0 .831-.118 1.044-.58 1.044-.371 0-.613-.241-.674-.675-.147-1.032-1.993-1.1-3.136-.116-.795.684-.86.9-.859 2.843.001 1.82.1 2.208.74 2.89.576.612.975.767 1.8.697 1.015-.085 1.063-.142 1.151-1.364.072-.994-.01-1.275-.375-1.275a.46.46 0 0 1-.467-.45c0-.34.367-.45 1.5-.45 1.397 0 1.902.316 1.2.75-.165.102-.3.848-.3 1.657 0 1.098-.133 1.54-.525 1.743-.702.362-2.48.61-3.225.449zm-30.45-.49c0-.26.135-.557.3-.66.172-.105.3-1.652.3-3.617 0-2.088-.118-3.432-.3-3.432-.165 0-.3-.222-.3-.492 0-.43.319-.473 2.494-.337 1.383.086 2.9.366 3.408.628 2.311 1.196 2.276 6.053-.056 7.581-.468.307-1.683.545-3.294.645-2.194.137-2.552.093-2.552-.315zm5.308-1.533c.753-.648.842-.919.842-2.576s-.089-1.928-.842-2.576c-.582-.5-1.207-.724-2.025-.724h-1.183v6.6h1.183c.818 0 1.443-.223 2.025-.724zm3.692 1.492c0-.238.135-.516.3-.618.172-.106.3-1.653.3-3.618 0-2.088-.118-3.432-.3-3.432-.165 0-.3-.203-.3-.45 0-.37.533-.45 3-.45h3v1.05c0 .83-.119 1.05-.568 1.05-.312 0-.646-.203-.74-.45-.115-.297-.584-.45-1.383-.45h-1.21v2.7h1.5c1.3 0 1.5.08 1.5.6s-.2.6-1.5.6h-1.5v2.7h1.35c1.15 0 1.35-.089 1.35-.6 0-.4.2-.6.6-.6.5 0 .6.2.6 1.2v1.2h-3c-2.411 0-3-.085-3-.432zm14.1 0c0-.238.135-.516.3-.618.17-.105.3-1.603.3-3.468 0-1.988-.118-3.282-.3-3.282-.165 0-.3-.27-.3-.6 0-.52.2-.6 1.5-.6 1.082 0 1.5.116 1.5.418 0 .23-.203.495-.45.59-.362.14-.45.814-.45 3.45 0 2.637.088 3.312.45 3.45.247.095.45.38.45.633 0 .35-.353.459-1.5.459-1.106 0-1.5-.114-1.5-.432zm12.6-.018c0-.248.135-.45.3-.45.183 0 .3-1.4.3-3.6s-.117-3.6-.3-3.6c-.165 0-.3-.203-.3-.45 0-.312.314-.45 1.027-.45.983 0 1.112.138 3 3.214l1.973 3.215v-2.765c0-2.257-.083-2.764-.45-2.764a.451.451 0 0 1-.45-.45c0-.346.383-.45 1.65-.45 1.21 0 1.65.111 1.65.418 0 .23-.203.495-.45.59-.368.142-.45.884-.45 4.083 0 3.858-.01 3.909-.677 3.909-.54 0-1.06-.638-2.567-3.15-1.039-1.733-1.949-3.15-2.022-3.15-.074 0-.134 1.215-.134 2.7 0 2.2.083 2.7.45 2.7.247 0 .45.202.45.45 0 .34-.367.45-1.5.45s-1.5-.11-1.5-.45zm-88.706-1.352c-1.495-.603-1.803-3.154-.504-4.176 1.94-1.526 4.672.047 4.157 2.392-.356 1.621-2.029 2.438-3.653 1.784zm9.056-.044c-.952-.521-1.35-1.192-1.35-2.275 0-2.536 3.51-3.483 4.661-1.258.65 1.26.54 2.025-.438 3.002-.914.914-1.854 1.088-2.873.53zm9-.016c-2.331-1.337-1.47-4.738 1.2-4.738.744 0 1.305.228 1.814.736 2.02 2.02-.54 5.42-3.014 4.002zm8.527-.515c-.977-.977-1.09-1.743-.438-3.002.753-1.457 2.71-1.699 3.925-.485 1.213 1.214.972 3.172-.486 3.925-1.258.651-2.024.54-3.001-.438zm9.037.037c-.971-.97-1.133-1.789-.565-2.855.804-1.51 2.588-1.863 3.96-.783.608.477.79.887.79 1.767 0 1.472-.754 2.382-2.16 2.607-.96.154-1.235.054-2.025-.736zm77.18.538c-1.445-.582-1.758-2.861-.558-4.062 1.62-1.619 4.364-.382 4.364 1.967 0 .354-.395 1.038-.877 1.52-.89.89-1.734 1.056-2.929.575zm9.056-.044c-2.326-1.273-1.482-4.754 1.153-4.754 1.36 0 2.274.793 2.493 2.161.154.96.054 1.235-.736 2.025-.95.95-1.88 1.131-2.91.568zm8.527-.53c-1.692-1.693-.689-4.224 1.673-4.224 2.702 0 3.54 3.475 1.145 4.751-1.057.563-1.882.408-2.818-.528zm9 0c-.977-.978-1.09-1.744-.438-3.003.753-1.457 2.71-1.699 3.925-.485 1.213 1.214.972 3.172-.486 3.925-1.258.651-2.024.54-3.001-.438zm9.225.232c-1.208-1.062-1.336-2.332-.352-3.501 1.53-1.82 4.35-.89 4.35 1.434 0 1.46-.753 2.382-2.123 2.6-.852.137-1.237.028-1.875-.533zM14.528 121.992c-3.598-.307-8.173-1.184-11.25-2.158l-2.25-.711-.081-6.063-.082-6.062h12.836l.189 1.178c.287 1.794 1.282 2.422 3.842 2.422 1.801 0 2.17-.097 2.81-.736 1.335-1.336.808-2.955-1.32-4.054-.39-.2-2.8-1.223-5.356-2.271-5.358-2.197-8.078-3.727-9.995-5.623C1.11 95.186.097 92.13.349 87.301c.197-3.782.959-5.84 2.978-8.05 3.199-3.5 8.323-5.026 16.9-5.035 6.765-.006 11.544.86 16.263 2.947l1.588.702v10.833h-12.6v-.75c0-.894-.888-1.86-1.956-2.128-.425-.107-1.53-.131-2.458-.054-1.284.106-1.817.302-2.236.819-1.432 1.769-.466 2.672 4.85 4.535 2.392.839 5.439 2.056 6.77 2.706 4.214 2.056 7.016 5.118 8.102 8.853.714 2.458.475 7.997-.45 10.395-1.698 4.402-5.527 7.227-11.424 8.427-2.92.594-8.364.814-12.148.491zm134.25.013c-5.93-.634-9.842-2.287-13.077-5.527-4.176-4.18-6.111-9.987-6.111-18.33 0-5.726.79-9.665 2.737-13.65 2.304-4.716 6.513-8.064 11.857-9.432 7.194-1.841 17.54-.886 24.019 2.218l2.475 1.186v15.028h-14.034l-.117-3.225c-.127-3.5-.494-4.48-1.917-5.129-1.049-.477-3.592-.434-4.583.078-1.668.863-1.7 1.1-1.7 12.926s.032 12.063 1.7 12.926c.991.512 3.534.555 4.583.078 1.464-.668 1.796-1.605 1.918-5.429l.113-3.525h14.037v15.575l-1.357.795c-4.374 2.563-13.862 4.15-20.543 3.437zm-107.1-5.557v-4.95h3.6v-27h-3.6v-9.951l15.525.131c17.113.145 17.603.194 21.145 2.081 3.871 2.064 5.93 6.208 5.93 11.939 0 5.73-2.059 9.875-5.93 11.939-2.707 1.442-4.97 1.864-11.095 2.068l-5.475.182v8.611h5.7v9.9h-25.8v-4.95zm24.808-22.774c.833-.716.842-.76.842-4.226 0-3.465-.009-3.51-.842-4.226-.701-.603-1.164-.724-2.775-.724h-1.933v9.9h1.933c1.611 0 2.074-.12 2.775-.724zm19.292 22.774v-4.95h3.6v-27h-3.6v-9.9h40.8v18.3h-13.2v-8.4h-7.5v9.6h5.1v6.9h-5.1v10.5h7.5v-9.6h13.2v19.5h-40.8v-4.95zm88.5 0v-4.95h3.6v-27h-3.6v-9.9h23.7v9.9h-3.6v27h3.6v9.9h-23.7v-4.95zm25.8 0v-4.95h1.2c.66 0 1.203-.034 1.206-.075.003-.041 2.273-8.31 5.043-18.375l5.038-18.3 10.85-.079 10.85-.078.189.754c.104.415 2.368 8.685 5.032 18.379l4.842 17.624 1.275.092 1.275.092v9.866h-23.4v-9.9h1.82c1.592 0 1.801-.066 1.667-.525-.084-.289-.313-1.369-.51-2.4l-.355-1.875h-4.155c-4.686 0-4.094-.336-4.757 2.7-.467 2.136-.493 2.1 1.49 2.1h1.8v9.9h-20.4v-4.95zm24.6-16.33c0-.347-2.064-10.47-2.282-11.195-.087-.289-.327-.525-.533-.525-.245 0-.79 2.059-1.59 6l-1.215 6h2.81c1.545 0 2.81-.126 2.81-.28zm24.6 16.33v-4.95h3.6v-27h-3.6v-9.9h25.5v9.9h-5.4v27h5.7v-5.4h11.7v15.3h-37.5v-4.95zm-216.6-59.85v-2.4h9V13.785l3.675-.182c2.212-.11 22.68-2.853 51.427-6.893L144.532 0l47.798 6.838c28.232 4.038 48.749 6.842 50.12 6.849l2.324.011.077 20.175.077 20.175 2.925.086 2.925.086v4.778h-218.1v-2.4zm18.228-18.375l.077-15.825h184.49l.077 15.825.078 15.825 2.175.088 2.175.088V18.498h-193.5v35.726l2.175-.088 2.175-.088.078-15.825zm176.172 4.275v-11.7h-167.7v23.4h167.7v-11.7zm-110.82 6.466c-1.145-.417-1.344-.594-2.044-1.816-.523-.914-.422-4.044.168-5.172.737-1.41 1.758-1.964 3.618-1.964 1.996 0 2.278.176 2.278 1.419 0 .745-.152 1.037-.6 1.154-.498.13-.6.01-.6-.715 0-.794-.093-.872-1.033-.872-.66 0-1.338.262-1.875.724-.774.665-.842.895-.842 2.826 0 1.822.099 2.207.74 2.89.603.641.966.771 1.95.699 1.08-.08 1.22-.18 1.307-.938.07-.612.223-.8.55-.675.248.096.508.174.577.174.07 0 .126.463.126 1.03 0 .722-.157 1.076-.525 1.184-1.436.422-2.734.44-3.795.052zm5.52-.298c0-.238.135-.516.3-.618.172-.106.3-1.653.3-3.618 0-2.088-.118-3.432-.3-3.432-.165 0-.3-.203-.3-.45 0-.952 5.464-.39 6.217.64.624.855.467 2.327-.33 3.074l-.711.67.884 1.633c.487.898 1.01 1.633 1.162 1.633.153 0 .278.202.278.45 0 .34-.367.45-1.5.45-1.094 0-1.5-.115-1.5-.425 0-.234.166-.48.369-.548.274-.091.223-.446-.196-1.375-.5-1.108-.68-1.252-1.569-1.252-.99 0-1.004.019-1.004 1.35 0 1 .117 1.35.45 1.35.247 0 .45.202.45.45 0 .34-.367.45-1.5.45-1.106 0-1.5-.114-1.5-.432zm4.74-4.728c.198-.198.36-.711.36-1.14 0-1.078-.523-1.5-1.86-1.5h-1.14v3h1.14c.627 0 1.302-.162 1.5-.36zm3.66 4.728c0-.238.135-.516.3-.618.172-.106.3-1.653.3-3.618 0-2.088-.118-3.432-.3-3.432-.165 0-.3-.203-.3-.45 0-.37.533-.45 3-.45h3v1.05c0 .83-.119 1.05-.568 1.05-.312 0-.646-.203-.74-.45-.115-.297-.584-.45-1.383-.45h-1.21v2.7h1.5c1.3 0 1.5.08 1.5.6s-.2.6-1.5.6h-1.5v2.7h1.35c1.15 0 1.35-.089 1.35-.6 0-.4.2-.6.6-.6.5 0 .6.2.6 1.2v1.2h-3c-2.411 0-3-.085-3-.432zm6.9.08c0-.193.185-.564.41-.824.227-.26.85-1.802 1.384-3.425.714-2.166.884-3.04.64-3.285-.756-.756-.364-1.149 1.05-1.055l1.383.091 1.318 3.75c.724 2.062 1.52 3.9 1.766 4.083.894.663.476 1.017-1.201 1.017-1.686 0-2.098-.357-1.184-1.025a.723.723 0 0 0 .263-.872c-.168-.437-.503-.515-1.892-.442-1.49.079-1.698.168-1.783.764-.053.371.049.675.225.675s.32.202.32.45c0 .333-.35.45-1.35.45-.83 0-1.35-.135-1.35-.351zm4.79-5.08c-.61-2.018-.81-2.362-1.007-1.736-.073.23-.346 1.083-.608 1.896-.261.814-.475 1.522-.475 1.575 0 .054.595.097 1.322.097h1.323l-.555-1.832zm4.51 5.017c0-.228.27-.486.6-.572.554-.145.6-.41.6-3.485v-3.328h-.75c-.467 0-.75.17-.75.45 0 .25-.267.45-.6.45-.486 0-.6-.2-.6-1.05v-1.05h6.9v1.05c0 .85-.114 1.05-.6 1.05-.333 0-.6-.2-.6-.45 0-.28-.283-.45-.75-.45h-.75v3.45c0 2.867.076 3.45.45 3.45.247 0 .45.202.45.45 0 .35-.4.45-1.8.45-1.333 0-1.8-.108-1.8-.415zm6.3-.017c0-.238.135-.516.3-.618.17-.105.3-1.603.3-3.468 0-1.988-.118-3.282-.3-3.282-.165 0-.3-.27-.3-.6 0-.52.2-.6 1.5-.6 1.082 0 1.5.116 1.5.418 0 .23-.203.495-.45.59-.362.14-.45.814-.45 3.45 0 2.637.088 3.312.45 3.45.247.095.45.38.45.633 0 .35-.353.459-1.5.459-1.106 0-1.5-.114-1.5-.432zm5.667-3.354c-.724-2.1-1.486-3.987-1.692-4.194-.717-.72-.386-1.02 1.125-1.02 1.082 0 1.5.116 1.5.418 0 .23-.187.49-.416.577-.336.13-.234.744.525 3.182.517 1.663 1.008 3.02 1.09 3.017.083-.003.577-1.362 1.098-3.02.77-2.454.868-3.044.525-3.176-.232-.09-.422-.35-.422-.58 0-.295.396-.418 1.35-.418 1.393 0 1.732.4.975 1.153-.206.204-.926 2.02-1.598 4.035-1.106 3.31-1.297 3.67-1.983 3.753-.721.086-.827-.104-2.077-3.727zm7.233 3.354c0-.238.135-.516.3-.618.172-.106.3-1.653.3-3.618 0-2.088-.118-3.432-.3-3.432-.165 0-.3-.203-.3-.45 0-.37.533-.45 3-.45h3v1.05c0 .83-.119 1.05-.568 1.05-.312 0-.646-.203-.74-.45-.115-.297-.584-.45-1.383-.45h-1.21v2.7h1.5c1.3 0 1.5.08 1.5.6s-.2.6-1.5.6h-1.5v2.7h1.35c1.15 0 1.35-.089 1.35-.6 0-.4.2-.6.6-.6.5 0 .6.2.6 1.2v1.2h-3c-2.411 0-3-.085-3-.432zm-98.51-2.59c-.607-.477-.79-.887-.79-1.767 0-1.46.752-2.382 2.122-2.6.853-.137 1.238-.028 1.876.533 1.208 1.062 1.336 2.332.352 3.501-.968 1.15-2.355 1.28-3.56.333zm8.946-.114c-1.981-1.982.416-5.386 2.836-4.028 1.649.926 1.936 2.856.62 4.172-.854.854-2.527.785-3.456-.144zm9 0c-1.956-1.957.257-5.144 2.83-4.078 1.598.662 2.025 2.85.798 4.078a2.564 2.564 0 0 1-3.628 0zm9.172.144c-1.316-1.316-1.03-3.246.62-4.172 1.566-.879 3.572.372 3.572 2.228 0 2.149-2.724 3.412-4.192 1.944zm9.266.207c-1.393-1.069-1.498-2.637-.26-3.875.79-.79 1.064-.89 2.025-.736 1.406.225 2.16 1.135 2.16 2.607 0 .88-.182 1.29-.79 1.767-.873.688-2.399.803-3.135.237zm76.362-.351c-1.5-1.501-.69-3.921 1.425-4.26.96-.154 1.235-.054 2.025.736.503.503.914 1.203.914 1.557 0 2.349-2.744 3.586-4.364 1.967zm9 0c-1.214-1.214-.972-3.172.485-3.925 1.27-.656 2.026-.538 3.039.475.79.79.89 1.064.736 2.025-.339 2.116-2.76 2.925-4.26 1.425zm9 0c-1.228-1.228-.8-3.416.797-4.078 1.715-.71 3.567.502 3.567 2.334 0 2.222-2.776 3.331-4.364 1.744zm9.172.144c-1.316-1.316-1.03-3.246.62-4.172 1.566-.879 3.572.372 3.572 2.228 0 2.149-2.724 3.412-4.192 1.944zm8.842-.363c-.975-1.158-.858-2.437.316-3.47 1.685-1.483 4.034-.324 4.034 1.99 0 2.369-2.8 3.322-4.35 1.48z"/></svg>