<svg xmlns="http://www.w3.org/2000/svg" viewBox="0 0 265.59473 238.14653" height="254.023" width="283.301"><path d="M245.865 202.764c0-.413.068-.582.151-.375a1.16 1.16 0 0 1 0 .75c-.083.206-.151.037-.151-.375zm-56.147-10.014c0-.062.236-.298.525-.525.475-.373.486-.362.113.114-.392.5-.638.658-.638.411zm-74.158-10.29c.217-.087.476-.076.575.023.1.1-.077.17-.393.158-.35-.014-.421-.086-.182-.181zm34.2 0c.217-.087.476-.076.575.023.1.1-.077.17-.393.158-.35-.014-.421-.086-.182-.181zm-28.8-.3c.217-.087.476-.076.575.023.1.1-.077.17-.393.158-.35-.014-.421-.086-.182-.181zm23.4 0c.217-.087.476-.076.575.023.1.1-.077.17-.393.158-.35-.014-.421-.086-.182-.181zm-65.382-13.52c-.373-.476-.362-.487.114-.114.5.392.658.639.411.639-.062 0-.298-.237-.525-.525zm43.106-2.447c-.093-.15.102-.202.432-.115.7.183.79.387.168.387-.237 0-.508-.123-.6-.272zm2.891-1.978c.006-.495.073-.662.15-.37.076.292.07.697-.012.9-.082.203-.144-.035-.138-.53zm27.565-1.525c.015-.35.086-.421.182-.182.086.217.076.476-.024.575-.1.1-.17-.077-.158-.393zm-29.676-1.925c0-.413.068-.582.151-.375a1.16 1.16 0 0 1 0 .75c-.083.206-.151.037-.151-.375zm10.572-3.9c0-2.393.046-3.372.103-2.175a55.448 55.448 0 0 1 0 4.35c-.057 1.196-.103.217-.103-2.175zm-2.41-1.05c.001-1.65.051-2.287.112-1.415.06.871.06 2.221 0 3-.063.778-.112.065-.111-1.585zm13.138-.75c0-.413.068-.582.151-.375a1.16 1.16 0 0 1 0 .75c-.083.206-.151.037-.151-.375zm-2.4-.9c0-.413.068-.582.151-.375a1.16 1.16 0 0 1 0 .75c-.083.206-.151.037-.151-.375zm-17.078-.6c0-.578.062-.814.137-.525.076.288.076.76 0 1.05-.075.288-.137.052-.137-.525zm26.054.125c.015-.35.086-.421.182-.182.086.217.076.476-.024.575-.1.1-.17-.077-.158-.393zm-15.129-1.855c.113-.431-.005-.658-.392-.758-.51-.132-.511-.146-.018-.178.643-.042 1.024.777.572 1.229-.23.23-.277.147-.162-.293zm14.45-.275c.216-.087.475-.076.574.023.1.1-.077.17-.393.158-.35-.014-.421-.086-.182-.181zm-4.52-.294a1.16 1.16 0 0 1 .75 0c.207.083.038.151-.374.151-.413 0-.582-.068-.375-.151zm-29.68-14.706c.216-.087.475-.076.574.023.1.1-.077.17-.393.158-.35-.015-.421-.086-.182-.181zm33.6 0c.216-.087.475-.076.574.023.1.1-.077.17-.393.158-.35-.015-.421-.086-.182-.181zm-26.72-.294a1.16 1.16 0 0 1 .75 0c.207.083.038.151-.374.151-.413 0-.582-.068-.375-.151zm19.82-.006c.216-.087.475-.076.574.023.1.1-.077.17-.393.158-.35-.014-.421-.086-.182-.181zm-95.02-1.77c.014-.35.085-.421.18-.182.087.217.077.476-.023.575-.1.1-.17-.077-.158-.393zm167.1-.9c.014-.35.085-.421.18-.182.087.217.077.476-.023.575-.1.1-.17-.077-.158-.393zm-2.4-3c.014-.35.085-.421.18-.182.087.217.077.476-.023.575-.1.1-.17-.077-.158-.393zm-175.155-1.625c0-.578.062-.814.137-.525.076.288.076.76 0 1.05-.075.288-.137.052-.137-.525zm17.978-.6c0-.413.068-.582.151-.375a1.16 1.16 0 0 1 0 .75c-.083.206-.151.037-.151-.375zm-7.8-.6c0-.413.068-.582.151-.375a1.16 1.16 0 0 1 0 .75c-.083.206-.151.037-.151-.375zm177.942-1.2c0-.908.057-1.28.125-.825a6.63 6.63 0 0 1 0 1.65c-.068.453-.125.082-.125-.825zm-18.042.6c0-.413.068-.582.151-.375a1.16 1.16 0 0 1 0 .75c-.083.206-.151.037-.151-.375zm7.866-3.9c0-1.898.049-2.674.108-1.725.06.948.06 2.5 0 3.45-.06.948-.108.172-.108-1.725zm-88.463-3.3c1.478-1.485 2.755-2.7 2.837-2.7.083 0-1.06 1.215-2.537 2.7-1.479 1.485-2.755 2.7-2.838 2.7-.082 0 1.06-1.215 2.538-2.7zM121.56 42.36c.217-.087.476-.076.575.023.1.1-.077.17-.393.158-.35-.015-.421-.086-.182-.181zm18.9 0c.217-.087.476-.076.575.023.1.1-.077.17-.393.158-.35-.015-.421-.086-.182-.181zm-13.818-5.407a4.274 4.274 0 0 1 1.35 0c.37.071.067.13-.675.13-.743 0-1.047-.059-.675-.13zm7.8 0a4.274 4.274 0 0 1 1.35 0c.37.071.067.13-.675.13-.743 0-1.047-.059-.675-.13zM121.26 34.26c.217-.087.476-.076.575.023.1.1-.077.17-.393.158-.35-.015-.421-.086-.182-.181zm19.5 0c.217-.087.476-.076.575.023.1.1-.077.17-.393.158-.35-.015-.421-.086-.182-.181zm-90.122-5.57l-.571-.675.675.571c.37.314.675.618.675.675 0 .24-.242.063-.779-.571zm10.079-.639c0-.062.236-.298.525-.525.475-.373.486-.362.113.114-.392.5-.638.658-.638.411zM192.96 24.96c.217-.087.476-.076.575.023.1.1-.077.17-.393.158-.35-.015-.421-.086-.182-.181zm-72.618-.894a1.16 1.16 0 0 1 .75 0c.206.083.037.151-.375.151-.413 0-.582-.068-.375-.151zm21 0a1.16 1.16 0 0 1 .75 0c.206.083.037.151-.375.151-.413 0-.582-.068-.375-.151zm50.718-1.506c.217-.087.476-.076.575.023.1.1-.077.17-.393.158-.35-.015-.421-.086-.182-.181zm-3.282-1.22c-.373-.476-.362-.487.114-.114.5.392.658.639.411.639-.062 0-.298-.237-.525-.525zm-115.33-1.35l-.881-.975.975.88c.536.485.975.924.975.976 0 .231-.248.027-1.07-.881zm114.516-1.125c0-.413.068-.582.151-.375a1.16 1.16 0 0 1 0 .75c-.083.206-.151.037-.151-.375zM77.24 14.789c.015-.35.086-.421.182-.182.086.217.076.476-.024.575-.1.1-.17-.077-.158-.393zm26.246-.813c.113-.296.28-.463.373-.37.092.092 0 .334-.205.538-.296.294-.33.26-.168-.168zm85.93.274c0-.062.237-.298.526-.525.475-.373.486-.362.113.114-.392.5-.638.658-.638.411zm-37.05-1.086c.3-.33.611-.6.694-.6.082 0-.095.27-.393.6-.3.33-.61.6-.693.6-.083 0 .094-.27.393-.6zm-5.024-.5c.206-.082.543-.082.75 0 .206.084.037.152-.375.152-.413 0-.582-.068-.375-.151zm-15.882-.605c.217-.087.476-.076.575.023.1.1-.077.17-.393.158-.35-.015-.421-.086-.182-.181zm36.98-3.27c.015-.35.086-.421.182-.182.086.217.076.476-.024.575-.1.1-.17-.077-.158-.393zm-16.765-1.475c.006-.495.073-.662.15-.37.076.292.07.697-.012.9-.082.203-.144-.035-.138-.53zm-30.335-.625c.015-.35.086-.421.182-.182.086.217.076.476-.024.575-.1.1-.17-.077-.158-.393zm-3-1.2c.015-.35.086-.421.182-.182.086.217.076.476-.024.575-.1.1-.17-.077-.158-.393zm7.177-3.239c0-.062.236-.298.525-.525.475-.373.486-.362.113.114-.392.5-.638.658-.638.411z" fill="#d0d0d0"/><path d="M245.865 203.964c0-.413.068-.582.151-.375a1.16 1.16 0 0 1 0 .75c-.083.206-.151.037-.151-.375zm-.324-7.075c.015-.35.086-.421.182-.182.086.217.076.476-.024.575-.1.1-.17-.077-.158-.393zm-125.48-14.73c.217-.087.476-.076.575.023.1.1-.077.17-.393.158-.35-.014-.421-.086-.182-.181zm25.2 0c.217-.087.476-.076.575.023.1.1-.077.17-.393.158-.35-.014-.421-.086-.182-.181zm-14.256-.318a43.63 43.63 0 0 1 3.9 0c1.024.06.108.106-2.037.106s-2.984-.048-1.863-.106zm-7.662-15.576a1.16 1.16 0 0 1 .75 0c.206.083.037.151-.375.151-.413 0-.582-.068-.375-.151zm1.622-3.401c0-.413.068-.582.151-.375a1.16 1.16 0 0 1 0 .75c-.083.206-.151.037-.151-.375zm-2.1-.9c0-.413.068-.582.151-.375a1.16 1.16 0 0 1 0 .75c-.083.206-.151.037-.151-.375zm8.134-2.1c0-.743.059-1.047.13-.675.072.37.072.978 0 1.35-.071.37-.13.067-.13-.675zm-52.581-2.214c0-.062.236-.298.525-.525.475-.373.486-.362.113.114-.392.5-.638.658-.638.411zm65.723-1.561c.015-.35.086-.421.182-.182.086.217.076.476-.024.575-.1.1-.17-.077-.158-.393zm-21.576-2.525c0-.413.068-.582.151-.375a1.16 1.16 0 0 1 0 .75c-.083.206-.151.037-.151-.375zm46.673-.038c.203-.205.445-.297.538-.204.092.092-.075.26-.37.372-.428.163-.463.129-.168-.168zm-18.277-1.967c.217-.087.476-.076.575.023.1.1-.077.17-.393.158-.35-.014-.421-.086-.182-.181zm-30.3-.3c.217-.087.476-.076.575.023.1.1-.077.17-.393.158-.35-.014-.421-.086-.182-.181zm11.832-.31a6.63 6.63 0 0 1 1.65 0c.453.068.082.125-.825.125-.908 0-1.28-.057-.825-.125zm-15.732-14.39c.217-.087.476-.076.575.023.1.1-.077.17-.393.158-.35-.015-.421-.086-.182-.181zm7.182-.294a1.16 1.16 0 0 1 .75 0c.206.083.037.151-.375.151-.413 0-.582-.068-.375-.151zm17.4 0a1.16 1.16 0 0 1 .75 0c.206.083.037.151-.375.151-.413 0-.582-.068-.375-.151zm83.498-2.676c.015-.35.086-.421.182-.182.086.217.076.476-.024.575-.1.1-.17-.077-.158-.393zm-174.9-3c.015-.35.086-.421.182-.182.086.217.076.476-.024.575-.1.1-.17-.077-.158-.393zm5.124-1.025c0-.413.068-.582.151-.375a1.16 1.16 0 0 1 0 .75c-.083.206-.151.037-.151-.375zm157.176.125c.015-.35.086-.421.182-.182.086.217.076.476-.024.575-.1.1-.17-.077-.158-.393zm-164.976-.725c0-.413.068-.582.151-.375a1.16 1.16 0 0 1 0 .75c-.083.206-.151.037-.151-.375zm159.9-.6c0-.413.068-.582.151-.375a1.16 1.16 0 0 1 0 .75c-.083.206-.151.037-.151-.375zm-80.604-2.775l-2.693-2.775 2.775 2.693c1.526 1.482 2.775 2.73 2.775 2.775 0 .218-.355-.116-2.857-2.693zm-89.485 1.725c.006-.495.073-.662.15-.37.076.292.07.697-.012.9-.082.203-.144-.035-.138-.53zm177.9 0c.006-.495.073-.662.15-.37.076.292.07.697-.012.9-.082.203-.144-.035-.138-.53zm10.278-13.5c0-6.27.04-8.878.088-5.795.049 3.083.049 8.213 0 11.4-.048 3.187-.088.665-.088-5.605zM81.643 97.84l15.975-.082V94.17l-16.125-.082-16.125-.081 16.2.004 16.2.004v3.9l-16.05.004-16.05.004 15.975-.082zm90.75-.001a918.19 918.19 0 0 1 16.05 0c4.413.047.802.085-8.025.085-8.828 0-12.44-.038-8.025-.085zm0-3.9a918.19 918.19 0 0 1 16.05 0c4.413.047.802.085-8.025.085-8.828 0-12.44-.038-8.025-.085zm-42.6-56.996a21.929 21.929 0 0 1 2.85 0c.783.062.142.112-1.425.112-1.568 0-2.21-.05-1.425-.112zm-9.432-2.684c.217-.087.476-.076.575.023.1.1-.077.17-.393.158-.35-.015-.421-.086-.182-.181zm21.3 0c.217-.087.476-.076.575.023.1.1-.077.17-.393.158-.35-.015-.421-.086-.182-.181zm-20.1-10.2c.217-.087.476-.076.575.023.1.1-.077.17-.393.158-.35-.015-.421-.086-.182-.181zm18.9 0c.217-.087.476-.076.575.023.1.1-.077.17-.393.158-.35-.015-.421-.086-.182-.181zm-89.596-1.895c0-.413.068-.582.151-.375a1.16 1.16 0 0 1 0 .75c-.083.206-.151.037-.151-.375zm21.214-3.525c-.373-.476-.362-.487.114-.114.5.392.658.639.411.639-.062 0-.298-.237-.525-.525zm7.562-3.85c.015-.35.086-.421.182-.182.086.217.076.476-.024.575-.1.1-.17-.077-.158-.393zm43.2-1.5c.015-.35.086-.421.182-.182.086.217.076.476-.024.575-.1.1-.17-.077-.158-.393zm68.757-2.733c.292-.076.697-.071.9.01.203.083-.035.145-.53.14-.495-.007-.662-.074-.37-.15zm-111.68-.392c0-.165.143-.3.317-.3.175 0 .235.135.133.3-.102.165-.245.3-.318.3-.073 0-.132-.135-.132-.3zm44.158-3.15c.006-.495.073-.662.15-.37.076.292.07.697-.012.9-.082.203-.144-.035-.138-.53zm22.062-3.788c.203-.205.445-.297.538-.204.092.092-.075.26-.37.372-.428.163-.463.129-.168-.168zM142.26.66c.217-.087.476-.076.575.023.1.1-.077.17-.393.158-.35-.015-.421-.086-.182-.181zm-10.8-.6c.217-.087.476-.076.575.023.1.1-.077.17-.393.158-.35-.015-.421-.086-.182-.181z" fill="#b1b1b1"/><path d="M245.876 205.314c.006-.495.073-.662.15-.37.076.292.07.697-.012.9-.082.203-.144-.035-.138-.53zM69.74 190.34c-.27-.326-.262-.475.038-.648.214-.123.29-.114.167.02-.122.136-.072.428.112.649.184.221.267.403.184.403-.082 0-.308-.19-.501-.424zm123.16-.522c.312-.438.628-.738.7-.667.074.071-.181.43-.567.796l-.702.667.568-.796zm-65.207-7.961a2.465 2.465 0 0 1 1.05 0c.288.075.052.137-.525.137-.578 0-.814-.062-.525-.137zm9.3 0a2.465 2.465 0 0 1 1.05 0c.288.075.052.137-.525.137-.578 0-.814-.062-.525-.137zM84.66 168.659c.217-.087.476-.076.575.023.1.1-.077.17-.393.158-.35-.014-.421-.086-.182-.181zm39.9-2.4c.217-.087.476-.076.575.023.1.1-.077.17-.393.158-.35-.014-.421-.086-.182-.181zm.415-4.745c.006-.495.073-.662.15-.37.076.292.07.697-.012.9-.082.203-.144-.035-.138-.53zm19.165-4.525c.015-.35.086-.421.182-.182.086.217.076.476-.024.575-.1.1-.17-.077-.158-.393zm-21.6-2.4c.015-.35.086-.421.182-.182.086.217.076.476-.024.575-.1.1-.17-.077-.158-.393zm3.52-3.63c.217-.087.476-.076.575.023.1.1-.077.17-.393.158-.35-.014-.421-.086-.182-.181zm4.637-.003c.292-.076.697-.071.9.01.203.083-.035.145-.53.139-.495-.006-.662-.073-.37-.15zm17.263-14.397c.217-.087.476-.076.575.023.1.1-.077.17-.393.158-.35-.015-.421-.086-.182-.181zm-22.663-.303c.292-.076.697-.071.9.01.203.083-.035.145-.53.14-.495-.007-.662-.074-.37-.15zm14.395 0a2.463 2.463 0 0 1 1.05 0c.288.076.052.138-.525.138-.578 0-.814-.062-.525-.137zm-92.428-6.092c0-.413.068-.582.151-.375a1.16 1.16 0 0 1 0 .75c-.083.206-.151.037-.151-.375zm2.676-.475c.015-.35.086-.421.182-.182.086.217.076.476-.024.575-.1.1-.17-.077-.158-.393zm157.224-.125c0-.413.068-.582.151-.375a1.16 1.16 0 0 1 0 .75c-.083.206-.151.037-.151-.375zm7.811-.75c.006-.495.073-.662.15-.37.076.292.07.697-.012.9-.082.203-.144-.035-.138-.53zm-2.711-.15c0-.413.068-.582.151-.375a1.16 1.16 0 0 1 0 .75c-.083.206-.151.037-.151-.375zM37.163 87.414c0-21.615.036-30.414.08-19.552.043 10.862.043 28.547 0 39.3-.044 10.753-.08 1.867-.08-19.748zm188.098-9c0-13.365.036-18.877.081-12.248.045 6.63.046 17.564 0 24.3-.045 6.736-.081 1.313-.081-12.052zM122.443 57.342c.866-.06 2.283-.06 3.15 0 .866.061.157.11-1.575.11-1.733 0-2.442-.049-1.575-.11zm14.71 0a24.5 24.5 0 0 1 3 .002c.778.061.065.11-1.585.11s-2.287-.051-1.415-.112zm-6.46-15.285a2.463 2.463 0 0 1 1.05 0c.288.075.052.137-.525.137-.578 0-.814-.062-.525-.137zm-10.032-4.798c.217-.087.476-.076.575.023.1.1-.077.17-.393.158-.35-.015-.421-.086-.182-.181zm20.7 0c.217-.087.476-.076.575.023.1.1-.077.17-.393.158-.35-.015-.421-.086-.182-.181zm-18.9-13.2c.217-.087.476-.076.575.023.1.1-.077.17-.393.158-.35-.015-.421-.086-.182-.181zm17.1 0c.217-.087.476-.076.575.023.1.1-.077.17-.393.158-.35-.015-.421-.086-.182-.181zm-17.4-11.7c.217-.087.476-.076.575.023.1.1-.077.17-.393.158-.35-.015-.421-.086-.182-.181zm-.82-4.17c.015-.35.086-.421.182-.182.086.217.076.476-.024.575-.1.1-.17-.077-.158-.393zm12.52-3.63c.217-.087.476-.076.575.023.1.1-.077.17-.393.158-.35-.015-.421-.086-.182-.181zm-38.418-.894a1.16 1.16 0 0 1 .75 0c.206.083.037.151-.375.151-.413 0-.582-.068-.375-.151zm35.418-1.506c.217-.087.476-.076.575.023.1.1-.077.17-.393.158-.35-.015-.421-.086-.182-.181zm-15.9-1.2c.217-.087.476-.076.575.023.1.1-.077.17-.393.158-.35-.015-.421-.086-.182-.181z" fill="#909090"/><path d="M245.887 206.964c0-.578.062-.814.137-.525.076.288.076.76 0 1.05-.075.288-.137.052-.137-.525zm-.346-8.575c.015-.35.086-.421.182-.182.086.217.076.476-.024.575-.1.1-.17-.077-.158-.393zm-124.524-4.4c0-.124 1.722-.202 3.826-.173 3.917.054 3.46.175-1.201.317-1.444.044-2.626-.02-2.625-.144zm14.788-.148a43.63 43.63 0 0 1 3.9 0c1.024.06.108.106-2.037.106s-2.984-.048-1.863-.106zm55.713-2.59c0-.063.236-.3.525-.526.475-.373.486-.362.113.114-.392.5-.638.658-.638.411zm-72.957-9.092c.217-.087.476-.076.575.023.1.1-.077.17-.393.158-.35-.014-.421-.086-.182-.181zm28.2 0c.217-.087.476-.076.575.023.1.1-.077.17-.393.158-.35-.014-.421-.086-.182-.181zm-20.868-.302a2.465 2.465 0 0 1 1.05 0c.288.075.052.137-.525.137-.578 0-.814-.062-.525-.137zm12.9 0a2.465 2.465 0 0 1 1.05 0c.288.075.052.137-.525.137-.578 0-.814-.062-.525-.137zm-24.538-16.913c-.109-.176-.133-.385-.055-.463.079-.079.223.065.321.32.203.528.03.621-.266.143zm-27.194-1.085c.217-.087.476-.076.575.023.1.1-.077.17-.393.158-.35-.014-.421-.086-.182-.181zm37.904-3.695c0-.413.068-.582.151-.375a1.16 1.16 0 0 1 0 .75c-.083.206-.151.037-.151-.375zm16.476-.175c.015-.35.086-.421.182-.182.086.217.076.476-.024.575-.1.1-.17-.077-.158-.393zm2.7-2.1c.015-.35.086-.421.182-.182.086.217.076.476-.024.575-.1.1-.17-.077-.158-.393zm-21.576-2.225c0-.413.068-.582.151-.375a1.16 1.16 0 0 1 0 .75c-.083.206-.151.037-.151-.375zm32.976-3.475c.015-.35.086-.421.182-.182.086.217.076.476-.024.575-.1.1-.17-.077-.158-.393zm-3.08-.63c.217-.087.476-.076.575.023.1.1-.077.17-.393.158-.35-.014-.421-.086-.182-.181zm-27.3-.6c.217-.087.476-.076.575.023.1.1-.077.17-.393.158-.35-.014-.421-.086-.182-.181zm4.037-.003c.292-.076.697-.071.9.01.203.083-.035.145-.53.139-.495-.006-.662-.073-.37-.15zm-10.937-14.397c.217-.087.476-.076.575.023.1.1-.077.17-.393.158-.35-.015-.421-.086-.182-.181zm28.8 0c.217-.087.476-.076.575.023.1.1-.077.17-.393.158-.35-.015-.421-.086-.182-.181zm-20.268-.302a2.463 2.463 0 0 1 1.05 0c.288.075.052.137-.525.137-.578 0-.814-.062-.525-.137zm11.1 0a2.463 2.463 0 0 1 1.05 0c.288.075.052.137-.525.137-.578 0-.814-.062-.525-.137zm-90.652-5.068c.015-.35.086-.421.182-.182.086.217.076.476-.024.575-.1.1-.17-.077-.158-.393zm167.7-1.2c.015-.35.086-.421.182-.182.086.217.076.476-.024.575-.1.1-.17-.077-.158-.393zm-164.976-1.325c0-.413.068-.582.151-.375a1.16 1.16 0 0 1 0 .75c-.083.206-.151.037-.151-.375zm162.3-1.2c0-.413.068-.582.151-.375a1.16 1.16 0 0 1 0 .75c-.083.206-.151.037-.151-.375zm-47.951-31.5c0-1.073.054-1.512.12-.975a9.555 9.555 0 0 1 0 1.95c-.066.536-.12.097-.12-.975zm-36.921-38.607a2.463 2.463 0 0 1 1.05 0c.288.075.052.137-.525.137-.578 0-.814-.062-.525-.137zm6.9 0a2.463 2.463 0 0 1 1.05 0c.288.075.052.137-.525.137-.578 0-.814-.062-.525-.137zm90.934-5.943c.001-1.65.051-2.287.112-1.415.06.871.06 2.221-.002 3-.061.778-.111.065-.11-1.585zm-82.666-9.055c.217-.087.476-.076.575.023.1.1-.077.17-.393.158-.35-.015-.421-.086-.182-.181zm-14.713-.313c.54-.067 1.35-.065 1.8.003.45.069.01.123-.98.122-.99-.002-1.36-.058-.82-.125zm5.095 0a9.548 9.548 0 0 1 1.95 0c.536.067.097.121-.975.121-1.073 0-1.512-.054-.975-.12zM118.86 34.26c.217-.087.476-.076.575.023.1.1-.077.17-.393.158-.35-.015-.421-.086-.182-.181zm24.3 0c.217-.087.476-.076.575.023.1.1-.077.17-.393.158-.35-.015-.421-.086-.182-.181zm-15.325-.312c.532-.066 1.477-.067 2.1-.002.622.064.187.119-.968.12-1.155.001-1.665-.052-1.132-.118zm4.5 0c.532-.066 1.477-.067 2.1-.002.622.064.187.119-.968.12-1.155.001-1.665-.052-1.132-.118zm-8.993-9.882a1.16 1.16 0 0 1 .75 0c.206.083.037.151-.375.151-.413 0-.582-.068-.375-.151zm15 0a1.16 1.16 0 0 1 .75 0c.206.083.037.151-.375.151-.413 0-.582-.068-.375-.151zM48.14 22.589c.015-.35.086-.421.182-.182.086.217.076.476-.024.575-.1.1-.17-.077-.158-.393zm43.046-6.213c.113-.296.28-.463.373-.37.092.092 0 .334-.205.538-.296.294-.33.26-.168-.168zm30.674-2.217c.217-.087.476-.076.575.023.1.1-.077.17-.393.158-.35-.015-.421-.086-.182-.181zm19.28-.57c.015-.35.086-.421.182-.182.086.217.076.476-.024.575-.1.1-.17-.077-.158-.393zm-6.076-.628c.128-.628.203-.703.29-.29.066.306-.012.687-.172.847-.188.188-.23-.01-.118-.557zm-36.547-1.71c0-.063.236-.3.525-.526.475-.373.486-.362.113.114-.392.5-.638.658-.638.411zm1.523-3.362c.015-.35.086-.421.182-.182.086.217.076.476-.024.575-.1.1-.17-.077-.158-.393zm64.346-2.137c-.163-.428-.128-.463.168-.168.205.203.297.445.205.538-.093.092-.26-.075-.373-.37zM135.14 3.989c.015-.35.086-.421.182-.182.086.217.076.476-.024.575-.1.1-.17-.077-.158-.393z" fill="#707070"/><path d="M245.541 199.289c.015-.35.086-.421.182-.182.086.217.076.476-.024.575-.1.1-.17-.077-.158-.393zm-182.602-1.7l-.571-.675.675.571c.634.537.811.779.571.779-.057 0-.36-.304-.675-.675zm136.229.075c.298-.33.61-.6.693-.6.082 0-.095.27-.393.6-.3.33-.61.6-.693.6-.083 0 .094-.27.393-.6zm1.05-.994c0-.052.438-.49.975-.975l.975-.881-.882.975c-.82.908-1.068 1.112-1.068.88zm-139.679-1.481l-.571-.675.675.571c.37.314.675.618.675.675 0 .24-.242.063-.779-.571zm64.004-13.324a1.16 1.16 0 0 1 .75 0c.206.083.037.151-.375.151-.413 0-.582-.068-.375-.151zm15.9 0a1.16 1.16 0 0 1 .75 0c.206.083.037.151-.375.151-.413 0-.582-.068-.375-.151zm-63.767-19.451c.006-.495.073-.662.15-.37.076.292.07.697-.012.9-.082.203-.144-.035-.138-.53zm48.289-3.45c0-.413.068-.582.151-.375a1.16 1.16 0 0 1 0 .75c-.083.206-.151.037-.151-.375zm16.5 0c0-.413.068-.582.151-.375a1.16 1.16 0 0 1 0 .75c-.083.206-.151.037-.151-.375zm2.676-.175c.015-.35.086-.421.182-.182.086.217.076.476-.024.575-.1.1-.17-.077-.158-.393zm-63.623-.239c0-.062.236-.298.525-.525.475-.373.486-.362.113.114-.392.5-.638.658-.638.411zm42.023-1.861c.015-.35.086-.421.182-.182.086.217.076.476-.024.575-.1.1-.17-.077-.158-.393zm1.72-5.73c.217-.087.476-.076.575.023.1.1-.077.17-.393.158-.35-.014-.421-.086-.182-.181zm6.296-14.719a68.74 68.74 0 0 1 4.8 0c1.27.057.15.102-2.49.102s-3.68-.046-2.31-.102zm-93.217-3.55c.015-.35.086-.421.182-.182.086.217.076.476-.024.575-.1.1-.17-.077-.158-.393zm17.7-.9c.015-.35.086-.421.182-.182.086.217.076.476-.024.575-.1.1-.17-.077-.158-.393zm169.8-.3c.015-.35.086-.421.182-.182.086.217.076.476-.024.575-.1.1-.17-.077-.158-.393zm-56.498-.324a1.16 1.16 0 0 1 .75 0c.206.083.037.151-.375.151-.413 0-.582-.068-.375-.151zm46.598-.276c.015-.35.086-.421.182-.182.086.217.076.476-.024.575-.1.1-.17-.077-.158-.393zm-82.973-5.225c1.478-1.485 2.755-2.7 2.837-2.7.083 0-1.06 1.215-2.537 2.7-1.479 1.485-2.755 2.7-2.838 2.7-.082 0 1.06-1.215 2.538-2.7zm-82.003 1.8c0-.413.068-.582.151-.375a1.16 1.16 0 0 1 0 .75c-.083.206-.151.037-.151-.375zm162.338-1.95c.002-.825.06-1.127.13-.671.069.456.067 1.13-.004 1.5-.071.369-.128-.004-.126-.83zm-80.192-5.475l-2.543-2.625 2.625 2.543c2.438 2.362 2.761 2.707 2.543 2.707-.045 0-1.226-1.182-2.625-2.625zm-51.593-.189c0-.062.236-.298.525-.525.475-.373.486-.362.113.114-.392.5-.638.658-.638.411zm94.761-1.911c-.373-.476-.362-.487.114-.114.288.227.525.463.525.525 0 .247-.247.088-.639-.411zM118.86 42.36c.217-.087.476-.076.575.023.1.1-.077.17-.393.158-.35-.015-.421-.086-.182-.181zm7.037-.303c.292-.076.697-.071.9.01.203.083-.035.145-.53.14-.495-.007-.662-.074-.37-.15zm10.045.009a1.16 1.16 0 0 1 .75 0c.206.083.037.151-.375.151-.413 0-.582-.068-.375-.151zm-13.8-4.8a1.16 1.16 0 0 1 .75 0c.206.083.037.151-.375.151-.413 0-.582-.068-.375-.151zm17.4 0a1.16 1.16 0 0 1 .75 0c.206.083.037.151-.375.151-.413 0-.582-.068-.375-.151zm-13.95-3.308a2.463 2.463 0 0 1 1.05 0c.288.075.052.137-.525.137-.578 0-.814-.062-.525-.137zm10.2 0a2.463 2.463 0 0 1 1.05 0c.288.075.052.137-.525.137-.578 0-.814-.062-.525-.137zm-81.15-3.592a1.16 1.16 0 0 1 .75 0c.206.083.037.151-.375.151-.413 0-.582-.068-.375-.151zm70.055-6.31c.292-.075.697-.07.9.012.203.082-.035.144-.53.138-.495-.006-.662-.073-.37-.15zm12.3 0c.292-.075.697-.07.9.012.203.082-.035.144-.53.138-.495-.006-.662-.073-.37-.15zm49.681-1.516c-.373-.476-.362-.487.114-.114.5.392.658.639.411.639-.062 0-.298-.237-.525-.525zm-55.218-8.38c.217-.087.476-.076.575.023.1.1-.077.17-.393.158-.35-.015-.421-.086-.182-.181zm60.582-1.494a1.16 1.16 0 0 1 .75 0c.206.083.037.151-.375.151-.413 0-.582-.068-.375-.151zm-56.867-1.151c.006-.495.073-.662.15-.37.076.292.07.697-.012.9-.082.203-.144-.035-.138-.53zm-2.111-.45c0-.413.068-.582.151-.375a1.16 1.16 0 0 1 0 .75c-.083.206-.151.037-.151-.375zm-64.922.1c.206-.082.543-.082.75 0 .206.084.037.152-.375.152-.413 0-.582-.068-.375-.151zM121.34 9.69c.015-.35.086-.421.182-.182.086.217.076.476-.024.575-.1.1-.17-.077-.158-.393zm-24-1.5c.015-.35.086-.421.182-.182.086.217.076.476-.024.575-.1.1-.17-.077-.158-.393zm-2.48-2.43c.217-.087.476-.076.575.023.1.1-.077.17-.393.158-.35-.015-.421-.086-.182-.181zm55.818-1.52c-.373-.476-.362-.487.114-.114.288.227.525.463.525.525 0 .247-.247.088-.639-.411zm-29.638-.55c.015-.35.086-.421.182-.182.086.217.076.476-.024.575-.1.1-.17-.077-.158-.393zm14.135-.875c.006-.495.073-.662.15-.37.076.292.07.697-.012.9-.082.203-.144-.035-.138-.53zM120.361.659c.217-.087.476-.076.575.023.1.1-.077.17-.393.158-.35-.015-.421-.086-.182-.181z" fill="#4f4f4f"/><path d="M245.541 200.189c.015-.35.086-.421.182-.182.086.217.076.476-.024.575-.1.1-.17-.077-.158-.393zm-183.802-3.8l-.571-.675.675.571c.634.537.811.779.571.779-.057 0-.36-.304-.675-.675zm61.604-14.524a1.16 1.16 0 0 1 .75 0c.206.083.037.151-.375.151-.413 0-.582-.068-.375-.151zm18.455-.01c.292-.075.697-.07.9.012.203.082-.035.144-.53.138-.495-.006-.662-.073-.37-.15zm29.02-12.81c0-.064.21-.197.465-.296.267-.102.388-.052.282.118-.176.285-.747.422-.747.179zm4.745-.847c.16-.16.541-.237.848-.172.412.087.337.162-.291.29-.548.112-.745.07-.557-.118zm-80.045-.517c0-.155.133-.364.296-.465.17-.105.22.015.118.282-.2.52-.414.615-.414.183zm55.143-.822c.217-.087.476-.076.575.024.1.1-.077.17-.393.157-.35-.014-.421-.085-.182-.181zm-2.896-.695c0-.413.068-.581.151-.375a1.16 1.16 0 0 1 0 .75c-.083.206-.151.037-.151-.375zm-10.304-1.705c.217-.087.476-.076.575.024.1.1-.077.17-.393.157-.35-.014-.421-.085-.182-.181zm6.704-4.595c0-.413.068-.581.151-.375a1.16 1.16 0 0 1 0 .75c-.083.206-.151.037-.151-.375zm-54.478-1.288c.113-.296.28-.463.373-.37.092.092 0 .334-.205.538-.296.294-.33.26-.168-.168zm32.89-.662c.005-.495.072-.661.148-.37.077.292.072.697-.01.9-.083.204-.145-.035-.139-.53zm2.416-.6c.003-.66.065-.895.137-.522.072.373.069.913-.006 1.2-.075.287-.134-.018-.13-.678zm16.483.3c.006-.495.073-.661.15-.37.076.292.07.697-.012.9-.082.204-.144-.035-.138-.53zm-55.778-.958c.292-.076.697-.071.9.011.203.082-.035.144-.53.138-.495-.006-.662-.073-.37-.15zm68.263-5.097c.217-.087.476-.076.575.024.1.1-.077.17-.393.157-.35-.014-.421-.085-.182-.181zm-30.6-.6c.217-.087.476-.076.575.024.1.1-.077.17-.393.157-.35-.014-.421-.085-.182-.181zm16.782-.012a9.54 9.54 0 0 1 1.95 0c.536.066.097.12-.975.12-1.073 0-1.512-.054-.975-.12zm-20.4-14.382a1.16 1.16 0 0 1 .75 0c.206.083.037.151-.375.151-.413 0-.582-.068-.375-.15zm25.5 0a1.16 1.16 0 0 1 .75 0c.206.083.037.151-.375.151-.413 0-.582-.068-.375-.15zM47.24 132.69c.015-.35.086-.421.181-.182.087.217.077.476-.023.575-.1.1-.17-.077-.158-.393zm164.7-.3c.015-.35.086-.421.181-.182.087.217.076.476-.023.575-.1.1-.17-.077-.158-.393zm-174.576-.725c0-.413.068-.582.151-.375a1.16 1.16 0 0 1 0 .75c-.083.206-.151.037-.151-.375zm169.776.125c.015-.35.086-.421.181-.182.087.217.076.476-.023.575-.1.1-.17-.077-.158-.393zm7.8 0c.015-.35.086-.421.181-.182.087.217.076.476-.023.575-.1.1-.17-.077-.158-.393zm9.935-1.475c.006-.495.073-.662.15-.37.076.292.07.697-.012.9-.082.203-.144-.035-.138-.53zm-52.858-.264c0-.062.236-.298.525-.525.475-.373.486-.362.113.114-.392.5-.638.658-.638.411zM50.063 92.214c0-19.14.036-27.015.08-17.499.043 9.516.043 25.176 0 34.8-.044 9.624-.08 1.839-.08-17.301zm4.8.45c0-17.903.035-25.227.08-16.275.044 8.95.044 23.598 0 32.55-.045 8.95-.08 1.627-.08-16.275zm157.498 3.9c0-15.263.037-21.507.082-13.875.044 7.63.044 20.118 0 27.75-.045 7.63-.082 1.387-.082-13.875zm-35.52 25.325c.015-.35.086-.421.181-.182.087.217.076.476-.023.575-.1.1-.17-.077-.158-.393zm30.719-40.925c0-11.468.037-16.16.082-10.425.046 5.733.046 15.116 0 20.85-.045 5.733-.082 1.042-.082-10.425zm-11.146 15c0-1.073.054-1.512.12-.975a9.555 9.555 0 0 1 0 1.95c-.066.536-.12.097-.12-.975zM144.06 42.359c.217-.087.476-.076.575.023.1.1-.077.17-.393.158-.35-.015-.421-.086-.182-.181zm-19.663-.303c.292-.076.697-.071.9.01.203.083-.035.145-.53.14-.495-.007-.662-.074-.37-.15zm12.9 0c.292-.076.697-.071.9.01.203.083-.035.145-.53.14-.495-.007-.662-.074-.37-.15zm-13.8-4.8c.292-.076.697-.071.9.01.203.083-.035.145-.53.14-.495-.007-.662-.074-.37-.15zm14.7 0c.292-.076.697-.071.9.01.203.083-.035.145-.53.14-.495-.007-.662-.074-.37-.15zm-20.837-2.997c.217-.087.476-.076.575.023.1.1-.077.17-.393.158-.35-.015-.421-.086-.182-.181zm27.3 0c.217-.087.476-.076.575.023.1.1-.077.17-.393.158-.35-.015-.421-.086-.182-.181zm-20.868-.302a2.463 2.463 0 0 1 1.05 0c.288.075.052.137-.525.137-.578 0-.814-.062-.525-.137zm13.8 0a2.463 2.463 0 0 1 1.05 0c.288.075.052.137-.525.137-.578 0-.814-.062-.525-.137zM55.26 28.259c.217-.087.476-.076.575.023.1.1-.077.17-.393.158-.35-.015-.421-.086-.182-.181zm5.607-.695c.298-.33.61-.6.693-.6.082 0-.095.27-.393.6-.3.33-.61.6-.693.6-.083 0 .094-.27.393-.6zm57.393-3.205c.217-.087.476-.076.575.023.1.1-.077.17-.393.158-.35-.015-.421-.086-.182-.181zm25.5 0c.217-.087.476-.076.575.023.1.1-.077.17-.393.158-.35-.015-.421-.086-.182-.181zm-16.968-.314a13.061 13.061 0 0 1 2.25 0c.618.065.112.118-1.125.118-1.238 0-1.744-.053-1.125-.118zm6.6 0a13.061 13.061 0 0 1 2.25 0c.618.065.112.118-1.125.118-1.238 0-1.744-.053-1.125-.118zm-63.098-3.606l-.727-.825.825.727c.77.68.962.923.727.923-.054 0-.425-.372-.825-.825zm102.266-1.48c.217-.087.476-.076.575.023.1.1-.077.17-.393.158-.35-.015-.421-.086-.182-.181zm-95.32-.87c.015-.35.086-.421.181-.182.087.217.076.476-.023.575-.1.1-.17-.077-.158-.393zm108 0c.015-.35.086-.421.181-.182.087.217.076.476-.023.575-.1.1-.17-.077-.158-.393zm-113.4-3.3c.015-.35.086-.421.181-.182.087.217.077.476-.023.575-.1.1-.17-.077-.158-.393zm48.52-.63c.217-.087.476-.076.575.023.1.1-.077.17-.393.158-.35-.015-.421-.086-.182-.181zm-1.42-2.37c.015-.35.086-.421.181-.182.087.217.076.476-.023.575-.1.1-.17-.077-.158-.393zm50.638-.65c-.373-.476-.362-.487.114-.114.288.227.525.463.525.525 0 .247-.247.088-.639-.411zm-48.238-.55c.015-.35.086-.421.181-.182.087.217.076.476-.023.575-.1.1-.17-.077-.158-.393zm13.646-.337c-.163-.428-.128-.463.168-.168.205.203.297.445.205.538-.093.092-.26-.075-.373-.37zm-8.246-3.263c.015-.35.086-.421.181-.182.087.217.076.476-.023.575-.1.1-.17-.077-.158-.393zm-27.96-2.15c-.373-.476-.362-.487.114-.114.5.392.658.639.411.639-.062 0-.298-.237-.525-.525zm22.262-.25c.015-.35.086-.421.181-.182.087.217.076.476-.023.575-.1.1-.17-.077-.158-.393zm-10.28-1.53c.217-.087.476-.076.575.023.1.1-.077.17-.393.158-.35-.015-.421-.086-.182-.181zm32.326-.307c-.163-.428-.128-.463.168-.168.205.203.297.445.205.538-.093.092-.26-.075-.373-.37zm-25.37-.088c-.698-.224-.704-.243-.092-.27.361-.017.74.105.843.27.102.165.143.286.092.27l-.842-.27zm8.25-.6c.3-.33.611-.6.694-.6.082 0-.095.27-.393.6-.3.33-.61.6-.693.6-.083 0 .094-.27.393-.6zm9.174-.475c.015-.35.086-.421.181-.182.087.217.076.476-.023.575-.1.1-.17-.077-.158-.393zm-13.88-.93c.217-.087.476-.076.575.023.1.1-.077.17-.393.158-.35-.015-.421-.086-.182-.181z" fill="#2f2f2f"/><path d="M128.668 236.001c-5.044-4.472-12.988-8.95-26.25-14.797-20.698-9.125-30.664-15.237-40.282-24.702l-3.831-3.771-5.319 1.752c-10.202 3.362-20.73 7.526-29.572 11.696l-3.554 1.677.203-1.871c.563-5.187 1.743-13.862 2.55-18.753.497-3.015.905-5.682.905-5.927 0-.681-7.495-5.34-17.684-10.99L0 167.08l3.884-1.836c8.916-4.215 19.398-8.489 29.759-12.134 4.715-1.659 5.775-2.134 5.775-2.592 0-.309-.2-1.808-.442-3.333-1.46-9.162-1.46-9.136-1.577-55.271l-.11-43.5 1.44-1.076c4.184-3.123 12.734-7.56 20.489-10.634 18.816-7.456 40.953-11.725 64.275-12.397 25.527-.735 47.827 2.033 68.925 8.555 11.253 3.48 24.267 9.44 30.825 14.117l1.875 1.337v39.499c0 23.147-.128 41.796-.308 45.049-.26 4.708-1.04 12.318-1.659 16.2l-.167 1.05 6.196 2.039c7.502 2.47 14.434 5.106 22.651 8.616 6.851 2.926 13.95 6.235 13.76 6.414-.068.064-2.828 1.92-6.133 4.123-3.305 2.204-8.065 5.493-10.578 7.308l-4.57 3.3.154 1.05c.305 2.087 1.046 13.478 1.244 19.129l.203 5.78-3.572-1.684c-10.319-4.863-21.949-9.388-32.73-12.734l-4.868-1.512-3.387 3.504c-9.397 9.724-18.653 15.539-40.286 25.31-15.333 6.926-21.164 10.173-26.901 14.977-1.596 1.336-2.946 2.422-3 2.412-.055-.009-1.18-.974-2.5-2.145zm5.764-12.656c5.237-3.424 10.645-6.16 23.64-11.962 6.725-3.001 15.476-7.345 19.228-9.543 5.394-3.16 12.497-8.47 15.499-11.589l1.13-1.175-2.257-.532-2.258-.533-1.553 1.397c-6.702 6.025-15.072 10.862-32.193 18.602-12.568 5.681-18.268 8.854-22.6 12.578-.88.757-1.67 1.376-1.755 1.376-.086 0-1.189-.833-2.45-1.851-4.787-3.86-9.566-6.478-22.364-12.25-15.981-7.207-22.646-10.943-29.815-16.71l-3.103-2.496-2.082.502c-1.145.277-2.081.588-2.081.691 0 .312 2.383 2.501 5.21 4.787 6.841 5.533 15.689 10.474 30.64 17.112 12.156 5.397 20.602 9.765 24.3 12.565.66.5 1.364.918 1.564.929.2.011 1.686-.843 3.3-1.898zm-.17-9.583c5.06-3.43 8.809-5.366 20.506-10.594 8.284-3.703 16.026-7.602 19.796-9.969 3.317-2.083 8.85-6.049 8.853-6.345 0-.087-2.126-.538-4.724-1.002-30.8-5.497-62.152-5.457-92.192.117-2.713.503-5.406 1.02-5.983 1.146l-1.05.231 2.632 1.952c5.689 4.22 13.596 8.505 25.118 13.611 9.24 4.095 16.417 7.753 20.282 10.337 1.962 1.312 3.655 2.392 3.762 2.401.106.01 1.456-.84 3-1.885zm-8.56-10.095a119.38 119.38 0 0 1 1.164-3.598c.248-.705.452-1.324.452-1.377 0-.053-1.36-1.082-3.022-2.287l-3.02-2.191 3.749-.084 3.749-.084 1.112-3.366c.612-1.852 1.183-3.489 1.269-3.638.086-.15.678 1.365 1.317 3.366l1.16 3.638 3.776.084 3.775.084-2.997 2.186-2.997 2.186 1.132 3.589c.623 1.974 1.079 3.589 1.012 3.589-.066 0-1.3-.852-2.743-1.892-1.442-1.04-2.797-1.997-3.011-2.126-.251-.152-1.487.558-3.489 2.002l-3.1 2.238.712-2.319zm62.132-33.9c.212-1.046.351-1.928.31-1.96-.042-.033-.445-.147-.896-.255-.729-.175-.868-.079-1.269.88-.334.8-.586 1.035-.98.917-.292-.088-1.443-.314-2.556-.503-1.114-.19-2.025-.483-2.025-.654 0-.688.71-4.294.885-4.5.104-.123 1.26-.019 2.567.231 2.794.535 3.222.44 3.093-.683-.09-.783-.223-.85-2.55-1.276-1.351-.248-2.53-.527-2.62-.62-.145-.15.38-3.887.578-4.12.133-.157 4.174.603 4.722.888.313.163.525.617.525 1.127 0 .694.155.884.825 1.013.453.087.874.11.933.051.06-.059.28-.926.489-1.927.368-1.761.36-1.824-.259-1.96-1.51-.332-7.128-1.331-9.304-1.654-1.94-.288-2.412-.28-2.62.05-.457.72-.282 1.025.81 1.42.875.316 1.048.51.926 1.035-.083.356-.519 2.9-.97 5.656l-.818 5.01-1.081.09c-.905.076-1.096.215-1.17.85-.089.76-.078.763 5.7 1.831 3.184.59 5.92 1.047 6.08 1.018.16-.029.464-.908.675-1.954zm-100.566.569c.66-.179 1.99-.676 2.958-1.105l1.758-.78-.168-1.218c-.092-.67-.253-1.76-.359-2.42-.18-1.127-.138-1.22.7-1.535.751-.283.868-.462.74-1.134-.108-.562-.297-.755-.641-.653-.269.08-1.689.35-3.156.601s-2.71.5-2.763.552c-.053.053-.018.394.077.758.135.515.395.662 1.175.662.895 0 1.02.103 1.17.975.421 2.441.424 2.435-1.191 2.986-4.11 1.403-6.895-.189-7.67-4.384-.578-3.123.494-5.582 2.814-6.458.465-.176 1.648-.32 2.63-.32 1.745 0 1.797.024 2.286 1.05.393.825.678 1.05 1.327 1.05.455 0 .886-.1.957-.224.214-.37-.265-3.366-.59-3.69-.47-.47-5.464-.37-7.168.144-1.834.554-3.828 2.197-4.706 3.878-1.381 2.646-.65 7.302 1.51 9.605 1.711 1.825 5.156 2.513 8.31 1.66zm85.249-7.946c.526-3.617.967-6.61.979-6.651.012-.042.494-.075 1.072-.075.85 0 1.05-.115 1.05-.6 0-.33.033-.702.075-.825.072-.217-4.16-.906-5.85-.953-.68-.018-.825.106-.825.704 0 .563.202.77.9.924.674.148.9.366.9.871 0 .65-.72 6.23-1.054 8.172-.146.852-.47.338-3.335-5.285l-3.173-6.23-1.813-.189c-3.357-.35-3.825-.284-3.825.547 0 .604.188.772 1.048.933 1.006.189 1.042.24.903 1.289-.08.6-.284 2.644-.453 4.542-.55 6.164-.482 5.911-1.662 6.132-.831.156-1.036.334-1.036.897 0 .624.173.72 1.575.877.866.096 2.361.263 3.323.372l1.749.197-.099-.853c-.077-.67-.308-.913-1.071-1.13-.966-.276-.971-.288-.802-1.81.094-.843.331-3.017.528-4.832l.357-3.3 2.433 4.65c1.338 2.557 2.737 5.36 3.109 6.229.452 1.057.885 1.624 1.311 1.716 1.117.24 2.128.37 2.433.313.163-.03.727-3.015 1.253-6.632zm-70.25 5.712c6.364-.682 5.727-.384 5.55-2.6-.148-1.875-.156-1.89-1.124-1.982-.933-.09-.975-.049-.975.957 0 .578-.102 1.11-.225 1.18-.124.072-1.327.223-2.673.336l-2.447.207-.159-.843a44.643 44.643 0 0 1-.345-2.535l-.186-1.692 2.717-.215 2.718-.215v-2.106l-2.025.197c-1.114.109-2.383.267-2.82.352-.784.153-.798.126-1.05-2.037l-.255-2.192 1.05-.186a50.39 50.39 0 0 1 2.567-.354c1.464-.163 1.528-.138 1.849.71.268.711.509.88 1.258.88.81 0 .925-.103.922-.825-.002-.454-.089-1.345-.194-1.98l-.19-1.156-1.982.193c-2.563.25-8.638 1.032-9.723 1.252-.652.132-.821.317-.75.818.073.511.33.667 1.218.74.618.052 1.126.254 1.127.45.003.447 1.125 9.02 1.35 10.307.15.864.084.967-.74 1.148-1.087.239-1.238.438-1.006 1.326.149.571.324.652 1.11.513.514-.09 2.959-.382 5.434-.648zm12.976-1.222c1.406-.143 1.575-.235 1.575-.862 0-.582-.2-.735-1.174-.9l-1.173-.198-.17-1.703a141.84 141.84 0 0 1-.34-4.703l-.17-3 .838.949c.461.522 2.324 2.979 4.139 5.46l3.3 4.511 1.615.015 1.616.014-.116-6.805-.115-6.805.975-.253c.768-.2.975-.41.975-.995 0-.673-.119-.741-1.275-.74-.702.002-2.187.089-3.3.194-1.842.174-2.025.252-2.025.864 0 .532.22.715 1.05.87l1.05.198.002 1.861c0 1.024.074 3.211.163 4.861l.163 3-.6-.75c-.33-.412-2.234-2.959-4.233-5.658l-3.633-4.91-2.606.216c-2.98.246-3.098.287-2.84.987.25.679.685.955 1.509.96.371.003.678.174.681.38.003.207.203 2.738.444 5.625.24 2.888.44 5.341.444 5.452.003.11-.397.29-.89.398-1.057.232-1.309.548-1.06 1.33.192.606.467.613 5.181.137zm39.375-.543c0-.563-.203-.77-.9-.923-1.062-.234-1.024.227-.55-6.68l.356-5.18 1.147-.184c.934-.15 1.147-.308 1.147-.857 0-.848-.877-1.05-4.559-1.05-2.6 0-2.68.021-2.587.666.066.46.404.753 1.099.951 1.001.286 1.003.289.83 1.81-.094.838-.26 3.3-.368 5.472-.109 2.172-.28 4.063-.381 4.204-.102.14-.59.391-1.084.558-.573.192-.935.54-.994.953-.103.716.406.815 4.819.932 1.957.053 2.025.03 2.025-.672zm-13.18-.569c.948-.501 1.519-1.091 2.047-2.117.657-1.277.746-1.89.871-6.022l.14-4.601 1.16-.186c.988-.158 1.162-.297 1.162-.932 0-.647-.135-.746-1.004-.746-.552 0-2.24-.088-3.75-.195l-2.746-.195v.783c0 .663.188.834 1.227 1.114l1.227.33-.2 4.256c-.301 6.404-.678 7.107-3.807 7.107-3.642 0-3.968-.54-4.097-6.783l-.1-4.833 1.224-.196c1.053-.168 1.226-.3 1.226-.942v-.746h-3.6c-3.598 0-3.6 0-3.6.717 0 .726.493 1.083 1.5 1.083.508 0 .558.39.65 5.175.092 4.766.153 5.261.782 6.272 1.048 1.685 2.691 2.352 5.795 2.352 2.118 0 2.813-.124 3.893-.695zm-90.06-18.255c.586-.216.682-.412.543-1.109-.354-1.77-1.103-7.833-1.394-11.29-.183-2.173-.304-18.267-.306-40.582l-.003-36.982 2.587-1.686c9.385-6.118 25.743-12.102 41.659-15.24 22.866-4.508 50.641-4.508 73.508 0 16.079 3.17 32.815 9.321 41.846 15.379l2.55 1.71-.092 36.3c-.09 35.652-.205 40.48-1.129 47.7-.253 1.98-.487 3.861-.52 4.18-.046.446.25.67 1.277.974.735.217 1.428.293 1.541.17.305-.333 1.117-7.36 1.482-12.823.21-3.127.29-18.074.23-42.873l-.09-38.073-3.15-1.75c-6.576-3.657-16.504-7.622-25.763-10.291-12.088-3.486-23.556-5.49-39.036-6.822-5.716-.492-26.061-.487-31.95.008-20.576 1.728-37.422 5.413-52.65 11.517-3.968 1.59-11.08 4.97-13.738 6.53l-1.588.93.113 41.612c.118 43.56.112 43.326 1.426 51.135.372 2.214.374 2.215 2.648 1.376zm9.49-2.462c17.977-4.44 37.457-7.267 57.3-8.316 7.476-.395 29.071-.203 35.55.316 17.005 1.362 30.464 3.352 45.81 6.773 3.387.754 6.2 1.329 6.253 1.276.179-.178 1.022-6.96 1.317-10.586.16-1.98.387-19.482.502-38.892l.21-35.292-1.17-.739c-4.195-2.643-11.333-5.956-18.196-8.444-29.558-10.714-70.181-12.135-102.826-3.596C74.9 50.354 62.54 55.34 55.843 59.562l-1.125.71.004 31.12c.002 17.117.135 34.092.296 37.722.261 5.877 1.296 16.078 1.698 16.729.084.135.377.178.652.097.275-.082 1.85-.482 3.5-.89zm25.236-12.55c-1.402-.38-2.836-1.78-4.793-4.679-1.757-2.603-2.171-3.983-1.71-5.697.423-1.57 1.315-2.623 3.55-4.19l1.782-1.25 3.117 4.403c1.715 2.422 3.757 5.303 4.538 6.404l1.42 2-2.273 1.536c-1.25.844-2.497 1.537-2.77 1.54a7.058 7.058 0 0 0-1.097.125c-.33.067-1.124-.02-1.764-.193zm3.5-2.803c.742-.504 1.047-.894.895-1.144-.747-1.226-5.855-8.3-6.104-8.454-.165-.102-.834.35-1.488 1.004-1.76 1.76-1.661 2.613.69 5.938 2.551 3.61 3.796 4.16 6.007 2.656zm77.118 1.067c-.83-.335-3.719-2.357-4.304-3.013-.425-.476-32.618-23.388-32.862-23.388-.063 0-7.531 5.265-16.596 11.7-9.065 6.435-16.618 11.7-16.783 11.7-.166 0-1.293-1.416-2.505-3.146-5.527-7.886-6.619-9.488-6.515-9.565.06-.045 6.558-4.65 14.438-10.233 7.88-5.583 14.28-10.199 14.222-10.257-.058-.058-5.155-3.69-11.327-8.072-6.172-4.383-11.208-8.136-11.19-8.34.026-.304 7.716-11.382 8.538-12.3.13-.145 6.256 4.011 13.614 9.236 7.358 5.225 13.569 9.573 13.802 9.663.248.095 5.934-3.749 13.753-9.299 7.332-5.203 13.502-9.5 13.713-9.55.21-.048 1.274 1.147 2.365 2.656 5.916 8.185 6.987 9.77 6.746 9.982-.145.128-5.285 3.788-11.423 8.132-6.138 4.344-11.099 7.998-11.023 8.12.075.122 6.38 4.637 14.01 10.034 7.63 5.396 14.075 10.031 14.323 10.3.248.269 1.236 1.073 2.195 1.788 2.282 1.7 2.902 2.745 2.903 4.887.001 1.51-.15 1.918-1.448 3.907-1.93 2.955-3.285 4.46-4.461 4.951-1.081.452-3.197.506-4.185.107zm3.3-2.259c.85-.41 3.358-3.561 4.378-5.499.58-1.1.147-2.567-1.07-3.636-.588-.516-1.184-.898-1.325-.848-.14.05-1.627 2.03-3.302 4.4-3.302 4.67-3.278 4.568-1.335 5.572 1.124.58 1.474.582 2.654.011zm-6.476-5.475l1.215-1.733-17.128-12.142c-9.42-6.678-17.461-12.424-17.869-12.768l-.741-.625 1.29-1.708c.708-.939 1.236-1.752 1.172-1.806-1.942-1.63-24.095-16.973-24.227-16.778-1.096 1.615-2.292 3.093-2.504 3.093-.144 0-.965-.515-1.824-1.144-.86-.63-2.193-1.574-2.965-2.099l-1.402-.955-1.206 1.7-1.207 1.702 8.759 6.219c4.817 3.42 19.694 13.988 33.059 23.485a29040.846 29040.846 0 0 0 24.331 17.279c.017.007.579-.767 1.247-1.72zm-52.803-39.324l-4.103-2.956.915-1.244c.503-.684.99-1.243 1.083-1.243.275 0 8.18 5.736 8.18 5.935 0 .296-1.564 2.465-1.777 2.465-.108 0-2.042-1.33-4.298-2.957zm-.734 24.857c6.873-4.868 12.498-8.948 12.502-9.068.008-.27-4.182-3.232-4.574-3.232-.158 0-6.417 4.35-13.91 9.667-8.908 6.323-13.569 9.806-13.468 10.068.084.22.774 1.27 1.533 2.333l1.38 1.934 2.02-1.426c1.112-.785 7.645-5.409 14.517-10.276zM147.5 81.97c5.978-4.232 11.13-7.94 11.45-8.24.572-.537.558-.58-.874-2.656-.8-1.16-1.57-2.11-1.71-2.11-.141 0-5.794 3.931-12.564 8.737l-12.307 8.737 2.187 1.6c1.202.88 2.359 1.606 2.569 1.613.21.007 5.272-3.45 11.25-7.681zm-20.713 43.612c-1.358-1.364-2.468-2.616-2.468-2.781 0-.166 1.147-1.442 2.55-2.838l2.55-2.537 2.7 2.688 2.7 2.687-2.619 2.631c-1.44 1.448-2.692 2.632-2.782 2.632-.09 0-1.273-1.117-2.631-2.482zM65.518 95.964v-1.8h32.1v3.6h-32.1v-1.8zm99 0v-1.8h31.8v3.6h-31.8v-1.8zM87.979 71.739c-3.074-4.814-3.4-5.46-3.406-6.721-.005-1.309-.084-1.446-1.251-2.184-1.622-1.027-1.997-1.507-1.759-2.256.283-.892 1.457-.779 3.01.289 1.25.86 1.376.886 2.648.546 1.257-.336 1.673-.26 6.93 1.262 3.076.89 5.738 1.709 5.914 1.818.193.12-1.435 2.668-4.075 6.384-2.418 3.403-4.445 6.187-4.503 6.187-.06 0-1.637-2.397-3.508-5.325zm6.333-2.447c1.327-1.882 2.377-3.452 2.334-3.489-.263-.223-7.828-2.24-8.405-2.24-.872 0-1.423.523-1.423 1.35 0 .719 4.479 8.009 4.843 7.883.132-.045 1.325-1.622 2.651-3.504zm68.643 1.556c-2.424-3.418-4.365-6.257-4.314-6.308.169-.169 20.425-6.011 20.525-5.92.124.113-11.444 18.411-11.652 18.43-.084.007-2.136-2.783-4.56-6.202zm8.04-3.428c1.703-2.685 3.064-4.915 3.025-4.954-.039-.039-2.67.689-5.848 1.617-4.046 1.182-5.734 1.802-5.632 2.067.13.337 1.956 2.961 4.013 5.764.499.68.832.902 1.04.694.168-.168 1.7-2.503 3.402-5.188zm-45.043-.958a821 821 0 0 1 1.175-3.693c.183-.559-.197-.942-2.833-2.85l-3.044-2.205 3.81-.15 3.812-.15 1.078-3.375c.593-1.857 1.159-3.375 1.258-3.375.098 0 .689 1.548 1.312 3.44l1.132 3.442 3.807.084 3.806.084-3.038 2.2-3.037 2.201 1.046 3.35c.575 1.841 1.107 3.45 1.181 3.574.333.552-.458.092-2.863-1.664-1.423-1.038-2.756-1.992-2.963-2.119-.237-.144-1.532.603-3.49 2.012l-3.112 2.242.963-3.048zm80.951-35.441c-.586-.255-1.02-.692-1.104-1.114-.076-.381-.5-2.786-.942-5.343-.442-2.558-.894-4.817-1.005-5.02-.186-.34-3.034 5.98-3.034 6.731 0 .178.202.402.45.497.49.188.575.73.205 1.313-.178.28-.783.142-2.47-.562-1.23-.513-2.282-.973-2.338-1.023-.301-.268.598-1.173 1.172-1.179.581-.006.921-.617 2.541-4.569 1.833-4.471 1.858-4.57 1.262-4.965-.513-.34-.553-.505-.258-1.057l.35-.653 1.707.756c.94.415 1.793.893 1.898 1.062.104.168.556 2.424 1.005 5.012.449 2.589.924 4.977 1.056 5.307.215.538.287.492.698-.45.251-.578.953-2.123 1.559-3.435 1.083-2.344 1.091-2.391.511-2.85-.454-.358-.53-.622-.328-1.142l.262-.677 2.334 1.125c1.283.618 2.38 1.15 2.436 1.179.056.03.01.346-.103.702-.162.511-.362.61-.944.463-.7-.176-.864.079-3.263 5.075-1.39 2.893-2.563 5.254-2.61 5.248-.045-.007-.516-.2-1.047-.431zm-154.65-1.435c-2.124-1.286-3.835-4.393-3.835-6.963 0-2.665 2.352-5.377 5.467-6.302 2.323-.69 3.141-.607 3.637.368.904 1.778.892 2.11-.1 2.622-.924.478-.927.477-1.245-.434-.382-1.097-1.227-1.198-2.896-.345-1.55.79-2.188 1.59-2.374 2.973-.297 2.215 1.424 5.57 3.317 6.468 1.293.613 2.988.296 4.26-.797l.775-.667-.61-1.423c-.677-1.58-.608-1.53-1.632-1.141-.628.239-.765.183-.91-.37-.219-.838-.136-.907 2.36-1.971l2.1-.895.345.641c.28.519.253.71-.138.995-.438.32-.41.539.302 2.333l.786 1.98-1.474 1.325c-2.517 2.263-5.933 2.936-8.134 1.603zm11.982-3.807c-.095-.36.06-.735.401-.975.528-.371.468-.613-1.195-4.89-1.571-4.042-1.827-4.51-2.511-4.593-.774-.094-1.325-.878-.897-1.276.129-.12 1.753-.772 3.608-1.45 5.605-2.046 7.787-1.58 8.105 1.733.128 1.324.04 1.73-.54 2.515-.547.74-.603.964-.265 1.071.235.074 1.16.863 2.058 1.753 1.023 1.015 1.797 1.554 2.076 1.447.447-.172.93.31.938.936.002.185-1.027.702-2.287 1.15-1.848.655-2.342.736-2.546.413-.378-.596-.319-.892.263-1.32.485-.358.445-.47-.52-1.47-1.252-1.297-2.018-1.534-3.44-1.065-1.228.406-1.243.475-.54 2.454.46 1.295.61 1.457 1.206 1.308.522-.131.742-.01.936.511.234.628.096.747-1.731 1.492-2.397.977-2.92 1.02-3.12.256zm3.225-7.95c2.004-.885 2.48-1.752 1.825-3.32-.26-.621-.7-1.091-1.123-1.195-.943-.233-4.019.86-3.911 1.39.136.668 1.33 3.86 1.445 3.86.057 0 .851-.33 1.764-.735zm123.373 6.707c-2.268-.534-4.09-1.786-4.92-3.382-.27-.52-.441-1.642-.432-2.837.012-1.583.2-2.352.94-3.855.958-1.946 1.826-2.762 3.566-3.353 2.06-.698 4.776-.167 7.284 1.424l1.404.89-.556 1.445c-.509 1.325-.634 1.442-1.5 1.399-1.221-.06-1.258-.115-.832-1.243.316-.839.289-1.002-.23-1.385-.913-.673-2.982-1.158-3.993-.936-2.64.58-4.59 5.565-3.217 8.22.506.979 2.428 1.931 3.611 1.79.68-.08.935-.357 1.377-1.486l.542-1.386-.73-.332c-.737-.336-.904-.815-.5-1.433.155-.237.95-.072 2.674.556 2.249.82 2.434.948 2.21 1.538-.134.354-.444.608-.689.565-.583-.104-.924.362-1.592 2.179-.303.825-.694 1.599-.867 1.72-.41.287-2.116.24-3.55-.098zM76.46 21.542c-.13-.406-.03-.745.285-.976.373-.272.55-1.249.769-4.253.157-2.145.289-4.55.294-5.343.008-1.304-.053-1.435-.63-1.35-.427.063-.716-.116-.875-.542-.218-.582-.053-.69 1.962-1.275 1.21-.352 2.343-.64 2.517-.64.292 0 5.684 7.353 6.872 9.371.373.633.69.836 1.165.746.467-.09.698.052.815.5.09.342.066.71-.052.815-.394.351-4.526 1.228-4.849 1.029-.512-.317-.364-1.014.292-1.365.59-.315.592-.353.082-1.216-.294-.498-.7-.825-.918-.741-.216.083-1.231.366-2.257.63-2.177.558-2.232.6-2.365 1.782-.087.784-.014.888.575.806.37-.052.675.038.675.2s.075.492.168.734c.127.33-.355.599-1.921 1.075-2.538.77-2.364.77-2.604.013zm5.45-6.32c.724-.183 1.388-.448 1.475-.589.155-.25-2.602-4.57-3.122-4.89-.278-.172-.646 2.593-.646 4.847 0 1.113.082 1.306.488 1.15.269-.103 1.081-.336 1.805-.519zm97.964 5.6c-1.206-.349-2.185-.73-2.175-.846.01-.117.018-.415.018-.662 0-.274.279-.45.714-.45.666 0 .802-.314 1.993-4.575.703-2.517 1.34-4.744 1.417-4.95.077-.207-.081-.375-.352-.375-.6 0-.913-.709-.573-1.294.213-.366.601-.328 2.595.25 1.289.375 2.397.735 2.463.8.065.066.045.402-.045.747-.108.413-.342.58-.684.49-.286-.074-.662.043-.836.26-.173.218-.894 2.39-1.601 4.828-1.239 4.266-1.266 4.448-.728 4.841.426.311.49.547.273.989-.282.57-.32.57-2.48-.053zm-10.257-2.432c-2.19-.7-2.507-1.07-2.27-2.654.237-1.574.335-1.672 1.462-1.457.74.142.817.259.654 1.002-.22 1.003.331 1.395 2.356 1.673 1.1.15 1.434.073 1.962-.455 1.241-1.241.6-2.616-1.764-3.784-1.564-.772-2.971-2.24-3.172-3.309-.474-2.526 2-4.63 4.93-4.193 1.461.218 3.057.797 4.129 1.498.582.38.61.537.324 1.785-.249 1.088-.44 1.367-.937 1.363-.979-.007-1.462-.447-1.244-1.132.444-1.4-3.046-2.216-4.17-.976-.836.925-.38 2 1.251 2.95 2.05 1.194 3.623 2.683 3.83 3.622.286 1.302-.456 3.078-1.61 3.855-1.207.811-3.582.9-5.731.212zm-79.033-.64c-.128-.333.024-.678.435-.988l.63-.476-1.066-4.761c-.586-2.619-1.066-4.805-1.066-4.858 0-.053-.304-.064-.675-.025-.536.057-.675-.08-.675-.664 0-.69.196-.779 3.15-1.431 4.267-.944 6.296-.825 7.563.441.76.76.956 1.23 1.052 2.53.202 2.737-1.374 4.41-4.79 5.083-.95.187-1.725.384-1.725.437 0 .053.14.75.311 1.55.305 1.419.335 1.45 1.308 1.336.836-.097 1.025-.005 1.176.574.1.379.152.705.118.725-.164.091-4.918 1.04-5.213 1.04-.185 0-.425-.23-.533-.512zm5.57-7.307c.31-.165.785-.64 1.056-1.054.42-.64.44-.933.134-1.953-.427-1.424-1.353-1.897-3.164-1.616-2.36.365-2.253.216-1.761 2.479.655 3.014.546 2.865 1.94 2.643.678-.109 1.486-.333 1.795-.499zm63.3 5.848c-2.207-.387-4.058-.748-4.113-.803-.312-.312.333-1.405.875-1.483.582-.083.698-.48 1.301-4.441.827-5.435.827-5.423.1-5.614-.629-.164-.752-.583-.356-1.207.183-.289 1.318-.196 5.12.42l4.885.79-.19 1.08c-.318 1.796-.478 2.131-1.005 2.11-.891-.038-1.404-.414-1.404-1.03 0-.497-.327-.664-1.92-.98-1.057-.208-1.964-.335-2.018-.282-.053.053-.134.89-.18 1.86l-.082 1.762 2.325.423c1.799.327 2.324.535 2.32.92-.01 1.161-.365 1.275-2.788.899-1.265-.197-2.37-.29-2.453-.205-.084.084-.238.967-.342 1.964l-.19 1.812 1.88.331c2.074.365 2.398.288 2.398-.571 0-.602.306-.693 1.37-.408.578.156.6.276.325 1.796-.351 1.935.005 1.883-5.858.857zm-56.523-.939c-.089-.467.043-.73.428-.852.699-.222.699-.24-.103-5.761-.635-4.377-.694-4.575-1.352-4.575-.523 0-.687-.17-.687-.712 0-.633.173-.733 1.575-.91.866-.11 2.013-.277 2.55-.372.89-.158.975-.107.975.59 0 .507-.208.829-.619.96-.562.178-.6.35-.416 1.895.112.934.292 1.796.401 1.916.222.243 5.758-.344 6.106-.648.122-.106.119-.998-.006-1.982-.204-1.59-.302-1.785-.897-1.764-.532.02-.669-.141-.669-.781 0-.792.042-.81 2.45-1.01 1.852-.155 2.51-.11 2.696.181.418.66.28 1.137-.328 1.137-.32 0-.65.108-.731.24-.082.133.043 2.327.278 4.876.235 2.548.43 4.735.431 4.859.002.123.274.225.604.225.442 0 .6.2.6.759 0 .89-.116.939-2.775 1.154-1.982.16-2.025.149-2.025-.555 0-.457.22-.788.606-.91.556-.177.59-.358.41-2.196-.11-1.101-.24-2.052-.292-2.112-.123-.144-5.902.537-6.081.717-.076.076-.016 1.05.134 2.165.254 1.887.321 2.02.97 1.93.604-.085.684.014.6.74-.093.804-.191.851-2.4 1.155-2.265.311-2.305.305-2.432-.359zm40.51-.91c-1.859-.097-2.024-.16-2.024-.771 0-.402.267-.782.675-.961.638-.28.692-.555.994-5.096.175-2.64.268-4.902.207-5.025-.062-.124-.355-.225-.653-.225-.415 0-.507-.175-.397-.75.079-.413.297-.75.484-.748 2.057.016 7.346.705 8.282 1.08 2.67 1.068 3.911 3.668 3.3 6.91-.476 2.519-1.661 4.345-3.353 5.164-1.36.659-2.113.701-7.514.421zm6.763-2.464c1.135-.996 1.713-2.56 1.713-4.64 0-2.694-1.308-3.974-4.384-4.292-1.439-.148-1.619-.104-1.639.4-.012.312-.183 2.5-.38 4.862-.198 2.362-.3 4.353-.228 4.425.072.072.98.13 2.02.13 1.665 0 2.01-.105 2.898-.885zM117.95 13.65c-.097-.506-.018-.786.221-.786.866 0 .954-.784.626-5.55-.319-4.635-.354-4.804-1.005-4.896-.482-.069-.675-.298-.675-.803 0-.68.098-.711 2.547-.804 1.915-.073 2.585.002 2.7.302.26.68.178.843-.603 1.199l-.756.344.168 3.379c.29 5.807.407 6.529 1.065 6.529.417 0 .579.209.579.75 0 .617-.146.75-.825.752-.454.002-1.515.086-2.358.187-1.476.177-1.539.155-1.684-.603zm9.975-.061c-2.139-.928-3.235-2.683-3.505-5.613-.24-2.604.28-4.274 1.803-5.798 1.822-1.822 4.054-2.303 7.379-1.59l1.515.325v3.551h-1.05c-1 0-1.05-.051-1.05-1.045 0-.87-.129-1.076-.767-1.236-.421-.106-1.245-.115-1.831-.02-2.421.393-3.492 1.943-3.473 5.025.021 3.39 1.383 5.076 4.101 5.076 1.763 0 2.27-.353 2.27-1.58 0-.761.094-.85.825-.765.797.091.825.155.825 1.881 0 1.65-.058 1.802-.75 1.995-1.395.388-5.21.263-6.292-.206z"/></svg>