<svg xmlns="http://www.w3.org/2000/svg" viewBox="0 0 254.86363 181.46673" height="181.467" width="254.864"><path d="M132.222 181.262c.216-.087.475-.076.575.024.1.1-.078.17-.394.157-.35-.014-.42-.085-.181-.181zm-15-1.2c.216-.087.475-.076.575.024.1.1-.078.17-.394.157-.35-.014-.42-.085-.181-.181zm5.868-.235c-.093-.242-.1-.614-.014-.825.085-.212.165-.09.178.27.019.51.243.684.999.778l.975.12-.985.049c-.623.03-1.046-.114-1.153-.392zm-3.365-4.66c0-.413.068-.582.152-.375a1.16 1.16 0 0 1 0 .75c-.084.206-.152.037-.152-.375zm-18.085-2.625c-.374-.476-.363-.487.113-.114.289.227.525.463.525.525 0 .247-.247.088-.638-.411zm80.4-53.7c-.374-.476-.363-.487.113-.114.289.227.525.463.525.525 0 .247-.247.088-.638-.411zm-34.462-.77c0-.05.439-.49.975-.974l.975-.881-.881.975c-.822.909-1.07 1.113-1.07.88zm75.3-2.719c0-.062.236-.298.525-.525.476-.373.486-.362.113.114-.392.5-.638.658-.638.411zm-206.175-3.085a1.16 1.16 0 0 1 .75 0c.206.083.037.151-.375.151-.413 0-.581-.068-.375-.15zm218.799-5.676c.014-.35.085-.42.18-.182.087.217.077.476-.023.575-.1.1-.17-.077-.157-.393zm-211.88-1.53c.216-.087.475-.076.575.023.1.1-.078.171-.394.158-.35-.014-.42-.085-.181-.181zm211.903-.995c0-.413.068-.582.152-.375a1.16 1.16 0 0 1 0 .75c-.084.206-.152.037-.152-.375zM36.203 86.143a94.304 94.304 0 0 1 5.55 0c1.526.055.277.1-2.775.1-3.053 0-4.301-.045-2.775-.1zm48.675-.47c0-.052.439-.49.975-.975l.975-.881-.881.975c-.822.909-1.07 1.113-1.07.88zm-4.453-.806c0-.413.068-.582.152-.375a1.16 1.16 0 0 1 0 .75c-.084.206-.152.037-.152-.375zm161.803 0c.298-.33.61-.6.693-.6.082 0-.094.27-.393.6-.299.33-.61.6-.693.6-.083 0 .094-.27.393-.6zm-28.35-5.4l-6.15-.17 6.057-.065c3.787-.04 6.127.047 6.243.235.102.165.144.27.093.234-.051-.036-2.86-.141-6.243-.234zm-2.579-6.375l-.571-.675.675.571c.371.315.675.618.675.675 0 .24-.242.063-.779-.571zM9.278 66.717c.387-.413.772-.75.854-.75.083 0-.167.337-.554.75-.388.412-.772.75-.855.75-.082 0 .167-.338.555-.75zm197.205-10.65c0-1.403.051-1.977.114-1.275.064.701.064 1.848 0 2.55-.063.701-.114.127-.114-1.275zm-72.681-3.175c.014-.35.085-.42.18-.182.087.217.077.476-.023.575-.1.1-.17-.077-.157-.393zm-41.066-1.775c.006-.495.074-.661.15-.37.076.292.07.697-.011.9-.083.204-.145-.035-.139-.53zm3.311-.45c0-.578.062-.814.138-.525.075.288.075.761 0 1.05-.076.288-.138.052-.138-.525zm-22.787-2.4c0-.743.058-1.047.13-.675.071.371.071.978 0 1.35-.072.371-.13.067-.13-.675zm94.787.3c0-.578.062-.814.138-.525.075.288.075.761 0 1.05-.076.288-.138.052-.138-.525zm-53.07-1.35c0-1.155.055-1.591.12-.969.065.623.064 1.568-.002 2.1-.067.533-.12.024-.118-1.131zm31.725.875c.014-.35.085-.42.18-.182.087.217.077.476-.023.575-.1.1-.17-.077-.157-.393zM70.27 46.017c.002-.99.057-1.36.124-.82.067.54.066 1.35-.003 1.8-.068.45-.123.01-.121-.98zm47.989-.75c0-.743.058-1.047.13-.675.071.371.071.978 0 1.35-.072.371-.13.067-.13-.675zm31.8 0c0-.743.058-1.047.13-.675.071.371.071.978 0 1.35-.072.371-.13.067-.13-.675zm6.287.3c0-.578.062-.814.138-.525.075.288.075.761 0 1.05-.076.288-.138.052-.138-.525zm-76.2-.3c0-.578.062-.814.138-.525.075.288.075.761 0 1.05-.076.288-.138.052-.138-.525zm64.817-.45c.002-.825.06-1.127.13-.671.068.456.066 1.13-.005 1.5-.071.369-.128-.004-.125-.83zm8.09-.3c.002-.66.064-.895.136-.522.072.373.069.913-.006 1.2-.075.287-.134-.018-.13-.678zm-6.294-1.05c0-.743.058-1.047.13-.675.071.371.071.978 0 1.35-.072.371-.13.067-.13-.675zm63.202.075l-1.034-1.125 1.125 1.034c1.047.962 1.263 1.216 1.034 1.216-.05 0-.557-.507-1.125-1.125zm-48.815-.075c0-.578.062-.814.138-.525.075.288.075.761 0 1.05-.076.288-.138.052-.138-.525zm-19.473-1.2c0-1.073.054-1.512.12-.975a9.54 9.54 0 0 1 0 1.95c-.066.536-.12.097-.12-.975zm16.473.9c0-.578.062-.814.138-.525.075.288.075.761 0 1.05-.076.288-.138.052-.138-.525zm-117.67.486c0-.062.237-.298.526-.525.476-.373.486-.362.113.114-.392.5-.638.658-.638.411zm36.527-.936c-.078-.413-.027-.75.115-.75.143 0 .259.337.259.75 0 .412-.052.75-.115.75s-.18-.338-.259-.75zm47.549.543a2.463 2.463 0 0 1 1.05 0c.289.075.052.137-.525.137-.578 0-.814-.062-.525-.137zm-88.575-1.107c0-.062.236-.298.525-.525.476-.373.486-.362.113.114-.392.5-.638.658-.638.411zm171.584-1.011l-1.034-1.125 1.125 1.034c1.047.962 1.263 1.216 1.034 1.216-.05 0-.557-.507-1.125-1.125zm3.156-.75l-1.79-1.875 1.875 1.79c1.031.985 1.875 1.829 1.875 1.875 0 .222-.296-.049-1.96-1.79zm-102.054-.375c.002-.825.06-1.127.13-.671.068.456.066 1.13-.005 1.5-.071.369-.128-.004-.125-.83zm72.9-.6c.002-.825.06-1.127.13-.671.068.456.066 1.13-.005 1.5-.071.369-.128-.004-.125-.83zm33.504-.675l-1.64-1.725 1.725 1.64c.949.901 1.725 1.678 1.725 1.724 0 .223-.287-.037-1.81-1.64zm-111.808-.075c0-.743.058-1.047.13-.675.071.371.071.978 0 1.35-.072.371-.13.067-.13-.675zm119.58.675c-.374-.476-.363-.487.113-.114.289.227.525.463.525.525 0 .247-.247.088-.638-.411zM92.447 37.767c0-.578.062-.814.138-.525.075.288.075.761 0 1.05-.076.288-.138.052-.138-.525zm-59.32-.3c.3-.33.611-.6.694-.6.082 0-.095.27-.393.6-.299.33-.61.6-.693.6-.083 0 .094-.27.393-.6zm13.05.486c0-.062.237-.298.526-.525.476-.373.486-.362.113.114-.392.5-.638.658-.638.411zm49.57-1.086c0-.578.062-.814.138-.525.075.288.075.761 0 1.05-.076.288-.138.052-.138-.525zm69.6 0c0-.578.062-.814.138-.525.075.288.075.761 0 1.05-.076.288-.138.052-.138-.525zm-58.787-.6c0-.743.058-1.047.13-.675.071.371.071.978 0 1.35-.072.371-.13.067-.13-.675zm-64.882.186c0-.062.236-.298.525-.525.476-.373.486-.362.113.114-.392.5-.638.658-.638.411zm126.67-.786c0-.578.061-.814.137-.525.075.288.075.761 0 1.05-.076.288-.138.052-.138-.525zm-56.47.01c0-.16.202-.214.45-.119.247.095.45.226.45.29 0 .066-.203.119-.45.119-.248 0-.45-.131-.45-.29zm72.993-1.66c.002-.99.057-1.36.124-.82.067.54.066 1.35-.003 1.8-.068.45-.123.01-.121-.98zm-86.418-.6c.003-.66.065-.895.137-.522.072.373.069.913-.006 1.2-.075.287-.134-.018-.13-.678zm-60.825-.45c.298-.33.61-.6.693-.6.082 0-.095.27-.393.6-.299.33-.61.6-.693.6-.083 0 .094-.27.393-.6zm42.22-1.5c0-.578.061-.814.137-.525.075.288.075.761 0 1.05-.076.288-.138.052-.138-.525zm21.905-.15c.003-.66.065-.895.137-.522.072.373.069.913-.006 1.2-.075.287-.134-.018-.13-.678zm54.907-.75c0-.743.058-1.047.13-.675.071.371.071.978 0 1.35-.072.371-.13.067-.13-.675zm1.787-1.5c0-.578.062-.814.138-.525.075.288.075.761 0 1.05-.076.288-.138.052-.138-.525zm-66.37-4.033c0-.237.123-.508.273-.6.15-.092.201.102.115.432-.183.7-.387.79-.387.168zm7.763-.992c-.374-.476-.363-.487.113-.114.5.392.658.639.412.639-.063 0-.299-.237-.525-.525zm45.428-1.275c0-.908.056-1.279.125-.825a6.63 6.63 0 0 1 0 1.65c-.069.453-.125.082-.125-.825zm9.172.375c-.374-.476-.363-.487.113-.114.5.392.658.639.412.639-.063 0-.299-.237-.525-.525zm-18.918-2.98c.216-.087.475-.076.575.023.1.1-.078.171-.394.158-.35-.014-.42-.085-.181-.181zm-.6-8.7c.216-.087.475-.076.575.023.1.1-.078.171-.394.158-.35-.014-.42-.085-.181-.181zm1.2-2.7c.216-.087.475-.076.575.023.1.1-.078.171-.394.158-.35-.014-.42-.085-.181-.181zm-9.911-.315c.705-.064 1.785-.063 2.4.002.614.064.037.116-1.283.115-1.32-.001-1.823-.054-1.117-.117zm-4.19-2.985c.217-.087.476-.076.576.023.1.1-.078.171-.394.158-.35-.014-.42-.085-.181-.181zm9.882.006a1.16 1.16 0 0 1 .75 0c.206.083.037.151-.375.151-.413 0-.581-.068-.375-.151zM117.522.362c.216-.087.475-.076.575.023.1.1-.078.171-.394.158-.35-.014-.42-.085-.181-.181zm8.39-.317a24.5 24.5 0 0 1 3 .002c.78.061.066.111-1.584.11-1.65 0-2.287-.051-1.415-.112z" fill="#d1d1d1"/><path d="M118.097 179.643c.106-.406.242-.542.317-.317.072.216-.011.536-.186.71-.222.223-.261.106-.13-.393zm22.328-2.076c0-.413.068-.582.152-.375a1.16 1.16 0 0 1 0 .75c-.084.206-.152.037-.152-.375zm6.6-.6c0-.413.068-.582.152-.375a1.16 1.16 0 0 1 0 .75c-.084.206-.152.037-.152-.375zm-24-.9c0-.413.068-.582.152-.375a1.16 1.16 0 0 1 0 .75c-.084.206-.152.037-.152-.375zm14.677-.175c.014-.35.085-.42.18-.182.087.217.077.476-.023.575-.1.1-.17-.077-.157-.393zm-14.045-2.44c.456-.07 1.131-.068 1.5.003.369.072-.004.128-.83.126-.824-.002-1.126-.06-.67-.13zm-26.235-2.99c.216-.087.475-.076.575.024.1.1-.078.17-.394.157-.35-.014-.42-.085-.181-.181zm-15.244-20.028c0-.237.122-.508.272-.6.15-.092.201.102.115.432-.183.7-.387.79-.387.168zm8.724-.042c.014-.35.085-.42.18-.182.087.217.077.476-.023.575-.1.1-.17-.077-.157-.393zm7.594.05c-.09-.234-.114-.807-.055-1.275.088-.694.135-.616.255.425.152 1.311.085 1.594-.2.85zm6.482-.008c0-.238.122-.508.272-.6.15-.093.201.102.115.432-.183.7-.387.789-.387.168zm2.92-.144c-.131-.499-.092-.616.13-.393.175.174.258.494.186.71-.075.225-.21.09-.317-.317zm9.404.101c.014-.35.085-.42.18-.18.087.216.077.474-.023.574-.1.1-.17-.077-.157-.394zm11.976.043c0-.238.122-.508.272-.6.15-.093.201.102.115.432-.183.7-.387.789-.387.168zm8.4 0c0-.238.122-.508.272-.6.15-.093.201.102.115.432-.183.7-.387.789-.387.168zm5.124-.043c.014-.35.085-.42.18-.18.087.216.077.474-.023.574-.1.1-.17-.077-.157-.394zm3.576.043c0-.238.122-.508.272-.6.15-.093.201.102.115.432-.183.7-.387.789-.387.168zm2.92-.144c-.131-.499-.092-.616.13-.393.175.174.258.494.186.71-.075.225-.21.089-.317-.317zm1.304.101c.014-.35.085-.42.18-.18.087.216.077.474-.023.574-.1.1-.17-.077-.157-.394zm7.5 0c.014-.35.085-.42.18-.18.087.216.077.474-.023.574-.1.1-.17-.077-.157-.394zm2.92-.63c.216-.086.475-.076.575.024.1.1-.078.17-.394.158-.35-.015-.42-.086-.181-.182zm-46.703-1.198c-.027-.632-.218-.999-.566-1.09-.492-.128-.492-.14.009-.172.631-.041.915.55.73 1.519-.103.542-.142.486-.174-.257zm41.903-.302c.216-.086.475-.076.575.024.1.1-.078.17-.394.158-.35-.015-.42-.086-.181-.182zm-39.82-1.47c.014-.35.085-.42.18-.18.087.216.077.474-.023.574-.1.1-.17-.077-.157-.394zm115.572-2.525c0-1.072.054-1.51.12-.975a9.54 9.54 0 0 1 0 1.95c-.066.537-.12.098-.12-.975zm-75.593-1.363c-.097-.254-.11-.53-.028-.612.082-.081.22.127.309.463.187.715-.021.826-.28.15zm4.5 0c-.097-.254-.11-.53-.028-.612.082-.081.22.127.309.463.187.715-.021.826-.28.15zm-21.08-.312c.015-.35.086-.42.182-.18.086.216.076.474-.024.574-.1.1-.17-.077-.157-.394zm-24.998-28.823a1.16 1.16 0 0 1 .75 0c.206.083.037.151-.375.151-.413 0-.581-.068-.375-.15zM5.355 107.742l-.727-.825.825.727c.77.68.962.923.727.923-.054 0-.425-.372-.825-.825zm7.609-16.425c.002-.825.06-1.127.13-.671.068.456.066 1.13-.005 1.5-.071.369-.128-.004-.125-.83zm55.958-5.455c.216-.087.475-.076.575.023.1.1-.078.171-.394.158-.35-.014-.42-.085-.181-.181zm177.9-3.3c.216-.087.475-.076.575.023.1.1-.078.171-.394.158-.35-.014-.42-.085-.181-.181zM31.259 62.459c.291-.076.696-.071.9.011.203.082-.036.144-.531.138-.495-.006-.661-.073-.37-.15zm16.25-6.542l.019-2.4 8.775-.007 8.775-.007-8.688.086-8.688.087-.105 2.32-.106 2.32.019-2.4zm21.397-2.462c.374-.072.914-.07 1.2.006.287.075-.018.133-.678.13-.66-.003-.895-.065-.522-.136zm5.402-.006c.54-.067 1.35-.065 1.8.003.451.069.01.123-.98.122-.99-.002-1.359-.058-.82-.125zm6.745.003a6.627 6.627 0 0 1 1.65 0c.454.068.082.125-.825.125-.908 0-1.279-.057-.825-.125zm8.625-.018c0-.129.574-.189 1.275-.135 2.101.163 2.28.296.45.333-.949.019-1.725-.07-1.725-.198zm6.42-.186c-.092-.241-.108-.751-.035-1.135.101-.53.143-.464.174.279l.04.975h3.58c3.343 0 3.588-.04 3.715-.605.113-.503.129-.49.096.075-.04.662-.135.682-3.72.764-3.004.069-3.713.004-3.85-.353zm11.208.206c.374-.071.914-.069 1.2.006.287.076-.018.134-.678.13-.66-.002-.895-.064-.522-.136zm5.547-.002a6.627 6.627 0 0 1 1.65 0c.454.068.082.125-.825.125-.908 0-1.279-.057-.825-.125zm5.625.1c0-.064.27-.186.6-.273.33-.086.525-.034.433.116-.162.26-1.033.393-1.033.157zm4.8-.07c1.79-.225 3.832-.247 3.704-.04-.077.123-1.11.204-2.297.18-1.186-.025-1.82-.088-1.407-.14zm8.03-.033c.54-.067 1.35-.065 1.8.003.451.069.01.123-.98.122-.99-.002-1.359-.058-.82-.125zm5.895-.19c-.086-.223-.108-1.269-.048-2.324l.107-1.918.058 2.161.058 2.162 2.175.104 2.175.103-2.185.06c-1.604.044-2.225-.048-2.34-.347zm8.5.19a9.548 9.548 0 0 1 1.95 0c.536.067.097.122-.975.122-1.073 0-1.511-.055-.975-.121zm8.775-.01c0-.124.641-.185 1.425-.135 2.28.147 2.476.29.45.328-1.031.019-1.875-.068-1.875-.192zm7.43.01c.54-.066 1.35-.065 1.8.003.451.069.01.124-.98.122-.99-.002-1.359-.058-.82-.125zm6.295.02c.206-.084.544-.084.75 0 .206.082.037.15-.375.15-.413 0-.581-.068-.375-.15zm4.17-.027c-.076-.124.557-.187 1.408-.14 2.759.153 3.094.274.89.32-1.187.025-2.22-.056-2.297-.18zm7.986.017c.291-.076.696-.071.9.011.203.082-.036.144-.531.138-.495-.006-.661-.073-.37-.15zm9.334-.225c-.091-.238-.103-.676-.025-.975.092-.357.152-.262.175.278l.035.82 8.325.085 8.325.085-8.335.07c-7.027.059-8.36.002-8.5-.363zM73.26 50.667c0-.743.058-1.047.13-.675.071.371.071.978 0 1.35-.072.371-.13.067-.13-.675zm45.02-1.95c.002-1.32.054-1.823.118-1.117.063.705.062 1.785-.002 2.4-.065.614-.116.037-.115-1.283zm-25.533.75c0-.578.062-.814.138-.525.075.288.075.761 0 1.05-.076.288-.138.052-.138-.525zm-12.6-2.4c0-.578.062-.814.138-.525.075.288.075.761 0 1.05-.076.288-.138.052-.138-.525zm66.62-.9c0-.908.057-1.279.126-.825a6.63 6.63 0 0 1 0 1.65c-.069.453-.125.082-.125-.825zm21.27.75c.005-.495.073-.661.149-.37.076.292.07.697-.011.9-.083.204-.145-.035-.139-.53zm-26.366-1.2c.002-.99.057-1.36.124-.82.067.54.066 1.35-.003 1.8-.068.45-.123.01-.121-.98zm11.376.75c0-.578.062-.814.138-.525.075.288.075.761 0 1.05-.076.288-.138.052-.138-.525zm5.1-1.5c0-.578.062-.814.138-.525.075.288.075.761 0 1.05-.076.288-.138.052-.138-.525zm-43.222-.3c0-.413.068-.582.152-.375a1.16 1.16 0 0 1 0 .75c-.084.206-.152.037-.152-.375zm41.422-.9c0-.578.062-.814.138-.525.075.288.075.761 0 1.05-.076.288-.138.052-.138-.525zm-86.076-1.05c.002-.99.057-1.36.124-.82.067.54.066 1.35-.003 1.8-.068.45-.123.01-.121-.98zm79.789.15c0-.743.058-1.047.13-.675.071.371.071.978 0 1.35-.072.371-.13.067-.13-.675zm-5.096-.75c.002-.825.06-1.127.13-.671.068.456.066 1.13-.005 1.5-.071.369-.128-.004-.125-.83zm36.59-.3c.002-.66.064-.895.136-.522.072.373.069.913-.006 1.2-.075.287-.134-.018-.13-.678zm-20.418 0c.006-.495.074-.661.15-.37.076.292.07.697-.011.9-.083.204-.145-.035-.139-.53zm-83.989-.75c0-.578.062-.814.138-.525.075.288.075.761 0 1.05-.076.288-.138.052-.138-.525zm34.755.125c.014-.35.085-.42.18-.182.087.217.077.476-.023.575-.1.1-.17-.077-.157-.393zm-5.342-2.525c0-.743.058-1.047.13-.675.071.371.071.978 0 1.35-.072.371-.13.067-.13-.675zm58.776-.15c.006-.495.074-.661.15-.37.076.292.07.697-.011.9-.083.204-.145-.035-.139-.53zm-56.672-1.2c.002-.825.06-1.127.13-.671.068.456.066 1.13-.005 1.5-.071.369-.128-.004-.125-.83zm-5.41-.9c.002-.66.064-.895.136-.522.072.373.069.913-.006 1.2-.075.287-.134-.018-.13-.678zm-67.876-1.2c.896-.908 1.697-1.65 1.78-1.65.082 0-.584.742-1.48 1.65-.896.907-1.697 1.65-1.78 1.65-.082 0 .584-.743 1.48-1.65zm57.058.9c.006-.495.074-.661.15-.37.076.292.07.697-.011.9-.083.204-.145-.035-.139-.53zm9.266-.325c.014-.35.085-.42.18-.182.087.217.077.476-.023.575-.1.1-.17-.077-.157-.393zm66.634-1.775c.006-.495.074-.661.15-.37.076.292.07.697-.011.9-.083.204-.145-.035-.139-.53zm-88.489-.75c0-.578.062-.814.138-.525.075.288.075.761 0 1.05-.076.288-.138.052-.138-.525zm21.9 0c0-.578.062-.814.138-.525.075.288.075.761 0 1.05-.076.288-.138.052-.138-.525zm-14.122-.3c0-.413.068-.582.152-.375a1.16 1.16 0 0 1 0 .75c-.084.206-.152.037-.152-.375zm10.822-1.5c0-.578.062-.814.138-.525.075.288.075.761 0 1.05-.076.288-.138.052-.138-.525zm54.92-1.2c0-.908.057-1.279.126-.825a6.63 6.63 0 0 1 0 1.65c-.069.453-.125.082-.125-.825zm5.08.6c0-.578.062-.814.138-.525.075.288.075.761 0 1.05-.076.288-.138.052-.138-.525zm7.155-4.975c.014-.35.085-.42.18-.182.087.217.077.476-.023.575-.1.1-.17-.077-.157-.393zm-44.48-20.43c.216-.087.475-.076.575.023.1.1-.078.171-.394.158-.35-.014-.42-.085-.181-.181zm12 0c.216-.087.475-.076.575.023.1.1-.078.171-.394.158-.35-.014-.42-.085-.181-.181z" fill="#b0b0b0"/><path d="M126.636 180.717c.006-.495.074-.661.15-.37.076.292.07.697-.011.9-.083.204-.145-.035-.139-.53zm-11.71-3.15c0-.413.067-.582.15-.375.084.206.084.543 0 .75-.083.206-.15.037-.15-.375zm16.5-2.1c0-.413.067-.582.15-.375.084.206.084.543 0 .75-.083.206-.15.037-.15-.375zm-9.873-2.007a2.465 2.465 0 0 1 1.05 0c.289.075.052.137-.525.137-.578 0-.814-.062-.525-.137zm-4.65-.292a1.16 1.16 0 0 1 .75 0c.206.083.037.151-.375.151-.413 0-.581-.068-.375-.15zm-69.029-12.326c-.125-.203 51.975-.203 126.104.002 15.262.042-6.836.11-49.107.15-42.272.04-76.92-.028-76.997-.152zm-43.672-32.95c.014-.35.085-.42.18-.182.087.217.077.476-.023.575-.1.1-.17-.077-.157-.393zm104.45-6.332a2.463 2.463 0 0 1 1.05 0c.29.075.053.137-.524.137-.578 0-.814-.062-.525-.137zm-7.612-2.718c-.374-.476-.363-.487.113-.114.5.392.658.639.412.639-.063 0-.299-.237-.525-.525zm-93.412-.375c.298-.33.61-.6.693-.6.082 0-.095.27-.393.6-.299.33-.61.6-.693.6-.083 0 .094-.27.393-.6zm88.95-4.914c0-.062.236-.298.525-.525.476-.373.486-.362.113.114-.392.5-.638.658-.638.411zM45.302 70.592c.014-.35.085-.42.18-.182.087.217.077.476-.023.575-.1.1-.17-.077-.157-.393zm41.877-12.05c21.808-.043 57.583-.043 79.5 0 21.917.042 4.074.077-39.651.077s-61.657-.035-39.85-.077zM65.21 44.067c0-5.198.041-7.324.091-4.725.05 2.598.05 6.851 0 9.45-.05 2.598-.09.472-.09-4.725zm8.025 8.55c.006-.495.074-.661.15-.37.076.292.07.697-.011.9-.083.204-.145-.035-.139-.53zm30.317-1.5c.003-.66.065-.895.137-.522.072.373.069.913-.006 1.2-.075.287-.134-.018-.13-.678zm14.649.275c.014-.35.085-.42.18-.182.087.217.077.476-.023.575-.1.1-.17-.077-.157-.393zm23.469-2.375c.002-.99.057-1.36.124-.82.067.54.066 1.35-.003 1.8-.068.45-.123.01-.121-.98zm-61.535-.3c.006-.495.074-.661.15-.37.076.292.07.697-.011.9-.083.204-.145-.035-.139-.53zm57.047-1.95c0-1.403.051-1.977.115-1.275.063.701.063 1.848 0 2.55-.064.701-.115.127-.115-1.275zm-44.447 1.05c.006-.495.074-.661.15-.37.076.292.07.697-.011.9-.083.204-.145-.035-.139-.53zm31.067.233a9.548 9.548 0 0 1 1.95 0c.536.066.097.12-.975.12-1.073 0-1.511-.054-.975-.12zm34.344-1.283c0-.578.062-.814.138-.525.075.288.075.761 0 1.05-.076.288-.138.052-.138-.525zm-132.67.375c0-.124.979-.188 2.175-.143 3.936.148 4.327.266 1.05.317-1.773.028-3.224-.05-3.225-.174zm12.3-.008c0-.128.575-.189 1.276-.134 2.101.163 2.28.295.45.332-.949.02-1.725-.07-1.725-.198zm176.476.018a6.627 6.627 0 0 1 1.65 0c.454.069.082.125-.825.125-.908 0-1.279-.056-.825-.125zm10.05-.006a27.134 27.134 0 0 1 3.15 0c.866.06.157.11-1.575.11-1.733 0-2.441-.05-1.575-.11zm-56.256-1.88c0-.577.062-.813.138-.524.075.289.075.761 0 1.05-.076.289-.138.052-.138-.525zm13.513-1.2c0-.742.058-1.045.13-.674.071.371.071.979 0 1.35-.072.371-.13.067-.13-.675zm-69.592-.9c0-.907.056-1.278.125-.824a6.63 6.63 0 0 1 0 1.65c-.069.454-.125.082-.125-.825zm14.034-.174c.014-.35.085-.42.18-.181.087.216.077.475-.023.575-.1.1-.17-.078-.157-.394zm30.345-1.025c0-.578.062-.814.138-.525.075.289.075.761 0 1.05-.076.289-.138.052-.138-.525zm-113.92-.3c.3-.33.611-.6.694-.6.082 0-.095.27-.393.6-.299.33-.61.6-.693.6-.083 0 .094-.27.393-.6zm64.133-.6c0-.743.058-1.046.13-.675.071.371.071.979 0 1.35-.072.371-.13.067-.13-.675zm43.493-.45c.003-.66.065-.895.137-.522.072.373.069.913-.006 1.2-.075.287-.134-.018-.13-.678zm-79.785-1.05c0-.908.056-1.279.125-.825a6.627 6.627 0 0 1 0 1.65c-.069.454-.125.082-.125-.825zm90.88.6c0-.578.061-.814.137-.525.075.289.075.761 0 1.05-.076.289-.138.052-.138-.525zm4.2 0c0-.578.061-.814.137-.525.075.289.075.761 0 1.05-.076.289-.138.052-.138-.525zm-20.38-.9c0-.908.056-1.279.125-.825a6.63 6.63 0 0 1 0 1.65c-.069.454-.125.082-.125-.825zm-100.29.15c.387-.413.772-.75.854-.75.083 0-.167.337-.554.75-.388.412-.772.75-.855.75-.082 0 .167-.338.555-.75zm32.47-.15c0-.578.061-.814.137-.525.075.289.075.761 0 1.05-.076.289-.138.052-.138-.525zm-8.965-2.7c0-1.403.051-1.976.115-1.275.063.701.063 1.849 0 2.55-.064.701-.115.127-.115-1.275zm11.664-1.5c0-.578.062-.814.138-.525.075.289.075.761 0 1.05-.076.289-.138.052-.138-.525zm28.813-.3c0-.743.058-1.046.13-.675.071.371.071.979 0 1.35-.072.371-.13.067-.13-.675zm-16.213-.3c0-.578.062-.814.138-.525.075.289.075.761 0 1.05-.076.289-.138.052-.138-.525zm9.278.3c0-.413.068-.581.152-.375a1.16 1.16 0 0 1 0 .75c-.084.206-.152.037-.152-.375zm1.528-.45c.003-.66.065-.895.137-.522.072.373.069.913-.006 1.2-.075.287-.134-.018-.13-.678zm50.094-1.65c0-.578.062-.814.138-.525.075.289.075.761 0 1.05-.076.289-.138.052-.138-.525zm5.1 0c0-.578.062-.814.138-.525.075.289.075.761 0 1.05-.076.289-.138.052-.138-.525zm9.89-.15c.005-.495.073-.661.149-.37.076.292.07.697-.011.9-.083.204-.145-.035-.139-.53zm-77.735-.625c.014-.35.085-.42.18-.181.087.216.077.475-.023.575-.1.1-.17-.078-.157-.394zm56.423-2.825c0-.413.068-.581.152-.375a1.16 1.16 0 0 1 0 .75c-.084.206-.152.037-.152-.375zm18.622-1.8c0-.578.062-.814.138-.525.075.289.075.761 0 1.05-.076.289-.138.052-.138-.525zm-23.676-4.65c.002-.99.057-1.36.124-.82.067.54.066 1.35-.003 1.8-.068.45-.123.01-.121-.98zm-35.829-.085c-.099-.596-.055-.876.112-.71.151.152.224.595.163.985-.094.6-.137.558-.275-.275zm19.76-11.385a17.182 17.182 0 0 1 2.55 0c.702.063.128.115-1.274.115-1.403 0-1.976-.052-1.275-.115zm-6-5.679a1.16 1.16 0 0 1 .75 0c.207.083.038.151-.374.151-.413 0-.581-.068-.375-.15zm14.12-.006c.216-.087.475-.076.575.024.1.1-.078.17-.394.157-.35-.014-.42-.085-.181-.181z" fill="#959595"/><path d="M123.803 177.955a4.275 4.275 0 0 1 1.35 0c.371.072.067.13-.675.13-.743 0-1.046-.058-.675-.13zm12.399-1.163c.014-.35.085-.42.18-.182.087.217.077.476-.023.575-.1.1-.17-.077-.157-.393zm-12.4-.037a4.275 4.275 0 0 1 1.35 0c.372.072.068.13-.674.13-.743 0-1.046-.058-.675-.13zm2.534-2.338c.006-.495.074-.661.15-.37.076.292.07.697-.011.9-.083.204-.145-.035-.139-.53zm-22.558-1.468c0-.065.21-.198.465-.297.267-.102.388-.052.283.118-.176.285-.748.422-.748.179zm42.3-22.682c0-.33.122-.6.272-.6.15 0 .201.27.115.6-.087.33-.209.6-.272.6-.063 0-.115-.27-.115-.6zm-30.182-1.327c.022-1.039.165-1.512.482-1.598.311-.084.34-.043.096.132-.195.139-.412.858-.483 1.598l-.128 1.345.033-1.477zm-15.174.822c.216-.087.475-.076.575.024.1.1-.078.17-.394.157-.35-.014-.42-.085-.181-.181zm-6.188-.301c.619-.072 1.167-.322 1.245-.567.088-.28.12-.247.09.092-.035.404-.331.54-1.244.567l-1.197.035 1.106-.127zm59.7 0c.792-.092 1.145-.295 1.24-.716.105-.46.125-.44.094.092-.034.58-.217.685-1.24.716l-1.2.035 1.106-.127zm-54.632-.57c.014-.349.085-.42.18-.18.087.216.077.475-.023.574-.1.1-.17-.077-.157-.393zm4.5-.6c.014-.349.085-.42.18-.18.087.216.077.475-.023.574-.1.1-.17-.077-.157-.393zm-9.845-1.24c.456-.069 1.131-.067 1.5.004.369.072-.004.128-.83.126-.824-.002-1.126-.06-.67-.13zm14.68-.534c.005-.495.073-.661.149-.37.076.292.07.697-.011.9-.083.204-.145-.035-.139-.53zm-61.204-2.172l-.055-1.872-13.875-.081-13.875-.081 13.884-.072c11.525-.06 13.911-.002 14.042.338.087.226.108 1.138.046 2.025l-.111 1.615-.056-1.872zm66.603-.228c.006-.495.074-.661.15-.37.076.292.07.697-.011.9-.083.204-.145-.035-.139-.53zm-18.414.245c.216-.087.475-.076.575.024.1.1-.078.17-.394.157-.35-.014-.42-.085-.181-.181zm6.38-.27c.014-.35.085-.42.18-.182.087.217.077.476-.023.575-.1.1-.17-.077-.157-.393zm-5.349-.875c.003-.66.065-.895.137-.522.072.373.069.913-.006 1.2-.075.287-.134-.018-.13-.678zm-3 .243a2.462 2.462 0 0 1 1.05 0c.289.075.052.137-.525.137-.578 0-.814-.062-.525-.137zm-11.728-.693c0-.413.068-.582.152-.375a1.16 1.16 0 0 1 0 .75c-.084.206-.152.037-.152-.375zm8.7 0c0-.413.068-.582.152-.375a1.16 1.16 0 0 1 0 .75c-.084.206-.152.037-.152-.375zm14.1 0c0-.413.068-.582.152-.375a1.16 1.16 0 0 1 0 .75c-.084.206-.152.037-.152-.375zm12.3 0c0-.413.068-.582.152-.375a1.16 1.16 0 0 1 0 .75c-.084.206-.152.037-.152-.375zm8.272-.024c.106-.406.242-.542.317-.317.072.216-.011.536-.186.71-.222.223-.261.106-.13-.393zm3.728.024c0-.413.068-.582.152-.375a1.16 1.16 0 0 1 0 .75c-.084.206-.152.037-.152-.375zm17.1 0c0-.413.068-.582.152-.375a1.16 1.16 0 0 1 0 .75c-.084.206-.152.037-.152-.375zm4.2 0c0-.413.068-.582.152-.375a1.16 1.16 0 0 1 0 .75c-.084.206-.152.037-.152-.375zm12.877-.175c.014-.35.085-.42.18-.182.087.217.077.476-.023.575-.1.1-.17-.077-.157-.393zm47.471-.35c3.93-.047 10.276-.047 14.1 0 3.825.048.61.086-7.145.086s-10.885-.039-6.955-.086zm-203.533-6.6c-.374-.476-.363-.487.113-.114.5.392.658.639.412.639-.063 0-.299-.237-.525-.525zm188.363-21.874a1.16 1.16 0 0 1 .75 0c.206.083.037.151-.375.151-.413 0-.581-.068-.375-.15zm21.3 0a1.16 1.16 0 0 1 .75 0c.206.083.037.151-.375.151-.413 0-.581-.068-.375-.15zm-25.078-3.101c0-.413.068-.582.152-.375a1.16 1.16 0 0 1 0 .75c-.084.206-.152.037-.152-.375zm32.077-5.275c.014-.35.085-.42.18-.182.087.217.077.476-.023.575-.1.1-.17-.077-.157-.393zm-41.762-18.65c-.374-.476-.363-.487.113-.114.289.227.525.463.525.525 0 .247-.247.088-.638-.411zm10.36-4.35l-.572-.675.675.571c.371.315.675.618.675.675 0 .24-.242.063-.779-.571zm-147.398-12.7c.014-.35.085-.42.18-.182.087.217.077.476-.023.575-.1.1-.17-.077-.157-.393zm63.645-17.225c0-.578.062-.814.138-.525.075.288.075.761 0 1.05-.076.288-.138.052-.138-.525zm32.717-.45c.002-.825.06-1.127.13-.671.068.456.066 1.13-.005 1.5-.071.369-.128-.004-.125-.83zm19.183-.15c0-.578.062-.814.138-.525.075.288.075.761 0 1.05-.076.288-.138.052-.138-.525zm-80.7-1.5c0-.578.062-.814.138-.525.075.288.075.761 0 1.05-.076.288-.138.052-.138-.525zm104.417-.45c.002-.825.06-1.127.13-.671.068.456.066 1.13-.005 1.5-.071.369-.128-.004-.125-.83zm-81.01-.9c.002-.66.064-.895.136-.522.072.373.069.913-.006 1.2-.075.287-.134-.018-.13-.678zm54.593-.45c0-.578.062-.814.138-.525.075.288.075.761 0 1.05-.076.288-.138.052-.138-.525zm-46.18-2.4c0-.908.057-1.279.126-.825a6.63 6.63 0 0 1 0 1.65c-.069.453-.125.082-.125-.825zm69.593.3c0-.743.058-1.047.13-.675.071.371.071.978 0 1.35-.072.371-.13.067-.13-.675zm-88.813-.3c0-.578.062-.814.138-.525.075.288.075.761 0 1.05-.076.288-.138.052-.138-.525zm13.813-2.7c0-.743.058-1.047.13-.675.071.371.071.978 0 1.35-.072.371-.13.067-.13-.675zm30.623-1.5c0-1.403.051-1.977.115-1.275.063.701.063 1.848 0 2.55-.064.701-.115.127-.115-1.275zm30.853 1.65c.006-.495.074-.661.15-.37.076.292.07.697-.011.9-.083.204-.145-.035-.139-.53zm-99.852-2.1c0-1.485.05-2.13.113-1.434s.064 1.911.002 2.7c-.062.788-.114.219-.115-1.266zm-22.756.75c.812-.825 1.545-1.5 1.627-1.5.083 0-.515.675-1.327 1.5-.813.825-1.545 1.5-1.628 1.5-.082 0 .515-.675 1.328-1.5zm119.77-.876c-.131-.5-.092-.616.13-.394.175.175.258.494.186.71-.075.225-.21.09-.317-.316zm-122.02-.438c0-.062.236-.298.525-.525.476-.373.486-.362.113.114-.392.5-.638.658-.638.411zm113.175-.936c.003-.66.065-.895.137-.522.072.373.069.913-.006 1.2-.075.287-.134-.018-.13-.678zm-6.3-1.5c.003-.66.065-.895.137-.522.072.373.069.913-.006 1.2-.075.287-.134-.018-.13-.678zm11.094-.15c0-.578.062-.814.138-.525.075.288.075.761 0 1.05-.076.288-.138.052-.138-.525zm-83.994-1.05c.003-.66.065-.895.137-.522.072.373.069.913-.006 1.2-.075.287-.134-.018-.13-.678zm144.187.525c-.374-.476-.363-.487.113-.114.5.392.658.639.412.639-.063 0-.299-.237-.525-.525zM70.27 36.417c.003-.99.058-1.36.125-.82.067.54.066 1.35-.003 1.8-.068.45-.123.01-.121-.98zm9.577.45c0-.578.062-.814.138-.525.075.288.075.761 0 1.05-.076.288-.138.052-.138-.525zm65.117-.45c.002-.825.06-1.127.13-.671.068.456.066 1.13-.005 1.5-.071.369-.128-.004-.125-.83zm8.39-1.8c.002-.66.064-.895.136-.522.072.373.069.913-.006 1.2-.075.287-.134-.018-.13-.678zm5.093-.15c0-.578.062-.814.138-.525.075.288.075.761 0 1.05-.076.288-.138.052-.138-.525zm-73.822-1.5c0-.413.068-.582.152-.375a1.16 1.16 0 0 1 0 .75c-.084.206-.152.037-.152-.375zm7.811-.15c.006-.495.074-.661.15-.37.076.292.07.697-.011.9-.083.204-.145-.035-.139-.53zm16.228-.6c.002-.825.06-1.127.13-.671.068.456.066 1.13-.005 1.5-.071.369-.128-.004-.125-.83zm-5.41 0c.002-.66.064-.895.136-.522.072.373.069.913-.006 1.2-.075.287-.134-.018-.13-.678zm43.81-1.2c.002-.825.06-1.127.13-.671.068.456.066 1.13-.005 1.5-.071.369-.128-.004-.125-.83zm21.283-.15c0-.578.062-.814.138-.525.075.288.075.761 0 1.05-.076.288-.138.052-.138-.525zm-2.71-1.95c.005-.495.073-.661.149-.37.076.292.07.697-.011.9-.083.204-.145-.035-.139-.53zm-70.235-.325c.014-.35.085-.42.18-.182.087.217.077.476-.023.575-.1.1-.17-.077-.157-.393zm46.569-2.675c.002-.99.057-1.36.124-.82.067.54.066 1.35-.003 1.8-.068.45-.123.01-.121-.98zm-35.711-1.35c0-.743.058-1.047.13-.675.071.371.071.978 0 1.35-.072.371-.13.067-.13-.675zm25.043.401a1.16 1.16 0 0 1 .75 0c.206.083.037.151-.375.151-.413 0-.581-.068-.375-.15zm-.422-2.651c0-1.32.053-1.823.117-1.117.063.705.062 1.785-.002 2.4-.065.614-.116.037-.115-1.283zm2.54-2.155c.217-.087.476-.076.576.023.1.1-.078.171-.394.158-.35-.014-.42-.085-.181-.181zm-10.068-9.002a2.463 2.463 0 0 1 1.05 0c.289.075.052.137-.525.137-.578 0-.814-.062-.525-.137zm6.6 0a2.463 2.463 0 0 1 1.05 0c.289.075.052.137-.525.137-.578 0-.814-.062-.525-.137zM119.322.362c.216-.087.475-.076.575.023.1.1-.078.171-.394.158-.35-.014-.42-.085-.181-.181zm15.3 0c.216-.087.475-.076.575.023.1.1-.078.171-.394.158-.35-.014-.42-.085-.181-.181z" fill="#707070"/><path d="M97.122 178.562c.216-.087.475-.076.575.024.1.1-.078.17-.394.157-.35-.014-.42-.085-.181-.181zm51.38-1.77c.014-.35.085-.42.18-.182.087.217.077.476-.023.575-.1.1-.17-.077-.157-.393zm-26.966-.875c.006-.495.074-.661.15-.37.076.292.07.697-.011.9-.083.204-.145-.035-.139-.53zm27.842-3.564c0-.062.236-.298.525-.525.476-.373.486-.362.113.114-.392.5-.638.658-.638.411zm-8.676-21.961c.014-.35.085-.42.18-.182.087.217.077.476-.023.575-.1.1-.17-.077-.157-.393zm21 0c.014-.35.085-.42.18-.182.087.217.077.476-.023.575-.1.1-.17-.077-.157-.393zm-48.98-.63c.216-.087.475-.076.575.024.1.1-.078.17-.394.157-.35-.014-.42-.085-.181-.181zm-28.016-.494c-.084-.22-.114-1.603-.066-3.075l.088-2.676.9-.044c.855-.041.859-.036.075.095l-.825.139v5.622l.975.12.975.122-.985.048c-.58.028-1.047-.116-1.137-.351zm22.784-2.751c0-1.815.05-2.52.11-1.564.06.954.06 2.44-.001 3.3-.06.86-.11.079-.109-1.736zm12.29.9c.002-1.32.054-1.823.118-1.117.063.705.062 1.785-.002 2.4-.065.614-.116.037-.115-1.283zm12.026 1.851c-.084-.22-.114-1.603-.066-3.075l.088-2.676.9-.044c.855-.041.859-.036.075.095l-.825.139v5.622l.975.12.975.122-.985.048c-.58.028-1.047-.116-1.137-.351zm17.084-2.751c0-1.815.05-2.52.11-1.564.06.954.06 2.44-.001 3.3-.06.86-.11.079-.109-1.736zm10.163 2.1c.003-.66.065-.895.137-.522.072.373.069.913-.006 1.2-.075.287-.134-.018-.13-.678zm-65.7-.3c.003-.66.065-.895.137-.522.072.373.069.913-.006 1.2-.075.287-.134-.018-.13-.678zm59.736-1.95c0-1.733.05-2.442.11-1.575.06.866.06 2.283 0 3.15-.06.866-.11.157-.11-1.575zm-29.708-.75c0-1.32.053-1.823.117-1.117.063.705.062 1.785-.002 2.4-.065.614-.116.037-.115-1.283zm-10.28 1.175c.015-.35.086-.42.182-.182.086.217.076.476-.024.575-.1.1-.17-.077-.157-.393zm-16.776-.425c0-.413.068-.582.152-.375a1.16 1.16 0 0 1 0 .75c-.084.206-.152.037-.152-.375zm-6.323-.175c.014-.35.085-.42.18-.182.087.217.077.476-.023.575-.1.1-.17-.077-.157-.393zm47.1 0c.014-.35.085-.42.18-.182.087.217.077.476-.023.575-.1.1-.17-.077-.157-.393zm-117.228-1.925c0-1.073.054-1.512.12-.975a9.548 9.548 0 0 1 0 1.95c-.066.536-.12.097-.12-.975zm73.48.45c.002-.66.064-.895.136-.522.072.373.069.913-.006 1.2-.075.287-.134-.018-.13-.678zm7.968-1.555c.216-.087.475-.076.575.024.1.1-.078.17-.394.157-.35-.014-.42-.085-.181-.181zm11.68.006a1.16 1.16 0 0 1 .75 0c.207.083.038.151-.374.151-.413 0-.581-.068-.375-.151zm-82.874-9.402c.298-.33.61-.6.693-.6.082 0-.095.27-.393.6-.299.33-.61.6-.693.6-.083 0 .094-.27.393-.6zm-17.288-.525c-.374-.475-.363-.486.113-.113.5.392.658.638.412.638-.063 0-.299-.236-.525-.525zm237.188-16.274c.298-.33.61-.6.693-.6.082 0-.094.27-.393.6-.299.33-.61.6-.693.6-.083 0 .094-.27.393-.6zm-25.926-8.275c.014-.35.085-.42.18-.182.087.217.077.476-.023.575-.1.1-.17-.077-.157-.393zm0-2.4c.014-.35.085-.42.18-.182.087.217.077.476-.023.575-.1.1-.17-.077-.157-.393zm-195.324-2.939c0-.062.236-.298.525-.525.476-.373.486-.362.113.114-.392.5-.638.658-.638.411zm44.925-12.085a1.16 1.16 0 0 1 .75 0c.206.083.037.151-.375.151-.413 0-.581-.068-.375-.15zM.002 88.292c.014-.35.085-.42.18-.182.087.217.077.476-.023.575-.1.1-.17-.077-.157-.393zm251.009-.645c.705-.064 1.785-.063 2.4.002.614.064.037.116-1.283.115-1.32-.001-1.823-.054-1.117-.117zm-18.983-3.08c.298-.33.61-.6.693-.6.082 0-.094.27-.393.6-.299.33-.61.6-.693.6-.083 0 .094-.27.393-.6zM98.606 79.555c.374-.072.914-.07 1.2.006.287.075-.018.133-.678.13-.66-.003-.895-.065-.522-.136zm46.197.013a1.16 1.16 0 0 1 .75 0c.206.083.037.151-.375.151-.413 0-.581-.068-.375-.15zM22.628 66.867c.298-.33.61-.6.693-.6.082 0-.095.27-.393.6-.299.33-.61.6-.693.6-.083 0 .094-.27.393-.6zm19.771-4.275l-.571-.675.675.571c.634.537.811.779.571.779-.057 0-.36-.304-.675-.675zm37.748-10.425c0-.578.062-.814.138-.525.075.288.075.761 0 1.05-.076.288-.138.052-.138-.525zm28.813-1.8c0-.743.058-1.047.13-.675.071.371.071.978 0 1.35-.072.371-.13.067-.13-.675zm49.187 0c0-.578.062-.814.138-.525.075.288.075.761 0 1.05-.076.288-.138.052-.138-.525zm-46.176-1.05c.002-.99.058-1.36.124-.82.067.54.066 1.35-.003 1.8-.068.45-.123.01-.121-.98zm48.876.75c0-.578.062-.814.138-.525.075.288.075.761 0 1.05-.076.288-.138.052-.138-.525zm20.713-1.2c0-.743.058-1.047.13-.675.071.371.071.978 0 1.35-.072.371-.13.067-.13-.675zm-113.377-2.4c0-1.403.051-1.977.115-1.275.063.701.063 1.848 0 2.55-.064.701-.115.127-.115-1.275zm19.719 1.925c.014-.35.085-.42.18-.182.087.217.077.476-.023.575-.1.1-.17-.077-.157-.393zm3.051-.575c.003-.66.065-.895.137-.522.072.373.069.913-.006 1.2-.075.287-.134-.018-.13-.678zm93.618-.9c.002-.99.057-1.36.124-.82.067.54.066 1.35-.003 1.8-.068.45-.123.01-.121-.98zm-81.018 0c.003-.66.065-.895.137-.522.072.373.069.913-.006 1.2-.075.287-.134-.018-.13-.678zm3.007-1.05c0-.743.058-1.047.13-.675.071.371.071.978 0 1.35-.072.371-.13.067-.13-.675zm-13.813-1.5c0-.578.062-.814.138-.525.075.288.075.761 0 1.05-.076.288-.138.052-.138-.525zm3-.6c0-.578.062-.814.138-.525.075.288.075.761 0 1.05-.076.288-.138.052-.138-.525zm72.29-1.65c.005-.495.073-.661.149-.37.076.292.07.697-.011.9-.083.204-.145-.035-.139-.53zm-120.96-1.464c0-.062.237-.298.526-.525.476-.373.486-.362.113.114-.392.5-.638.658-.638.411zm-7.95-1.986c.98-.99 1.85-1.8 1.932-1.8.083 0-.651.81-1.631 1.8s-1.849 1.8-1.931 1.8c-.083 0 .651-.81 1.63-1.8zm33.826.45c.004-.66.065-.895.137-.522.072.373.07.913-.006 1.2-.075.287-.134-.018-.13-.678zm64.23-1.95c0-1.403.051-1.977.115-1.275.063.701.063 1.848 0 2.55-.064.701-.115.127-.115-1.275zm-57.347 1.35c.006-.495.074-.661.15-.37.076.292.07.697-.011.9-.083.204-.145-.035-.139-.53zm76.511-.45c0-.578.062-.814.138-.525.075.288.075.761 0 1.05-.076.288-.138.052-.138-.525zm-2.994-1.35c.003-.66.065-.895.137-.522.072.373.069.913-.006 1.2-.075.287-.134-.018-.13-.678zm-3.293-.45c0-.743.058-1.047.13-.675.071.371.071.978 0 1.35-.072.371-.13.067-.13-.675zm11.076.45c.006-.495.074-.661.15-.37.076.292.07.697-.011.9-.083.204-.145-.035-.139-.53zm59.304.225c-.374-.476-.363-.487.113-.114.5.392.658.639.412.639-.063 0-.299-.237-.525-.525zm-61.993-.675c0-.578.062-.814.138-.525.075.288.075.761 0 1.05-.076.288-.138.052-.138-.525zm-81.3-.9c0-.578.062-.814.138-.525.075.288.075.761 0 1.05-.076.288-.138.052-.138-.525zm67.817-1.65c.002-.825.06-1.127.13-.671.068.456.066 1.13-.005 1.5-.071.369-.128-.004-.125-.83zm-74.704-.15c0-.743.058-1.047.13-.675.071.371.071.978 0 1.35-.072.371-.13.067-.13-.675zm11.387.3c0-.578.062-.814.138-.525.075.288.075.761 0 1.05-.076.288-.138.052-.138-.525zm65.413-.3c0-.743.058-1.047.13-.675.071.371.071.978 0 1.35-.072.371-.13.067-.13-.675zm69.78-.225c-.374-.476-.363-.487.113-.114.5.392.658.639.412.639-.063 0-.299-.237-.525-.525zm-98.915-1.575c0-.413.068-.582.152-.375a1.16 1.16 0 0 1 0 .75c-.084.206-.152.037-.152-.375zm-25.478-.6c0-.578.062-.814.138-.525.075.288.075.761 0 1.05-.076.288-.138.052-.138-.525zm41.744-2.7c0-1.898.049-2.674.109-1.725.059.948.059 2.501 0 3.45-.06.948-.109.172-.109-1.725zm31.456 2.1c0-.578.062-.814.138-.525.075.288.075.761 0 1.05-.076.288-.138.052-.138-.525zm-62.394-.45c.003-.66.065-.895.137-.522.072.373.069.913-.006 1.2-.075.287-.134-.018-.13-.678zm-7.806-.15c0-.578.062-.814.138-.525.075.288.075.761 0 1.05-.076.288-.138.052-.138-.525zm13.217-.45c.002-.825.06-1.127.13-.671.068.456.066 1.13-.005 1.5-.071.369-.128-.004-.125-.83zm33.307-.3c.002-.99.057-1.36.124-.82.067.54.066 1.35-.003 1.8-.068.45-.123.01-.121-.98zm-24.003-.45c0-.908.056-1.279.125-.825a6.63 6.63 0 0 1 0 1.65c-.069.453-.125.082-.125-.825zm50.368.45c.006-.495.074-.661.15-.37.076.292.07.697-.011.9-.083.204-.145-.035-.139-.53zm-62.076-2.25c0-.743.058-1.047.13-.675.071.371.071.978 0 1.35-.072.371-.13.067-.13-.675zm26.243-1.999a1.16 1.16 0 0 1 .75 0c.206.083.037.151-.375.151-.413 0-.581-.068-.375-.15zm-18.881-4.206c.216-.087.475-.076.575.023.1.1-.078.171-.394.158-.35-.014-.42-.085-.181-.181zm18.58-.594a1.16 1.16 0 0 1 .75 0c.207.083.038.151-.374.151-.413 0-.581-.068-.375-.15zm-9.88-9.006c.216-.087.475-.076.575.023.1.1-.078.171-.394.158-.35-.014-.42-.085-.181-.181zm9.28.006a1.16 1.16 0 0 1 .75 0c.207.083.038.151-.374.151-.413 0-.581-.068-.375-.151zm-11.1-2.4a1.16 1.16 0 0 1 .75 0c.207.083.038.151-.374.151-.413 0-.581-.068-.375-.151zm12.92-.006c.216-.087.475-.076.575.023.1.1-.078.171-.394.158-.35-.014-.42-.085-.181-.181zm-13.2-8.4c.216-.087.475-.076.575.023.1.1-.078.171-.394.158-.35-.014-.42-.085-.181-.181zm13.5 0c.216-.087.475-.076.575.023.1.1-.078.171-.394.158-.35-.014-.42-.085-.181-.181z" fill="#4e4e4e"/><path d="M117.222 181.262c.216-.087.475-.076.575.024.1.1-.078.17-.394.157-.35-.014-.42-.085-.181-.181zm4.03-.002a2.462 2.462 0 0 1 1.05 0c.29.075.053.137-.524.137-.578 0-.814-.062-.525-.137zm.308-3.393c0-.743.058-1.047.13-.675.071.37.071.978 0 1.35-.072.37-.13.067-.13-.675zm-8.135-.3c0-.413.068-.582.152-.375a1.16 1.16 0 0 1 0 .75c-.084.206-.152.037-.152-.375zm12.277-.175c.014-.35.085-.421.18-.182.087.217.077.476-.023.575-.1.1-.17-.077-.157-.393zm4.588-1.766c-.093-.242-.1-.613-.014-.825.085-.211.165-.09.178.269.013.359.26.714.549.79.492.128.491.14-.01.172-.293.019-.61-.164-.702-.406zm-6.784-.972c.374-.071.914-.069 1.2.006.287.075-.018.134-.678.13-.66-.002-.895-.064-.522-.136zm-2.604-.562c.014-.35.085-.421.18-.182.087.217.077.476-.023.575-.1.1-.17-.077-.157-.393zm11.62-.63c.216-.087.475-.076.575.023.1.1-.078.17-.394.158-.35-.015-.42-.086-.181-.181zm-44.044-23.309c0-.062.236-.298.525-.525.476-.373.486-.362.113.114-.392.5-.638.658-.638.411zm47.1 0c0-.062.236-.298.525-.525.476-.373.486-.362.113.114-.392.5-.638.658-.638.411zM17.622 138.662c.216-.087.475-.076.575.024.1.1-.078.17-.394.157-.35-.014-.42-.085-.181-.181zm-4.594-14.495c.298-.33.61-.6.693-.6.082 0-.095.27-.393.6-.299.33-.61.6-.693.6-.083 0 .094-.27.393-.6zm3.83-1.708c.292-.076.697-.071.9.011.204.082-.035.144-.53.138-.495-.006-.661-.073-.37-.15zm218.264-1.197c.216-.087.475-.076.575.023.1.1-.078.171-.394.158-.35-.014-.42-.085-.181-.181zm3 0c.216-.087.475-.076.575.023.1.1-.078.171-.394.158-.35-.014-.42-.085-.181-.181zm-157.923-1.97l-.571-.675.675.571c.634.537.811.779.571.779-.057 0-.36-.304-.675-.675zm142.079-3.639c0-.062.236-.298.525-.525.476-.373.486-.362.113.114-.392.5-.638.658-.638.411zm-86.472-.398c.374-.072.914-.07 1.2.006.287.075-.018.133-.678.13-.66-.003-.895-.065-.522-.136zm105.453-.896c.291-.076.696-.071.9.011.203.082-.036.144-.531.138-.495-.006-.661-.073-.37-.15zm-27.12-1.517c-.373-.476-.362-.487.114-.114.289.227.525.463.525.525 0 .247-.247.088-.638-.411zm-103.137-2.35c.014-.35.085-.42.18-.182.087.217.077.476-.023.575-.1.1-.17-.077-.157-.393zm-22.438-1.775c.002-.825.06-1.127.13-.671.068.456.066 1.13-.005 1.5-.071.369-.128-.004-.125-.83zm-11.139.15c0-.413.068-.582.152-.375a1.16 1.16 0 0 1 0 .75c-.084.206-.152.037-.152-.375zm146.711-1.35c.006-.495.074-.661.15-.37.076.292.07.697-.011.9-.083.204-.145-.035-.139-.53zM16.3 102.792l-.571-.675.675.571c.634.537.811.779.571.779-.057 0-.36-.304-.675-.675zM.036 92.517c.006-.495.074-.661.15-.37.076.292.07.697-.011.9-.083.204-.145-.035-.139-.53zm156.566.275c.014-.35.085-.42.18-.182.087.217.077.476-.023.575-.1.1-.17-.077-.157-.393zm0-2.7c.014-.35.085-.42.18-.182.087.217.077.476-.023.575-.1.1-.17-.077-.157-.393zm-78.624-.239c0-.062.236-.298.525-.525.476-.373.486-.362.113.114-.392.5-.638.658-.638.411zM.002 89.192c.014-.35.085-.42.18-.182.087.217.077.476-.023.575-.1.1-.17-.077-.157-.393zm95.526-2.825c.298-.33.61-.6.693-.6.082 0-.095.27-.393.6-.299.33-.61.6-.693.6-.083 0 .094-.27.393-.6zm-10.65-.414c0-.062.236-.298.525-.525.476-.373.486-.362.113.114-.392.5-.638.658-.638.411zm60.262-1.311c-.374-.476-.363-.487.113-.114.5.392.658.639.412.639-.063 0-.299-.237-.525-.525zm8.56-2.25l-.572-.675.675.571c.371.315.675.618.675.675 0 .24-.242.063-.779-.571zm-9.778-2.83c.216-.087.475-.076.575.023.1.1-.078.171-.394.158-.35-.014-.42-.085-.181-.181zm100.2-.3c.216-.087.475-.076.575.023.1.1-.078.171-.394.158-.35-.014-.42-.085-.181-.181zm3 0c.216-.087.475-.076.575.023.1.1-.078.171-.394.158-.35-.014-.42-.085-.181-.181zM34.04 75.587c-.095-.153-.058-.35.082-.436.14-.087.255.039.255.279 0 .506-.095.55-.337.157zm-12.763-7.334c0-.062.236-.298.525-.525.476-.373.486-.362.113.114-.392.5-.638.658-.638.411zm-11.85-1.386c.644-.66 1.24-1.2 1.322-1.2.082 0-.378.54-1.022 1.2-.645.66-1.24 1.2-1.322 1.2-.082 0 .377-.54 1.022-1.2zm18.394-8.305c.216-.087.475-.076.575.023.1.1-.078.171-.394.158-.35-.014-.42-.085-.181-.181zm40.36-7.295c0-1.403.052-1.977.116-1.275.063.701.063 1.848 0 2.55-.064.701-.115.127-.115-1.275zm43.782 1.05c.002-.825.06-1.127.13-.671.068.456.066 1.13-.005 1.5-.071.369-.128-.004-.125-.83zm32.707-.3c.002-.99.057-1.36.124-.82.067.54.066 1.35-.003 1.8-.068.45-.123.01-.121-.98zm23.076.75c0-.578.062-.814.138-.525.075.288.075.761 0 1.05-.076.288-.138.052-.138-.525zm-97.222 0c0-.413.068-.582.152-.375a1.16 1.16 0 0 1 0 .75c-.084.206-.152.037-.152-.375zm87.628-.45c.003-.66.065-.895.137-.522.072.373.069.913-.006 1.2-.075.287-.134-.018-.13-.678zm23.418-.6c.002-.99.057-1.36.124-.82.067.54.066 1.35-.003 1.8-.068.45-.123.01-.121-.98zm-75-3c.002-.99.058-1.36.124-.82.067.54.066 1.35-.003 1.8-.068.45-.123.01-.121-.98zm2.405-1.5c.001-1.155.056-1.591.12-.969.066.623.065 1.568-.001 2.1-.067.533-.12.024-.118-1.131zm51.877.9c.003-.66.065-.895.137-.522.072.373.069.913-.006 1.2-.075.287-.134-.018-.13-.678zm-78.951.275c.014-.35.085-.42.18-.182.087.217.077.476-.023.575-.1.1-.17-.077-.157-.393zm2.745-1.025c0-.578.062-.814.138-.525.075.288.075.761 0 1.05-.076.288-.138.052-.138-.525zm11.113-1.5c0-.743.058-1.047.13-.675.071.371.071.978 0 1.35-.072.371-.13.067-.13-.675zm7.808-1.5c0-.908.056-1.279.125-.825a6.63 6.63 0 0 1 0 1.65c-.069.453-.125.082-.125-.825zm-60.99.786c0-.062.236-.298.525-.525.476-.373.486-.362.113.114-.392.5-.638.658-.638.411zm142.005-2.286c0-1.403.051-1.977.114-1.275.064.701.064 1.848 0 2.55-.063.701-.114.127-.114-1.275zM40.178 44.253c0-.062.236-.298.525-.525.476-.373.486-.362.113.114-.392.5-.638.658-.638.411zm168.739-2.061l-1.49-1.575 1.576 1.488c1.463 1.384 1.712 1.662 1.489 1.662-.048 0-.757-.709-1.575-1.575zM72.97 41.817c.002-.99.057-1.36.124-.82.067.54.066 1.35-.003 1.8-.068.45-.123.01-.121-.98zm19.782.6c.003-.66.065-.895.137-.522.072.373.069.913-.006 1.2-.075.287-.134-.018-.13-.678zm119.302-.375l-.727-.825.825.727c.454.4.825.771.825.825 0 .235-.243.044-.923-.727zM134.2 36.867c0-2.888.045-4.069.1-2.625a83.543 83.543 0 0 1 0 5.25c-.055 1.443-.1.262-.1-2.625zm-97.473 4.2c.298-.33.61-.6.693-.6.082 0-.095.27-.393.6-.299.33-.61.6-.693.6-.083 0 .094-.27.393-.6zm43.132-.6c0-.743.058-1.047.13-.675.071.371.071.978 0 1.35-.072.371-.13.067-.13-.675zm88.2-.3c0-.743.058-1.047.13-.675.071.371.071.978 0 1.35-.072.371-.13.067-.13-.675zm-55.501.392c.291-.076.696-.071.9.011.203.082-.036.144-.531.138-.495-.006-.661-.073-.37-.15zm40.805-1.442c.002-.825.06-1.127.13-.671.068.456.066 1.13-.005 1.5-.071.369-.128-.004-.125-.83zm55.545-.225l-.881-.975.975.88c.536.485.975.924.975.976 0 .232-.248.028-1.069-.881zm-50.45-.525c0-.743.059-1.047.13-.675.072.371.072.978 0 1.35-.07.371-.13.067-.13-.675zm-126.081.186c0-.062.236-.298.525-.525.476-.373.486-.362.113.114-.392.5-.638.658-.638.411zm114.696-1.986c0-1.073.054-1.512.12-.975a9.54 9.54 0 0 1 0 1.95c-.066.536-.12.097-.12-.975zM46.778 37.653c0-.062.236-.298.525-.525.476-.373.486-.362.113.114-.392.5-.638.658-.638.411zm109.582-1.686c0-.743.058-1.047.13-.675.071.371.071.978 0 1.35-.072.371-.13.067-.13-.675zm-115.282.786c0-.062.236-.298.525-.525.476-.373.486-.362.113.114-.392.5-.638.658-.638.411zm177.6-1.536c-.729-.743-1.258-1.35-1.175-1.35.082 0 .746.607 1.475 1.35.729.742 1.257 1.35 1.175 1.35-.083 0-.746-.608-1.475-1.35zm-57.518-.45c0-.743.058-1.047.13-.675.071.371.071.978 0 1.35-.072.371-.13.067-.13-.675zm-19.177-1.5c0-1.403.051-1.977.115-1.275.063.701.063 1.848 0 2.55-.064.701-.115.127-.115-1.275zm8.085.3c0-.908.056-1.279.125-.825a6.63 6.63 0 0 1 0 1.65c-.069.453-.125.082-.125-.825zm-12.876-2.25c.001-1.98.05-2.751.108-1.714a36.579 36.579 0 0 1 0 3.6c-.06.943-.108.094-.108-1.886zm44.679 1.8c.002-.99.057-1.36.124-.82.067.54.066 1.35-.003 1.8-.068.45-.123.01-.121-.98zm-104.707 0c.002-.825.06-1.127.13-.671.068.456.066 1.13-.005 1.5-.071.369-.128-.004-.125-.83zm88.49-.6c.002-.66.064-.895.136-.522.072.373.069.913-.006 1.2-.075.287-.134-.018-.13-.678zm-70.194-.45c0-.743.058-1.047.13-.675.071.371.071.978 0 1.35-.072.371-.13.067-.13-.675zm19.523-1.2c0-1.403.051-1.977.115-1.275.063.701.063 1.848 0 2.55-.064.701-.115.127-.115-1.275zm-76.905 1.986c0-.062.236-.298.525-.525.476-.373.486-.362.113.114-.392.5-.638.658-.638.411zm106.898-2.436c.001-1.155.056-1.591.12-.969.066.623.065 1.568-.001 2.1-.067.533-.12.024-.118-1.131zm-38.705-.6c.002-.99.058-1.36.124-.82.067.54.066 1.35-.003 1.8-.068.45-.123.01-.121-.98zm11.63.875c.015-.35.086-.42.182-.182.086.217.076.476-.024.575-.1.1-.17-.077-.157-.393zm-6.22-2.375c0-1.32.053-1.823.117-1.117.063.705.062 1.785-.002 2.4-.065.614-.116.037-.115-1.283zm-19.221.75c0-.743.058-1.047.13-.675.071.371.071.978 0 1.35-.072.371-.13.067-.13-.675zm10.808-1.5c0-.908.056-1.279.125-.825a6.63 6.63 0 0 1 0 1.65c-.069.453-.125.082-.125-.825zm65.085-.15c.003-.66.065-.895.137-.522.072.373.069.913-.006 1.2-.075.287-.134-.018-.13-.678zm-59.68-1.05c0-1.073.055-1.512.122-.975a9.54 9.54 0 0 1 0 1.95c-.067.536-.121.097-.121-.975zm50.005-1.8c0-.495.111-.9.248-.9.136 0 .188.405.116.9-.073.495-.184.9-.248.9s-.116-.405-.116-.9zm-35.625-4.407a2.463 2.463 0 0 1 1.05 0c.289.075.052.137-.525.137-.578 0-.814-.062-.525-.137zm8.269.002c.216-.087.475-.076.575.023.1.1-.078.171-.394.158-.35-.014-.42-.086-.181-.181zm-10.22-8.994a1.16 1.16 0 0 1 .75 0c.207.083.038.151-.374.151-.413 0-.581-.068-.375-.15zm11.7 0a1.16 1.16 0 0 1 .75 0c.207.083.038.151-.374.151-.413 0-.581-.068-.375-.15zm-11.1-2.4a1.16 1.16 0 0 1 .75 0c.207.083.038.151-.374.151-.413 0-.581-.068-.375-.15zm10.5 0a1.16 1.16 0 0 1 .75 0c.207.083.038.151-.374.151-.413 0-.581-.068-.375-.15zm3.92-3.306c.216-.087.475-.076.575.023.1.1-.078.171-.394.158-.35-.014-.42-.085-.181-.181zm-9.77-.31a6.627 6.627 0 0 1 1.65 0c.455.069.083.125-.824.125-.908 0-1.279-.056-.825-.125zm-10.33-4.49c.216-.087.475-.076.575.023.1.1-.078.171-.394.158-.35-.014-.42-.085-.181-.181zm5.08-.294a1.16 1.16 0 0 1 .75 0c.207.083.038.151-.374.151-.413 0-.581-.068-.375-.15zm11.4 0a1.16 1.16 0 0 1 .75 0c.207.083.038.151-.374.151-.413 0-.581-.068-.375-.15z" fill="#2f2f2f"/><path d="M121.853 181.25c-.958-.12-1.303-.524-.637-.746.474-.158.768-5.937.303-5.937-.188 0-.341-.203-.341-.45 0-.365.483-.45 2.55-.45h2.55v.9c0 .956-.695 1.266-1.009.45-.108-.283-.567-.45-1.232-.45-1.036 0-1.06.026-1.06 1.2v1.2h1.35c1 0 1.35.116 1.35.45 0 .333-.35.45-1.35.45h-1.35v1.2c0 1.2 0 1.2 1.2 1.2.868 0 1.2-.125 1.2-.45 0-.25.268-.45.6-.45.487 0 .6.2.6 1.05v1.05l-1.874-.048c-1.031-.027-2.314-.103-2.85-.17zm-6.568-.38c-1.075-.434-1.607-1.506-1.607-3.235 0-2.666 1.338-4.268 3.565-4.268 1.64 0 2.435.487 2.435 1.492 0 .697-.135.908-.58.908-.371 0-.613-.241-.674-.675-.139-.975-1.448-1.053-2.499-.15-.635.547-.857 1.05-.965 2.192-.193 2.027.633 3.133 2.34 3.133.978 0 1.178-.102 1.178-.6 0-.4.2-.6.6-.6.391 0 .6.2.6.575 0 1.309-.296 1.526-2.057 1.506-.931-.01-1.982-.136-2.336-.279zm15.193.003c0-.161.685-1.232 1.522-2.38 1.138-1.56 1.497-2.298 1.425-2.93-.078-.677-.267-.866-.944-.943-.651-.075-.886.047-1.01.525-.227.865-.893.779-1.069-.139-.184-.963.463-1.34 2.3-1.34 1.12 0 1.449.133 1.852.749.654.997.373 2.01-1.1 3.964-.646.86-1.176 1.616-1.176 1.681 0 .065.675.054 1.5-.025 1.194-.115 1.5-.053 1.5.303 0 .305-.444.508-1.392.638-2.016.276-3.408.234-3.408-.103zm-21.8-3.215c-.939-2.008-1.432-2.775-1.592-2.475-.405.76-.67 4.184-.323 4.184.173 0 .315.172.315.383 0 .266-.367.348-1.202.268-1.364-.13-1.776-.525-1.093-1.046.609-.464 1.355-5.559.86-5.865-.601-.372.062-.89.927-.725.711.136 1.064.605 2.293 3.048 1.436 2.853 1.455 2.875 1.618 1.837.506-3.218.512-3.6.05-3.6-.25 0-.453-.217-.453-.482 0-.317.163-.42.474-.3.261.1.869.182 1.35.182.867 0 1.265.72.533.964-.202.067-.468 1.437-.647 3.325-.295 3.11-.327 3.21-1.028 3.21-.621 0-.915-.41-2.083-2.908zm28.917 2.383c-.755-.834-1.117-2.085-1.117-3.857 0-1.356.132-1.777.753-2.398.607-.606.996-.735 1.995-.661 1.768.13 2.448 1.133 2.6 3.832.108 1.902.055 2.134-.652 2.84-.938.939-2.834 1.068-3.579.244zm2.772-.954c.445-.832.383-2.866-.124-4.08-.333-.796-.612-1.04-1.19-1.04-.438 0-.884.243-1.065.58-.643 1.203-.208 4.317.684 4.884.632.402 1.377.25 1.695-.344zm-38.467.266c-1.41-.24-1.67-.488-1.018-.965.33-.241.682-1.311.997-3.027.414-2.253.424-2.693.07-2.912-.693-.428.074-.817 1.304-.66 1.11.142 1.527.76.72 1.069-.243.093-.55 1.094-.769 2.507-.2 1.294-.43 2.577-.508 2.852-.083.29.048.543.311.6 1.002.22-.032.72-1.107.536zm42.603.007c-1.343-.825-2.027-4.451-1.15-6.095.51-.955 2.122-1.498 3.214-1.083 1.616.615 2.563 5.114 1.383 6.571-.607.75-2.633 1.106-3.447.607zm2.336-1.097c.64-.64.481-3.278-.265-4.418-.693-1.057-1.913-1.063-2.177-.011-.311 1.24.046 3.687.634 4.336.66.73 1.147.755 1.808.093zm-51.719-.257c-.893-.387-.984-.531-.8-1.262.113-.454.253-.872.31-.929.217-.217.898.423.898.845 0 .621 1.539 1.124 2.19.715 1.04-.652.79-1.544-.68-2.428-1.495-.897-1.919-1.774-1.473-3.041.332-.945 1.463-1.39 2.865-1.127 1.51.283 2.166.844 1.914 1.636-.231.73-1.066.896-1.066.213 0-.584-1.08-1.139-1.784-.916-.986.313-1.034 1.14-.11 1.886 2.791 2.255 2.981 2.669 1.872 4.079-.498.633-.87.788-1.875.779-.69-.006-1.707-.209-2.26-.45zm55.458.161c0-.165.169-.302.375-.304 1.1-.014 1.199-.445.665-2.881-.285-1.3-.568-2.42-.628-2.488-.06-.068-.366.11-.68.395-.963.87-1.104-.06-.159-1.046 1.449-1.512 1.76-1.245 2.57 2.2.665 2.832.774 3.067 1.39 2.98.43-.06.667.063.667.35 0 .291-.524.557-1.515.77-1.886.404-2.685.411-2.685.024zm-102.51-17.625c.07-.123 2.1-3.624 4.51-7.778l4.383-7.553-4.491-7.548c-2.47-4.15-4.492-7.603-4.492-7.671 0-.069 15.252-.125 33.894-.125h33.894l.159-.675c.72-3.069 2.482-11.795 2.4-11.878-.059-.058-.746.383-1.529.98-.782.598-2.31 1.523-3.394 2.055-1.817.892-2.198.967-4.823.948-2.448-.017-3.112-.137-4.697-.852-2.172-.98-3.145-1.914-3.992-3.83l-.62-1.403-2.321 2.303c-3.625 3.596-6.902 4.857-11.08 4.265-3.704-.524-6.288-2.524-7.606-5.887-.621-1.583-.692-2.232-.654-5.976.085-8.405 2.229-16.546 5.698-21.64 3.68-5.405 8.442-8.139 14.7-8.44 2.984-.144 3.136-.12 4.986.79 1.05.518 1.978.94 2.063.94.085 0 .244-.472.352-1.05l.197-1.05h11.909l-.252 1.125c-2.332 10.412-6.045 28.8-6.056 29.993-.016 1.763.354 2.38 1.787 2.979 1.875.783 5.451.133 6.273-1.14.144-.224 1.815-7.697 3.713-16.607l3.45-16.2 5.959-.081 5.958-.082-.19.757c-.229.912-.305.907 2.006.125 1.602-.543 2.353-.612 5.316-.489 4.244.177 6.142.767 8.088 2.516 3.403 3.06 3.995 8.79 1.953 18.912-2.405 11.925-7.617 18.722-15.257 19.899-3.02.465-5.388.063-8.51-1.444-.867-.419-1.639-.698-1.716-.62-.17.17-2.258 9.716-2.258 10.325 0 .374 4.955.432 36.901.432h36.901l-3.751 7.498c-2.063 4.124-3.751 7.656-3.751 7.85 0 .194 1.62 3.683 3.6 7.752 1.98 4.07 3.6 7.49 3.6 7.6 0 .11-34.5.2-76.668.2-42.167 0-76.61-.1-76.541-.225zm55.433-10.252c1.664-1.663.984-3.51-1.735-4.713-1.35-.597-1.612-.834-1.533-1.39.072-.512.325-.692 1.07-.764.815-.078.975.007.975.525 0 .46.192.62.75.62.671 0 .75-.123.75-1.169 0-1.357-.278-1.532-2.438-1.532-1.94 0-2.962.911-2.962 2.64 0 1.37.643 2.08 2.505 2.766 1.997.736 1.873 2.378-.18 2.39-.69.004-.825-.123-.825-.778 0-.59-.117-.737-.475-.6-.26.1-.598.182-.75.182-.422 0-.33 2.329.1 2.502.206.083 1.161.162 2.123.175 1.548.02 1.848-.077 2.625-.854zm11.813.53c.665-.304.764-.536.764-1.8 0-.8.135-1.453.3-1.453.165 0 .3-.27.3-.6 0-.533-.2-.6-1.8-.6s-1.8.067-1.8.6c0 .4.2.6.6.6.486 0 .6.2.6 1.05 0 1.024-.03 1.05-1.193 1.05-.91 0-1.295-.16-1.62-.675-.67-1.056-.853-2.465-.495-3.794.362-1.345.996-1.83 2.388-1.83.781 0 .92.112.92.75 0 .6.15.75.75.75.686 0 .75-.113.75-1.319 0-1.542-.217-1.682-2.61-1.682-1.523 0-1.755.095-2.8 1.14-1.94 1.939-2.006 5.304-.143 7.167.885.886 1.173.993 2.659.993.916 0 2.01-.156 2.43-.348zm-27.126-.408c2.338-1.21 2.675-5.694.561-7.473-.843-.71-1.145-.772-3.744-.772-2.627 0-2.827.043-2.827.6 0 .334.2.6.45.6.371 0 .45.55.45 3.15 0 2.6-.079 3.15-.45 3.15-.25 0-.45.267-.45.6 0 .554.2.6 2.565.6 1.706 0 2.86-.152 3.445-.455zm-3.31-3.895v-2.85h1.153c1.569 0 2.247.789 2.275 2.645.031 2.065-.693 3.055-2.235 3.055h-1.193v-2.85zm12.3 3.15c0-1.08-.075-1.2-.75-1.2-.467 0-.75.17-.75.45 0 .315-.317.45-1.05.45-1 0-1.05-.05-1.05-1.05v-1.05h1.5c1.4 0 1.5-.05 1.5-.75s-.1-.75-1.5-.75h-1.5v-1.05c0-1 .05-1.05 1.05-1.05.733 0 1.05.136 1.05.45 0 .28.283.45.75.45.675 0 .75-.12.75-1.2v-1.2h-3.15c-2.95 0-3.15.038-3.15.6 0 .334.2.6.45.6.371 0 .45.55.45 3.15 0 2.6-.079 3.15-.45 3.15-.25 0-.45.267-.45.6 0 .562.2.6 3.15.6h3.15v-1.2zm11.1.6c0-.33-.135-.6-.3-.6-.181 0-.3-1.25-.3-3.15s.119-3.15.3-3.15c.165 0 .3-.27.3-.6 0-.527-.2-.6-1.65-.6s-1.65.073-1.65.6c0 .334.2.6.45.6.371 0 .45.55.45 3.15 0 2.6-.079 3.15-.45 3.15-.25 0-.45.267-.45.6 0 .528.2.6 1.65.6s1.65-.072 1.65-.6zm12.3 0c0-.33-.135-.6-.3-.6-.173 0-.299-.923-.297-2.175l.003-2.175 1.69 2.775c1.497 2.458 1.788 2.775 2.547 2.775h.857v-3.75c0-3.133.074-3.75.45-3.75.25 0 .45-.266.45-.6 0-.527-.2-.6-1.65-.6-1.426 0-1.65.078-1.65.575 0 .317.142.623.316.68.19.064.28.87.225 2.036l-.091 1.93-1.599-2.61-1.598-2.61h-1.327c-1.126 0-1.326.09-1.326.6 0 .333.2.6.45.6.371 0 .45.55.45 3.15 0 2.6-.079 3.15-.45 3.15-.25 0-.45.266-.45.6 0 .527.2.6 1.65.6s1.65-.073 1.65-.6zm14.71.145c2.338-1.21 2.675-5.694.561-7.473-.843-.71-1.145-.772-3.744-.772-2.627 0-2.827.043-2.827.6 0 .334.2.6.45.6.371 0 .45.55.45 3.15 0 2.6-.079 3.15-.45 3.15-.25 0-.45.267-.45.6 0 .554.2.6 2.565.6 1.706 0 2.86-.152 3.445-.455zm-3.31-3.895v-2.85h1.153c1.569 0 2.247.789 2.275 2.645.031 2.065-.693 3.055-2.235 3.055h-1.193v-2.85zm9 3.75c0-.33-.19-.6-.422-.6-.274 0-.367-.21-.265-.6.13-.494.41-.6 1.59-.6 1.03 0 1.484.134 1.615.475.257.67.237.725-.268.725-.25 0-.45.267-.45.6 0 .566.2.6 3.45.6s3.45-.034 3.45-.6c0-.33-.135-.6-.3-.6-.181 0-.3-1.25-.3-3.15s.119-3.15.3-3.15c.165 0 .3-.27.3-.6 0-.527-.2-.6-1.65-.6s-1.65.073-1.65.6c0 .334.2.6.45.6.371 0 .45.55.45 3.15v3.15h-.848c-.815 0-.897-.143-2.152-3.75l-1.305-3.75h-1.598c-1.374 0-1.597.08-1.597.575 0 .317.16.629.357.694.423.141-1.402 5.581-2.051 6.114-.224.184-.406.555-.406.825 0 .397.32.492 1.65.492 1.45 0 1.65-.072 1.65-.6zm.12-3.736c.275-1.098.783-2.363.895-2.23.054.064.312.758.573 1.541l.475 1.425h-1.064c-.98 0-1.05-.058-.88-.736zm15.78 2.986c0-1.24-.061-1.35-.75-1.35-.55 0-.75.16-.75.6 0 .486-.2.6-1.05.6h-1.05v-3c0-1.8.12-3 .3-3 .165 0 .3-.27.3-.6 0-.527-.2-.6-1.65-.6s-1.65.073-1.65.6c0 .334.2.6.45.6.371 0 .45.55.45 3.15 0 2.6-.079 3.15-.45 3.15-.25 0-.45.267-.45.6 0 .562.2.6 3.15.6h3.15v-1.35zm5.1.75c0-.4-.2-.6-.6-.6-.468 0-.6-.2-.6-.907 0-1.07 1.925-5.044 2.56-5.288.242-.093.44-.424.44-.737 0-.481-.228-.568-1.5-.568-1.3 0-1.5.08-1.5.6 0 .33.138.6.306.6.168 0 .017.568-.337 1.261l-.644 1.261-.601-1.173c-.402-.783-.49-1.21-.263-1.286.186-.062.339-.371.339-.688 0-.497-.224-.575-1.65-.575-1.45 0-1.65.073-1.65.6 0 .33.122.6.272.6.15 0 .758.882 1.35 1.96 1.17 2.13 1.49 4.34.628 4.34-.25 0-.45.267-.45.6 0 .539.2.6 1.95.6s1.95-.061 1.95-.6zm-22.832-35.534c2.11-1.091 3.623-4.345 5.426-11.677 2.824-11.487 2.838-17.474.044-18.92-1.436-.742-4.027-.607-5.845.306-.849.426-1.571.803-1.606.838-.073.073-6.087 28.22-6.087 28.49 0 .314 1.793 1.125 3.098 1.4 1.629.343 3.837.15 4.97-.437zm-43.792-.004c1.19-.616 3.547-3.319 3.745-4.295.09-.45 1.253-6.015 2.583-12.367 1.33-6.353 2.446-11.745 2.482-11.983.116-.78-2.166-1.807-4.028-1.812-1.434-.005-1.915.148-3.15 1-3.911 2.694-7.36 11.161-8.193 20.117-.38 4.077-.207 5.94.698 7.568 1.097 1.97 3.863 2.806 5.863 1.772zm-75.276 29.538v-1.8h27.6v3.6h-27.6v-1.8zm183.9 0v-1.8h27.9v3.6h-27.9v-1.8zm-190.422-5.732c-3.62-.604-6.904-3.178-8.2-6.428-.59-1.482-.715-2.335-.72-4.956-.008-3.065.028-3.24 1.125-5.459 1.168-2.362 2.666-3.953 4.576-4.86 3.448-1.636 9.188-1.085 11.139 1.069.862.952 1.357 2.928 1.133 4.522-.297 2.122-.28 2.113-1.924 1.09-2.014-1.25-4.31-1.338-6.307-.24-3.548 1.953-4.066 8.24-.867 10.517 1.423 1.013 4.498 1.18 6.143.335 2.049-1.053 3.302-2.796 4.465-6.208.58-1.703 4.38-18.528 4.221-18.688-.057-.057-.623.157-1.258.475-3.273 1.644-7.816 2.606-11.036 2.338-5.502-.459-9.778-2.804-12.316-6.754C1.583 101.946.703 99.036.277 93.867-.25 87.469.945 81.029 3.7 75.417 7.97 66.72 14.906 61.119 23.812 59.17c2.898-.634 9.01-.631 11.66.005 4.343 1.043 7.658 3.37 8.913 6.257 1.573 3.619 1.021 8.535-1.181 10.525-1.91 1.725-5.424 1.808-8.082.192l-.994-.605 1.039-1.15c1.34-1.483 2.31-4.09 2.31-6.201 0-5.22-4.823-7.35-10.426-4.607-2.215 1.085-5.69 4.356-7.517 7.077-4.47 6.656-6.924 14.908-6.575 22.12.293 6.059 2.059 9.678 5.626 11.531 1.877.975 2.04 1.006 4.802.898 2.422-.095 3.064-.232 4.2-.898.738-.432 1.575-1.044 1.861-1.36.327-.361 1.19-3.502 2.325-8.466.993-4.34 1.805-7.944 1.805-8.007 0-.063 2.362-.115 5.25-.115 3.54 0 5.25.105 5.25.322 0 .513-6.563 30.717-7.388 34-2.89 11.502-8.126 16.8-17.662 17.87-3.042.341-3.285.34-5.472-.024zm31.122-17.488c0-.374 7.602-36.587 8.43-40.155l.33-1.425h11.86l-.424 1.833c-.233 1.009-.384 1.954-.335 2.101.05.147.725-.185 1.501-.737 6.313-4.488 13.253-3.893 14.219 1.22.29 1.54-.406 3.787-1.612 5.195-1.301 1.52-2.54 2.088-4.56 2.088-1.815 0-2.52-.574-3.015-2.458-.617-2.35-.95-2.783-2.21-2.887-1.3-.108-3.864.998-4.9 2.113-.51.548-1.285 3.769-3.957 16.432a5114.997 5114.997 0 0 1-3.48 16.425c-.158.671-.189.675-6.003.675-4.81 0-5.844-.075-5.844-.42zm111 .234c0-.341 12.045-56.66 12.138-56.752.171-.172 11.844-1.68 11.968-1.547.07.074-.87 4.792-2.088 10.485-1.218 5.692-2.215 10.391-2.216 10.442-.001.05.572-.26 1.273-.69 4.29-2.63 8.36-3.99 10.674-3.57 1.867.34 3.734 1.377 5.316 2.956 1.776 1.772 2.73 3.6 3.163 6.056.293 1.664.184 2.367-1.845 11.802-2.348 10.917-2.39 11.535-.842 12.683.99.735 3.163.998 4.527.548.572-.19 1.668-.742 2.436-1.229 1.219-.773 1.396-1.016 1.396-1.916 0-.568 1.351-7.422 3.003-15.232 1.652-7.81 3.08-14.572 3.174-15.025l.17-.825h5.997c5.572 0 5.985.037 5.837.525-.714 2.346-6.181 29.348-6.181 30.527 0 .873.194 1.791.459 2.17.49.698 2.115 1.275 3.59 1.273 1.186-.002 3.854-1.262 5.464-2.58l1.287-1.055v-3.355c.005-11.642 4.752-21.575 12.171-25.465 2.927-1.534 5.386-2.107 9.129-2.128 6.608-.037 9.726 2.29 9.109 6.795l-.19 1.393h-4.574l.108-1.357c.154-1.934-.136-2.767-1.143-3.288-4.402-2.276-9.817 3.517-12.368 13.23-.85 3.238-.938 4.004-.964 8.365-.03 5.19.199 6.382 1.533 7.968 1.177 1.399 2.384 1.893 4.589 1.88 3.235-.019 6.85-1.333 10.017-3.642l1.468-1.07-.221 1.482c-.49 3.29-2.834 6.394-6.062 8.03-4.576 2.319-12.124 2.829-16.173 1.093-1.986-.851-4.117-3.002-5.062-5.107l-.81-1.806-1.807 1.586c-3.143 2.76-5.134 4.175-7.45 5.294-2.055.992-2.459 1.082-4.65 1.04-3.28-.061-5.56-.926-7.394-2.804-.767-.785-1.486-1.848-1.599-2.36-.113-.514-.275-.934-.361-.934-.086 0-1.155.803-2.375 1.784-4.628 3.723-7.525 4.81-11.275 4.228-4.897-.76-7.054-2.767-7.773-7.236-.357-2.217-.08-4.158 1.983-13.866 2.114-9.955 2.113-11.99-.01-13.66-1.239-.974-3.747-.9-5.868.175l-1.628.825-3.607 16.95-3.607 16.95-5.918.081c-3.255.045-5.918-.008-5.918-.117zm58.626-46.726c-1.823-.588-3.042-1.627-3.878-3.305-2.74-5.5 2.866-11.44 8.419-8.917 4.143 1.881 5.173 7.737 1.887 10.724-1.71 1.553-4.349 2.168-6.428 1.498zM47.678 56.067v-2.4h17.7v-18.78l1.35-.657 1.35-.655V53.7l1.238-.092 1.238-.092-.055-10.53-.054-10.53 1.741-.757 1.742-.757 1.56 6.292c.858 3.461 1.632 6.448 1.719 6.637.087.19.127-2.95.09-6.978l-.07-7.324 1.05-.379c.578-.208 1.152-.389 1.276-.401.124-.013.225 1.507.225 3.378 0 1.87.09 7.473.198 12.45l.199 9.049h1.776c.977 0 1.725-.102 1.662-.225-.948-1.85-1.398-3.28-1.558-4.95-.188-1.964-.173-2.025.49-2.03.375-.002.968-.08 1.316-.173.579-.156.652-.015.835 1.61.252 2.222.678 2.852 1.84 2.718 1.197-.137 1.708-1.184 1.532-3.137-.176-1.944-.91-3.359-3.017-5.813-2.492-2.903-2.986-4.098-3.096-7.5-.113-3.462.598-5.55 2.376-6.981 1.547-1.246 3.587-1.468 4.615-.502.864.811 1.632 3.144 1.632 4.955 0 1.13-.087 1.283-.825 1.46a32.19 32.19 0 0 0-1.35.352c-.43.128-.525-.034-.525-.895 0-1.642-.474-2.59-1.296-2.59-1.244 0-1.856 1.034-1.839 3.108.018 2.172.357 2.893 2.701 5.743.95 1.155 2.078 2.842 2.506 3.75.697 1.477.778 2.01.778 5.1 0 2.99-.09 3.62-.67 4.725l-.67 1.275h3.671l-.197-11.625c-.109-6.394-.278-12.915-.375-14.492l-.178-2.867 2.898-.665c2.716-.624 2.962-.636 3.912-.186 1.953.927 2.694 4.065 2.509 10.618-.1 3.52-.21 4.262-.824 5.521-.786 1.614-2.092 2.59-3.476 2.6-1.689.01-1.69.015-1.464 5.795l.207 5.3h7.768l-.184-11.624c-.102-6.394-.262-13.462-.357-15.706l-.171-4.08 1.424-.196c.784-.107 1.465-.155 1.513-.107.049.049.166 5.686.26 12.526.095 6.84.249 13.956.342 15.813l.171 3.375h2.351l-.159-11.925c-.087-6.559-.226-13.767-.308-16.017-.174-4.777-.468-4.394 3.59-4.66 2.646-.174 2.752-.156 3.69.634 1.44 1.21 1.877 3.068 1.877 7.975 0 4.283-.394 6.436-1.376 7.521-.477.527-.48.613-.032 1.108 1.258 1.39 1.506 2.723 1.685 9.064.169 5.997.189 6.152.816 6.241.773.11.581 1.615 2.211-17.341.66-7.673 1.269-14.371 1.354-14.885.14-.854.275-.952 1.54-1.125.762-.105 1.742-.19 2.178-.19h.793l1.439 15.825c.79 8.703 1.51 16.263 1.598 16.8l.16.975h3.764l.21-11.775c.114-6.477.164-12.923.11-14.325l-.1-2.55-1.575-.09-1.575-.092v-4.468h2.054c1.13 0 3.29.087 4.8.195l2.746.195v4.715l-1.603-.188-1.604-.189-.194 2.06c-.107 1.134-.196 7.563-.197 14.287l-.002 12.225h4.713l.22-16.275c.122-8.952.254-16.31.295-16.351.04-.042.702.01 1.469.115l1.394.191-.148 11.135c-.082 6.124-.213 13.396-.291 16.16l-.143 5.025h4.181l-.606-1.164c-1.17-2.243-1.282-4.043-.98-15.644.305-11.683.398-12.347 1.958-14.009 1.951-2.076 5.534-.454 6.763 3.063.467 1.339.515 2.591.432 11.404-.102 10.792-.321 13.137-1.41 15.088l-.72 1.289 2.012-.089 2.01-.088.3-14.6c.166-8.03.392-14.691.503-14.802.226-.227 3.548.45 3.548.722 0 .617 2.48 16.524 2.67 17.13.138.434.331-2.783.462-7.65.123-4.62.264-8.442.313-8.492.05-.051.543.026 1.097.17l1.008.264-.072 11.679c-.04 6.423-.15 12.59-.243 13.704l-.171 2.025h.904c.788 0 .926-.126 1.066-.975.089-.537.915-6.307 1.837-12.824.922-6.516 1.7-11.864 1.727-11.884.029-.02.96.301 2.07.713 1.818.673 2.034.842 2.168 1.684.082.515.633 5.796 1.224 11.736s1.134 10.978 1.206 11.195c.077.234.468.356.957.3l.827-.095.154-10.855c.085-5.97.223-10.922.306-11.005.083-.083.688.087 1.345.378l1.195.529v18.853l1.8.077c2.832.121 3.15.25 3.15 1.278v.895h16.8v4.8h-158.7v-2.4zm29.253-3.075c-1.35-5.762-3.528-14.313-3.762-14.775-.214-.42-.258.704-.15 3.75.087 2.392.157 6.003.158 8.025v3.675h1.957c1.875 0 1.949-.028 1.797-.675zm38.294-4.8c-.122-6.044-.393-7.275-1.677-7.597-1.667-.418-1.67-.404-1.67 6.612v6.46h3.457l-.11-5.475zm11.846 3.63c-.106-1.013-.193-2.296-.193-2.85v-1.005h-4.113l-.192 2.025c-.105 1.113-.192 2.396-.193 2.85l-.002.825h4.885l-.192-1.844zm37.596 1.62c-.086-1.796-3.252-20.423-3.378-19.875-.095.412-.25 5.103-.344 10.425l-.171 9.675h1.952c1.073 0 1.947-.102 1.941-.225zm12.157-1.65c-.118-1.032-.243-1.909-.28-1.95-.207-.235-3.71-.407-3.84-.189-.087.145-.254 1.107-.371 2.139l-.214 1.875h4.918l-.213-1.875zm-23.94-2.631c.243-.51.43-3.991.573-10.702.232-10.813.144-11.624-1.293-11.985-1.279-.321-1.713.482-1.933 3.578-.319 4.475-.285 18.392.047 19.264.251.662.456.774 1.273.695.692-.067 1.077-.313 1.333-.85zm23.328-3.67c-.07-.536-.345-3.472-.611-6.524-.266-3.053-.525-5.594-.575-5.647-.146-.154-.384 1.282-1.037 6.247-.337 2.557-.684 5.08-.771 5.605-.15.895-.098.963.825 1.077 2.34.29 2.308.3 2.17-.757zm-49.938-2.55c-.009-1.367-1.495-16.374-1.636-16.514-.088-.088-.166.233-.173.715-.007.481-.316 4.351-.686 8.6l-.674 7.725h1.586c1.313 0 1.586-.091 1.583-.525zm-28.121-5.104c.45-.397.525-1.03.525-4.447 0-4.98-.175-5.523-1.775-5.523-.654 0-1.278.143-1.386.318-.108.175-.099 2.612.021 5.415l.218 5.097.936-.198c.515-.11 1.172-.407 1.46-.662zm16.343-2.682c.435-.665.532-1.473.532-4.439 0-4.32-.37-5.25-2.09-5.25-.563 0-1.112.142-1.219.314-.106.173-.096 2.535.023 5.25l.216 4.937h1.003c.76 0 1.132-.198 1.535-.812zM25.96 46.692c.12-.207.899-1.253 1.73-2.325C44.372 22.847 71.45 7.695 102.728 2.38c16.15-2.745 33.54-2.692 49.95.152 14.72 2.55 30.188 7.976 42.407 14.874 4.2 2.371 11.67 7.414 15.343 10.358 5.814 4.66 12.71 11.705 17.06 17.427l1.425 1.875-3.093-.02-3.092-.02-1.8-2.244c-2.555-3.186-10.545-10.92-14.303-13.842-18.12-14.096-40.946-22.737-66.397-25.135-5.993-.565-18.543-.648-24.3-.16-33.429 2.832-63.433 16.866-81.439 38.091l-2.824 3.33h-2.961c-2.286 0-2.912-.086-2.744-.375zm13.057-.9c.544-.702 2.816-3.099 5.05-5.327 7.595-7.578 15.528-13.244 25.81-18.435 35.212-17.776 80.014-17.714 115.209.16 10.69 5.429 20.71 12.985 28.567 21.541l2.925 3.186-1.474.09c-1.44.087-1.508.053-2.906-1.5-14.93-16.584-37.655-28.338-63.081-32.627-7.589-1.28-12.17-1.631-21.49-1.647-9.193-.016-13.085.244-20.362 1.36-25.352 3.887-48.328 15.24-63.393 31.323l-2.944 3.143-1.45.004-1.45.004.989-1.275z"/></svg>