<svg xmlns="http://www.w3.org/2000/svg" width="120.362" height="128.947" viewBox="0 0 112.83948 120.8879"><path d="M116.425 61.074c0-43.725.123-61.612.274-39.75.15 21.863.15 57.638 0 79.5-.15 21.863-.274 3.975-.274-39.75zM36.45 119.162c-12.109-2.235-20.203-6.112-22.031-10.553-.687-1.67-1.572-7.197-1.965-12.285l-.716-9.25H8.32c-3.756 0-3.908-.227-6.757-10.088-2.085-7.214-2.14-14.497-.115-15.274.845-.324 1.5-1.813 1.5-3.41 0-1.928 1.12-3.922 3.5-6.228 1.925-1.866 3.464-3.866 3.42-4.446-.042-.58-.305-.491-.582.196-.61 1.512-3.338 1.677-3.338.202 0-1.325 4.923-5.938 6.396-5.993.607-.022 2.972-1.732 5.256-3.799 3.265-2.955 3.95-4.118 3.209-5.444-1.427-2.55 2.886-7.997 5.88-7.425 2.677.512 2.835-.667.759-5.637-2.124-5.083-1.907-6.697 1.617-12.017C32.813 2.054 36.294.074 42.495.074c5.92 0 9.882 2.348 13.033 7.726 1.366 2.33 3.417 4.737 4.559 5.348 1.605.859 1.947 1.75 1.51 3.931-.722 3.616 1.344 5.605 4.222 4.065 1.1-.589 2.977-1.07 4.174-1.07 1.89 0 2.122.451 1.773 3.442-.513 4.397.801 5.051 12.864 6.405 11.21 1.258 14.65 2.918 17.453 8.424 1.185 2.326 2.93 4.776 3.88 5.445 2.439 1.718 5.216 7.985 4.515 10.192-.368 1.16-.015 2.075.941 2.442 3.883 1.49-.383 21.742-5.025 23.857-1.345.613-2.445 1.408-2.445 1.767 0 4.534-3.331 23.766-4.512 26.049-4.151 8.028-16.027 11.74-39.988 12.498-9.799.31-15.463-.042-23-1.433zm34.178-4.149c11.05-1.499 20.552-4.49 23.193-7.302 2.194-2.335 2.597-4.136 4.557-20.346l.63-5.21-10.75.344-10.75.344-.747 2.881c-.644 2.485-1.886 3.327-9.029 6.12-9.77 3.82-14.347 4.027-24.017 1.09-5.954-1.808-7.213-2.585-8.132-5.02-.7-1.855-1.592-2.686-2.507-2.335-.782.3-4.73.825-8.774 1.167l-7.352.622.006 6.603c.007 8.516 1.415 13.466 4.245 14.927 11.425 5.9 32.126 8.462 49.427 6.115zm-15.678-6.36c0-1.748 5.807-3.171 7.212-1.767 1.676 1.676-.112 3.188-3.771 3.188-2.307 0-3.441-.468-3.441-1.42zm-2.5-5.177c-1.65-.209-6.15-.917-10-1.575-3.85-.658-7.788-1.085-8.75-.949-1.207.171-1.75-.428-1.75-1.932 0-1.864.397-2.087 2.75-1.545 1.512.349 9.323.915 17.357 1.257 15.391.656 26.235-.53 30.75-3.364 2.849-1.789 5.226-.304 3.275 2.046-2.961 3.57-23.735 7.313-33.632 6.062zm10.653-14.028c2.01-.332 5.047-1.877 6.75-3.433 2.473-2.258 3.08-3.595 3.012-6.635-.07-3.116-.773-4.397-3.883-7.067-3.92-3.364-7.532-3.48-7.532-.239 0 1.156-1.548 1.568-6.75 1.796-7.08.31-8.639-.663-4-2.496 2.566-1.014 2.597-1.094.47-1.193-1.469-.069-4.073 1.64-7.32 4.803-4.315 4.202-4.994 5.378-4.72 8.17.286 2.92.841 3.443 5.32 5.013 5.202 1.823 12.39 2.317 18.653 1.281zM11.95 79.197c0-.483-.675-1.438-1.5-2.123-1.253-1.04-1.5-.896-1.5.878 0 1.22.638 2.122 1.5 2.122.825 0 1.5-.395 1.5-.877zm22.374-3.466c10.261-8.409 8.785-10.657-6.997-10.657H15.95V80.3l6.873-.389c6.203-.35 7.324-.758 11.501-4.18zm-9.624.263c-2.544-1.481-2.263-6.447.472-8.363 1.223-.856 2.573-1.557 3-1.557 1.356 0 4.778 3.94 4.778 5.5 0 1.833-3.531 5.512-5.25 5.47-.688-.017-2.038-.49-3-1.05zm73.56-3.67c-.104-2.337.24-4.25.764-4.25s.306-1.549-.485-3.442c-1.069-2.557-1.137-3.559-.264-3.899.646-.251-3.775-.216-9.825.078-6.05.294-11.788.94-12.75 1.434-3.188 1.638-2.204 6.61 2.174 10.988l3.924 3.924 8.326-.291 8.326-.292-.19-4.25zm-15.088-.807c-2.699-1.89-2.853-4.562-.393-6.788 2.148-1.944 5.277-2.148 6.97-.455 1.902 1.902 1.459 6.592-.733 7.765-2.566 1.373-3.222 1.315-5.844-.522zm-17.92-12.002c4.546-3.09 14.757-5.4 23.967-5.424 6.526-.016 6.749-.098 6.202-2.277-.376-1.498.136-3.014 1.52-4.5 1.657-1.779 1.77-2.24.548-2.24-.847 0-1.54-.675-1.54-1.5s.707-1.5 1.569-1.5c3.077 0-2.355-5.87-6.368-6.884-7.783-1.964-13.444-2.339-14.31-.948-.63 1.013-1.258 1.066-2.624.22-1.866-1.155-8.266-.712-8.266.573 0 1.766-3.771 4.83-6.751 5.484-1.787.393-3.25 1.128-3.25 1.635 0 .506-2.517.92-5.595.92-5.368 0-9.386-1.44-13.654-4.894-1.532-1.24-1.75-1.21-1.75.24 0 2.13-1.633 2.132-2.825.003-1.781-3.184-12.767.2-14.293 4.401-.707 1.947-.485 2.25 1.65 2.25 1.527 0 2.468.572 2.468 1.5 0 .825-.675 1.5-1.5 1.5s-1.5.482-1.5 1.072c0 .589-.675 1.746-1.5 2.571-.825.825-1.5 2.62-1.5 3.99v2.49l12.907-.212c11.776-.194 13.156-.027 15.75 1.907 4.408 3.286 15.553 3.083 20.645-.377zm-42.216-4.837c-.928-1.118-.48-1.816 2.246-3.5 1.872-1.157 4.263-2.104 5.313-2.104 2.604 0 6.355 2.764 6.355 4.682 0 1.576-1.428 1.525-7.765-.278-1.81-.516-2.14-.32-1.643.976.794 2.068-2.826 2.249-4.506.224zm52.914-2.995c0-1.435.9-3.509 2-4.609 2.153-2.153 4-2.615 4-1 0 .55 1.154 1 2.566 1 1.41 0 3.517.51 4.68 1.132 2.047 1.096 2.055 1.175.243 2.5-2.399 1.754-5.882 1.838-4.876.118.402-.687-.134-.497-1.191.422-1.057.92-3.16 1.981-4.672 2.359-2.473.617-2.75.423-2.75-1.922zM50.71 25.907c3.445-.585 6.496-1.441 6.78-1.902.758-1.225-.596-5.93-1.705-5.93-.521 0-2.835.859-5.142 1.91-2.307 1.05-7.233 2.72-10.945 3.709-3.948 1.052-6.75 2.338-6.75 3.098 0 1.417 5.954 1.12 17.762-.885zM40.95 8.944c0-1.337-2.572-3.87-3.929-3.87-.589 0-1.071.675-1.071 1.5s.542 1.388 1.204 1.25c.663-.137 1.282.313 1.375 1 .307 2.249.41 2.375 1.42 1.75.55-.34 1-1.073 1-1.63z" fill="#e7e7e7"/><path d="M116.425 61.074c0-43.725.123-61.612.274-39.75.15 21.863.15 57.638 0 79.5-.15 21.863-.274 3.975-.274-39.75zm-77.177 58.451c-10.014-1.76-18.354-4.785-22.26-8.071-3.062-2.577-3.298-3.485-4.585-17.63-.598-6.579-.684-6.75-3.411-6.75-3.604 0-4.393-1.064-6.938-9.355-2.517-8.198-2.78-15.172-.605-16.007.825-.316 1.5-1.741 1.5-3.166 0-1.747 1.711-4.421 5.25-8.205 4.8-5.132 4.991-6.31.384-2.365-1.732 1.483-1.84 1.46-1.5-.318.349-1.826 5.367-6.066 12.78-10.796 1.877-1.198 2.89-2.353 2.25-2.567-.64-.213-1.164-1.397-1.164-2.63 0-2.916 4.154-6.853 6.344-6.012 2.165.83 2.174-1.656.025-7.281l-1.63-4.27 3.33-5.495C33.108 1.858 37.133-.355 44.1.315c5.512.53 7.905 2.292 11.547 8.508 1.37 2.338 3.076 4.251 3.79 4.251 1.608 0 2.52 2.202 1.93 4.654-.841 3.495.936 4.715 4.943 3.392 4.492-1.483 5.953-.637 5.4 3.126-.558 3.803 1.033 4.63 10.393 5.402 4.04.333 8.92 1.07 10.846 1.636 3.847 1.134 9 5.413 9 7.474 0 .72 1.556 3.033 3.458 5.138 4.196 4.644 6.164 9.176 4.445 10.238-.792.49-.437 1.12 1.091 1.937 2.057 1.1 2.214 1.73 1.718 6.858-.817 8.427-3.653 16.161-6.382 17.404-2.448 1.116-2.556 1.512-4.298 15.669-1.32 10.731-3.338 14.814-9.032 18.273-8.786 5.338-37.328 8.129-53.7 5.25zm35.466-5.013c12.681-1.883 18.505-4.364 20.565-8.76 1.214-2.593 3.656-17.508 3.667-22.403.002-.902-2.902-1.186-10.997-1.078-10.63.142-11 .22-11 2.353 0 2.704-.85 3.366-8.764 6.832-7.358 3.222-16.026 3.649-24.285 1.196-6.401-1.9-7.951-3.122-7.951-6.268 0-2.082-.334-2.338-2.25-1.723-4.69 1.504-9.379 2.366-13 2.39l-3.75.023.1 7.75c.147 11.429.553 12.316 7.144 15.618 10.4 5.208 31.44 6.903 50.521 4.07zm-19.533-5.633c.518-1.555 5.173-2.79 6.778-1.799 2.114 1.307.056 2.994-3.652 2.994-2.29 0-3.385-.419-3.126-1.195zm-13.232-6.987c-2.475-.587-5.768-1.027-7.317-.978-2.153.069-2.734-.314-2.469-1.625.24-1.182 1.116-1.612 2.817-1.385 1.358.181 9.416.56 17.906.843 15.997.532 25.52-.517 29.83-3.286 2.01-1.29 2.338-1.276 2.874.121.739 1.925.965 1.726-5.141 4.523-4.353 1.994-6.877 2.327-19.5 2.572-7.975.155-16.525-.198-19-.785zm27.33-15.119c3.207-2.448 3.668-3.33 3.652-7-.016-3.62-.532-4.623-3.75-7.282-3.696-3.054-3.816-3.078-12.443-2.497-8.675.584-8.728.604-13.25 5.041-3.586 3.52-4.54 5.155-4.54 7.788 0 2.95.488 3.555 4.25 5.27 3.37 1.534 6.134 1.888 13.331 1.708 8.225-.205 9.427-.49 12.75-3.028zM48.95 73.288c0-.55.712-1.273 1.582-1.607 2.587-.993 11.418-.689 11.418.393 0 .55-2.213 1-4.918 1s-5.63.273-6.5.607c-.87.334-1.582.157-1.582-.393zm-37 6.409c0-.758-.675-1.938-1.5-2.623-1.247-1.034-1.5-.914-1.5.711 0 1.076.3 2.256.667 2.622 1.116 1.117 2.333.747 2.333-.71zm18.664-.501c.64-.342 3.228-2.56 5.75-4.927 7.208-6.766 6.13-8.62-5.642-9.71-4.25-.394-9.313-.418-11.25-.055l-3.522.66v7.289c0 4.008.312 7.6.694 7.982.763.763 12.106-.243 13.97-1.24zm-6.093-3.693c-2.912-2.913-1.104-8.429 2.764-8.429 4.782 0 6.419 5.658 2.442 8.443-2.768 1.94-3.254 1.938-5.206-.014zm74.858.686c.3-.487.041-2.335-.576-4.107-.85-2.439-.835-3.401.063-3.956.91-.563.897-1.367-.058-3.464-1.031-2.263-.997-2.895.199-3.684 1.76-1.163-20.455-.032-23.807 1.212-3.929 1.458-2.6 6.949 2.937 12.134 2.747 2.573 3.508 2.75 11.815 2.75 4.884 0 9.126-.398 9.427-.885zm-16.762-4.782c-1.227-1.227-.684-6.074.82-7.322 2.249-1.866 6.374-.414 7.105 2.502.979 3.898-.149 5.487-3.894 5.487-1.85 0-3.665-.3-4.031-.667zM66.186 59.41c4.477-3.103 14.209-5.246 24.063-5.3 6.088-.032 6.7-.213 5.852-1.728-1.062-1.897 1.41-6.696 2.957-5.74.49.302.89.126.89-.392 0-.519-.9-1.178-2-1.466-2.343-.613-2.703-2.71-.464-2.71 2.098 0 .255-3.436-2.98-5.556-3.767-2.468-15.326-4.068-17.877-2.475-1.544.964-2.188 1-2.475.14-.658-1.974-7.477-.138-10.203 2.746-5.124 5.421-15.708 7.355-22.182 4.052-2.025-1.033-3.965-2.335-4.31-2.893-.94-1.523-2.508-1.22-2.508.486 0 .825-.464 1.5-1.032 1.5-.567 0-1.29-.675-1.607-1.5-1.232-3.213-12.137-.655-14.28 3.35-1.482 2.768-1.378 3.15.86 3.15 2.772 0 3.658 2.03 1.17 2.681-1.148.3-1.874.894-1.61 1.32.262.425-.193 1.329-1.012 2.008-.82.68-1.49 2.53-1.49 4.114v2.877l12.75.007c11.043.006 13.153.273 15.75 1.994 2.317 1.533 4.698 1.988 10.447 1.993 6.443.006 7.965-.353 11.291-2.658zM24.2 55.412c-3.706-1.495 1.136-5.338 6.725-5.338 2.795 0 6.025 2.183 6.025 4.072 0 1.356-2.252 1.139-6.471-.624-2.043-.854-4.236-1.34-4.872-1.08-.814.334-.786.498.093.553.687.044 1.25.754 1.25 1.58 0 1.54-.574 1.715-2.75.837zm51.75-3.615c0-2.004 2.96-5.723 4.557-5.723.793 0 1.443.388 1.443.861 0 .474 1.012.695 2.25.492 2.058-.338 6.674 2.111 5.677 3.013-1.195 1.08-4.927 1.65-4.927.753 0-.606-1.403-.43-3.468.432-4.268 1.783-5.532 1.823-5.532.172zM43.246 37.672c-.989-1.321-1.982-2.224-2.208-2.006-.411.397 2.876 4.408 3.613 4.408.215 0-.417-1.08-1.405-2.402zm9.703 2.01c0-.217-.699-.662-1.552-.99-.89-.34-1.291-.173-.941.394.587.95 2.493 1.405 2.493.595zm-25.75-9.27c-.688-.278-1.813-.278-2.5 0-.688.277-.125.504 1.25.504s1.937-.227 1.25-.504zm21.934-3.853c10.298-2.133 9.918-1.894 8.682-5.44-1.278-3.665-1.87-3.707-9.444-.671-3.257 1.305-8.242 2.954-11.078 3.665-3.562.892-4.997 1.703-4.643 2.626.688 1.79 7.32 1.718 16.483-.18zM40.481 7.175c-.443-1.394-1.505-2.1-3.159-2.1-2.589 0-2.507.652.526 4.194 1.868 2.181 3.562.834 2.633-2.094z" fill="#d7d7d7"/><path d="M116.425 61.074c0-43.725.123-61.612.274-39.75.15 21.863.15 57.638 0 79.5-.15 21.863-.274 3.975-.274-39.75zM38.45 119.098c-11.696-2.069-20.617-5.746-23.089-9.519-1.17-1.785-2.015-5.902-2.534-12.341-.43-5.315-.802-9.776-.829-9.914-.026-.137-1.343-.25-2.926-.25-3.683 0-4.39-.977-6.983-9.655-2.545-8.514-2.804-14.876-.64-15.707.826-.316 1.5-1.567 1.5-2.779 0-1.215 2.274-4.817 5.07-8.031 5.01-5.761 5.727-7.864 1.245-3.654-1.884 1.77-2.314 1.877-2.314.573 0-1.785 4.54-5.747 6.585-5.747.724 0 1.675-.596 2.115-1.324.44-.728 2.265-2.39 4.057-3.693 2.186-1.59 2.926-2.7 2.25-3.376-2.963-2.963 2.36-9.551 6.1-7.55 2.424 1.298 2.559-.868.324-5.19-2.28-4.41-2.056-7.92.793-12.405C33.122 2.319 35.393.778 41.214.363c6.675-.476 9.373.962 13.563 7.232 1.83 2.738 3.968 5.125 4.75 5.302.859.196 1.428 1.582 1.437 3.5.025 5.252 1.25 6.344 5.424 4.835 4.403-1.592 5.877-.767 5.327 2.98-.24 1.64.135 3.365.865 3.97.71.59 5.512 1.433 10.673 1.875 10.617.91 15.099 2.75 17.533 7.196.915 1.67 3.313 5.073 5.33 7.562 3.97 4.895 5.214 7.906 3.664 8.864-.558.344-.023 1.626 1.237 2.968 1.87 1.99 2.13 3.113 1.65 7.155-.9 7.604-4.363 15.79-7.232 17.097-2.081.948-2.487 1.828-2.494 5.404-.004 2.349-.46 7.196-1.015 10.771-2.436 15.71-7.01 19.088-30.477 22.507-12.687 1.848-20.462 1.734-33-.483zm36.944-4.534c11.313-1.706 17.99-4.494 19.978-8.342 1.18-2.287 3.567-17.234 3.575-22.398.003-1.559-1.177-1.75-10.79-1.75H77.362l-.956 3.154c-.818 2.695-1.977 3.565-7.957 5.971-8.117 3.266-17.024 3.756-24.891 1.37-6.109-1.854-7.61-3.08-7.61-6.224 0-1.906-.386-2.336-1.662-1.847-.915.351-4.852 1.13-8.75 1.732-3.898.601-7.654 1.25-8.347 1.441-.945.261-1.092 2.162-.59 7.625 1.04 11.284 1.36 11.952 7.295 15.166 9.56 5.177 32.332 6.99 51.499 4.102zm-19.75-5.13c-1.29-1.29.516-2.36 3.987-2.36 3.054 0 3.386.215 2.319 1.5-1.257 1.514-5.125 2.042-6.306.86zm-14.694-7.895c-3.025-.75-6.329-1.118-7.342-.818-1.393.413-1.75.096-1.465-1.3.295-1.443 1.026-1.738 3.342-1.347 1.63.275 11.515.5 21.965.5 17.462 0 19.35-.175 23.317-2.157 3.604-1.802 4.408-1.919 4.873-.707.756 1.968.504 2.137-7.332 4.902-5.91 2.085-8.588 2.411-19.358 2.356-6.976-.036-14.93-.667-18-1.429zm26-12.988c4.033-2.05 6.185-5.097 6.293-8.91.082-2.903-.591-4.196-3.638-6.987-3.723-3.41-3.773-3.423-11.802-2.993-9.103.486-9.167.51-14.767 5.703-3.445 3.195-4.088 4.408-4.088 7.714v3.924l6.25 2.007c6.837 2.196 16.95 1.983 21.752-.458zm-16.5-16.477c2.806-1.206 10.5-1.206 10.5 0 0 .568-2.703.97-6.25.93-4.418-.05-5.664-.322-4.25-.93zm-38.5 6.969c0-1.118-.695-2.298-1.543-2.624-2.079-.797-2.383-.265-1.373 2.405 1.06 2.804 2.916 2.943 2.916.219zm23.094-3.236c4.96-4.31 6.946-8.093 5.177-9.862-1.224-1.224-18.084-2.386-21.646-1.492-2.564.644-2.625.848-2.625 8.784v8.124l7.111-.66c6.505-.605 7.527-1.022 11.983-4.894zm-11.083-1.22c-1.872-2.255-.414-6.374 2.517-7.11 3.03-.76 5.472 1.033 5.472 4.02 0 4.233-5.33 6.295-7.99 3.09zm75.597 1.065c.3-.782.03-2.386-.6-3.564-.873-1.63-.857-2.492.07-3.607.948-1.143.952-2.045.018-4.096-.953-2.091-.932-2.812.103-3.521 1.775-1.216-22.175.174-24.564 1.426-2.973 1.558-1.513 7.538 2.815 11.534 3.431 3.168 3.75 3.25 12.567 3.25 6.897 0 9.175-.338 9.591-1.422zm-16.941-4.245c-1.105-1.104-.75-5.85.533-7.133 3.092-3.092 8.526.77 7.4 5.26-.523 2.081-1.237 2.54-3.953 2.54-1.822 0-3.614-.3-3.98-.667zm4.333-4.333c0-.55-.199-1-.441-1-.243 0-.72.45-1.06 1-.34.55-.14 1 .442 1 .582 0 1.059-.45 1.059-1zm18.457 7.07c.317-.513.118-1.214-.44-1.56-.56-.345-1.017.074-1.017.931 0 1.757.6 2.015 1.457.628zM66.271 59.4c4.382-2.81 16.102-5.327 24.801-5.327 5.565 0 5.88-.124 4.915-1.93-.838-1.565-.562-2.299 1.464-3.893 3.065-2.411 3.09-2.77.248-3.605-2.012-.592-2.076-.782-.603-1.797 2.061-1.42.695-5.027-2.508-6.618-6.096-3.028-17.246-4.15-19.44-1.957-.932.933-1.2.904-1.2-.132 0-1.75-7.939-.785-9.105 1.106-2.51 4.073-3.553 4.826-6.674 4.826-1.97 0-3.085.41-2.72 1 .618 1-.376 1.214-6 1.29-4.187.056-9.928-2-12.013-4.304-1.66-1.835-4.123-1.824-2.987.014.293.474.072 1.147-.49 1.494-.564.348-1.294-.07-1.624-.93-1.256-3.272-12.133-.773-14.306 3.286-1.487 2.779-1.378 3.15.92 3.15 2.335 0 2.68 1.802.506 2.636-.822.316-1.277.926-1.011 1.356.265.43-.187 1.338-1.006 2.017-.82.68-1.49 2.817-1.49 4.749v3.513l12.49-.711c11.54-.658 12.702-.56 15.303 1.292 5.204 3.706 16.336 3.446 22.53-.525zM23.95 54.574c-1.04-1.253-.896-1.5.877-1.5 1.22 0 2.123.638 2.123 1.5 0 .825-.395 1.5-.878 1.5-.482 0-1.437-.675-2.122-1.5zm6.22-1.406c-4.718-1.873-4.603-3.094.292-3.094 3.13 0 7.159 2.996 5.823 4.331-.838.839-.933.82-6.116-1.237zm45.78-1.483c0-.764.89-2.452 1.98-3.75 1.554-1.854 2.169-2.074 2.862-1.025.485.735 1.732 1.25 2.77 1.145 2.404-.244 6.388 1.016 6.388 2.02 0 .42-1.125.981-2.5 1.244s-2.5.113-2.5-.333c0-.445-1.56-.158-3.468.64-4.332 1.81-5.532 1.822-5.532.059zM43.336 37.543c-.912-1.392-1.894-2.295-2.183-2.006-.481.48 2.625 4.537 3.474 4.537.202 0-.378-1.139-1.29-2.531zm9.53 2.228c-.23-.166-1.767-1.093-3.417-2.059l-3-1.757 2.36 2.06c1.3 1.132 2.837 2.06 3.417 2.06.581 0 .869-.137.64-.304zm1.812-5.301c-.332-.332-1.195-.368-1.917-.079-.797.32-.56.556.605.604 1.054.044 1.644-.193 1.312-.525zm-26.46-4.052c-.677-.274-2.027-.29-3-.037-.973.254-.42.478 1.23.498 1.65.02 2.447-.187 1.77-.46zm22.419-3.913c3.746-.864 7.17-1.92 7.61-2.348.934-.912-1.202-6.083-2.513-6.083-.808 0-22.803 7.113-23.635 7.644-.193.123-.054.703.309 1.29.965 1.561 10.398 1.3 18.229-.503zM40.664 6.989c-1.6-2.562-5.64-2.58-5.448-.025.078 1.04.667 1.689 1.308 1.443.642-.246 1.455.304 1.808 1.222.51 1.332.933 1.427 2.084.472 1.154-.957 1.204-1.581.248-3.112z" fill="#c8c8c8"/><path d="M39.2 118.98c-12.51-2.326-20.918-5.58-23.559-9.116-1.466-1.963-2.09-4.7-2.392-10.474-.576-11.043-.944-12.313-3.57-12.331-3.743-.026-4.917-1.482-7.357-9.13-2.934-9.196-3.087-14.403-.463-15.807 1.186-.634 1.726-1.722 1.427-2.868-.318-1.215 1.234-3.859 4.538-7.731 5.14-6.023 6.098-8.65 1.62-4.445-1.372 1.29-2.495 1.796-2.495 1.125 0-1.522 4.52-6.129 6.014-6.129 2.146 0 10.017-7.369 8.98-8.406-2.969-2.968 1.172-8.271 5.592-7.162 2.958.743 2.954.855.239-8.285-1.21-4.073-1.127-4.653 1.286-9C35.589-2.541 47.75-3.142 54.866 7.945c1.81 2.821 3.92 5.13 4.687 5.13.95 0 1.396 1.214 1.396 3.8 0 5.213 1.49 6.514 5.239 4.576 4.257-2.202 6.129-1.151 5.35 3.004-.565 3.007-.34 3.47 2.14 4.411 1.524.579 6.414 1.265 10.867 1.525 9.316.544 13.829 2.453 16.241 6.87.915 1.674 3.128 4.839 4.92 7.031 3.325 4.071 4.882 7.94 3.86 9.592-.313.507.32 1.728 1.406 2.711 2.476 2.24 2.487 5.184.052 13.966-1.442 5.2-2.7 7.579-5.01 9.478-2.486 2.044-3.092 3.31-3.127 6.535-.083 7.53-2.562 19.52-4.608 22.281-4.54 6.13-9.036 7.838-28.33 10.766-12.13 1.84-18.07 1.717-30.749-.64zm37.068-4.398c18.33-2.763 20.556-5.233 22.256-24.693l.672-7.686-11.126-.314c-10.56-.299-11.126-.213-11.138 1.685-.021 3.155-1.142 4.224-7.514 7.167-7.666 3.54-16.902 4.219-25.098 1.845-7.095-2.055-8.371-3.008-8.371-6.251 0-2.099-.357-2.398-2.25-1.89-1.238.331-5.786 1.166-10.109 1.854l-7.858 1.25.688 8.013c.378 4.407 1.214 9.137 1.858 10.512 3.784 8.08 32.693 12.321 57.99 8.508zm-20.32-5.941c0-1.084.952-1.567 3.084-1.567 3.826 0 3.483 2.356-.41 2.817-1.895.224-2.673-.14-2.673-1.25zm-13-6.775c-2.474-.603-5.962-1.107-7.75-1.12-2.133-.014-3.25-.51-3.25-1.445 0-1.138 1.154-1.299 5.75-.803 17.765 1.918 42.968.46 44.856-2.593.74-1.199 3.395-1.023 3.395.224 0 .58-2.588 2.233-5.75 3.673-5.155 2.347-7.148 2.646-19.25 2.89-7.432.149-15.523-.222-18-.826zm19.869-11.723c6.105-1.18 10.586-5.783 10.586-10.876 0-3.083-.666-4.42-3.477-6.97-3.4-3.086-3.655-3.147-11.477-2.747-4.4.225-8.521.435-9.158.466-.637.032-3.25 2.091-5.807 4.576-4.226 4.107-4.62 4.888-4.342 8.594.294 3.9.524 4.155 5.307 5.895 5.498 2 11.665 2.357 18.368 1.062zM50.449 72.074c2.806-1.206 10.5-1.206 10.5 0 0 .568-2.703.97-6.25.93-4.418-.05-5.664-.322-4.25-.93zm-38.68 6.76c-.176-1.232-1.05-2.378-1.94-2.548-1.246-.237-1.508.282-1.134 2.24.613 3.205 3.528 3.498 3.073.308zm23.584-3.31c6.016-5.194 7.167-8.539 3.596-10.45-1.16-.62-6.302-.95-12.25-.785l-10.25.285-.293 8.388-.292 8.387 6.946-.497c6.574-.47 7.248-.757 12.543-5.328zm-11.204-.65c-1.733-1.732-1.476-4.24.629-6.145 2.58-2.335 5.032-2.055 6.295.719 2.14 4.698-3.35 9-6.924 5.426zm75.785-.05c-.008-1.237-.433-2.91-.943-3.716-.59-.934-.532-1.944.162-2.78.789-.95.773-2.01-.057-3.83-1.464-3.213-1.47-3.178.603-3.814.962-.295-3.853-.296-10.7 0-6.848.294-13.26.968-14.25 1.498-3.049 1.631-2.257 6.381 1.816 10.89l3.617 4.003h9.883c9.588 0 9.883-.068 9.869-2.25zm-17.668-4.367c-.913-2.379.948-6.81 3.028-7.21.992-.192 2.67.436 3.73 1.394 3.63 3.287 1.786 7.433-3.307 7.433-1.685 0-3.082-.654-3.451-1.617zm4.683-3.383c0-.55-.45-1-1-1s-1 .45-1 1 .45 1 1 1 1-.45 1-1zm18.2 4.8c-.933-.933-1.2-.667-1.2 1.2s.267 2.133 1.2 1.2c.933-.933.933-1.467 0-2.4zm-93.393-3.326c-.308-.308-.867.247-1.243 1.233-.543 1.425-.428 1.54.56.56.683-.679.99-1.485.683-1.793zm55.753-9.343c5.801-2.981 16.402-5.13 25.302-5.13 3.382 0 3.713-.244 3.677-2.705-.027-1.866.696-3.076 2.334-3.903l2.373-1.2-2.873-1.52c-2.427-1.283-2.605-1.623-1.148-2.193 1.56-.61 1.586-.944.268-3.494-1.602-3.098-4.897-4.505-14.02-5.99-4.14-.674-6.22-.62-7.192.185-.939.78-1.688.812-2.398.102-1.118-1.118-8.883.356-8.883 1.686 0 .399-.892 1.753-1.982 3.01-1.667 1.923-2.684 2.206-6.409 1.786-2.434-.274-5.93-1.553-7.768-2.843-2.554-1.792-2.988-1.904-1.841-.478.825 1.026 3.075 2.58 5 3.454l3.5 1.588-4.5.33c-5.272.388-11.279-1.361-13.64-3.971-2.022-2.234-3.36-2.371-3.36-.345 0 1.882-1.608 1.966-2.316.12-.719-1.873-7.974-.54-11.542 2.122-3.394 2.53-4.024 5.258-1.215 5.258 2.62 0 2.704 1.665.124 2.484-1.1.35-1.724 1.205-1.432 1.966.284.741.037 1.645-.551 2.008-.587.363-1.068 2.27-1.068 4.236v3.576l12.497-.481c10.07-.388 12.912-.19 14.64 1.02 5.795 4.059 15.743 3.783 24.423-.678zm-44.06-5.13c-.34-.55.308-1 1.44-1 1.133 0 2.06.45 2.06 1s-.649 1-1.441 1c-.793 0-1.72-.45-2.06-1zm8.5-.5c-1.375-.787-3.314-1.446-4.31-1.465-3.247-.064-.663-2.036 2.669-2.036 3.382 0 5.64 1.482 5.64 3.7 0 1.64-.857 1.596-4-.2zm44.775-1.059c-1.026-1.026.453-4.494 2.35-5.509 1.272-.68 1.875-.67 1.875.032 0 .57 1.376 1.035 3.059 1.035 2.08 0 2.828.374 2.336 1.17-.486.787-.178.96.94.531.918-.352 1.665-.155 1.665.439 0 .66-1.005.825-2.596.426-1.45-.365-3.195-.154-3.956.477-.748.621-1.83.839-2.404.484-.574-.355-1.044-.168-1.044.414 0 1.13-1.302 1.424-2.225.501zM43.791 38.074c-2.475-3.348-4.491-4.082-2.865-1.043.857 1.601 3.585 3.88 4.803 4.013.154.016-.718-1.32-1.938-2.97zm10.896-3.69c-.93-.93-2.026-1.356-2.435-.946-.41.41-.083 1.164.726 1.675 2.434 1.54 3.516 1.078 1.709-.73zm-25.988-4c-.963-.25-2.538-.25-3.5 0-.963.252-.175.458 1.75.458s2.712-.206 1.75-.457zm23-3.933c3.987-.832 7.25-1.865 7.25-2.296 0-2.35-2.39-7.103-3.364-6.69-.625.266-6.199 2.153-12.386 4.193-10.301 3.396-13.474 5.508-10.01 6.663 1.96.653 10.604-.22 18.51-1.87zm-9.257-14.365c.35-.567-.051-.735-.941-.393-1.733.664-2.05 1.381-.611 1.381.517 0 1.216-.445 1.552-.988zm-1.204-2.324c.277-.721-.256-2.318-1.184-3.548-1.952-2.589-5.105-2.01-5.105.936 0 1.166.512 1.665 1.37 1.335.755-.29 1.64.175 1.97 1.032.728 1.9 2.265 2.027 2.95.245z" fill="#c1c1c1"/><path d="M39.2 118.98c-12.51-2.326-20.918-5.58-23.559-9.116-1.466-1.963-2.09-4.7-2.392-10.474-.576-11.043-.944-12.313-3.57-12.331-3.743-.026-4.917-1.482-7.357-9.13-2.934-9.196-3.087-14.403-.463-15.807 1.186-.634 1.726-1.722 1.427-2.868-.318-1.215 1.234-3.859 4.538-7.731 5.14-6.023 6.098-8.65 1.62-4.445-1.372 1.29-2.495 1.796-2.495 1.125 0-1.522 4.52-6.129 6.014-6.129 2.146 0 10.017-7.369 8.98-8.406-2.969-2.968 1.172-8.271 5.592-7.162 2.958.743 2.954.855.239-8.285-1.21-4.073-1.127-4.653 1.286-9C35.589-2.541 47.75-3.142 54.866 7.945c1.81 2.821 3.92 5.13 4.687 5.13.95 0 1.396 1.214 1.396 3.8 0 5.213 1.49 6.514 5.239 4.576 4.257-2.202 6.129-1.151 5.35 3.004-.565 3.007-.34 3.47 2.14 4.411 1.524.579 6.414 1.265 10.867 1.525 9.316.544 13.829 2.453 16.241 6.87.915 1.674 3.128 4.839 4.92 7.031 3.325 4.071 4.882 7.94 3.86 9.592-.313.507.32 1.728 1.406 2.711 2.476 2.24 2.487 5.184.052 13.966-1.442 5.2-2.7 7.579-5.01 9.478-2.486 2.044-3.092 3.31-3.127 6.535-.083 7.53-2.562 19.52-4.608 22.281-4.54 6.13-9.036 7.838-28.33 10.766-12.13 1.84-18.07 1.717-30.749-.64zm37.068-4.398c18.33-2.763 20.556-5.233 22.256-24.693l.672-7.686-11.126-.314c-10.56-.299-11.126-.213-11.138 1.685-.021 3.155-1.142 4.224-7.514 7.167-7.666 3.54-16.902 4.219-25.098 1.845-7.095-2.055-8.371-3.008-8.371-6.251 0-2.099-.357-2.398-2.25-1.89-1.238.331-5.786 1.166-10.109 1.854l-7.858 1.25.688 8.013c.378 4.407 1.214 9.137 1.858 10.512 3.784 8.08 32.693 12.321 57.99 8.508zm-20.32-5.941c0-1.084.952-1.567 3.084-1.567 3.826 0 3.483 2.356-.41 2.817-1.895.224-2.673-.14-2.673-1.25zm-13-6.775c-2.474-.603-5.962-1.107-7.75-1.12-2.133-.014-3.25-.51-3.25-1.445 0-1.138 1.154-1.299 5.75-.803 17.765 1.918 42.968.46 44.856-2.593.74-1.199 3.395-1.023 3.395.224 0 .58-2.588 2.233-5.75 3.673-5.155 2.347-7.148 2.646-19.25 2.89-7.432.149-15.523-.222-18-.826zm19.869-11.723c6.105-1.18 10.586-5.783 10.586-10.876 0-3.083-.666-4.42-3.477-6.97-3.4-3.086-3.655-3.147-11.477-2.747-4.4.225-8.521.435-9.158.466-.637.032-3.25 2.091-5.807 4.576-4.226 4.107-4.62 4.888-4.342 8.594.294 3.9.524 4.155 5.307 5.895 5.498 2 11.665 2.357 18.368 1.062zM50.449 72.074c2.806-1.206 10.5-1.206 10.5 0 0 .568-2.703.97-6.25.93-4.418-.05-5.664-.322-4.25-.93zm-38.68 6.76c-.176-1.232-1.05-2.378-1.94-2.548-1.246-.237-1.508.282-1.134 2.24.613 3.205 3.528 3.498 3.073.308zm23.584-3.31c6.016-5.194 7.167-8.539 3.596-10.45-1.16-.62-6.302-.95-12.25-.785l-10.25.285-.293 8.388-.292 8.387 6.946-.497c6.574-.47 7.248-.757 12.543-5.328zm-11.204-.65c-1.733-1.732-1.476-4.24.629-6.145 2.58-2.335 5.032-2.055 6.295.719 2.14 4.698-3.35 9-6.924 5.426zm75.785-.05c-.008-1.237-.433-2.91-.943-3.716-.59-.934-.532-1.944.162-2.78.789-.95.773-2.01-.057-3.83-1.464-3.213-1.47-3.178.603-3.814.962-.295-3.853-.296-10.7 0-6.848.294-13.26.968-14.25 1.498-3.049 1.631-2.257 6.381 1.816 10.89l3.617 4.003h9.883c9.588 0 9.883-.068 9.869-2.25zm-17.668-4.367c-.913-2.379.948-6.81 3.028-7.21.992-.192 2.67.436 3.73 1.394 3.63 3.287 1.786 7.433-3.307 7.433-1.685 0-3.082-.654-3.451-1.617zm4.683-3.383c0-.55-.45-1-1-1s-1 .45-1 1 .45 1 1 1 1-.45 1-1zm18.2 4.8c-.933-.933-1.2-.667-1.2 1.2s.267 2.133 1.2 1.2c.933-.933.933-1.467 0-2.4zm-93.393-3.326c-.308-.308-.867.247-1.243 1.233-.543 1.425-.428 1.54.56.56.683-.679.99-1.485.683-1.793zm55.753-9.343c5.801-2.981 16.402-5.13 25.302-5.13 3.382 0 3.713-.244 3.677-2.705-.027-1.866.696-3.076 2.334-3.903l2.373-1.2-2.873-1.52c-2.427-1.283-2.605-1.623-1.148-2.193 1.56-.61 1.586-.944.268-3.494-1.602-3.098-4.897-4.505-14.02-5.99-4.14-.674-6.22-.62-7.192.185-.939.78-1.688.812-2.398.102-1.118-1.118-8.883.356-8.883 1.686 0 .399-.892 1.753-1.982 3.01-1.667 1.923-2.684 2.206-6.409 1.786-2.434-.274-5.93-1.553-7.768-2.843-2.554-1.792-2.988-1.904-1.841-.478.825 1.026 3.075 2.58 5 3.454l3.5 1.588-4.5.33c-5.272.388-11.279-1.361-13.64-3.971-2.022-2.234-3.36-2.371-3.36-.345 0 1.882-1.608 1.966-2.316.12-.719-1.873-7.974-.54-11.542 2.122-3.394 2.53-4.024 5.258-1.215 5.258 2.62 0 2.704 1.665.124 2.484-1.1.35-1.724 1.205-1.432 1.966.284.741.037 1.645-.551 2.008-.587.363-1.068 2.27-1.068 4.236v3.576l12.497-.481c10.07-.388 12.912-.19 14.64 1.02 5.795 4.059 15.743 3.783 24.423-.678zm-44.06-5.13c-.34-.55.308-1 1.44-1 1.133 0 2.06.45 2.06 1s-.649 1-1.441 1c-.793 0-1.72-.45-2.06-1zm8.5-.5c-1.375-.787-3.314-1.446-4.31-1.465-3.247-.064-.663-2.036 2.669-2.036 3.382 0 5.64 1.482 5.64 3.7 0 1.64-.857 1.596-4-.2zm44.775-1.059c-1.026-1.026.453-4.494 2.35-5.509 1.272-.68 1.875-.67 1.875.032 0 .57 1.376 1.035 3.059 1.035 2.08 0 2.828.374 2.336 1.17-.486.787-.178.96.94.531.918-.352 1.665-.155 1.665.439 0 .66-1.005.825-2.596.426-1.45-.365-3.195-.154-3.956.477-.748.621-1.83.839-2.404.484-.574-.355-1.044-.168-1.044.414 0 1.13-1.302 1.424-2.225.501zM43.791 38.074c-2.475-3.348-4.491-4.082-2.865-1.043.857 1.601 3.585 3.88 4.803 4.013.154.016-.718-1.32-1.938-2.97zm10.896-3.69c-.93-.93-2.026-1.356-2.435-.946-.41.41-.083 1.164.726 1.675 2.434 1.54 3.516 1.078 1.709-.73zm-25.988-4c-.963-.25-2.538-.25-3.5 0-.963.252-.175.458 1.75.458s2.712-.206 1.75-.457zm23-3.933c3.987-.832 7.25-1.865 7.25-2.296 0-2.35-2.39-7.103-3.364-6.69-.625.266-6.199 2.153-12.386 4.193-10.301 3.396-13.474 5.508-10.01 6.663 1.96.653 10.604-.22 18.51-1.87zm-9.257-14.365c.35-.567-.051-.735-.941-.393-1.733.664-2.05 1.381-.611 1.381.517 0 1.216-.445 1.552-.988zm-1.204-2.324c.277-.721-.256-2.318-1.184-3.548-1.952-2.589-5.105-2.01-5.105.936 0 1.166.512 1.665 1.37 1.335.755-.29 1.64.175 1.97 1.032.728 1.9 2.265 2.027 2.95.245z" fill="#aeaeae"/><path d="M45.949 120c-2.475-.545-7.69-1.608-11.588-2.361-10.28-1.987-17.177-5.21-19.099-8.926-.945-1.827-1.793-6.736-2.092-12.106-.276-4.968-1.001-9.363-1.612-9.768-.61-.404-2.294-.741-3.741-.75-2.423-.014-2.84-.683-5.25-8.411C-.577 67.596-.771 63.53 1.824 62.14c1.1-.59 1.875-2.085 1.875-3.624 0-1.773 1.496-4.14 4.625-7.316 4.847-4.921 6.722-9.446 2.125-5.127-1.375 1.292-2.5 1.852-2.5 1.246 0-1.27 2.758-4.246 3.934-4.246.435 0 2.54-1.39 4.678-3.09s4.497-3.43 5.241-3.847c1.125-.63 1.131-1.115.036-2.868-1.159-1.857-1.024-2.422 1.12-4.705 1.807-1.923 3.058-2.439 4.835-1.993 2.183.548 2.348.351 1.849-2.198-.302-1.54-1.108-4.65-1.79-6.91-1.17-3.875-1.071-4.393 1.733-9 3.741-6.146 8.23-8.665 14.33-8.042 3.66.374 5.063 1.15 7.776 4.305a330.123 330.123 0 0 0 6.285 7.07c1.794 1.944 2.979 4.323 2.988 6 .026 4.77 1.118 5.538 5.352 3.77 4.647-1.943 5.986-1.185 5.21 2.947-.792 4.223 1.338 5.262 12.056 5.884 10.464.607 14.647 2.583 18.121 8.557 1.478 2.541 3.718 5.745 4.977 7.12 2.464 2.69 3.8 5.801 2.885 6.717-.311.312-1.516-.51-2.678-1.825-1.858-2.105-1.836-1.972.184 1.108 1.263 1.925 3.152 4.123 4.198 4.885 1.605 1.168 1.8 2.157 1.245 6.334-1.052 7.932-4.386 15.762-7.16 16.817-1.953.743-2.406 1.624-2.409 4.69-.002 2.075-.654 7.78-1.449 12.677-2.356 14.516-6.158 17.644-25.547 21.022-12.319 2.146-24.346 2.748-30 1.502zm36.73-6.258c6.864-1.555 10.489-3.535 12.693-6.932 1.173-1.808 5.013-23.654 4.281-24.357-.112-.108-5.234-.35-11.383-.538l-11.178-.34-.857 2.992c-.671 2.345-2.149 3.617-6.822 5.87-8.254 3.983-16.147 4.536-25.253 1.77-6.837-2.077-8.211-3.276-8.211-7.163 0-1.63-.371-1.737-2.94-.841-1.617.564-6.004 1.329-9.75 1.7l-6.81.677.173 8.353c.095 4.595.7 9.627 1.344 11.182 1.554 3.752 8.302 6.88 18.483 8.568 9.892 1.64 37.301 1.083 46.23-.94zm-26.486-4.918c.484-1.476 5.756-2.322 5.756-.923 0 1.07-2.369 2.173-4.665 2.173-.826 0-1.317-.562-1.091-1.25zm-11.744-6.902c-2.75-.567-6.688-1.092-8.75-1.167-2.469-.089-3.75-.61-3.75-1.525 0-.992.786-1.22 2.75-.798 1.512.324 9.725.865 18.25 1.2 13.463.531 16.42.358 22.5-1.317 3.85-1.061 7.849-2.296 8.886-2.744 1.39-.601 1.766-.453 1.428.561-.253.758-3.126 2.477-6.387 3.82-4.954 2.043-7.897 2.49-17.927 2.722-6.6.153-14.25-.186-17-.752zM68.79 87.953c6.308-5.053 6.801-10.463 1.41-15.448l-3.75-3.467-8.5.346c-9.206.376-11.182 1.084-15.005 5.377-4.62 5.19-4.863 5.726-4.152 9.2 1.041 5.093 6.913 7.255 18.343 6.753 7.307-.32 9.157-.76 11.655-2.76zM51.45 72.074c2.8-1.203 8.5-1.203 8.5 0 0 .55-2.363.968-5.25.93-3.856-.052-4.719-.299-3.25-.93zm-39.5 7.141c0-1.805-1.805-4.14-3.2-4.14-1.067 0-1.009 1.32.198 4.494 1.06 2.79 3.002 2.56 3.002-.354zm16.836 1.279c1.285-.276 4.548-2.57 7.25-5.097 4.951-4.632 6.2-8.063 3.664-10.065-1.618-1.276-14.202-2.275-19.58-1.554l-4.17.56v8.201c0 4.511.193 8.395.43 8.631.507.508 9.058.042 12.406-.676zm-4.265-5.991c-.864-.865-1.571-1.89-1.571-2.278 0-1.451 3.161-5.15 4.402-5.15 1.522 0 4.598 3.182 4.598 4.756 0 1.538-2.87 4.243-4.5 4.243-.747 0-2.064-.707-2.929-1.571zm4.429-3.429c0-.55-.45-1-1-1s-1 .45-1 1 .45 1 1 1 1-.45 1-1zm64.212 6h7.05l-.599-3.687c-.329-2.027-.134-4.245.432-4.928.724-.872.535-2.199-.633-4.459-1.557-3.01-1.556-3.176.02-2.571 1.061.407 1.54.212 1.293-.528-.4-1.2-9.593-1.32-18.775-.245-8.892 1.042-9.003 1.106-8.97 5.187.043 5.628 7.562 13.061 11.802 11.669.732-.241 4.504-.438 8.38-.438zM82.96 70.587c-1.531-1.844-.577-6.082 1.553-6.899 1.95-.748 4.99.784 5.815 2.93 1.595 4.157-4.492 7.435-7.368 3.97zm3.739-4.096c-.953-.953-2.864.59-2.154 1.74.423.682.982.665 1.7-.053.589-.589.793-1.348.454-1.687zm18.45 5.383c-.933-.933-1.2-.667-1.2 1.2s.267 2.133 1.2 1.2c.933-.933.933-1.467 0-2.4zm-93.2-2.918c0-.55-.45-.722-1-.382-.55.34-1 1.068-1 1.618s.45.722 1 .382c.55-.34 1-1.068 1-1.618zm55.18-9.463c6.21-2.804 9.603-3.684 15.626-4.051 13.102-.8 14.293-1.125 13.643-3.714-.434-1.728.052-2.584 2.083-3.671 2.633-1.41 2.637-1.428.62-3.061-1.463-1.184-1.726-1.948-.943-2.731 1.518-1.518-1.539-5.982-5.011-7.318-5.561-2.14-14.432-3.208-16.406-1.975-1.03.643-2.36.869-2.957.5-.595-.368-4.064-.765-7.709-.884-3.644-.118-5.951-.021-5.126.215 4.254 1.218 4.274 1.236 2.99 2.783-.68.818-.923 1.488-.541 1.488.381 0 .019.675-.806 1.5-2.867 2.867-10.738 1.245-15.893-3.275-.986-.864-1.75-1.06-1.75-.448 0 1.413 5.358 5.223 7.345 5.223.845 0 1.815.45 2.155 1 .367.594-.807 1-2.893 1-2.728 0-4.304-.816-7.066-3.66-1.955-2.013-3.821-3.393-4.148-3.067-.93.931.545 2.719 3.966 4.804 3.82 2.33 3.008 2.454-2.262.345-2.168-.867-4.188-2.217-4.489-3-.775-2.02-3.602-1.766-3.64.328-.03 1.615-.14 1.607-1.443-.113-1.287-1.7-1.867-1.754-6.6-.619-7.774 1.865-11.77 6.904-6.675 8.417l2.25.667-2.233.91c-1.445.59-2.025 1.455-1.643 2.45.324.846.092 1.538-.517 1.538-.628 0-1.107 1.759-1.107 4.062v4.062l12.964-.214c9.021-.149 13.412.158 14.436 1.007 4.99 4.142 13.918 3.955 23.78-.498zm-43.68-5.419c-.34-.55.057-1 .882-1s1.778.45 2.118 1c.34.55-.057 1-.882 1s-1.778-.45-2.118-1zm6-1.484l-4-1.275 2.824-.747c2.99-.792 7.676.725 7.676 2.485 0 1.266-1.384 1.167-6.5-.463zm47.5-1.271c0-1.1.562-2.452 1.25-3.005 1.397-1.124 7.75-.468 7.75.8 0 .448.562 1.002 1.25 1.232.687.23.055.237-1.405.015-1.46-.222-2.954.08-3.319.67-.365.592-1.103.805-1.639.473-.536-.331-1.63-.058-2.43.607-1.193.99-1.457.846-1.457-.792zm-22-16.745c-.685-.825-1.977-1.486-2.873-1.468-1.367.027-1.317.266.314 1.5 2.527 1.91 4.154 1.89 2.559-.032zm-23.083-4.141c.229-.198-1.71-.359-4.31-.359-2.673 0-4.474.406-4.148.934.51.825 7.373.358 8.458-.575zm19.083-3.526c8.194-1.574 9.187-2.29 7.78-5.602-.638-1.502-1.412-3.042-1.72-3.422-.308-.38-5.06.838-10.56 2.708-5.5 1.87-10.761 3.419-11.691 3.441-2.121.053-3.168 1.666-2.392 3.687.488 1.273 1.713 1.433 6.839.897 3.434-.358 8.719-1.128 11.744-1.709zm-7.5-14.833c.782-1.265-.542-1.265-2.5 0-1.293.836-1.266.972.19.985.93.008 1.97-.435 2.31-.985zM41.18 9.881c.654-1.963-1.605-5.79-3.422-5.8-1.88-.008-3.15 1.576-3.34 4.17-.1 1.349.255 1.506 1.68.744 1.428-.765 1.684-.649 1.221.556-.404 1.055.038 1.523 1.44 1.523 1.113 0 2.202-.537 2.421-1.193z" fill="#8e8e8e"/><path d="M40.449 118.641c-13.805-2.42-19.579-4.353-23.221-7.775-2.486-2.335-3.037-4.538-4.074-16.292l-.705-8-3.5-.5c-3.378-.482-3.595-.779-6.216-8.5-3.325-9.797-3.54-14.025-.784-15.5 1.141-.61 2-2.094 2-3.454 0-1.474 1.961-4.53 5.132-8 5.373-5.879 5.873-8.068 1.15-5.027l-2.782 1.79 1.905-2.154c1.048-1.185 2.455-2.155 3.127-2.155.673 0 1.834-.736 2.58-1.636.748-.9 3.135-2.758 5.307-4.129 3.525-2.225 3.768-2.625 2.265-3.724-2.269-1.66-2.124-2.749.722-5.422 1.99-1.87 2.767-2.067 4.5-1.14 1.816.973 2.094.843 2.094-.976 0-1.153-.71-4.268-1.578-6.922-1.499-4.582-1.476-5.025.456-8.812C35.057-1.897 46.97-2.99 54.142 7.99c1.819 2.785 4.094 5.324 5.057 5.642 1.174.388 1.755 1.625 1.765 3.76.026 5.375 1.258 6.4 5.348 4.45 2.946-1.405 3.657-1.448 4.628-.277.837 1.007.853 1.933.061 3.412-1.672 3.124 2.008 4.77 12.146 5.428 11.74.763 14.53 2.339 20.053 11.322.963 1.566 2.876 4.377 4.25 6.246 2.639 3.588 3.104 5.102 1.566 5.102-.513 0-1.218-.9-1.567-2-.35-1.1-1.08-2-1.624-2-1.493 0 2.303 6.024 4.874 7.734 2.889 1.921 2.837 4.304-.308 14.261-1.948 6.165-3.096 8.303-4.81 8.955-2.023.769-2.375 1.947-3.493 11.703-1.86 16.217-5.168 21.662-14.724 24.235-4.55 1.225-29.748 5.155-32.284 5.035-.897-.043-7.481-1.103-14.631-2.356zm31-3.083c16.389-1.773 23.273-4.997 25.408-11.899 1.027-3.318 3.396-20.614 2.893-21.117-.167-.167-5.478-.426-11.803-.575l-11.498-.27-.325 2.776c-.273 2.334-1.389 3.28-7 5.939-5.515 2.613-7.891 3.162-13.675 3.162-11.422 0-19.5-3.557-19.5-8.586 0-1.6-.373-1.722-2.627-.866-1.445.55-6.003 1.284-10.13 1.633l-7.503.635.495 8.674c.272 4.77 1.124 9.987 1.893 11.592 3.476 7.251 29.11 11.527 53.372 8.902zm-14.957-6.414c-.684-1.108 4.167-2.693 5.17-1.69.793.793.302 1.213-2.379 2.037-1.191.365-2.447.21-2.79-.347zM45.1 102.015c-10.268-1.83-7.894-2.438 8.17-2.096 12.79.273 17.542-.008 22.68-1.34 3.575-.926 7.062-2.149 7.75-2.717.877-.725 1.25-.682 1.25.145 0 .648-2.55 2.345-5.668 3.772-4.873 2.232-7.289 2.637-17.25 2.892-6.37.164-13.99-.132-16.932-.656zm-12.65-2.94c.34-.55 1.041-1 1.559-1 .517 0 .94.45.94 1s-.7 1-1.558 1c-.858 0-1.281-.45-.941-1zm31.293-8.61c5.079-1.015 9.261-5.282 9.9-10.1.527-3.964.314-4.43-3.631-7.973-4.173-3.745-4.225-3.76-11.866-3.442-8.921.373-11.47 1.472-16.611 7.162-2.745 3.038-3.609 4.748-3.189 6.314.317 1.182.583 2.73.59 3.44.039 3.62 15.43 6.475 24.807 4.6zM52.45 72.075c1.65-.42 3.9-.81 5-.867 1.645-.085 1.734.069.5.866-.825.533-3.075.923-5 .866l-3.5-.103 3-.763zm-40.275 6.933c-.4-3.42-4.225-5.562-4.225-2.368 0 2.473 2.019 5.597 3.318 5.135.65-.232 1.058-1.477.907-2.767zm13.96 2.066c3.365 0 4.722-.745 9.375-5.145 5.48-5.183 6.778-8.5 4.173-10.661-1.731-1.437-17.529-2.5-21.233-1.428-2.675.773-3.035 1.347-3.323 5.3-.178 2.44-.03 6.396.328 8.794.631 4.23.74 4.341 3.698 3.75 1.676-.336 4.818-.61 6.982-.61zm-.985-6.2c-1.837-1.837-1.428-5.608.734-6.765 2.653-1.42 2.798-1.373 4.675 1.49 1.55 2.366 1.54 2.652-.132 4.5-2.05 2.265-3.565 2.487-5.277.775zm3.8-3.8c0-.55-.45-1-1-1s-1 .45-1 1 .45 1 1 1 1-.45 1-1zm70.899 5.622c.828-.998.851-2.148.084-4.167-.794-2.088-.75-2.98.171-3.55.973-.602.964-1.35-.041-3.557-.88-1.932-.94-2.905-.193-3.154.594-.199 1.08-.991 1.08-1.762 0-1.092-1.267-1.3-5.75-.943-3.163.253-8.68.669-12.262.925-9.206.66-9.988 1.1-9.988 5.616 0 4.131 3.588 9.452 7.418 11.001 3.595 1.455 18.189 1.148 19.48-.41zm-16.7-5.822c-.66-.66-1.2-1.94-1.2-2.845 0-2.354 3.4-5.123 5.365-4.369 1.86.714 3.15 4.632 2.275 6.912-.69 1.797-4.753 1.988-6.44.302zm3.8-3.3c0-.825-.423-1.5-.94-1.5-1.261 0-2.164 1.562-1.365 2.36 1.126 1.127 2.306.687 2.306-.86zm18.135 3.846c-.94-1.618-1.077-1.482-1.104 1.104-.022 2.151.269 2.651 1.073 1.846.791-.79.8-1.626.03-2.95zM11.95 69.515c0-.857-.45-1.28-1-.94-.55.339-1 1.04-1 1.558s.45.941 1 .941 1-.701 1-1.559zm54.11-9.31c6.705-3.57 13.82-5.13 23.38-5.13 6.878 0 9.924-1.009 7.526-2.49-1.875-1.16-1.04-3.467 1.484-4.1 3.071-.771 3.264-3.193.34-4.275-1.914-.707-1.963-.875-.43-1.463 1.592-.61 1.552-.917-.488-3.782-2.732-3.837-6.618-5.53-14.819-6.459-4.893-.553-6.512-.401-7.207.677-.567.88-1.171 1.024-1.646.391-.413-.55-4.125-1.053-8.25-1.117-5.9-.093-6.913.085-4.75.833 3.248 1.123 3.37 1.763.883 4.631-2.605 3.003-6.845 2.722-12.437-.825-2.583-1.638-4.696-2.607-4.696-2.155 0 1.319 3.216 3.827 7 5.46l3.5 1.51-3.35.082c-2.557.062-4.178-.747-6.85-3.419-4.876-4.875-7.722-4.706-3.126.186 2.906 3.093.746 2.96-2.992-.186-3.526-2.967-6.702-3.379-5.787-.75.533 1.53.428 1.516-.841-.12-2.597-3.348-12.632-.315-15.165 4.584-1.377 2.663-1.33 2.877.825 3.742 1.886.757 1.961.928.429.98-1.21.042-1.66.576-1.294 1.532.31.808.187 1.7-.273 1.985-1.092.675-2.013 5.55-1.366 7.234.379.987 3.587 1.313 12.9 1.313 10.487 0 12.972.308 16.129 2 5.79 3.103 14.578 2.746 21.37-.87zm-41.61-6.13c-.34-.55-.168-1 .382-1s1.278.45 1.618 1c.34.55.168 1-.382 1s-1.278-.45-1.618-1zm5.5-1.528c-2.96-1.09-3.212-1.403-1.633-2.033 2.223-.886 6.799.545 7.384 2.31.503 1.512-1.1 1.435-5.751-.277zm47-1.919c0-1.987 3.211-4.393 3.745-2.806.262.777 1.427 1.044 3.088.706l2.667-.542-2.328 1.717c-2.922 2.157-7.172 2.705-7.172.925zm-20-14.519c0-1.051-3.225-3.035-4.934-3.035-1.857 0-1.153 1.653 1.184 2.78 2.887 1.392 3.75 1.45 3.75.255zm-24.083-5.674c.229-.198-1.935-.36-4.81-.36-3.236 0-4.99.38-4.606 1.001.547.884 8.261.359 9.416-.641zm16.222-2.93c10.202-1.914 11.24-2.728 9.293-7.297-1.062-2.494-1.887-3.217-3.183-2.788-.962.318-6.58 2.058-12.486 3.866-7.72 2.365-10.74 3.733-10.75 4.871-.007.871.287 1.884.654 2.25 1.11 1.112 7.65.754 16.472-.902zm-5.51-16.135c-.825-.825-3.63.496-3.63 1.708 0 .74.64.724 2.087-.05 1.147-.614 1.841-1.36 1.543-1.658zm-1.66-2.581c-.018-.668-.67-2.057-1.45-3.086-2.045-2.701-6.27-1.502-6.27 1.78 0 1.779.414 2.274 1.54 1.842.954-.366 1.284-.178.869.494-.369.596-.105 1.287.586 1.535 1.695.607 4.764-1.058 4.724-2.565z" fill="#6f6f6f"/><path d="M37.949 118.125c-12.254-2.373-18.805-4.897-21.259-8.19-1.407-1.89-2.29-5.588-3.104-13l-1.137-10.36-3.458-.5c-3.359-.487-3.536-.744-6.207-9-3.38-10.45-3.581-13.993-.835-14.711 1.373-.36 2-1.364 2-3.207 0-1.806 1.635-4.519 5-8.294 2.75-3.085 5-5.875 5-6.2 0-1.176-2.39-.549-4.421 1.161-2.062 1.736-2.064 1.733-.256-.41 1.003-1.188 2.916-2.434 4.25-2.769 1.335-.335 2.427-1.014 2.427-1.508 0-.495 1.687-1.915 3.75-3.155 2.062-1.24 3.935-2.4 4.16-2.575.226-.177-.445-1.266-1.49-2.421-1.88-2.077-1.87-2.128.899-4.51 2.229-1.917 3.196-2.197 4.74-1.37 1.666.891 1.94.704 1.94-1.319 0-1.296-.703-4.423-1.564-6.948-1.478-4.34-1.453-4.809.457-8.552C35.199-2.178 47.087-3.002 54.452 8.512c1.957 3.059 4.22 5.562 5.028 5.562.987 0 1.474 1.065 1.484 3.25.024 4.992 1.285 6.39 4.46 4.943 4.649-2.118 5.854-1.607 5.233 2.218-.489 3.01-.24 3.529 2.12 4.418 1.47.554 6.239 1.27 10.599 1.591 9.406.694 14.24 2.815 17.276 7.58 1.226 1.925 3.527 5.3 5.114 7.5 3.828 5.31 5.15 9.085 1.751 5-1.373-1.65-2.512-2.633-2.532-2.184-.068 1.536 2.204 5.184 5.203 8.354 2.97 3.14 2.987 3.222 1.753 8.5-1.813 7.755-3.722 12.064-6.348 14.33-1.954 1.687-2.57 3.85-3.93 13.8-2.497 18.275-5.056 20.941-23.27 24.244-13.734 2.49-29.203 2.684-40.444.507zm40.978-3.562c10.815-1.793 14.558-3.608 17.05-8.27 1.554-2.908 4.784-22.795 3.84-23.65-.202-.183-5.656-.527-12.118-.765-11.341-.418-11.75-.36-11.765 1.632-.024 3.124-.985 4.06-7.163 6.968-7.735 3.641-13.754 4.203-22.322 2.083-8.419-2.083-9.5-2.848-9.5-6.718 0-2.77-.199-2.932-2.75-2.246-5.676 1.528-10.872 2.391-14.636 2.434l-3.887.043.486 9.284c.267 5.107 1.042 10.324 1.722 11.595 4.38 8.183 34.745 11.969 61.043 7.61zm-21.478-6.489c.34-.55 1.518-1 2.618-1 1.1 0 1.722.45 1.382 1-.34.55-1.518 1-2.618 1-1.1 0-1.722-.45-1.382-1zm-12.5-6.309c-6.358-1.165-6.095-1.204 12-1.779 17.94-.57 23.494-1.425 26.76-4.12 1.288-1.063 1.486-1.052 1.118.062-.246.745-3.087 2.467-6.313 3.828-7.034 2.966-23.097 3.928-33.565 2.01zm-12.5-2.69c.34-.55.816-1 1.059-1 .242 0 .44.45.44 1s-.476 1-1.058 1c-.583 0-.781-.45-.441-1zm34.461-9.48c4.264-2.206 7.039-6.28 7.039-10.335 0-2.801-.786-4.284-3.75-7.073l-3.75-3.53-8.5.295c-9.217.32-10.823.98-16.43 6.752-3.777 3.89-3.924 4.349-2.957 9.186.497 2.486 1.395 3.336 4.75 4.499 5.713 1.98 19.928 2.103 23.598.205zM51.7 72.411c.687-.278 1.812-.278 2.5 0 .687.277.125.504-1.25.504s-1.938-.227-1.25-.504zm-39.142 8.24c.737-1.919-1.326-5.578-3.143-5.578-1.71 0-1.905 2.31-.43 5.066 1.22 2.28 2.807 2.508 3.573.512zm15.091.422c3.66 0 13.3-9.485 13.3-13.086 0-1.538-.423-3.058-.94-3.378-1.957-1.209-19.586-1.734-22.31-.665-2.631 1.033-2.75 1.377-2.75 8.023 0 9.878.352 10.467 5.792 9.721 2.468-.338 5.577-.615 6.908-.615zm-3.364-7.569c-.934-2.433.978-4.93 3.774-4.93 1.99 0 2.39.502 2.39 3 0 2.53-.43 3.049-2.755 3.316-1.876.216-2.964-.226-3.409-1.386zm4.665-2.43c0-.55-.45-1-1-1s-1 .45-1 1 .45 1 1 1 1-.45 1-1zm71.024 5.47c1-1.206 1.016-2.088.072-4.16-.95-2.086-.932-2.794.089-3.425 1.01-.625 1.04-1.452.138-3.84-.632-1.676-.738-3.046-.236-3.046s.913-.678.913-1.506c0-1.268-1.38-1.418-8.75-.953-19.368 1.222-20.69 1.768-19.272 7.96.582 2.54 2.207 5.185 4.454 7.25 3.438 3.157 3.79 3.25 12.43 3.25 6.762 0 9.197-.368 10.162-1.53zm-17.049-6c-.97-1.17-1.004-2.112-.144-4 1.904-4.178 7.169-2.62 7.169 2.122 0 3.386-4.724 4.65-7.025 1.878zm4.525-2.47c.34-.55.352-1.431.027-1.957-.823-1.331-3.527-.132-3.527 1.563 0 1.599 2.576 1.888 3.5.393zm18.485 5.75c-.008-.688-.452-1.926-.985-2.75-.756-1.17-.973-.894-.985 1.25-.008 1.512.435 2.75.985 2.75s.993-.563.985-1.25zm-94-5c-.013-1.82-.201-1.964-.985-.75-1.253 1.938-1.253 3 0 3 .55 0 .993-1.013.985-2.25zM65.53 60.52c6.389-3.315 16.09-5.408 25.17-5.43 6.62-.015 8.846-.912 6.25-2.517-1.7-1.05-1.113-2.491 1.5-3.682 2.824-1.287 3.292-3.577.916-4.488-1.159-.445-1.26-.809-.376-1.355 1.568-.969-1.484-6.362-4.46-7.879-5.501-2.804-17.316-3.96-19.38-1.896-.797.797-1.2.835-1.2.111 0-.688-2.756-1.089-7.49-1.089-4.12 0-7.244.4-6.941.89.302.488 1.408.888 2.458.888 2.097 0 1.725 2.347-.772 4.873-1.916 1.937-7.686.799-11.781-2.325-1.838-1.401-3.89-2.548-4.562-2.548-2.01 0 2.269 4.141 5.838 5.652 3.944 1.669 4.116 2.348.595 2.348-1.795 0-3.883-1.291-6.448-3.988-2.252-2.366-4.06-3.556-4.45-2.926-.361.584.392 2.179 1.675 3.544 2.092 2.227 2.129 2.41.354 1.777-1.087-.388-2.876-1.49-3.976-2.449-2.758-2.404-10.73-2.392-16.194.025-4.988 2.206-7.068 5.778-4.523 7.767 1.113.87 1.205 1.25.301 1.25-.714 0-1.052.642-.75 1.427.3.785-.124 1.984-.944 2.664-.943.783-1.38 2.557-1.19 4.824l.3 3.585 12.5-.315c11.058-.279 12.957-.077 16.461 1.75 5.819 3.033 14.731 2.827 21.12-.488zm-41.08-6.447c-.34-.55-.142-1 .44-1 .583 0 1.06.45 1.06 1s-.199 1-.441 1c-.243 0-.72-.45-1.06-1zm6.2-1.389c-2.09-.648-3.477-1.501-3.083-1.895 1.293-1.293 4.12-.75 6.522 1.25 2.663 2.22 2.02 2.34-3.439.645zm46.3-1.42c0-1.376 2.934-4.778 2.968-3.44.018.687 1.27 1.263 2.782 1.28 2.359.026 2.5.176.992 1.054-.967.563-2.173.767-2.681.453s-1.206-.113-1.551.446c-.748 1.21-2.51 1.356-2.51.207zm23.5.81c-.34-.55-1.293-1-2.118-1s-1.222.45-.882 1c.34.55 1.293 1 2.118 1s1.222-.45.882-1zm-44-17c-1.802-1.992-5.5-2.767-5.5-1.154 0 .98 3.84 2.986 5.905 3.085 1.059.051.959-.425-.405-1.932zm-24-4c.38-.617-1.323-1-4.441-1-2.783 0-5.06.45-5.06 1s2 1 4.442 1 4.719-.45 5.059-1zm23.229-1.605c-.332-.332-1.195-.368-1.917-.079-.797.32-.56.556.605.604 1.054.044 1.644-.193 1.312-.525zm-3.23-2.35c7.554-1.678 7.971-2.103 6.383-6.496-1.067-2.95-1.745-3.593-3.36-3.188-2.127.535-21.18 6.36-23.195 7.09-.67.243-.926 1.366-.598 2.62.544 2.08.966 2.164 8.172 1.639 4.18-.305 9.849-1.054 12.599-1.665zm15-2.046c-.34-.55-1.24-1-2-1s-1.66.45-2 1c-.351.57.51 1 2 1 1.492 0 2.353-.43 2-1zm-24.5-12.5c1.023-1.232.946-1.5-.436-1.5-.964 0-1.392-.467-1.004-1.095.372-.603.098-2.178-.61-3.5-1.353-2.528-4.75-3.204-6.633-1.32-1.453 1.452-.414 5.167 1.264 4.523.882-.339 1.113.028.699 1.107-.382.995-.214 1.363.438.96.58-.359 1.612.017 2.292.836 1.558 1.878 2.425 1.875 3.99-.01z" fill="#575757"/><path d="M37.957 117.917c-11.757-2.149-20.253-5.563-22.01-8.845-.93-1.739-2.833-15.627-2.971-21.688-.015-.654-1.645-1.329-3.623-1.5-3.56-.307-3.623-.392-6.457-8.81C-.65 66.546-.72 64.558 2.389 62.522c1.422-.932 2.21-2.196 1.89-3.031-.634-1.652 1.367-4.97 6.278-10.405 1.9-2.103 3.328-4.244 3.173-4.757-.155-.513 1.288-2.243 3.207-3.844l3.488-2.91-2.238 2.884c-2.664 3.434-2.876 5.615-.547 5.615 1.475 0 1.443.188-.25 1.468-1.348 1.02-1.512 1.478-.536 1.5 1.1.025 1.03.447-.32 1.939-1.101 1.216-1.61 3.117-1.405 5.25l.32 3.343 12.67-.284c11.272-.253 13.035-.06 16 1.746 5.062 3.087 15.324 2.835 21.982-.539 6.39-3.238 16.35-5.383 25.098-5.406 3.822-.01 6.75-.45 6.75-1.017 0-.55.701-1 1.559-1 .857 0 1.28-.45.94-1-.34-.55-1.603-1.014-2.808-1.032-2.116-.03-2.126-.08-.3-1.464 1.041-.787 2.36-1.587 2.93-1.778.638-.212.715-1.094.2-2.286-.461-1.067-.763-2.291-.67-2.72.093-.43-.54-2.152-1.407-3.829-2.622-5.07-6.927-6.227-24.214-6.512-9.3-.153-15.043.114-14.69.685.317.515 1.482.936 2.587.936 1.984 0 1.982.038-.127 3-1.175 1.65-3.024 3-4.108 3-2.242 0-9.437-3.454-10.383-4.986-.345-.557-1.261-1.014-2.037-1.014-2.571 0-.432 2.684 4.332 5.434l4.696 2.711-3.5-.568c-2.331-.378-4.502-1.738-6.5-4.072-1.65-1.928-3.338-3.505-3.75-3.505-1.322 0-.802 2.805.821 4.429 2.785 2.784-.728 1.795-3.685-1.038-1.757-1.683-3.191-2.32-4.04-1.795-.725.447-2.689.695-4.364.55-1.676-.144-4.383.217-6.015.802-2.73.979-2.814.945-1.048-.426 1.86-1.444 1.863-1.553.095-3.506-1.767-1.952-1.765-2.082.058-4.096 1.319-1.457 2.74-1.954 4.745-1.66 2.777.408 2.846.313 2.296-3.17-1.933-12.262-1.946-11.988.812-16.156 1.575-2.38 4.417-4.855 7.035-6.127 4.294-2.086 4.499-2.094 8.996-.377 3.652 1.395 5.317 2.874 8.06 7.164 1.903 2.973 4.126 5.406 4.941 5.406 1.055 0 1.444 1.02 1.349 3.537-.176 4.693 1.332 6.177 4.714 4.636 4.603-2.097 5.807-1.578 5.188 2.238-.488 3.01-.24 3.53 2.12 4.422 1.47.556 6.263 1.3 10.653 1.652 10.295.826 13.96 2.636 18.1 8.937 1.835 2.793 4.245 6.203 5.356 7.578 1.11 1.375 2.028 3.112 2.04 3.86.014.797-.793.382-1.944-1-1.51-1.812-1.974-1.986-2-.75-.018.884 1.782 3.67 4 6.191 4.47 5.078 4.464 4.952.784 16.488-1.251 3.922-2.864 6.85-4.285 7.782-1.921 1.259-2.462 2.938-3.448 10.711-1.687 13.302-2.814 16.684-6.93 20.797-4.02 4.016-7.077 4.94-24.654 7.454-12.784 1.829-19.496 1.686-32.492-.69zm41.48-3.312c10.163-1.836 14.178-3.781 16.653-8.066 1.748-3.026 4.686-22.971 3.551-24.106-.34-.34-5.792-.674-12.114-.74l-11.494-.119-.292 2.5c-.232 1.987-1.725 3.219-7.273 6-6.179 3.098-7.786 3.48-14 3.327-3.986-.099-9.18-.98-12.02-2.041-4.47-1.67-5.033-2.218-5.32-5.175-.278-2.866-.611-3.224-2.5-2.685-1.198.342-5.78 1.155-10.18 1.806-4.4.652-8.238 1.52-8.53 1.93-.291.41-.226 4.644.144 9.41.487 6.266 1.217 9.395 2.635 11.297 5.78 7.758 36.204 11.095 60.74 6.662zm-22.488-5.914c0-.211.9-.619 2-.907 1.1-.287 2-.115 2 .384 0 .498-.9.906-2 .906s-2-.172-2-.383zm-6-6.266c-11.235-1.695-10.778-1.855 7-2.444 10.175-.338 19.625-.93 21-1.318l2.5-.704-2.602 1.512c-4.67 2.713-19.255 4.258-27.898 2.954zm31-4.76c0-.19.675-.906 1.5-1.59.864-.718 1.5-.816 1.5-.23 0 .558-.675 1.274-1.5 1.59-.825.317-1.5.42-1.5.23zM70.067 87.192c3.172-3.172 3.882-4.59 3.881-7.75 0-3.156-.691-4.537-3.75-7.503l-3.75-3.635-7.5.441c-10.79.635-11.508.89-16.49 5.872-3.496 3.496-4.506 5.234-4.494 7.733.008 1.773.346 3.74.75 4.372 1.723 2.69 7.906 4.19 17.603 4.27l9.867.082 3.883-3.882zm-57.51-6.54c.737-1.919-1.326-5.578-3.143-5.578-1.71 0-1.905 2.31-.43 5.066 1.22 2.28 2.807 2.508 3.573.512zm23.077-4.454c4.165-3.7 5.215-5.261 5.26-7.815.03-1.755-.387-3.464-.926-3.797-1.642-1.015-17.49-1.834-21.375-1.105l-3.644.684v8.288c0 4.558.335 8.622.744 9.031.409.41 3.892.428 7.74.041 6.48-.65 7.38-1.044 12.2-5.327zm-11.35-2.693c-.934-2.433.978-4.93 3.774-4.93 1.99 0 2.39.502 2.39 3 0 2.53-.43 3.049-2.755 3.316-1.876.216-2.964-.226-3.409-1.386zm4.665-2.43c0-.55-.702-1-1.56-1-.857 0-1.28.45-.94 1 .34.55 1.041 1 1.559 1 .517 0 .94-.45.94-1zm71.695 5.352c.348-.906.156-2.91-.426-4.452-.773-2.046-.75-2.91.086-3.196.858-.294.853-1.184-.018-3.549-.959-2.601-.915-3.156.25-3.156 1.577 0 1.906-1.577.51-2.44-1.652-1.021-26.04 1.148-27.617 2.456-2.427 2.015-.827 7.875 3.34 12.234l3.586 3.75h9.828c8.205 0 9.933-.272 10.46-1.647zM83.57 70.553c-1.963-1.964-2.002-2.576-.305-4.896 2.606-3.564 8.425.43 6.072 4.167-1.502 2.385-3.818 2.678-5.767.729zm3.879-3.493c0-2.143-2.906-1.833-3.327.355-.258 1.336.15 1.744 1.486 1.486 1.012-.195 1.84-1.023 1.84-1.84zm18.43 6.764c-.04-.687-.422-2.149-.85-3.248-.666-1.706-.85-1.523-1.257 1.25-.333 2.272-.078 3.248.85 3.248.73 0 1.295-.562 1.257-1.25zm-93.437-5.76c-.865-1.4-2.452.504-2.478 2.974-.013 1.221.254 1.196 1.603-.154.892-.891 1.285-2.158.875-2.82zm46.972-30.941c-1.119-.454-2.637-1.55-3.372-2.437-1.58-1.903-5.45-2.191-4.851-.362.224.688 1.95 1.787 3.833 2.444 3.885 1.354 7.594 1.653 4.39.355zM32.95 31.074c0-.55-2.25-1-5-1s-5 .45-5 1 2.25 1 5 1 5-.45 5-1zm23.442-1.907c.308-.498-.34-.67-1.44-.383-2.336.61-2.63 1.29-.561 1.29.792 0 1.693-.408 2.001-.907zm-5.842-1.58c4.276-.819 8.19-1.902 8.696-2.409 1.292-1.292-1.106-8.104-2.853-8.104-.772 0-3.1.66-5.173 1.466-2.074.807-7.117 2.377-11.209 3.489-8.293 2.255-9.413 2.964-8.487 5.378.829 2.16 8.307 2.23 19.026.18zm16.445-3.485c-.878-.542-2.237-.453-3.491.23-2.005 1.093-1.994 1.135.446 1.78 2.974.784 5.195-.681 3.045-2.01zM42.397 13.71c3.105-2.877 3.218-3.622.438-2.895-1.799.47-1.975.27-1.18-1.344.701-1.428.408-2.436-1.189-4.087-1.821-1.883-2.454-2.023-4.49-1-3.02 1.519-3.685 6.096-.773 5.335 1.83-.479 1.841-.407.225 1.38-1.635 1.805-1.586 1.875 1.158 1.68 2.23-.159 2.798.183 2.569 1.546-.39 2.32.195 2.21 3.242-.615zM32.95 53.074c-.825-.533-2.625-.99-4-1.015-2.276-.042-2.334-.142-.641-1.126 2.054-1.193 6.64.27 6.64 2.12 0 1.242-.108 1.243-2 .021zm44.015-1.715c.044-2.269 1.721-3.182 4.485-2.443 1.998.534 2.517 1.03 1.643 1.57-.702.433-1.53.534-1.841.223-.31-.31-1.406-.115-2.434.435-1.027.55-1.861.647-1.853.215z" fill="#464646"/><path d="M38.449 117.92c-13.397-2.362-21.06-5.596-22.61-9.543-.605-1.541-1.3-5.728-1.543-9.303-.822-12.057-1.121-12.998-4.142-13.015-3.926-.022-4.509-.742-6.872-8.485C-.279 65.906-.324 65.347 2.115 62.908c1.208-1.208 2.238-3.136 2.288-4.284.106-2.425 5.007-9.191 7.701-10.633 1.015-.543 1.845-1.787 1.845-2.765 0-.978 1.431-3.1 3.18-4.715l3.18-2.937-2.18 2.885c-2.407 3.185-2.831 5.615-.98 5.615.887 0 .907.293.078 1.122-.617.617-.884 1.742-.593 2.5.29.758.005 1.378-.636 1.378-.751 0-1.055 1.507-.857 4.25l.308 4.25h13c10.495 0 13.616.337 16.2 1.75 5.24 2.865 14.757 2.36 22.438-1.192 6.206-2.87 17.28-5.022 26.184-5.09 6.191-.047 10.167-3.823 4.261-4.047-1.459-.055-1.639-.253-.601-.66 2.743-1.077 4.238-3.254 3.457-5.037-.415-.948-.661-2.298-.547-3 .481-2.96-4.028-7.207-9.203-8.67-5.784-1.633-33.093-2.017-32.125-.45.304.493 1.413.896 2.463.896 1.287 0 1.722.49 1.334 1.5-.817 2.13-2.473 1.869-6.364-1.002-2.052-1.514-3.754-2.141-4.308-1.587-1.453 1.453.08 2.94 4.353 4.22 2.177.652 3.958 1.564 3.958 2.027 0 1.814-4.84.695-9.34-2.158-4.86-3.083-6.66-3.656-6.66-2.122 0 1.223 2.134 2.866 6.646 5.119 2.284 1.14 3.12 1.94 2.054 1.963-2.782.062-7.226-2.587-9.075-5.409-.92-1.403-2.11-2.55-2.648-2.55-1.374 0-1.218 3.358.223 4.8.66.66.863 1.2.452 1.2s-1.876-1.219-3.255-2.707c-2.074-2.237-2.823-2.51-4.324-1.571-1.045.652-2.19.76-2.696.255-.504-.504-2.531-.507-4.75-.006-2.73.615-3.559.56-2.81-.189.748-.748.416-1.606-1.128-2.908l-2.19-1.847 2.5-2.036c1.617-1.317 3.422-1.87 5.107-1.568 2.581.464 2.597.429 1.668-3.728-2.1-9.404-2.064-11.491.27-15.266 2.859-4.627 7.434-7.421 12.159-7.426 5.513-.006 8.505 1.8 11.769 7.105 1.615 2.624 3.826 5.248 4.915 5.83 1.328.712 1.951 2.036 1.895 4.026-.047 1.631.441 3.6 1.084 4.374.643.774.922 2.048.622 2.831-.383.999.184 1.41 1.9 1.377 3.173-.06 4.19-1.144 2.729-2.906-.914-1.101-.819-1.541.44-2.024 3.098-1.189 3.676-.674 3.042 2.708-.805 4.291 1.134 5.306 11.76 6.152 11.934.951 14.858 2.507 20.473 10.894 6.506 9.719 6.905 10.474 4.34 8.224-4.434-3.889-1.26 3.47 3.466 8.034 1.942 1.876 2.093 2.622 1.27 6.28-1.88 8.369-4.511 14.593-6.559 15.514-1.745.786-2.3 2.698-3.724 12.846-1.754 12.498-2.912 15.813-6.78 19.415-3.435 3.197-6.367 4.051-21.598 6.287-16.458 2.416-20.413 2.402-34.747-.125zm37.772-2.767c18.043-2.944 20.781-5.38 22.746-20.237 1.868-14.124 2.526-13.342-11.226-13.342H76.034l-.293 2.5c-.232 1.983-1.721 3.219-7.196 5.97-6.114 3.074-7.717 3.452-14 3.306-4.027-.093-9.259-.963-12.096-2.012-4.432-1.636-5.036-2.211-5.313-5.055-.173-1.765-.398-3.193-.5-3.173-.103.02-4.912.842-10.687 1.828-12.19 2.081-11.984 1.786-10.025 14.412 1.325 8.541 3.204 10.958 10.364 13.337 13.13 4.36 32.466 5.316 49.933 2.466zm-18.522-6.741c.687-.278 1.812-.278 2.5 0 .687.277.125.504-1.25.504s-1.938-.227-1.25-.504zm-9.62-6.363c-10.638-1.47-8.31-2.089 6.902-1.835 7.958.133 16.493-.063 18.968-.435 4.437-.668 4.458-.658 1.486.715-3.912 1.808-19.226 2.679-27.355 1.555zm35.37-5.975c.34-.55.816-1 1.059-1 .242 0 .44.45.44 1s-.476 1-1.058 1c-.583 0-.781-.45-.441-1zm-20.243-5c2.126 0 4.089-1.11 6.86-3.882 3.188-3.188 3.883-4.583 3.883-7.797 0-3.209-.677-4.573-3.75-7.563l-3.75-3.648-8.33.453c-9.672.525-11.353 1.212-16.42 6.709-2.673 2.9-3.75 4.969-3.75 7.207 0 4.198 1.621 5.93 7 7.473 2.475.71 4.95 1.45 5.5 1.643.55.193 2.975.139 5.39-.122 2.414-.26 5.73-.473 7.367-.473zm-50.257-11.3c0-2.545-1.697-4.7-3.7-4.7-1.368 0-1.72 2.745-.693 5.418.974 2.54 4.393 1.98 4.393-.718zm22-2.62c5.34-4.483 7.123-7.57 6.051-10.474-.955-2.59-4.095-3.334-14.72-3.488-11.603-.168-11.331-.39-11.331 9.322 0 4.525.337 8.57.75 8.99.412.421 3.9.464 7.75.096 6.157-.588 7.542-1.124 11.5-4.446zm-10.665-3.649c-.934-2.433.978-4.93 3.774-4.93 1.99 0 2.39.502 2.39 3 0 2.53-.43 3.049-2.755 3.316-1.876.216-2.964-.226-3.409-1.386zm4.665-2.43c0-.55-.675-1-1.5-1s-1.5.45-1.5 1 .675 1 1.5 1 1.5-.45 1.5-1zm71.695 5.352c.348-.906.156-2.91-.426-4.452-.773-2.046-.75-2.91.086-3.196.858-.294.853-1.184-.018-3.549-.959-2.601-.915-3.156.25-3.156.777 0 1.413-.675 1.413-1.5 0-1.744-1.78-1.804-16.77-.562-5.683.471-10.966 1.428-11.827 2.143-2.461 2.042-.869 7.784 3.374 12.17l3.629 3.75h9.828c8.205 0 9.933-.273 10.46-1.648zm-17.03-5.832c-2.195-2.194-.707-6.02 2.34-6.02 3.016 0 4.873 2.882 3.383 5.25-1.492 2.367-3.814 2.68-5.724.77zm4.144-3.27c-.185-.963-1-1.75-1.81-1.75s-1.623.787-1.809 1.75c-.236 1.227.304 1.75 1.81 1.75s2.046-.523 1.81-1.75zm17.688 4.072l-.757-2.823-.827 2.914c-.937 3.297-.227 5.3 1.327 3.746.589-.589.697-2.196.257-3.837zm-97.497.118c0-.857-.457-1.276-1.016-.93-.56.345-.758 1.046-.441 1.558.857 1.387 1.457 1.129 1.457-.628zm4.55-3.361c-1.007-1.628-2.55-.3-2.55 2.193 0 1.986.127 2.028 1.618.537.89-.89 1.31-2.118.931-2.73zm20.95-37.08c.374-.605-1.01-1-3.5-1s-3.874-.395-3.5-1c.34-.55.231-1-.241-1-1.083 0-3.26 2.137-3.26 3.2 0 1.167 9.77.981 10.5-.2zm23.5-2c0-1.253-1.061-1.253-3 0-1.213.784-1.07.972.75.985 1.237.008 2.25-.435 2.25-.985zm-3.181-2.012c2.925-.65 5.54-1.762 5.812-2.469.271-.707-.17-2.872-.98-4.81l-1.472-3.525-6.638 2.409c-3.65 1.325-9.54 3.138-13.089 4.03-6.593 1.656-6.937 1.949-5.795 4.926.571 1.488 1.722 1.642 8.75 1.168 4.451-.3 10.486-1.078 13.412-1.729zm-11.11-13.356c2.648-2.303 3.033-4.13.68-3.228-1.178.452-1.448.191-1.003-.967.334-.872-.025-2.219-.8-2.993-.774-.775-1.614-1.979-1.867-2.676-.856-2.36-6.15 1.395-6.392 4.533-.138 1.798.173 2.508.9 2.058.72-.444.89-.105.481.958-.48 1.254-.104 1.59 1.58 1.415 1.7-.178 2.195.277 2.138 1.968-.079 2.34.54 2.185 4.282-1.068zm-11.608 38.9c-1.87-.676-2.92-1.526-2.334-1.888 1.362-.842 6.233.98 6.233 2.331 0 .564-.113.971-.25.906-.138-.066-1.78-.673-3.65-1.349zm46.788-2.324c.742-1.388 1.762-1.806 3.564-1.462 1.388.266 2.263.905 1.944 1.421-.32.516-1.102.75-1.739.521-.637-.23-1.98.006-2.984.523-1.587.818-1.69.687-.785-1.003z" fill="#373737"/><path d="M39.949 118.044c-5.775-.984-13.094-2.765-16.264-3.957-7.428-2.793-8.786-5.33-9.612-17.945-.558-8.53-.837-9.578-2.624-9.846-5.411-.811-6.5-1.348-6.5-3.204 0-1.07-.9-4.227-2-7.018-2.681-6.802-2.661-12.576.048-14.026 1.335-.714 1.851-1.715 1.483-2.876-.59-1.86 3.856-8.28 7.502-10.833 1.082-.758 1.967-2.169 1.967-3.134 0-.966 1.46-3.078 3.246-4.694 2.617-2.367 2.81-2.44.998-.37-1.613 1.842-2.156 3.538-1.92 6 .183 1.888-.07 3.964-.56 4.613-.492.65-.752 2.9-.579 5l.315 3.82h13c10.495 0 13.617.337 16.2 1.75 4.952 2.708 15.799 2.39 21.478-.63 5.452-2.898 13.063-4.62 20.428-4.62 6.251 0 14.394-1.782 14.394-3.15 0-.503-1.013-1.321-2.25-1.819-1.238-.497-1.655-.933-.929-.967 2.106-.102 4.229-2.77 3.569-4.49-.332-.865-.964-1.574-1.403-1.574-.44 0-.584-.826-.32-1.836.876-3.35-4.145-7.92-9.953-9.06-6.426-1.262-31.933-1.267-31.154-.007.307.497 1.206.903 1.999.903.792 0 1.44.675 1.44 1.5 0 2.202-1.866 1.839-5.74-1.115-2.348-1.792-3.752-2.292-4.457-1.588-1.566 1.567-.134 3.023 4.272 4.343 2.539.76 3.642 1.544 3.034 2.152-1.284 1.284-6.503-.593-10.835-3.897-1.872-1.428-3.696-2.305-4.053-1.948-1.158 1.158 1.328 4.008 5.156 5.913 2.056 1.022 3.502 2.095 3.213 2.384-1.058 1.058-6.366-1.951-8.477-4.807-1.195-1.615-2.608-2.937-3.142-2.937-1.391 0-1.197 3.371.28 4.86 1.002 1.009.898 1.124-.528.582-.978-.373-2.238-1.537-2.8-2.588-.863-1.611-1.892-1.85-6.567-1.517-4.704.333-5.916.048-8.001-1.885l-2.458-2.277 2.274-2.119c1.62-1.51 3.035-1.95 4.927-1.535 2.647.582 2.651.573 1.77-3.719-2.208-10.758-2.217-10.53.605-15.345C36.4-1.67 48.638-1.425 54.317 9.009c1.463 2.687 3.557 5.074 4.72 5.378 1.564.409 1.93 1.056 1.45 2.567-.356 1.12.061 3.379.936 5.07.892 1.726 1.132 3.05.552 3.05-.565 0-1.026.36-1.026.802 0 .44 1.575.846 3.5.9 3.477.1 4.837-1.758 2.393-3.268-1.268-.784.708-2.393 2.968-2.419 1.002-.011 1.197.863.738 3.31-.809 4.31 1.153 5.329 11.9 6.186 10.759.857 15.275 3.11 18.99 9.472 1.612 2.76 3.19 5.017 3.505 5.017.316 0 1.379 1.463 2.361 3.25 1.25 2.274 1.318 2.671.226 1.323-.858-1.06-1.862-1.625-2.231-1.256-.946.945 2.792 7.66 4.9 8.804 2.33 1.264 2.22 4.811-.423 13.73-1.613 5.443-2.768 7.62-4.448 8.386-1.824.83-2.399 2.136-2.93 6.648-2.035 17.284-4.934 25.208-10.24 27.982-3.86 2.019-30.225 6.231-37.633 6.013-2.242-.066-8.801-.926-14.576-1.91zm35-2.514c5.225-.844 11.209-2.045 13.298-2.668 3.712-1.108 9.666-6.655 9.738-9.073.02-.668.639-5.715 1.375-11.215.737-5.5 1.159-10.313.938-10.696-.22-.384-5.755-.609-12.3-.5l-11.898.196-.53 2.644c-.415 2.074-1.96 3.342-7.16 5.875-7.744 3.773-15.421 4.275-24.404 1.597-5.822-1.736-7.018-2.817-7.042-6.366-.008-1.237-.128-2.234-.265-2.215-.138.02-4.975.832-10.75 1.805l-10.5 1.77.11 7.506c.17 11.547 1.554 14.612 7.913 17.523 10.527 4.82 34.35 6.586 51.477 3.817zm-17.188-7.139c.722-.289 1.585-.253 1.917.079.332.332-.258.569-1.312.525-1.165-.048-1.402-.285-.605-.604zm-8.193-6.414c-12.42-1.31-10.37-2.223 3.38-1.505 7.138.373 15.049.223 18.44-.35 6.8-1.15 8.642-.651 2.912.788-6.106 1.534-16.186 1.97-24.732 1.067zm18.96-12.972c3.608-2.206 5.42-5.69 5.42-10.415 0-2.614-.857-4.209-3.75-6.97l-3.75-3.579-8.82.452c-9.327.478-10.018.772-15.93 6.776-3.85 3.912-4.111 4.52-3.774 8.805.265 3.366 1.19 4.152 7.3 6.208 6.613 2.224 18.655 1.564 23.303-1.277zm-55.58-9.102c0-1.194-.658-2.9-1.464-3.79-1.287-1.422-1.287-1.963 0-4.443.806-1.554 1.465-3.223 1.465-3.71 0-1.357-2.016-1.052-2.414.364a512.05 512.05 0 0 1-1.581 5.357c-1.471 4.91-.615 8.393 2.062 8.393 1.317 0 1.933-.692 1.933-2.171zm13.55 1.51c4.03-.553 5.705-1.512 10.14-5.807 5.583-5.409 6.187-6.951 3.93-10.04-1.146-1.565-3.026-1.961-10.964-2.308-5.27-.23-10.723-.133-12.118.218-2.462.617-2.537.884-2.537 8.95 0 4.573.3 8.615.667 8.981.846.847 4.727.849 10.882.005zm-1.918-7.857c-.752-1.96.96-5.488 2.654-5.467 2.392.03 3.884 1.752 3.552 4.098-.414 2.93-5.202 3.985-6.206 1.369zm4.177-2.557c-.197-.591-.786-1.075-1.308-1.075-.523 0-1.111.484-1.308 1.075-.198.591.391 1.075 1.308 1.075s1.505-.484 1.308-1.075zm71.58-1.175c-.062-4.262.276-7.75.75-7.75s.862-.675.862-1.5c0-1.732-2.375-1.816-17.303-.612-11.383.917-13.309 2.054-12.32 7.275.346 1.836 2.195 5.04 4.108 7.122l3.477 3.786 10.27-.286 10.268-.285-.112-7.75zm-16.138 1.588c-2.453-.99-.827-7.338 1.878-7.338 1.011 0 3.872 2.956 3.872 4 0 1.06-2.894 4.03-3.822 3.921-.373-.043-1.24-.306-1.928-.583zm3.56-4.088c-.186-.962-1-1.75-1.81-1.75s-1.624.788-1.81 1.75c-.236 1.228.304 1.75 1.81 1.75s2.046-.522 1.81-1.75zm18.154 7.293c.958-1.154.88-1.928-.377-3.722-1.047-1.494-1.592-1.764-1.6-.793-.009.81-.286 2.485-.617 3.722-.682 2.543.773 2.988 2.594.793zM7.95 71.515c0-.857-.457-1.276-1.016-.93-.56.345-.758 1.046-.441 1.558.857 1.387 1.457 1.129 1.457-.628zm25.5-40.44c.368-.597-.843-1-3-1-2.158 0-3.369-.405-3-1 .34-.55.007-1-.741-1-1.49 0-3.76 1.931-3.76 3.2 0 1.166 9.77.98 10.5-.2zm24-2c.738-1.195-1.222-1.195-4 0-1.786.767-1.712.866.69.929 1.48.039 2.97-.38 3.31-.93zm-6.197-1.39c8.486-1.643 9.268-2.351 7.732-7.005-.65-1.968-1.55-3.806-2-4.084-.45-.278-2.78.35-5.176 1.395-2.398 1.045-8.072 2.89-12.61 4.101-8.314 2.218-8.746 2.524-7.642 5.4.769 2.004 9.876 2.092 19.696.192zM42.04 14.326c3.18-3 3.81-4.812 1.344-3.866-1.201.461-1.418.137-.932-1.393.348-1.097.205-1.994-.318-1.994s-1.186-.9-1.474-2c-.543-2.076-3.209-2.604-5.578-1.103-1.58 1-2.562 7.103-1.144 7.103.522 0 .654.788.293 1.75-.568 1.516-.436 1.571.988.414 2.1-1.707 3.995-.571 3.204 1.92-.837 2.638.192 2.401 3.617-.83zM30.949 52.44l-3.5-1.252 3.19-.056c1.756-.031 3.488.423 3.851 1.01.996 1.612.295 1.67-3.541.298zm47.236-2.573c.173-.518.64-.908 1.039-.867.399.041 1.7.075 2.892.075 2.9 0 1.689 1.082-1.618 1.445-1.445.159-2.486-.135-2.313-.653z" fill="#272727"/><path d="M40.583 117.996c-14.232-2.407-20.028-4.413-23.017-7.965-2.43-2.889-2.493-3.222-3.916-20.957-.16-1.982-.823-2.568-3.201-2.827-4.053-.441-4.469-.987-7.148-9.384-2.965-9.292-3.074-13.787-.352-14.5 1.428-.373 2-1.363 2-3.465 0-2.168 1.342-4.363 5.093-8.329 2.801-2.962 4.819-5.828 4.484-6.37-.336-.543-.2-1.24.302-1.55.502-.31 1.086 1.267 1.3 3.505.213 2.238.035 4.288-.396 4.554-.43.266-.783 2.537-.783 5.046v4.562l12.75-.477c11.596-.433 13.063-.289 16.21 1.59 5.374 3.211 16.117 2.976 22.04-.482 5.628-3.287 12.953-4.873 22.502-4.873 10.191 0 15.82-2.729 10.248-4.969-1.238-.497-1.655-.933-.929-.967.727-.035 1.934-.676 2.682-1.424 1.146-1.146 1.123-2.048-.145-5.75-.828-2.414-2.41-5.358-3.514-6.542-2.522-2.702-9.56-4.517-16.787-4.329-3.056.08-6.007.055-6.557-.055-.55-.11-1.45-.105-2 .013-.55.117-3.813.176-7.25.13-3.506-.047-6.25.35-6.25.905 0 .544.9.988 2 .988s2 .661 2 1.469c0 1.741-2.22 1.1-6.178-1.786-1.577-1.15-3.38-1.683-4.386-1.297-1.601.615-1.597.779.065 2.615.975 1.078 3.346 2.255 5.269 2.616 2.753.516 3.153.847 1.885 1.557-1.684.942-5.568-.623-10.963-4.417-1.544-1.086-3.103-1.68-3.464-1.318-1.165 1.165 1.31 4.011 5.148 5.92 4.09 2.036 4.387 3.262.424 1.755-1.363-.518-3.646-2.33-5.074-4.028-1.428-1.697-3.05-3.086-3.603-3.086-2.027 0-2.27 2.182-.471 4.235 1.214 1.385 1.333 1.814.348 1.248-.825-.473-2.086-1.672-2.801-2.664-1.036-1.435-2.462-1.75-6.986-1.547-5.728.258-9.213-1.43-9.213-4.463 0-.74.473-.612 1.25.34.911 1.116 2.537 1.411 6 1.09 5.135-.476 6.598-2.239 1.857-2.239-1.591 0-3.137-.635-3.435-1.411-.438-1.143.064-1.238 2.637-.5 6.608 1.895 26.05-.047 28.888-2.886 1.256-1.256.138-6.68-1.69-8.197-1.03-.854-2.11-.746-4.41.444-1.675.866-7.22 2.692-12.32 4.057-5.1 1.365-9.455 3.026-9.676 3.69-.45 1.347-2.99-7.556-3.053-10.697-.045-2.193 3.753-9.032 4.565-8.22.278.278.69 1.965.916 3.75.509 4.019 1.032 4.58 2.858 3.064 1.702-1.412 2.907-.023 2.01 2.316-.812 2.113.749 2.024 2.81-.16a47.605 47.605 0 0 1 3.414-3.218c1.674-1.395 1.665-1.496-.18-2-1.067-.293-1.99-.982-2.05-1.532-.336-3.095-1.855-5.433-3.743-5.763-1.876-.328-1.777-.482.788-1.212C44.459.155 49.939 2.81 53.783 8.574c1.834 2.75 4.041 5.256 4.906 5.568 1.46.527 2.085 3.125 2.427 10.082.114 2.314.555 2.65 3.484 2.65 3.693 0 5.381-1.523 3.227-2.912-1.161-.748-1.15-1.035.074-1.822 2.197-1.413 3.237-.203 2.542 2.96-.821 3.74.857 4.575 11.006 5.476 11.355 1.007 15.649 3.13 19.955 9.861 1.937 3.028 4.025 5.816 4.64 6.196.8.495.758.914-.148 1.474-1.772 1.095.496 6.384 3.88 9.045 2.523 1.986 2.54 2.085 1.291 8.127-1.76 8.52-3.93 13.512-6.121 14.086-1.196.312-2.054 1.693-2.392 3.848-4 25.523-4.604 27.112-11.622 30.57-2.908 1.432-9.506 2.926-18.781 4.25-16.665 2.38-17.288 2.378-31.568-.037zm38.183-3.034c11.532-2.17 15.688-4.226 18.26-9.031 1.239-2.316 4.049-22.844 3.293-24.066-.292-.473-4.882-.757-10.2-.632-5.319.125-10.683-.115-11.92-.533-1.916-.648-2.25-.407-2.25 1.616 0 2.74-1.727 5.21-4.26 6.09-1.488.518-1.414.147.478-2.413 1.395-1.887 2.236-4.459 2.236-6.838 0-3.217-.686-4.454-4.389-7.906-2.414-2.251-4.712-3.893-5.108-3.649-.395.245-3.81.506-7.588.58-8.189.162-10.607 1.259-16.24 7.369-3.757 4.077-4.184 5.01-3.582 7.827.98 4.588 1.775 5.244 8.695 7.186 4.528 1.27 7.975 1.571 12.733 1.112 4.495-.435 6.058-.32 5.025.37-2.415 1.61-14.954 1.207-19.967-.642-5.962-2.2-7.033-3.105-7.033-5.95 0-2.723.125-2.698-7.083-1.41-2.98.532-7.615 1.243-10.301 1.58l-4.884.615.496 8.701c.289 5.067 1.16 9.986 2.085 11.775 4.587 8.87 35.899 13.069 61.504 8.25zM44.95 101.191c-1.925-.341 4.06-.62 13.301-.619 9.241.001 15.766.295 14.5.652-2.898.82-23.127.795-27.801-.033zM13.403 81.149c.662-1.072-1.414-6.075-2.521-6.075-.41 0-.51-.9-.223-2 .288-1.1.92-2 1.406-2 .486 0 .884-.9.884-2 0-2.463-1.871-2.645-2.583-.25-.285.963-1.149 2.985-1.918 4.494-1.78 3.49-.251 8.756 2.54 8.756 1.013 0 2.1-.416 2.415-.925zm14.506-.023c3.484-.672 5.507-1.959 9.25-5.882 5.293-5.55 5.75-7.21 2.79-10.17-1.741-1.741-3.333-2-12.309-2-13.752 0-13.973.181-13.09 10.768l.686 8.232 4.107-.044c2.258-.023 6.113-.43 8.566-.904zm-2.855-7.425c-2.337-2.816 1.706-6.859 4.522-4.522 1.856 1.54 1.737 4.541-.209 5.288-2.319.89-3.046.76-4.313-.766zm3.895-3.21c0-1.766-2.153-1.459-2.771.396-.218.653.317 1.187 1.188 1.187.87 0 1.583-.712 1.583-1.583zm64.718 7.583h7.554l-.607-4.426c-.37-2.695-.203-4.561.426-4.771.702-.234.68-1.274-.068-3.24-.825-2.17-.804-3.08.084-3.629.651-.403.9-1.474.552-2.38-.471-1.228-1.467-1.52-3.896-1.141-1.795.28-6.863.777-11.263 1.107-4.4.33-9.515 1.074-11.366 1.655-3.203 1.006-3.341 1.245-2.848 4.924.92 6.853 7.772 13.55 12.546 12.26.732-.197 4.73-.359 8.886-.359zm-9.029-7.154c-2.838-1.588-1.464-6.909 1.76-6.815.578.016.263.489-.7 1.05-2.376 1.384-2.215 3.92.25 3.92 1.233 0 2.007-.673 2.016-1.75.013-1.414.187-1.48.908-.342 1.84 2.907-1.134 5.672-4.234 3.937zm21.275 3.697c.954-1.149.908-1.888-.217-3.494-1.73-2.47-2.747-1.687-2.747 2.118 0 3.114 1.099 3.624 2.964 1.376zM7.537 70.33c-1.092-1.092-1.841.645-1.057 2.452.744 1.713.798 1.712 1.212-.035.239-1.006.169-2.093-.155-2.417zm-.588-3.255c0-.55-.45-1-1-1s-1 .45-1 1 .45 1 1 1 1-.45 1-1zm50.5-38c.789-1.277-2.524-1.277-4.5 0-1.173.758-.914.973 1.19.985 1.48.008 2.97-.435 3.31-.985zm-27 23c-1.786-.767-1.712-.867.69-.93 1.48-.038 2.97.38 3.31.93.738 1.194-1.222 1.194-4 0zm47.5-2.137c0-.475 1.425-.863 3.167-.863 3.658 0 3.249 1.02-.579 1.44-1.423.157-2.588-.103-2.588-.577z" fill="#171717"/><path d="M41.949 117.995c-19.468-2.95-25.69-6.1-26.514-13.42-.43-3.818-.412-3.85.413-.71.476 1.81 1.645 4.153 2.598 5.206 2.48 2.74 15.494 6.705 26.003 7.921 10.634 1.23 14.332 1.217 24.976-.093 15.412-1.897 25.163-5.413 27.59-9.949 1.414-2.642 4.163-24.061 3.202-24.95-.422-.392-6.038-.901-12.48-1.132l-11.711-.42-.664 3.063c-.633 2.92-1.943 4.514-3.736 4.548-.452.008.11-1.17 1.25-2.62 3.487-4.432 2.776-8.915-2.177-13.732l-4.25-4.133-8.5.353c-4.675.194-9.078.67-9.785 1.06C45.63 70.38 36.95 79.351 36.95 80.578c0 1.958-4.831 3.485-13.523 4.272l-7.977.723-.587 5.5-.587 5.5-.163-5.23c-.172-5.511-.165-5.505-6.554-6.48-1.883-.289-2.544-2.015-5.803-15.168-1.133-4.573-1.071-4.989.993-6.66 1.21-.98 2.2-2.843 2.2-4.14 0-1.37 1.917-4.546 4.578-7.59 4.44-5.073 7.237-6.797 6.061-3.732-.316.825-.16 1.5.347 1.5s.197 1.263-.689 2.806c-1.06 1.847-1.373 3.753-.915 5.575l.695 2.769 13.212-.242c12.04-.221 13.522-.05 16.712 1.921 5.427 3.355 14.487 3.033 21.265-.755 6.178-3.452 14.141-5.074 24.919-5.074 4.544 0 7.816-.419 7.816-1 0-.55.712-1 1.583-1 2.37 0 1.126-2.345-1.657-3.123-1.34-.374-1.697-.722-.799-.777 2.41-.148 4.223-2.785 3.326-4.837-.424-.97-.695-2.114-.602-2.543.382-1.767-3.062-6.77-5.614-8.154-1.505-.817-2.275-1.504-1.71-1.526 1.92-.075 5.479 3.07 7.096 6.27.886 1.755 2.492 4.155 3.569 5.335 1.264 1.384 1.58 2.378.89 2.804-1.334.825 2.275 8.21 5.15 10.538l2.008 1.626-2.121 8.444c-1.662 6.616-2.754 8.984-5.046 10.943-2.641 2.258-3.036 3.42-4.073 12-1.67 13.806-2.524 16.337-6.83 20.227-2.807 2.536-5.37 3.745-9.74 4.594-5.693 1.107-28.397 4.253-29.43 4.079-.275-.047-6.125-.937-13-1.979zm-27.921-37.17c.063-1 .18-1 .583 0 .534 1.321 9.464 1.555 14.603.38 3.768-.86 12.735-9.813 12.735-12.715 0-4.538-2.267-5.416-13.99-5.416-5.966 0-11.558.273-12.428.607-1.234.474-1.589 2.178-1.613 7.75-.025 5.962-.225 6.813-1.21 5.143-1.56-2.64-1.788-4.364-.67-5.055 1.145-.707 1.207-5.445.071-5.445-.461 0-1.348 1.116-1.97 2.48-.779 1.711-1.64 2.285-2.773 1.85-1.434-.55-1.55-.069-.914 3.77.4 2.42 1.143 5.188 1.648 6.15 1.048 1.995 5.808 2.396 5.928.5zm11.588-6.418c-.367-.366-.632-1.604-.588-2.75.043-1.145.306-1.52.583-.833.586 1.452 4.338 1.71 4.338.3 0-.523-.788-1.449-1.75-2.058-1.015-.642-1.15-.954-.322-.74.786.202 1.885 1.09 2.442 1.974 1.674 2.653-2.507 6.304-4.703 4.107zm72.652 4.007c2.532-.475 2.8-.902 2.617-4.185-.112-2.01.116-4.407.507-5.327.391-.92.21-2.607-.401-3.75-.74-1.383-.766-2.078-.077-2.078.569 0 1.035-1.133 1.035-2.518V58.04l-11.25.655c-17.34 1.011-20.18 2.546-18.333 9.905.754 3.004 5.334 8.433 8.001 9.484 2.35.926 13.62 1.134 17.901.33zm-14.61-7.964c-.39-.39-.68-1.647-.646-2.793.061-2 .1-1.993.968.167 1.026 2.553 1.986 2.8 3.894 1 1.07-1.009 1.237-.96.872.25-.488 1.612-3.923 2.541-5.088 1.376zm23.29 3.654c0-.495-.448-2.081-.997-3.525-1.375-3.616-3.002-2.213-3.002 2.59 0 3.666.156 3.892 2 2.905 1.1-.589 2-1.475 2-1.97zm-100-7.53c0-.825-.45-1.5-1-1.5s-1 .675-1 1.5.45 1.5 1 1.5 1-.675 1-1.5zm99.5-3.5c.34-.55-.11-1-1-1s-1.34.45-1 1c.34.55.79 1 1 1 .21 0 .66-.45 1-1zm-51.25 38.272c2.063-.216 5.438-.216 7.5 0 2.063.215.376.392-3.75.392-4.124 0-5.812-.177-3.75-.392zm15.5-.934c.688-.278 1.813-.278 2.5 0 .688.277.126.504-1.25.504-1.374 0-1.937-.227-1.25-.504zm-23.404-8.103c-.635-.404 2.81-.735 7.655-.735 4.845 0 8.29.33 7.654.735-.635.404-4.08.734-7.654.734-3.575 0-7.02-.33-7.655-.734zM41.45 90.35c-2.841-.699-4.51-2.26-4.437-4.15.043-1.1.356-.9.968.623.497 1.238 1.706 2.257 2.687 2.265.98.008 2.457.452 3.282.985 1.573 1.017.842 1.098-2.5.277zm-10.5-38.277c-2.327-.745-2.349-.807-.31-.9 1.206-.055 2.47.35 2.81.9.34.55.479.955.309.9l-2.81-.9zm47-2c0-.55.476-1 1.059-1 .582 0 .78.45.44 1s-.816 1-1.058 1c-.243 0-.441-.45-.441-1zM46.82 39.324c-1.192-1.52-1.176-1.604.128-.634.825.614 2.175 1.365 3 1.67 1.255.465 1.234.57-.128.635-.895.044-2.245-.708-3-1.67zm-8.104-2.25c-1.001-1.603-2.342-2.003-6.759-2.015-3.03-.008-6.184-.452-7.01-.985-1.085-.702-.205-.973 3.194-.985 3.413-.01 5.05-.519 6-1.861 1.015-1.434 3.093-1.972 9.307-2.41 4.4-.31 8.9-.89 10-1.289 2-.724 2-.723.002.829-1.1.854-1.752 1.8-1.45 2.101 1 1 6.454-1.089 6.16-2.36-.157-.688.413-1.762 1.269-2.387 1.403-1.027 1.392-1.553-.114-5.388-1.816-4.62-2.942-5.038-7.39-2.737-1.61.831-7.008 2.605-11.999 3.94l-9.072 2.428-1.026-2.69c-1.947-5.109-2.07-7.921-.484-10.989 1.525-2.95 3.809-5.243 3.51-3.526-.078.453-.09 2.335-.024 4.183.109 3.092.323 3.307 2.698 2.71 2.259-.566 2.5-.393 1.933 1.392-.917 2.888 1.396 2.624 5.294-.606 3.518-2.914 4.043-4.355 1.586-4.355-1.035 0-1.397-.547-1.017-1.538.336-.875-.049-1.783-.893-2.107-.815-.313-1.483-1.196-1.483-1.962s-1.012-1.439-2.25-1.495c-1.899-.086-1.782-.252.75-1.065 4.547-1.459 10.416.852 13.122 5.167 1.207 1.925 3.249 4.625 4.537 6 2.304 2.46 3.94 7.276 4.01 11.804.032 2.035.462 2.27 3.684 2 3.112-.26 3.612-.634 3.409-2.554-.131-1.237.263-2.25.875-2.25.695 0 .895 1.09.534 2.898-.503 2.513-.185 3.06 2.396 4.13 5.249 2.174 4.185 2.886-3.92 2.622-4.353-.142-8.747.035-9.765.392-1.616.567-1.473.853 1.134 2.263 1.773.96 2.329 1.631 1.37 1.655-.89.022-2.802-.893-4.252-2.033-1.45-1.14-3.422-1.922-4.385-1.736-3.235.623-1.791 3.236 2.751 4.976 2.475.949 3.695 1.749 2.71 1.779-1.666.05-6.712-2.319-11.088-5.206-1.33-.878-1.998-.917-2.285-.135-.224.607-1.516.892-2.872.633-2.698-.516-3.39 1.436-1.265 3.562.66.66.89 1.2.509 1.2-.38 0-1.254-.9-1.94-2zm51.044-4.683c.722-.289 1.585-.253 1.917.079.332.332-.258.569-1.312.525-1.165-.048-1.402-.285-.605-.604zm-7.062-.98c.687-.277 1.812-.277 2.5 0 .687.278.125.505-1.25.505s-1.938-.227-1.25-.504zm-54.25-2.337c-.79-1.277 2.524-1.277 4.5 0 1.173.758.914.973-1.191.985-1.48.008-2.97-.435-3.31-.985z" fill="#010101"/></svg>