<svg xmlns="http://www.w3.org/2000/svg" width="121.982" height="128" viewBox="0 0 114.35803 119.99999"><path d="M56.318 119.066c0-.651-.412-.93-.916-.618-1.374.85-6.174-1.247-8.197-3.578-.98-1.13-2.241-1.769-2.805-1.42-.563.347-2.018-.511-3.233-1.909-1.645-1.892-3.185-2.541-6.026-2.541-2.958 0-4.69-.788-7.691-3.5-2.13-1.925-4.354-3.5-4.941-3.5-.587 0-.99-1.012-.897-2.25.094-1.238-.474-5.063-1.262-8.5-1.218-5.315-1.758-6.25-3.61-6.25-1.197 0-2.71-.642-3.361-1.427-.771-.93-2.297-1.247-4.373-.91-6.264 1.017-11.788-6.534-6.305-8.618 3.783-1.439 6.45-5.978 5.854-9.961-.335-2.234.118-4.587 1.309-6.798 1.54-2.86 1.638-3.889.638-6.655-.651-1.8-1.184-5.725-1.184-8.723 0-4.663.643-6.53 4.45-12.929 7.003-11.769 12.785-17.225 23.69-22.354 5.148-2.422 11.745-4.903 14.66-5.514 8.42-1.765 20.08-1.388 26.614.86 7.486 2.575 16.909 8.346 19.108 11.702.96 1.466 4.419 5.538 7.686 9.05 6.946 7.467 8.792 11.317 8.792 18.34 0 4.96-2.056 9.564-5.579 12.492-.748.621-1.371 3.883-1.518 7.942-.242 6.67-.166 6.915 2.424 7.778 4.353 1.452 3.161 5.947-1.827 6.887-1.66.313-2.022 1.225-2.13 5.357-.071 2.74-.457 6.556-.858 8.481-.4 1.925-.697 4.737-.66 6.25.037 1.512-.364 2.75-.892 2.75s-.96.675-.96 1.5-.533 1.5-1.185 1.5-2.115.843-3.25 1.874c-1.136 1.03-4.765 2.862-8.065 4.07-3.3 1.207-7.125 3.199-8.5 4.425-5.597 4.995-7.266 5.705-14.5 6.172-2.2.142-5.462.585-7.25.984-2.245.5-3.25.359-3.25-.459zM33.818 101c.996-1.1 1.585-2 1.31-2-.275 0-1.314.9-2.31 2-.995 1.1-1.585 2-1.31 2 .275 0 1.315-.9 2.31-2zm10.957-10.422c2.448-4.252 5.232-7.642 7.258-8.837 3.347-1.975 3.897-3.228 2.432-5.538-.658-1.037-1.082-.986-2.107.25-1.405 1.692-5.547 2.177-4.53.53.346-.559.82-2.07 1.054-3.36.369-2.034.096-2.28-2.068-1.867-1.425.272-3.67-.282-5.244-1.295-2.725-1.753-2.735-1.751-1.002.213C42.877 73.29 42.776 74 40.096 74h-2.223l2.307 1.616c1.462 1.023 1.958 1.965 1.354 2.568-1.374 1.374-8.216-1.7-8.216-3.692 0-.886.355-1.39.79-1.123.433.269.77-1.842.75-4.69-.03-3.868-.514-5.532-1.912-6.571-1.492-1.11-1.594-1.535-.5-2.1 1.33-.686 19.184.424 23.508 1.46 1.545.371 2.28-.038 2.657-1.478.431-1.65.023-1.99-2.386-1.99-3.469 0-3.989-2.484-.7-3.344 4.286-1.12.72-1.957-7.678-1.8-6.706.125-9.652.685-13.951 2.651-2.997 1.371-6.266 2.5-7.264 2.507-.997.008-2.79.275-3.985.596-2.426.65-2.411 1.416.293 15.241 1.478 7.56 2.257 8.943 6.226 11.068 1.594.852 2.096 1.752 1.626 2.908-.375.92-1.075 2.985-1.556 4.589l-.873 2.916 2.948-2.825c2.535-2.429 3.037-2.592 3.585-1.166.35.913 1.312 1.659 2.138 1.659 1.114 0 1.334.665.853 2.58-1.272 5.068 2.787 2.12 6.888-5.002zm30.973 3.308c-.87-1.408-4.43-1.026-4.43.475 0 .911.823 1.204 2.489.886 1.368-.262 2.242-.874 1.94-1.361zm17.32-.815c-.137-.512.591-1.557 1.619-2.324 1.625-1.212 1.695-1.672.538-3.525-1.65-2.642-.544-3.993 1.733-2.115 1.538 1.27 1.582 1.194.489-.857-1.049-1.968-.959-2.25.72-2.25 1.865 0 3.108-2.462 3.138-6.215.019-2.39-3.528-4.152-5.75-2.858-1.526.89-1.45 1.016.62 1.043 1.733.022 2.196.449 1.75 1.612-.334.87-.607 2.445-.607 3.5 0 1.055-.657 1.918-1.46 1.918-.804 0-2.29.89-3.304 1.977-1.012 1.087-2.909 2.1-4.213 2.25-2.03.234-2.373-.16-2.375-2.727-.002-2.197.447-2.963 1.675-2.861 1.027.085 1.677-.594 1.677-1.75 0-1.039.675-1.889 1.5-1.889s1.5-.439 1.5-.975c0-.634-.898-.634-2.565 0-3.628 1.38-11.17 1.211-12.086-.27-.49-.793-1.03.021-1.49 2.25-.43 2.075-.321 3.638.265 3.847 1.762.628 5.077 4.574 6.39 7.609.81 1.87 2.517 3.407 4.635 4.174 4.159 1.505 5.926 1.643 5.601.436zm-25.75-1.464c0-.949-2.993-1.427-3.527-.563-.325.526.336.956 1.468.956 1.133 0 2.06-.177 2.06-.393zm-49-13.548c0-1.068-.45-2.22-1-2.559-.567-.35-1 .49-1 1.941 0 1.407.45 2.559 1 2.559s1-.873 1-1.941zm-8.59-.96c.947-1.045 1.352-2.129.9-2.407-1.052-.651-5.43 2.854-4.6 3.684 1.024 1.025 1.887.727 3.7-1.277zm63.522-2.42C74.439 71.553 72.372 65 70.196 65c-2.785 0-4.463-2.833-3.034-5.122C68.8 57.256 67.834 56 64.18 56c-2.85 0-2.983.173-2.347 3.067.753 3.427-1.536 6.933-4.526 6.933-1.236 0-1.673.795-1.595 2.902.058 1.596.444 2.694.856 2.44 1.568-.962 2.763.766 1.788 2.587C56.937 76.58 57.916 77 65.51 77c6.253 0 6.936-.205 7.74-2.32zm-12.932-5.622c0-1.513 2.586-3.057 5.118-3.057 3.637 0 5.882.94 5.882 2.464 0 .849-1.766 1.25-5.5 1.25-3.025 0-5.5-.295-5.5-.657zm42.93-9.7c.054-4.724-.295-6.283-1.512-6.75-2.258-.867-11.137-.724-9.825.158 2.509 1.687 8.407 10.559 8.407 12.645 0 1.241.324 2.58.719 2.975 1.21 1.21 2.137-2.573 2.211-9.028zM14.131 62.75c-.23-1.655.163-2.211 1.486-2.103 1.9.155 1.865-1.759-.044-2.395-1.446-.483-3.574 3.475-2.863 5.326.848 2.21 1.769 1.674 1.421-.828zm56.311-4.017c-.987-.98-1.102-.865-.56.56.376.986.935 1.541 1.243 1.233.308-.307 0-1.114-.683-1.793zm-49.124-7.572c0-4.307 3.968-17.713 7.006-23.672 1.097-2.152 1.994-4.514 1.994-5.25 0-.736.687-2.666 1.526-4.289.84-1.622 1.126-2.95.637-2.95-1.361 0-9.742 9.285-11.568 12.816-2.261 4.374-6.595 16.587-6.595 18.587 0 3.595 2.88 8.597 4.95 8.597 1.711 0 2.05-.635 2.05-3.839zm4.93-1.97c-.057-2.975-.237-3.303-.93-1.691-1.206 2.808-1.206 6.746 0 6 .55-.34.969-2.279.93-4.309zm53.07 3.427l6.5-1.26-3.379-1.771c-4.06-2.13-10.013-2.323-16.12-.524l-4.5 1.326 4.75.973c2.612.535 4.75 1.348 4.75 1.806 0 1.009-.078 1.014 8-.55zM34.46 50.022c2.398-1.088 5.372-1.988 6.61-2 2.025-.02 2.25-.513 2.25-4.94 0-2.751.911-7.044 2.071-9.75 1.14-2.657 2.465-8.275 2.945-12.482.48-4.208 1.55-9.27 2.377-11.25 1.66-3.971 1.007-4.376-3.392-2.101-4.52 2.337-7.966 7.636-8.967 13.787-.493 3.029-2.056 7.796-3.474 10.594C31.43 38.686 28.01 52 29.71 52c.215 0 2.353-.89 4.75-1.978zm73.938-4.168c2.02-3.775.523-10.267-3.692-16.008-4.413-6.012-5.687-4.819-2.834 2.652 1.131 2.963 1.544 6.14 1.227 9.44-.475 4.94-.238 5.35 3.435 5.946.393.064 1.232-.85 1.864-2.03zm-60.361-6.59c-.23-1.52-.424-.514-.432 2.236-.007 2.75.18 3.994.418 2.764.238-1.23.244-3.48.014-5zM64.13 44.07c5.122-1.024 9.578-2.127 9.903-2.452.324-.325-.126-3.41-1-6.855-.876-3.445-1.81-9.864-2.078-14.264-.268-4.4-1.125-9.8-1.906-12-1.27-3.577-1.81-4.033-5.104-4.312-3.51-.297-3.78-.096-5.698 4.24-1.108 2.505-2.44 8.045-2.959 12.313-.52 4.267-1.39 9.559-1.933 11.759-1.438 5.818-1.317 13.507.213 13.467.688-.019 5.44-.871 10.562-1.896zm32.581.347c1.018-2.652.693-4.787-1.289-8.486-1.102-2.055-2.2-6.868-2.622-11.485-.4-4.37-1.152-8.761-1.671-9.757-.976-1.87-17.139-10.118-18.663-9.524-.472.184-.283 1.909.42 3.834.704 1.925 1.314 2.712 1.356 1.75.042-.963.464-1.75.937-1.75.919 0 2.116 8.03 2.13 14.29.006 2.084.918 5.57 2.028 7.747 1.11 2.176 2.294 5.965 2.63 8.42.498 3.632 1.1 4.642 3.232 5.424 4.361 1.6 10.82 1.34 11.512-.463zm-69.71-1.606c-.319-.797-.556-.56-.604.605-.043 1.054.193 1.644.525 1.312.333-.332.368-1.195.08-1.917zm51.01-4.543c-.253-.973-.477-.419-.498 1.231-.02 1.65.187 2.446.461 1.769.274-.677.29-2.027.037-3zM34.95 21.5c.314-2.422.13-2.23-.956 1-.74 2.2-2.264 5.8-3.388 8-1.123 2.2-2.346 5.575-2.717 7.5-.394 2.047.85-.028 3-5 2.02-4.675 3.847-9.85 4.06-11.5zM77 33.812c-.319-.797-.556-.56-.604.605-.043 1.054.193 1.644.525 1.312.333-.332.368-1.195.08-1.917zm20.402-3.917c-.88-2.202-.963-2.227-1.021-.312-.035 1.146.236 2.384.603 2.75 1.194 1.195 1.397.01.418-2.438zM95.98 21.75c-.278-.688-.505-.125-.505 1.25s.227 1.937.505 1.25c.277-.688.277-1.813 0-2.5zm-44-3c-.278-.688-.505-.125-.505 1.25s.227 1.937.505 1.25c.277-.688.277-1.813 0-2.5z" fill="#e7e7e7"/><path d="M57.318 119.107c0-.609-1.168-1.107-2.595-1.107-2.71 0-8.405-2.857-8.405-4.216 0-.431-.83-.784-1.845-.784-1.014 0-2.608-.844-3.541-1.875-.999-1.103-3.61-2.09-6.349-2.399-3.64-.41-5.207-1.2-7.208-3.634-1.406-1.71-3.367-3.106-4.356-3.101-1.35.007-1.578-.387-.913-1.576.573-1.024.236-3.56-.95-7.156-1.01-3.063-1.838-6.175-1.838-6.914 0-.74-.904-1.345-2.01-1.345-1.105 0-2.748-.863-3.651-1.918-1.188-1.387-2.222-1.699-3.74-1.127-2.591.975-5.501-.054-7.996-2.829-1.886-2.096-1.867-2.138 2.817-6.5 4.39-4.09 4.668-4.639 4.04-7.993-.518-2.76-.167-4.464 1.503-7.295 2.11-3.576 2.126-3.815.48-7.464-3.898-8.644.293-19.994 12.085-32.731C31.767 7.508 50.172 0 64.872 0c14.34 0 25.13 5.557 37.22 19.167 9.884 11.127 12.163 15.267 12.2 22.165.022 4.018-.542 5.533-3.347 9-2.946 3.64-3.434 5.066-3.855 11.254-.479 7.048-.466 7.09 2.374 8.163 3.907 1.475 3.606 4.039-.684 5.831-3.306 1.382-3.527 1.755-3.376 5.7.163 4.27-2.205 17.487-3.513 19.603-.391.632-1.062.933-1.491.667-.43-.265-1.7.576-2.823 1.868-1.124 1.292-4.455 3.146-7.401 4.119-2.947.972-7.134 3.281-9.305 5.13-4.145 3.531-9.365 5.428-16.053 5.835-2.2.134-4.787.574-5.75.978-1.055.442-1.75.294-1.75-.373zm-20.193-17.633c-.308-.308-.867.247-1.242 1.233-.543 1.425-.428 1.54.56.56.683-.679.99-1.486.682-1.793zm49.876.338c-.319-.797-.556-.56-.604.605-.043 1.054.193 1.644.525 1.312.333-.332.368-1.195.08-1.917zm-52.096-1.303c.897-1.37 2.024-2.25 2.502-1.954 1.762 1.089 4.488-1.515 7.369-7.04 2.755-5.285 7.691-10.731 10.605-11.703.938-.312.984-.906.182-2.34-.7-1.25-.744-2.54-.125-3.696 1.33-2.485 2.904-2.216 2.618.448-.212 1.985.353 2.301 5.262 2.939 6.84.888 9.66.247 10.338-2.348.83-3.172 2.919-1.015 2.405 2.483-.373 2.544.202 3.681 3.404 6.727 2.145 2.04 3.853 4.62 3.853 5.82 0 1.488.619 2.155 2 2.155 1.1 0 2 .525 2 1.167 0 .641.296.87.658.508.362-.362 1.194-.213 1.849.33.825.685 2.065.237 4.043-1.463 2.125-1.826 3.185-2.177 4.152-1.375.714.593 1.298.702 1.298.243 0-.46-1.237-1.824-2.75-3.033-3.063-2.448-2.326-4.53.893-2.52 2.485 1.552 3.511.93 1.381-.837-1.922-1.595-1.99-3.413-.101-2.688 2.234.857 3.279-7.06 1.205-9.133-1.446-1.446-2.133-1.392-7.856.619-3.45 1.211-7.7 2.198-9.445 2.192-3.99-.013-8.956-4.047-9.82-7.976-.434-1.978-1.34-3.012-2.823-3.223-2.685-.382-3.854-5.811-1.25-5.811.861 0 1.566.648 1.566 1.441s.45 1.72 1 2.059c.55.34 1-.3 1-1.42 0-2.593-6.603-6.145-9.488-5.104-1.588.573-1.924 1.463-1.668 4.427.289 3.358.022 3.821-2.816 4.893-2.38.898-3.014 1.65-2.63 3.12.6 2.291-1.819 6.741-4.612 8.485-2.603 1.626-2.833 1.24-1.852-3.108.805-3.57.77-3.63-1.611-2.726-1.763.67-3.316.476-5.629-.707-3.187-1.63-3.19-1.63-1.379.404 1.776 1.993.845 4.07-1.246 2.779a1.106 1.106 0 0 0-1.514.369c-.321.52.323 1.232 1.43 1.583 1.109.352 2.015 1.06 2.015 1.572 0 1.248-3.657 1.187-6.065-.102-2.331-1.247-2.607-3.437-.323-2.56 1.26.483 1.429.234.775-1.144-.46-.968-.844-3.898-.854-6.511-.012-3.139-.444-4.75-1.275-4.75-.692 0-1.258-.518-1.258-1.15 0-.837 2.928-.97 10.75-.485 5.913.366 11.7.92 12.863 1.23 1.567.42 2.252.03 2.656-1.514.437-1.671.082-2.081-1.803-2.081-3.512 0-3.974-1.852-.776-3.105l2.81-1.101-2.5-.99c-4.06-1.61-17.352-.082-23.28 2.675-2.871 1.334-6.907 2.693-8.97 3.02-2.18.344-3.75 1.154-3.75 1.936 0 .74.9 5.714 1.998 11.054 1.099 5.34 1.702 10.227 1.34 10.86-.362.633-.308.835.121.449.429-.387 1.48-.002 2.336.854 1.242 1.242 1.32 1.936.38 3.439-1.739 2.785-1.426 3.713.382 1.132 3.133-4.474 4.77-1.29 2.033 3.956-1.896 3.635-.803 4.344 2.013 1.305 3.064-3.307 4.601-3.2 3.798.266-.617 2.658-.585 2.683.949.75 1.57-1.979 1.587-1.976 1.618.281.018 1.255-.616 2.53-1.408 2.834-1.814.697-4.954 5.385-3.606 5.385.55 0 1.735-1.121 2.633-2.491zM86.518 82.6c0-2.767.325-3.277 1.833-2.882 1.487.389 1.72.052 1.239-1.789-.466-1.78-.254-2.137.985-1.662.89.342 1.808.004 2.107-.773.29-.758 1.474-1.308 2.63-1.22 1.711.128 2.046.72 1.803 3.191-.163 1.669-.598 2.809-.966 2.534-.368-.275-1.718.456-3 1.625s-3.298 2.623-4.48 3.232c-1.994 1.026-2.15.861-2.15-2.256zm-24.89-14.03c.683-2.051 3.595-2.99 6.306-2.033 4.641 1.64 3.868 3.115-1.59 3.036-2.763-.04-4.885-.492-4.715-1.003zm-.89 26.3c-.789-1.277-2.42-.056-2.42 1.81 0 1.272.279 1.333 1.49.328.818-.68 1.237-1.642.93-2.139zm36.58 2.688c0-.243-.45-.72-1-1.059-.55-.34-1-.141-1 .441s.45 1.059 1 1.059 1-.198 1-.441zm-22.67-1.986c1.128.433 1.67.126 1.67-.947 0-.933-1.134-1.814-2.75-2.135-1.512-.302-4.086-.983-5.718-1.515-2.305-.75-3.312-.62-4.5.582-1.377 1.394-1.355 1.483.22.888 2.833-1.07 6.46.35 7.129 2.793.45 1.646.845 1.912 1.45.977.456-.706 1.58-.996 2.5-.643zM18.663 80.25c.254-.412-.113-2.1-.815-3.75l-1.276-3-.721 2.693C15.114 78.945 15.74 81 17.318 81c.485 0 1.09-.338 1.345-.75zm-7.467-4.079c1.794-2.519 1.829-2.815.318-2.704-1.832.135-6.196 3.484-6.196 4.755 0 1.921 4.058.505 5.878-2.05zm92.052-16.386c.082-7.856-.837-8.785-8.693-8.785h-4.894l4.22 4.403c2.32 2.422 4.752 6.135 5.404 8.25 2.173 7.053 2.167 7.044 3.07 4.847.453-1.1.854-5.022.893-8.715zM49.818 66c.782-1.266-.541-1.266-2.5 0-1.292.835-1.266.971.191.985.93.008 1.97-.435 2.31-.985zm-34.517-6c.468 0 1.105.563 1.416 1.25.311.688.455.35.32-.75s-.866-2-1.623-2c-2.073 0-3.545 2.937-2.564 5.114.744 1.652.896 1.545 1.225-.864.207-1.512.759-2.75 1.226-2.75zm6.303-7.287c-.514-2.686 3.167-17.754 5.384-22.042C29.933 24.976 34.094 14 33.308 14c-.436 0-2.926 2.137-5.535 4.75-6.152 6.16-13.455 21.029-13.455 27.393 0 5.23 2.22 8.857 5.418 8.857 1.862 0 2.22-.44 1.868-2.287zm5.068-4.822c.406-3.886 2.095-9.345 4.642-15.002 2.203-4.89 3.973-10.129 3.934-11.64-.057-2.235-.404-1.814-1.858 2.251-.984 2.75-2.736 7.053-3.894 9.563C25.678 41.336 23.066 54 25.176 54c.471 0 1.145-2.75 1.496-6.11zm55.396 4.434c2.338-.328 4.25-.904 4.25-1.278 0-.375-2.492-1.467-5.538-2.427-4.731-1.492-6.37-1.576-11.25-.575-8.43 1.73-9.46 2.645-3.91 3.478 2.598.39 4.997 1.151 5.332 1.693.335.542 2.017.697 3.738.345 1.72-.352 5.04-.908 7.378-1.236zM35.318 50c2.791-1.1 5.958-2 7.037-2 1.706 0 1.963-.7 1.963-5.343 0-2.94.833-7.777 1.851-10.75 1.018-2.974 2.176-8.313 2.573-11.864.397-3.551 1.37-8.008 2.162-9.904 1.675-4.007 1.38-4.598-1.883-3.78-5.034 1.264-11.63 10.701-11.68 16.715-.013 1.416-1.568 6.14-3.456 10.5C30.769 40.766 28.189 52 29.652 52c.326 0 2.876-.9 5.666-2zm72.8-3.2c.66-.66 1.2-3.272 1.2-5.804 0-4.816-3.376-11.44-7.848-15.401-2.121-1.878-2.152-1.876-2.152.123 0 1.115.954 4.184 2.12 6.82 1.6 3.619 1.981 5.96 1.555 9.562-.55 4.643-.078 5.599 2.875 5.821.578.043 1.59-.461 2.25-1.121zm-59.124-6.99c.107-4.353-.163-6.64-.684-5.797-1.194 1.933-2.307 10.668-1.52 11.94 1.445 2.34 2.037.69 2.204-6.143zm13.824 4.71c3.3-.797 7.238-1.465 8.75-1.484 2.368-.031 2.75-.444 2.75-2.97 0-1.615-.51-4.203-1.133-5.75-.623-1.55-1.48-7.341-1.905-12.872-.425-5.53-1.479-11.746-2.342-13.812-1.461-3.497-1.826-3.734-5.296-3.444-4.989.418-7.185 4.262-8.29 14.512-.463 4.29-1.56 11.094-2.44 15.121-.877 4.027-1.322 8.414-.987 9.75.72 2.87 2.351 3.012 10.893.949zm34.308-2.196c.174-1.796-.586-4.93-1.75-7.21-1.132-2.22-2.084-5.965-2.115-8.324-.122-9.073-1.2-12.026-5.453-14.947-4.253-2.92-15.224-7.442-16.05-6.616-.273.273.02 1.796.65 3.384.63 1.59 1.525 7.389 1.989 12.889.912 10.809 3.688 24.462 3.837 18.876.047-1.719-.567-4.972-1.364-7.229-1.4-3.967-2.384-20.648-1.284-21.748.297-.298.865 3.428 1.262 8.28.432 5.288 1.46 10.286 2.569 12.48 1.016 2.011 2.149 5.537 2.516 7.834.792 4.955 2.636 6.02 9.885 5.717 4.835-.203 5.01-.315 5.308-3.386zm1.275-10.17c-.594-1.109-1.477-4.41-1.964-7.335l-.885-5.319-.117 4.282c-.115 4.223 2.373 12.062 3.477 10.957.313-.312.083-1.475-.511-2.584zM52.026 18.763c-.24-1.244-.444-.462-.456 1.738-.01 2.2.185 3.218.435 2.262s.26-2.756.02-4zm3.368-9.545c1.013-2.356 1.403-4.013.868-3.682-1.285.794-3.965 7.269-3.865 9.337.066 1.358.169 1.379.617.128.296-.825 1.367-3.428 2.38-5.783z" fill="#d8d8d8"/><path d="M57.318 119.128c0-.48-1.733-1.15-3.85-1.488-2.458-.393-4.532-1.523-5.733-3.122-1.087-1.447-2.535-2.298-3.43-2.014-.852.27-2.196-.407-2.988-1.506-.831-1.153-2.588-1.998-4.154-1.998-4.013 0-7.84-1.723-10.04-4.522-1.073-1.363-2.587-2.478-3.366-2.478-.778 0-1.308-.788-1.177-1.75.131-.963-.662-4.807-1.762-8.544-1.558-5.292-2.488-6.916-4.209-7.348-1.215-.305-2.695-1.14-3.289-1.856-.688-.829-2.427-1.123-4.79-.81-3.06.406-4.135.04-6.12-2.083L0 77.032l4.76-4.189c4.413-3.885 4.716-4.453 4.178-7.818-.416-2.6-.001-4.709 1.463-7.44 1.923-3.589 1.951-4.042.48-7.72-3.185-7.96-1.422-14.702 6.891-26.353 5.508-7.718 10.021-11.721 17.34-15.38C45.195 3.091 53.302.787 62.837.255c8.125-.453 9.686-.237 15.74 2.185 9.964 3.987 15.511 7.364 18.537 11.289 1.488 1.928 5.025 5.926 7.863 8.883 9.85 10.268 11.958 19.436 6.255 27.191-1.698 2.308-3.385 4.198-3.75 4.2-.365 0-.691 3.362-.725 7.468-.06 7.306 0 7.486 2.75 8.445 1.546.539 2.811 1.384 2.811 1.877 0 1.485-3.532 4.207-5.459 4.207-1.543 0-1.728.644-1.294 4.5.28 2.475.181 4.5-.217 4.5-.4 0-.764 1.35-.81 3.002-.048 1.65-.427 4.013-.845 5.25-.417 1.236-.643 3.035-.504 3.998.14.962-.298 1.75-.975 1.75-.676 0-.932.297-.568.66.363.364-.16 1.152-1.164 1.75-1.004.6-3.363 2.108-5.244 3.352-1.88 1.244-5.055 2.71-7.053 3.257-1.999.548-4.242 1.728-4.986 2.624-2.992 3.606-9.4 6.7-14.38 6.945-2.75.135-6.268.733-7.816 1.329-3.402 1.309-3.685 1.325-3.685.21zm29.693-17.859c-.253-.973-.477-.419-.498 1.231-.02 1.65.187 2.446.461 1.769.274-.677.29-2.027.037-3zM37.318 102c.589-1.1.846-2 .57-2-.274 0-.981.9-1.57 2-.588 1.1-.845 2-.57 2s.982-.9 1.57-2zm-2.768-1c.687-1.1 2.276-2 3.53-2 2.219 0 4.389-2.736 9.43-11.887.93-1.69 3.18-3.977 5-5.085 2.776-1.69 3.308-2.602 3.308-5.677 0-2.016.504-3.837 1.12-4.047.695-.239.945.523.66 2.016-.548 2.863 1.478 3.646 9.495 3.666 4.745.013 5.373-.243 6.248-2.546 1.298-3.414 3.294-2.05 2.72 1.859-.363 2.471.204 3.715 2.944 6.454 1.866 1.866 3.66 4.735 3.989 6.375.43 2.15 1.024 2.817 2.13 2.393.844-.324 1.795-.168 2.114.345.625 1.006 2.501 1.442 5.39 1.252 1.111-.072 1.53-.569 1.085-1.288-.486-.787-.178-.96.941-.531 1.123.43 1.664.12 1.664-.953 0-1.3.274-1.364 1.5-.346.984.816 1.5.87 1.5.158 0-.598-.9-1.57-2-2.158-1.1-.589-2-1.73-2-2.535 0-1.67 1.575-1.962 2.5-.465.34.55 1.111 1 1.714 1s.352-.823-.559-1.829c-2.023-2.235-2.142-3.572-.253-2.847 2.88 1.105 3.585-8.227.756-9.994-1.465-.914-2.748-.73-6.25.899-2.452 1.14-6.69 2.098-9.55 2.16-6.109.132-8.799-1.792-10.515-7.52-.627-2.091-1.482-3.592-1.901-3.333-.419.259-1.477.196-2.351-.14-2.05-.786-2.127-5.396-.09-5.396.824 0 1.5.648 1.5 1.441s.45 1.72 1 2.059c.55.34 1-.3 1-1.42 0-1.377-1.318-2.711-4.053-4.107-3.769-1.922-4.27-1.959-7.154-.52-3.552 1.772-6.794 2.023-6.794.526 0-.562 1.168-1.554 2.595-2.204 2.328-1.061 2.405-1.257.75-1.908-1.015-.4-5.184-.758-9.265-.797-6.137-.058-8.558.437-14 2.86-3.619 1.611-8.267 3.207-10.33 3.545-4.462.733-4.502 1.045-1.795 14.007 1.032 4.94 1.62 9.397 1.307 9.904-.327.529-.01.577.741.112.97-.6 1.17-.27.768 1.27-.392 1.498-.155 1.933.842 1.55 1.876-.72 1.75.624-.268 2.853-.91 1.006-1.19 1.829-.622 1.829s1.714-1.012 2.546-2.25c.832-1.238 1.832-1.943 2.222-1.567 1.026.99-1.43 7.814-2.818 7.832-.68.01-.546.412.317.958 1.083.684 2.245.218 4.25-1.703 2.769-2.652 3.158-2.481 2.795 1.23-.195 2-.195 2 1.353 0 1.354-1.748 1.553-1.784 1.58-.289.018.941-.769 2.516-1.748 3.5-3.256 3.273-4.534 5.289-3.35 5.289.612 0 1.675-.9 2.362-2zm51.991-18.87c-.067-2.36.267-2.815 1.78-2.42 1.52.398 1.753.072 1.269-1.78-.476-1.82-.265-2.141 1.068-1.63.913.35 1.66.254 1.66-.215 0-.468 1.163-1.074 2.585-1.346 2.241-.428 2.509-.212 2.014 1.633-.314 1.17-.578 2.717-.585 3.437-.008.72-.396 1.073-.862.785-.467-.289-1.74.305-2.827 1.318-1.088 1.014-2.888 2.132-3.999 2.485-1.7.54-2.033.181-2.103-2.266zm-50.473-5.21c-.962-.56-1.75-1.424-1.75-1.918 0-1.058 5.746.778 6.561 2.096.752 1.217-2.631 1.091-4.81-.178zm12.604-.67c.268-.963.75-2.672 1.07-3.8.52-1.825.213-2.006-2.806-1.654-1.865.218-4.454-.152-5.754-.822-1.954-1.008-2.147-.99-1.114.104 1.832 1.937 1.55 2.631-1.285 3.174-3.251.621-4.897-2.204-4.11-7.055.426-2.62.132-3.89-1.14-4.932-1.488-1.217-.376-1.328 8.387-.839 5.555.31 11.473.839 13.149 1.174 2.545.51 3.163.246 3.748-1.596.907-2.859 2.798-1.134 2.336 2.13-.235 1.664-1.28 2.645-3.522 3.305-2.839.837-3.124 1.252-2.614 3.804.449 2.244-.038 3.502-2.25 5.81-3.181 3.321-4.821 3.8-4.095 1.197zm.205-9.718c2.486-1.88.713-1.902-2.559-.032-1.602.916-1.94 1.442-.94 1.465.857.02 2.432-.626 3.5-1.433zm-6.762-1.487c-.672-1.075-1.415-1.76-1.651-1.524-.429.429 1.75 3.479 2.485 3.479.213 0-.163-.88-.834-1.955zm19.204 3.684c-.002-1.797 4.97-3.063 7.5-1.911 3.91 1.782 2.955 2.835-2.5 2.755-2.75-.04-5-.42-5-.844zm-30 29.153c0-.55-.45-.722-1-.382-.55.34-1 1.068-1 1.618s.45.722 1 .382c.55-.34 1-1.068 1-1.618zm29.4-3.044c-.343-.553-1.15-.46-1.979.227-.77.639-1.14 1.582-.822 2.097.342.553 1.15.46 1.978-.227.77-.639 1.14-1.582.822-2.097zm36.6 2.784c0-.207-.686-.946-1.524-1.641-1.273-1.057-1.42-.995-.893.378.538 1.401 2.416 2.384 2.416 1.263zm-22.277-1.898c1.045.401 1.372.011 1.115-1.328-.257-1.337-1.541-2.089-4.352-2.55-2.193-.358-4.918-.952-6.057-1.319-1.352-.435-2.547-.09-3.447.994-1.235 1.488-1.072 1.635 1.57 1.419 5.023-.411 6.194-.017 6.798 2.293.441 1.688.866 1.95 1.738 1.078.635-.635 1.82-.9 2.635-.587zm-56.08-17.223c-.079-1.375-.448-2.5-.82-2.5-.373 0-.863-.789-1.09-1.751-.31-1.308-.608-1.056-1.182.998C14.95 78.54 15.724 81 17.681 81c.892 0 1.372-.935 1.281-2.5zm-6.465-4.079C13.607 72.54 14.92 71 15.417 71s.887-.563.87-1.25c-.018-.688-1.126-.007-2.463 1.512-1.337 1.52-2.794 2.645-3.238 2.5-.443-.144-2.13.778-3.749 2.048-2.331 1.831-2.65 2.491-1.534 3.18 2.004 1.24 4.824-.551 7.194-4.568zm90.994-14.467c.158-8.56-.237-8.942-9.173-8.876-4.681.034-5.9.29-4.355.913 3.664 1.479 7.507 7.366 10.775 16.508 1.263 3.533 2.607-.639 2.753-8.545zM14.608 63c-.292-1.118-.03-2 .594-2 .614 0 1.116.477 1.116 1.059s.45.78 1 .441c1.724-1.066 1.092-3.336-1.125-4.04-2.414-.766-3.836.814-3.86 4.29-.008 1.274.595 2.25 1.392 2.25.914 0 1.223-.7.883-2zm6.86-8c.542 0 .703-.888.359-1.974-.845-2.66 3.715-19.46 6.916-25.48 1.416-2.664 2.575-5.474 2.575-6.245 0-.77.687-2.728 1.526-4.35 2.33-4.506.004-3.628-5.58 2.104C21.182 25.3 15.11 37.461 14.52 44.583c-.494 5.96 1.934 11.963 4.448 10.998.832-.32 1.957-.581 2.5-.581zm4.85-4.319c0-4.269 2.561-12.873 5.643-18.96 1.331-2.628 2.825-6.903 3.32-9.5.494-2.596 1.198-5.621 1.562-6.721.537-1.617.457-1.713-.415-.5-.594.825-1.771 3.854-2.617 6.73-.846 2.878-2.4 6.703-3.453 8.5-3.866 6.6-7.507 23.77-5.04 23.77.55 0 1-1.493 1-3.319zm53.201 2.253c8.518-1.714 8.646-2.01 1.8-4.144-6.376-1.988-6.645-1.993-14-.227l-7.5 1.8 4.5.907c2.474.499 4.927 1.317 5.45 1.818 1.23 1.182 3.268 1.15 9.75-.154zM40.57 48.59l3.75-.68v-5.487c0-3.018.687-7.134 1.528-9.147s2.218-7.96 3.06-13.218c.842-5.257 2.214-10.61 3.05-11.895.837-1.285 1.373-2.482 1.191-2.66-.181-.178-2.13.293-4.33 1.048-5.914 2.027-11.5 9.697-11.5 15.791 0 1.324-1.615 6.4-3.589 11.282-1.973 4.882-3.84 11.282-4.15 14.223l-.56 5.347 3.9-1.962c2.144-1.079 5.587-2.268 7.65-2.642zm68.638-3.7c1.697-4.868-.358-11.125-5.48-16.688-4.16-4.518-4.33-4.6-4.369-2.08-.022 1.443.908 4.766 2.067 7.385 1.54 3.483 1.937 5.817 1.478 8.688C102.15 46.91 102.69 48 105.78 48c1.723 0 2.63-.823 3.428-3.11zm-59.875-4.14c.007-3.438.237-7.375.51-8.75.366-1.838.058-1.574-1.163 1-.913 1.925-1.874 5.862-2.134 8.75-.395 4.373-.203 5.25 1.15 5.25 1.323 0 1.626-1.155 1.637-6.25zm18.986 2.877l6.5-1.247-.349-3.418c-.192-1.88-.944-5.003-1.672-6.94-.727-1.937-1.52-7.587-1.763-12.555-.277-5.693-1.055-10.222-2.103-12.25C67.475 4.403 66.763 4 63.24 4c-3.703 0-4.152.3-5.61 3.75-.87 2.062-1.942 7.125-2.38 11.25-.437 4.125-1.533 10.633-2.435 14.463-.902 3.83-1.374 8.383-1.049 10.117l.592 3.154 4.73-.93c2.6-.511 7.654-1.49 11.23-2.177zm26.75 2.743c1.876-.503 2.25-1.294 2.25-4.764 0-2.337-.762-5.245-1.738-6.633-1.128-1.605-1.967-5.386-2.388-10.77-.738-9.42-1.758-11.108-8.874-14.675-5.339-2.675-11.947-4.914-12.595-4.266-.253.253.033 1.758.635 3.344.603 1.585 1.496 7.385 1.983 12.888C75.312 32.458 77.337 43 78.471 43c.936 0-.083-6.42-1.806-11.376-.763-2.197-1.286-7.395-1.207-12l.14-8.124 1.158 9c.636 4.95 1.923 10.673 2.86 12.718.936 2.045 1.702 5.027 1.702 6.627 0 3.391 1.738 5.108 6.256 6.18 4.314 1.024 4.865 1.05 7.494.345zm3.366-14.468c-.614-1.76-1.123-4.82-1.131-6.801-.008-1.98-.452-4.276-.985-5.101-1.718-2.66-1.141 8.9.631 12.635 1.99 4.194 3.024 3.683 1.485-.733zm-45.65-12.328c.916-4.909 2.322-10.196 3.125-11.75C56.712 6.271 56.957 5 56.453 5c-2.046 0-5.8 14.402-6.104 23.417-.096 2.869.981-1.045 2.435-8.843z" fill="#c7c7c7"/><path d="M57.318 119.13c0-.477-1.57-1.123-3.487-1.434-1.94-.315-4.58-1.744-5.95-3.222-1.354-1.461-2.969-2.341-3.591-1.956-.623.384-1.754-.19-2.515-1.276-.904-1.291-3.06-2.197-6.233-2.618-3.743-.496-5.614-1.431-8.195-4.095-1.84-1.898-3.773-3.187-4.294-2.865-.543.335-.688-.237-.339-1.335.336-1.058-.443-5.051-1.73-8.876-1.8-5.345-2.824-7.025-4.43-7.263-1.15-.17-2.612-.939-3.25-1.708-.749-.902-2.189-1.191-4.061-.817-3.559.712-7.925-1.871-7.925-4.688 0-1.087.399-1.977.886-1.977.488 0 2.463-1.624 4.39-3.608 3.066-3.156 3.441-4.082 2.997-7.396-.347-2.588.056-4.745 1.274-6.805 1.707-2.89 1.707-3.254.01-8.65-2.138-6.797-1.16-12.193 3.623-19.979 6.317-10.284 12.74-16.424 21.658-20.702C47.736 2.304 58.806-.36 67.888.223c9.856.632 24.6 7.624 29.516 13.997 1.816 2.354 5.484 6.636 8.15 9.514 8.97 9.686 11.21 19.136 6.03 25.44-1.503 1.829-3.154 3.624-3.667 3.989-.514.364-1.024 4.047-1.134 8.183-.197 7.412-.159 7.538 2.667 8.709 1.578.653 2.868 1.513 2.868 1.911 0 1.342-3.643 4.034-5.459 4.034-1.543 0-1.728.644-1.294 4.5.28 2.475.113 4.5-.37 4.5-.482 0-.877 1.773-.877 3.941s-.468 4.23-1.04 4.584c-.573.354-.78 1.468-.46 2.475.32 1.007.106 2.126-.475 2.485-.582.36-.798 1.072-.482 1.584.316.512.051.931-.59.931-.64 0-2.52 1.141-4.178 2.536-1.657 1.394-4.991 3.064-7.409 3.711-2.417.647-6.708 3.073-9.535 5.392-3.839 3.149-6.354 4.383-9.939 4.876-2.64.363-5.24.388-5.777.056a1.15 1.15 0 0 0-1.578.369c-.33.535-1.261.72-2.069.41-.807-.31-1.468-.066-1.468.543s-.45 1.107-1 1.107-1-.391-1-.87zm-21-15.175c0-.575 1.221-2.263 2.714-3.75 1.492-1.488 4.305-5.612 6.251-9.166 2.087-3.812 4.972-7.432 7.036-8.829 2.993-2.025 3.453-2.849 3.183-5.689-.178-1.864.22-3.652.907-4.077.874-.54 1.062-.136.657 1.413C56.284 76.846 58.833 78 66.217 78c5.007 0 6.213-.34 7.101-2 1.674-3.128 3.341-2.456 2.638 1.062-.513 2.567-.057 3.635 2.816 6.593 1.885 1.941 3.72 4.856 4.075 6.477.512 2.332 1.046 2.82 2.56 2.34 1.067-.339 1.911-.135 1.911.46 0 .588.64 1.068 1.423 1.068.782 0 1.98 1.688 2.663 3.75.683 2.063 1.422 3.212 1.642 2.555.221-.657-.078-2.092-.666-3.189-1.466-2.74.497-3.796 2.146-1.155.7 1.122 1.685 2.039 2.188 2.039.503 0 .238-.787-.589-1.75-2.763-3.217-3.297-4.652-1.47-3.951 1.122.43 1.663.12 1.663-.953 0-1.3.274-1.364 1.5-.346 2.26 1.876 1.802-.417-.5-2.5-2.837-2.567-2.483-4.047.5-2.092 2.954 1.935 3.119 1.466.753-2.145-1.581-2.414-1.59-2.606-.092-2.031 1.22.467 1.824-.073 2.295-2.049.352-1.475.865-3.445 1.141-4.377.316-1.066-.414-2.296-1.97-3.315-2.24-1.468-2.755-1.476-5.445-.085-4.766 2.464-10.914 3.507-14.63 2.48-4.218-1.164-6.494-4.6-7.244-10.936-.508-4.29-1.052-5.247-4.03-7.088-3.076-1.9-3.844-1.995-7.195-.89-2.063.681-4.613 1.037-5.667.79-1.607-.375-1.437-.643 1.05-1.662 4.625-1.894 1.396-3.067-8.491-3.085-7.462-.013-9.271.355-14.5 2.954-3.286 1.632-6.95 2.982-8.143 3-5.867.084-6.224 1.328-3.735 13.031.877 4.125 1.608 8.512 1.624 9.75.016 1.237.409 2.25.873 2.25s.583.68.264 1.511c-.439 1.142-.126 1.337 1.278.798 1.794-.688 1.797-.618.089 1.99-2.103 3.208-.527 3.684 1.696.511 2.292-3.273 3.185-1.304 1.25 2.756-1.112 2.33-2.113 3.286-2.93 2.795-.826-.496-.782-.179.132.947 1.826 2.251 2.393 2.153 5.49-.944l2.637-2.637.116 3.387c.064 1.862.322 2.598.574 1.636.251-.963.874-1.75 1.384-1.75 1.377 0 1.203.377-2.087 4.516-3.478 4.377-3.154 5.93.517 2.48 1.373-1.29 2.496-1.871 2.496-1.293 0 .579-.675 1.612-1.5 2.297-1.714 1.423-1.977 3-.5 3 .55 0 1-.47 1-1.045zm50.5-21.467c0-1.686.555-2.488 1.719-2.488.958 0 1.511-.553 1.25-1.25-.258-.687.745-1.812 2.23-2.5 3.738-1.73 5.65-1.602 4.908.332-.334.87-.607 2.206-.607 2.968 0 .776-.615 1.151-1.396.851-.768-.294-2.005.33-2.75 1.388-.745 1.058-2.254 2.208-3.354 2.556-1.633.515-2 .175-2-1.857zm-50.75-5.568c-2.81-1.637-2.017-2.99 1-1.709 1.513.643 3.178 1.533 3.7 1.979 1.377 1.174-2.614.945-4.7-.27zm12.25.174c0-.537.458-1.259 1.017-1.604.559-.346.763-1.038.453-1.538-.31-.501-.036-1.932.606-3.181.965-1.875.938-2.053-.153-1.021-1.846 1.744-6.522 1.559-9.475-.376-2.292-1.502-2.434-1.502-1.858 0 .343.894 1.026 1.626 1.517 1.626.491 0 .893.498.893 1.107s-.62.869-1.378.578c-.758-.29-1.841-.066-2.407.5-1.642 1.642-3.516-2.94-2.86-6.988.429-2.637.14-3.858-1.14-4.831-1.49-1.131-1.124-1.306 2.785-1.327 2.475-.013 8.312.414 12.97.95 7.148.822 8.601.742 9.3-.508 1.154-2.061 2.73-1.851 2.73.364 0 2.274-3.038 5.155-5.437 5.155-1.418 0-1.647.53-1.125 2.606.413 1.648.085 3.473-.892 4.965-1.737 2.651-5.546 5.07-5.546 3.523zm1-10.594c1.5-1.807-.078-2.064-3.018-.49-1.478.79-2.329.534-3.934-1.189-1.126-1.209-2.048-1.689-2.048-1.066 0 1.476 3.98 4.245 6.1 4.245.91 0 2.216-.675 2.9-1.5zm12 2.252c0-1.902 5.128-2.749 7.813-1.291 3.118 1.693 3.155 1.67-3.063 1.909-2.612.1-4.75-.178-4.75-.618zm7.01-5.24c-.678-.817-.926-2.28-.55-3.25.64-1.65.774-1.638 2.112.18 2.62 3.559 1.186 6.38-1.561 3.07zm18.683 37.757c-.253-.973-.477-.419-.498 1.231-.02 1.65.187 2.446.461 1.769.274-.677.29-2.027.037-3zm-55.693-3.387c0-.55-.45-.722-1-.382-.55.34-1 1.068-1 1.618s.45.722 1 .382c.55-.34 1-1.068 1-1.618zm30-2.989c0-1.577.752-1.893 4.5-1.893 3.848 0 4.5.293 4.5 2.019 0 1.696.44 1.913 2.75 1.36 3.484-.836 3.621-.97 2.905-2.836-.35-.914-1.809-1.543-3.576-1.543-1.642 0-4.142-.527-5.557-1.172-2.317-1.056-2.912-.842-6.008 2.159-3.376 3.272-3.87 5.471-.982 4.362.808-.31 1.468-1.415 1.468-2.456zM18.835 78.75c-.747-4.843-1.756-6.979-2.64-5.585-1.012 1.597-1.148 6.23-.21 7.168 1.5 1.5 3.181.566 2.85-1.583zm-8.036-2a3804.32 3804.32 0 0 0 4.16-5.095c2.08-2.555 1.097-3.128-1.135-.661-.999 1.103-2.308 2.02-2.91 2.038-.603.017-2.406 1.183-4.007 2.59-2.336 2.053-2.633 2.737-1.5 3.454 2.135 1.352 2.52 1.186 5.392-2.326zm93.215-16.66c.698-8.326.408-8.57-11.196-9.389-4.4-.31-9.919-1.342-12.265-2.29-3.734-1.511-5.105-1.576-11.022-.518-9.098 1.626-10.613 2.695-5.132 3.62 2.388.404 5.091 1.202 6.007 1.774 1.162.725 3.412.688 7.455-.124 9.89-1.986 12.267-1.622 15.999 2.452 1.82 1.988 3.835 5.026 4.476 6.75 3.05 8.208 3.067 8.235 4.124 6.345.538-.96 1.237-4.84 1.554-8.62zm-88.9 3.955c-.67-1.075-.838-2.312-.371-2.75.467-.437 1.05-.233 1.296.455.767 2.15 2.435 1.363 2.099-.99-.365-2.559-3.653-3.63-4.935-1.608-1.46 2.304-.986 5.675.865 6.159.963.251 1.867.51 2.009.573.142.064-.291-.764-.962-1.839zm5.622-8.652c1.038-.398 1.587-1.86 1.597-4.25.022-5.523 2.735-15.899 5.915-22.626C33.727 16.93 35.285 13 34.402 13c-.49 0-2.954 1.912-5.476 4.25-9.155 8.484-16.487 24.94-14.446 32.418 1.595 5.841 2.883 7.02 6.256 5.725zm5.98-7.143c.377-3.3 2.35-9.564 4.63-14.701 2.185-4.924 3.972-10 3.972-11.283 0-1.281.673-4.003 1.496-6.048 1.338-3.328 1.336-3.511-.02-1.749-.835 1.083-2.002 3.772-2.595 5.975-.593 2.203-2.388 6.6-3.989 9.77C25.918 38.717 22.692 54 25.19 54c.478 0 1.165-2.588 1.526-5.75zm12.929.91l4.173-.711.635-7.075c.349-3.89 1.195-8.122 1.88-9.402.686-1.28 1.846-6.346 2.58-11.257.758-5.076 2.228-10.444 3.405-12.44l2.071-3.51-2.785.687c-7.541 1.86-14.092 9.562-14.853 17.465-.218 2.258-1.795 7.363-3.506 11.344-1.71 3.981-3.36 9.873-3.667 13.091l-.556 5.853 3.225-1.668c1.773-.917 5.102-1.987 7.398-2.378zm69.224-3.258c2.55-4.932.457-11.69-5.64-18.204L98.364 22.5l.618 3.5c.34 1.925 1.075 4.39 1.634 5.476 1.798 3.501 2.512 8.436 1.724 11.928-.654 2.9-.454 3.556 1.355 4.432 3.163 1.532 3.434 1.43 5.174-1.934zm-59.55-4.142c0-5.766 3.095-22.017 5.906-31.01.99-3.163 1.447-5.75 1.018-5.75-1.373 0-4.624 10.291-5.259 16.647-.337 3.38-1.525 8.46-2.64 11.287C45.882 39.18 45.59 47 47.818 47c1.143 0 1.5-1.249 1.5-5.24zm15 2.851l10.5-2.309-.267-3.4c-.146-1.871-.934-5.099-1.75-7.172-.816-2.074-1.484-6.83-1.484-10.569 0-3.739-.692-9.13-1.538-11.98L68.24 4h-4.435c-3.99 0-4.606.327-6.132 3.25-.933 1.787-1.989 6.4-2.346 10.25-.357 3.85-1.478 10.843-2.49 15.539-1.698 7.871-1.587 14.022.25 13.92.402-.021 5.456-1.078 11.231-2.348zm31.417 1.782C98 45.525 97.772 38.811 95.318 34c-1.341-2.63-2-5.894-2-9.913 0-3.296-.511-7.116-1.137-8.488-1.217-2.673-11.624-8.66-18.113-10.42-3.39-.92-5.123-.146-2.837 1.267 1.066.659 2.033 5.881 3.159 17.054C75.414 33.67 77.396 43 78.53 43c1.03 0 .074-5.846-1.858-11.376-.77-2.204-1.295-7.38-1.219-12l.136-8.124.844 8.76c.465 4.818 1.576 10.175 2.47 11.903.894 1.729 1.92 5.212 2.281 7.74.59 4.133 1.008 4.717 4.145 5.79 3.903 1.336 8.029 1.613 10.407.7zm3.195-13.017c-.887-2.603-1.62-6.34-1.628-8.304-.008-1.965-.452-4.247-.985-5.072-2.194-3.395-1.076 9.415 1.233 14.124 2.844 5.8 3.491 5.45 1.38-.748z" fill="#b7b7b7"/><path d="M57.318 118.56c0-1.007-.705-1.614-1.75-1.508-3.503.357-4.822-.1-7.522-2.604-1.513-1.403-3.232-2.254-3.82-1.891-.587.363-1.69-.229-2.45-1.315-.905-1.291-3.061-2.197-6.234-2.618-3.743-.496-5.614-1.431-8.195-4.095-1.84-1.898-3.72-3.22-4.176-2.938-.456.282-.568-.169-.249-1.002.32-.833-.095-3.669-.922-6.302-.827-2.633-1.778-6.025-2.112-7.537-.453-2.05-1.207-2.75-2.966-2.75-1.298 0-2.903-.656-3.568-1.458-.797-.96-2.2-1.26-4.111-.877-5.512 1.102-11.095-5.524-6.014-7.137 3.52-1.117 6.87-6.66 6.314-10.448-.325-2.216.138-4.598 1.32-6.794 1.62-3.007 1.672-3.793.467-7.084-2.153-5.88-1.608-12.087 1.62-18.454 3.442-6.789 10.353-15.274 15.95-19.58C37.097 5.855 54.863.053 66.1.017c9.063-.03 28.367 8.654 31.262 14.063.652 1.219 3.867 5.098 7.143 8.62 6.728 7.232 9.76 13.007 9.791 18.655.021 3.637-.715 5.007-6.227 11.602-.67.802-1.298 4.642-1.395 8.534-.173 6.96-.125 7.104 2.978 8.885l3.154 1.81-2.355 1.906c-1.295 1.049-2.928 1.907-3.63 1.907-1.475 0-2.605 5.819-1.287 6.633.49.303.43 1.088-.134 1.77-.897 1.08-1.699 4.65-2.492 11.097-.361 2.932-1.662 5.5-2.786 5.5-.54 0-1.73.856-2.643 1.902-.914 1.046-4.36 2.877-7.66 4.07-3.3 1.191-7.126 3.202-8.5 4.468-3.622 3.334-7.56 5.667-8.306 4.921-.356-.355-1.22-.17-1.92.41-.701.582-3.393 1.025-5.982.985-2.59-.04-5.402.505-6.25 1.209-1.286 1.067-1.543 1-1.543-.405zM37.66 102c.975-1.65 2.172-3 2.661-3 .49 0 2.57-3.197 4.622-7.104 2.53-4.816 4.94-7.902 7.479-9.582 3.35-2.218 3.689-2.826 3.21-5.77-.34-2.102-.07-3.575.747-4.08.93-.575 1.092-.302.593.999C55.698 76.779 58.093 78 65.873 78c6.549 0 7.38-.219 7.977-2.1.473-1.49.978-1.79 1.735-1.033.722.721.75 1.782.085 3.27-.836 1.875-.434 2.698 2.709 5.537 2.08 1.88 3.959 4.672 4.304 6.401.503 2.514.976 2.952 2.624 2.428 1.42-.45 2.011-.185 2.011.898 0 .909.574 1.316 1.405.997.95-.364 1.623.453 2.077 2.52.37 1.682 1.136 3.346 1.702 3.696.674.416.793-.443.344-2.489-.775-3.529.932-4.402 2.004-1.024.46 1.45.988 1.78 1.703 1.064.715-.715.53-1.543-.599-2.672-1.782-1.782-2.25-3.991-.636-2.993.55.34 1-.139 1-1.063 0-1.382.268-1.46 1.5-.437 2.26 1.876 1.802-.417-.5-2.5-2.828-2.56-2.486-3.865.5-1.908 1.388.91 2.5 1.168 2.5.582 0-.58-.45-1.334-1-1.674-.55-.34-1-1.293-1-2.118s.402-1.252.894-.948c.49.304 1.187-.682 1.547-2.19.36-1.51.88-3.506 1.156-4.438.312-1.052-.387-2.278-1.843-3.232-2.14-1.401-2.805-1.362-7.56.445-2.87 1.09-7.196 1.981-9.617 1.981-5.719 0-9.216-3.794-10.177-11.04-.566-4.266-1.144-5.256-4.151-7.115-3.021-1.867-3.926-2.002-6.693-1.002-1.76.636-4.292 1.139-5.628 1.117-2.376-.04-2.365-.074.486-1.618 2.722-1.474 2.789-1.648 1.013-2.643-1.046-.585-5.473-.988-9.837-.895-6.511.138-9.09.71-14.375 3.182C29.992 56.644 26.28 58 25.288 58c-5.474 0-5.948 1.99-3.338 14 .897 4.125 1.6 8.287 1.561 9.25-.037.963.34 1.75.838 1.75.499 0 .62.749.268 1.664-.467 1.216-.278 1.441.701.836.984-.608 1.162-.385.67.836-2.068 5.137-2.054 5.222.485 2.914 1.36-1.238 2.76-2.25 3.108-2.25 1.21 0-1.426 5.885-2.773 6.192-1.101.25-1.12.628-.096 2.012 1.159 1.567 1.516 1.471 4.433-1.193l3.173-2.898v3.615c0 1.988-.747 4.44-1.66 5.45-2.527 2.792-.68 3.49 2.164.818 1.373-1.29 2.496-1.871 2.496-1.293 0 .579-.675 1.612-1.5 2.297-1.606 1.333-2.004 3-.715 3 .431 0 1.582-1.35 2.556-3zm49.392-19.618C86.696 80.525 87.03 80 88.564 80c1.339 0 1.784-.48 1.393-1.5-.392-1.02.054-1.5 1.393-1.5 1.082 0 1.968-.45 1.968-1s.948-1 2.107-1c1.51 0 1.935.448 1.5 1.582-.334.87-.607 2.246-.607 3.059 0 .812-.41 1.224-.91.915-1.347-.833-4.09.464-4.09 1.934 0 .702-.857 1.501-1.906 1.775-1.41.369-2.024-.121-2.361-1.883zm-51.233-6.017c-1.943-1.527-1.928-1.551.5-.856 3.052.874 5.008 2.504 2.95 2.46-.797-.018-2.35-.74-3.45-1.604zM49.71 74.75c.237-1.238.735-3.013 1.106-3.946.601-1.51.341-1.57-2.37-.545-2.51.946-3.699.839-6.739-.611l-3.691-1.76 1.736 2.65c1.698 2.59 1.69 2.636-.348 1.989-1.387-.44-2.095-.221-2.117.656-.02.81-.624.547-1.57-.683-1.08-1.406-1.357-3.163-.93-5.917.411-2.641.199-4.171-.65-4.696-2.97-1.836 1.01-2.207 11.94-1.115 10.09 1.008 11.809.967 12.519-.302 1.26-2.25 2.902-1.747 2.543.78-.198 1.393-1.557 2.822-3.568 3.75-2.725 1.258-3.162 1.913-2.71 4.066.359 1.719-.16 3.45-1.575 5.25-2.575 3.273-4.155 3.465-3.576.434zm-.973-7.357c3.132-1.202 1.497-2.403-2.418-1.777-3.29.526-4 .35-4-.988 0-.895-.753-1.628-1.674-1.628-1.386 0-1.27.43.674 2.5 2.349 2.5 4.444 3.034 7.418 1.893zm16.582 1.629c-3.27-.38-4-.727-2.668-1.272 2.653-1.086 6.445-.92 7.21.317.912 1.476.572 1.547-4.542.955zm3.01-5.51c-.678-.817-.946-2.236-.594-3.153.58-1.51.774-1.488 2.08.238 2.645 3.495 1.257 6.22-1.485 2.916zm18.68 36.738c-.252-.963-.458-.175-.458 1.75s.206 2.712.458 1.75c.251-.963.251-2.538 0-3.5zm-55.69-1.931c0-1.272-.278-1.333-1.489-.328-.819.68-1.238 1.642-.93 2.139.788 1.276 2.42.055 2.42-1.811zm30-3.748c0-1.168 1.033-1.571 4.025-1.571 3.459 0 4.179.387 5.12 2.75.615 1.546 1.297 2.203 1.558 1.5.255-.688 1.36-1.25 2.454-1.25 3.343 0 1.826-3.451-1.665-3.79-1.646-.16-4.202-.766-5.68-1.347-2.356-.924-3.192-.651-6.74 2.2-3.108 2.497-3.798 3.562-2.963 4.569.897 1.08 1.339 1.064 2.49-.088.771-.77 1.401-2.108 1.401-2.973zM19.318 78c0-1.65-.45-3-1-3s-1.007-.788-1.015-1.75c-.008-.963-.446-2.425-.972-3.25-.812-1.273-1.196-1.16-2.541.75-.872 1.237-2.065 2.25-2.65 2.25-.668 0-.594-.57.198-1.524.696-.838 1.01-1.78.697-2.093-.313-.313-1.275.796-2.137 2.463-.863 1.668-2.583 3.748-3.824 4.621-1.914 1.349-2.029 1.734-.756 2.546.825.526 1.791.963 2.147.972 1.027.024 6.853-6.935 6.853-8.186 0-.623.315-.818.7-.433.384.384.575 2.71.424 5.167-.243 3.943-.031 4.467 1.8 4.467 1.64 0 2.076-.63 2.076-3zm84.704-17.259c.54-7.155.453-7.587-1.784-8.784-1.294-.692-4.59-1.18-7.324-1.083-2.734.097-8.296-.811-12.36-2.017-6.808-2.021-7.912-2.092-14.062-.897-9.135 1.775-10.382 2.626-5.06 3.455 2.412.376 5.448 1.266 6.745 1.978 1.934 1.06 3.374 1.055 8-.034 9.187-2.162 11.28-1.836 15.32 2.391 4.06 4.248 5.821 7.267 5.821 9.984 0 2.357 2.112 4.554 3.267 3.399.477-.477 1.123-4.253 1.437-8.392zM16.068 64.92c-1.871-1.09-2.413-3.92-.75-3.92.55 0 1 .45 1 1s.482 1 1.07 1c.588 0 .926-1.013.75-2.25-.487-3.43-4.164-3.486-5.712-.086-1.086 2.382-1.017 2.93.51 4.045.97.71 2.466 1.277 3.323 1.26 1.294-.025 1.261-.203-.19-1.05zm5.52-9.47c.916-.352 1.261-1.452.956-3.05-.263-1.375.08-5.29.76-8.7 1.095-5.487 2.96-10.367 10.101-26.45 1.038-2.338 1.492-4.25 1.008-4.25-.483 0-3.18 2.069-5.991 4.597-6.825 6.136-14.488 21.118-14.488 28.325 0 7.333 3.151 11.256 7.654 9.528zm5.198-7.2c.389-3.201 2.435-9.63 4.615-14.501 2.155-4.814 3.917-9.89 3.917-11.282 0-1.392.673-4.204 1.496-6.25 1.343-3.34 1.34-3.516-.03-1.734-.84 1.09-2.14 4.048-2.89 6.573-.75 2.525-2.54 6.913-3.978 9.75-3.014 5.95-5.598 15.135-5.598 19.904 0 5.426 1.718 3.714 2.468-2.46zm14.615.75c2.87 0 2.917-.09 2.917-5.496 0-3.023.891-8.085 1.98-11.25 1.088-3.165 2.41-8.829 2.936-12.586.526-3.758 1.842-8.622 2.924-10.809l1.967-3.975-3.153.635c-7.064 1.422-13.317 8.956-14.567 17.549-.434 2.988-2.165 8.828-3.847 12.979-2.54 6.268-3.83 12.524-3.337 16.167.054.393 2.16-.17 4.68-1.25 2.52-1.08 5.896-1.964 7.5-1.964zm67.48-3.121c2.87-5.551.488-12.6-6.55-19.379l-4.153-4 .64 3c.351 1.65 1.336 4.954 2.188 7.343.97 2.721 1.37 6.207 1.07 9.334-.422 4.381-.223 5.094 1.631 5.843 3.218 1.3 3.442 1.208 5.174-2.141zm-59.55-4.188c.006-2.855.9-8.791 1.987-13.191 1.087-4.4 1.997-9.125 2.021-10.5.025-1.375.897-4.97 1.94-7.99 1.041-3.018 1.733-5.65 1.536-5.846-1.087-1.087-4.664 8.903-5.914 16.516-.796 4.85-2.153 10.79-3.015 13.196-1.577 4.4-2.118 12.24-.928 13.43 1.445 1.445 2.361-.724 2.372-5.615zm15.237 3.077c12.193-2.534 11.948-2.216 8.856-11.55-1.042-3.145-2.098-9.768-2.347-14.718-.248-4.95-1.043-10.238-1.766-11.75C68.173 4.367 67.411 4 63.61 4c-4.194 0-4.474.189-6.318 4.25-1.06 2.337-1.95 6.275-1.976 8.75-.027 2.475-.925 8.325-1.997 13-2.572 11.222-2.6 16.996-.083 17.001.32 0 5.42-1.004 11.333-2.233zm32.553-2.972c.186-2.889-.26-5.591-1.156-7-.802-1.263-1.781-6.105-2.176-10.76-.645-7.612-1.011-8.738-3.641-11.195-2.69-2.513-18.53-9.474-19.454-8.55-.221.221.279 2.032 1.111 4.023.862 2.063 1.513 6.634 1.513 10.619 0 3.848.635 8.925 1.41 11.282.777 2.357 1.716 6.197 2.089 8.535.372 2.337 1.127 4.25 1.677 4.25 1.232 0 .163-6.946-1.789-11.616-.862-2.063-1.327-6.456-1.228-11.602l.158-8.282.64 8.5c.389 5.161 1.35 9.837 2.447 11.903.993 1.872 2.101 5.472 2.462 8 .59 4.127 1.013 4.722 4.145 5.814 1.92.67 5.29 1.12 7.49 1l4-.217.302-4.704zm1.762-9.22c-.86-2.961-1.565-6.976-1.565-8.92 0-1.946-.45-3.816-1-4.156-1.99-1.23-1.132 10.78 1 14 1.093 1.65 2.062 4.8 2.154 7 .155 3.73.194 3.78.571.73.223-1.8-.3-5.694-1.16-8.655z" fill="#a7a7a7"/><path d="M57.35 118.687c-.02-1.118-.703-1.744-1.782-1.635-3.503.357-4.822-.1-7.522-2.604-1.513-1.403-3.136-2.314-3.606-2.023-.47.29-1.617-.315-2.549-1.344-.931-1.03-3.766-2.183-6.3-2.563-5.415-.812-11.576-6.185-12.632-11.018-2.43-11.124-3.272-12.907-6.492-13.741-1.732-.449-3.149-1.303-3.149-1.899 0-.7-1.264-.845-3.582-.41-2.516.471-4.303.2-6-.912-2.893-1.896-3.169-5.165-.507-6.01 1.052-.333 3.005-2.051 4.341-3.817 1.889-2.496 2.327-4.067 1.969-7.053-.342-2.849.081-4.575 1.637-6.68 1.956-2.645 1.998-3.079.62-6.376-3.93-9.408-.385-19.957 10.814-32.18C32.318 7.83 49.261.656 64.818.553c6.853-.044 9.219.438 16.5 3.365 7.897 3.174 9.193 4.132 18.259 13.5 14.434 14.914 17.551 22.842 12.127 30.838-1.584 2.335-3.444 4.605-4.133 5.045-.82.524-1.253 3.377-1.253 8.274 0 7.054.141 7.53 2.5 8.426 3.398 1.292 3.15 3.929-.5 5.306-1.65.623-3.047 1.821-3.104 2.663-.323 4.745-.82 8.933-1.424 12.031-.375 1.925-.748 4.513-.827 5.75-.08 1.238-.482 2.25-.895 2.25-.412 0-.75.675-.75 1.5s-.575 1.5-1.277 1.5c-.703 0-2.006.85-2.896 1.889-.89 1.039-4.252 2.87-7.472 4.07-3.22 1.199-6.98 3.215-8.355 4.481-3.621 3.334-7.56 5.667-8.305 4.921-.356-.355-1.244-.15-1.975.457-.73.606-3.554.996-6.274.865-3.46-.166-5.312.221-6.164 1.29-1.072 1.343-1.222 1.309-1.25-.286zM37.04 103.25c1.373-1.667 1.415-1.667.891 0-.302.963-.167 1.75.302 1.75s1.088-.9 1.375-2.001c.288-1.101.116-1.75-.383-1.441-.499.308-.907.132-.907-.392s.658-1.205 1.463-1.513c.804-.309 2.813-3.17 4.463-6.357 3.519-6.797 5.589-9.423 9.25-11.738 2.264-1.43 2.594-2.202 2.14-4.998-.343-2.117-.076-3.59.744-4.097.93-.574 1.092-.3.593 1C55.693 76.792 58.091 78 65.973 78c6.76 0 7.486-.197 8.277-2.25.75-1.945.96-2.021 1.552-.56.376.928.254 2.456-.27 3.394-.746 1.332-.231 2.34 2.355 4.61 1.82 1.598 3.827 4.476 4.46 6.395.916 2.773 1.543 3.364 3.062 2.882 1.345-.427 1.91-.125 1.91 1.02 0 .895.459 1.343 1.02.996.562-.347 1.693.976 2.514 2.941.82 1.965 1.952 3.572 2.514 3.572.69 0 .687-.626-.014-1.934-.569-1.064-1.035-2.414-1.035-3 0-1.844 1.836-1.158 2.5.934.35 1.1 1.055 2 1.568 2 1.463 0 1.09-2.624-.568-4-1.662-1.38-2.082-3.478-.5-2.5.55.34 1 .093 1-.548s.675-.907 1.5-.59c2.128.816 1.858-.728-.5-2.862-1.1-.995-2-2.26-2-2.81 0-.55.903-.183 2.006.816 2.442 2.21 3.565 1.428 2.04-1.42-.914-1.71-.828-2.086.478-2.086.877 0 1.348-.398 1.047-.885-.3-.487-.05-2.307.555-4.046.92-2.64.81-3.482-.667-5.115-2.209-2.44-3.175-2.437-8.6.024-2.397 1.088-6.456 1.988-9.02 2-3.99.019-5.033-.42-7.25-3.055-1.917-2.278-2.589-4.206-2.589-7.427 0-3.52-.508-4.75-2.662-6.445-3.506-2.758-7.204-3.615-9.475-2.197-1.01.63-2.854 1.128-4.1 1.106-2.089-.037-2.039-.161.652-1.618 2.742-1.485 2.801-1.644 1-2.694-1.057-.615-5.752-1.06-10.48-.992-7.268.105-9.39.547-14 2.917-2.99 1.537-7.235 3.051-9.435 3.365l-4 .57.069 4.496c.037 2.473.619 7.196 1.292 10.496.673 3.3 1.233 6.787 1.244 7.75.01.962.427 1.75.926 1.75.499 0 .62.749.268 1.664-.43 1.119-.255 1.427.531.941 1.46-.902 1.488-.068.09 2.546-1.524 2.847-.19 3.681 1.66 1.039 2.193-3.131 3.496-2.705 2.292.75-.67 1.918-1.519 2.749-2.448 2.392-1.807-.693-1.774.622.077 3.066 1.188 1.57 1.702 1.679 2.968.628.842-.7 1.568-.878 1.612-.398.045.48.7-.478 1.455-2.128l1.374-3 .045 3.921c.027 2.306-.639 4.677-1.615 5.756-2.58 2.852-.657 3.456 2.363.744l2.696-2.421-1.7 2.715c-2.544 4.064-1.826 5.493 1.023 2.035zm49.982-21.274c-.39-1.49-.09-1.951 1.134-1.75 1.059.175 1.612-.362 1.523-1.476-.087-1.098.565-1.75 1.75-1.75 1.04 0 1.89-.45 1.89-1s.837-1 1.86-1c1.458 0 1.756.555 1.373 2.558-.279 1.46-1.007 2.36-1.695 2.095-.664-.255-2.02.62-3.013 1.942-2.205 2.936-4.114 3.087-4.822.381zM37.318 77c-1.292-.835-1.266-.971.191-.985.93-.008 1.97.435 2.31.985.781 1.266-.542 1.266-2.5 0zm12.44-1.227c.216-.7.654-2.47.974-3.935.567-2.601.51-2.636-2.468-1.511-2.53.955-3.573.85-6.133-.62-3.693-2.12-4.83-1.489-2.318 1.287.998 1.103 1.322 2.006.72 2.006-.603 0-1.404-.498-1.78-1.107-.48-.774-.93-.708-1.505.221-1.39 2.248-2.433-.043-2.245-4.924.1-2.556-.294-5.22-.875-5.919-1.35-1.627 2.393-1.67 14.631-.169 7.861.964 9.082.904 10.11-.503 1.553-2.123 2.45-2.02 2.45.279 0 2.167-1.642 3.736-4.5 4.304-1.506.298-1.95 1.102-1.793 3.251.252 3.45-1.076 6.158-3.708 7.567-1.484.795-1.86.74-1.56-.227zm-1.022-8.38c.87-.334 1.582-1.195 1.582-1.913 0-1.042-.619-1.073-3.062-.15-2.757 1.04-3.242.918-4.857-1.223-1.142-1.514-2.042-1.98-2.474-1.28-.374.605.237 2.016 1.357 3.137 2.059 2.058 4.563 2.539 7.454 1.429zm17.311 1.795c-2.074-.171-3.51-.734-3.19-1.25.794-1.286 6.19-1.187 7.002.129.872 1.41.61 1.487-3.812 1.121zm1.607-6.755c-1.073-2.796 1.226-3.69 2.47-.96.955 2.095.893 2.527-.359 2.527-.83 0-1.78-.705-2.11-1.567zm19.914 39.09c-.656-3.43-1.25-3.176-1.25.536 0 1.682.39 2.818.866 2.524.476-.294.649-1.671.384-3.06zm2.125-2.398c-.351-1.757-.847-2.986-1.102-2.731-.255.255-.152 1.877.227 3.606.38 1.729.876 2.958 1.102 2.731.227-.226.125-1.85-.227-3.606zm-58.407-1.434c-.03-2.119-.079-2.129-1.467-.294-.79 1.044-1.195 2.289-.9 2.767.892 1.442 2.401-.134 2.367-2.473zm28.832.109c.66-.66 1.2-2.01 1.2-3 0-1.435.816-1.8 4.025-1.8 3.342 0 4.181.412 4.949 2.43.833 2.192 1.175 2.315 3.488 1.25 3.824-1.76 2.72-4.008-2.399-4.882-2.43-.415-4.855-1.19-5.388-1.723-1.357-1.358-9.732 5.612-9.009 7.497.67 1.743 1.555 1.807 3.134.228zm-4.438-6.3c.316-.825.14-1.5-.393-1.5s-.969.675-.969 1.5.177 1.5.393 1.5c.216 0 .652-.675.969-1.5zM19.318 78c0-1.65-.393-3-.875-3-.481 0-1.145-1.35-1.475-3-.33-1.65-1.11-3-1.732-3-.622 0-.859.712-.525 1.582.334.87.607 3.57.607 6 0 3.751.302 4.418 2 4.418 1.556 0 2-.667 2-3zm-9.837.75c1.932-1.563 4.837-5.871 4.837-7.173 0-.537-.54-.437-1.2.223-1.748 1.748-3.27 1.471-1.78-.324.696-.838 1.037-1.752.758-2.031-.279-.28-1.299.744-2.267 2.274-.969 1.53-2.67 3.507-3.78 4.394C4.011 77.74 4.381 80 6.686 80c.688 0 1.945-.563 2.795-1.25zm94.195-12.5c1.125-6.804.736-12.928-.909-14.292-.895-.743-4.596-1.36-8.75-1.46-3.96-.095-9.787-1.003-12.95-2.018-5.17-1.66-6.435-1.714-12.5-.535-8.992 1.747-10.414 2.608-5.613 3.4 2.125.35 5.062 1.268 6.525 2.04 2.267 1.196 3.602 1.202 9 .045 3.487-.748 7.52-1.376 8.962-1.395 3.67-.049 10.523 7.51 11.446 12.625.85 4.7 1.192 5.34 2.86 5.34.737 0 1.58-1.64 1.93-3.75zm-87.608-1.642c-.962-.73-1.75-1.931-1.75-2.668 0-1.042.267-1.073 1.2-.14 1.865 1.864 2.97 1.421 2.62-1.05-.501-3.528-4.547-3.596-5.877-.1-.875 2.302-.754 3.015.69 4.07.962.704 2.451 1.266 3.308 1.248 1.32-.027 1.291-.235-.19-1.36zm9.556-10.541c.443-.428 1.192-3.514 1.665-6.858.472-3.345 2.431-9.597 4.353-13.895 1.921-4.298 3.707-8.714 3.969-9.814.425-1.79.487-1.761.591.272.064 1.249-1.416 6.199-3.29 11C29.357 43.886 27.409 53 29.018 53c.51 0 2.788-.9 5.065-2 2.277-1.1 5.511-2 7.188-2 2.976 0 3.048-.114 3.048-4.824 0-2.653 1.06-8.39 2.355-12.75 1.295-4.36 2.67-10.354 3.054-13.321.384-2.967 1.584-7.13 2.665-9.25C53.994 5.715 54.09 5 52.904 5c-5.117 0-11.78 5.217-14.69 11.5-1.018 2.2-1.86 3.325-1.87 2.5-.01-.825.86-2.94 1.934-4.702 1.353-2.22 1.53-3.04.573-2.672-1.514.581-3.614 4.694-5.55 10.874-.689 2.2-2.297 5.806-3.574 8.014-2.523 4.361-5.37 15.044-5.394 20.236-.008 1.788-.465 3.25-1.015 3.25-2.554 0 .767-16.635 4.992-25 3.27-6.476 7.136-16.206 6.636-16.705-.192-.193-2.672 1.738-5.511 4.29-6.199 5.573-12.723 16.18-14.767 24.009-1.561 5.978-1.231 9.335 1.303 13.251 1.303 2.013 2.038 2.25 5.183 1.672 2.015-.37 4.027-1.023 4.47-1.45zm83.343-8.456c1.09-2.288 1.4-4.54.95-6.937-.782-4.17-6.103-12.362-9.427-14.514-2.327-1.507-2.327-1.507-1.616 2.416.391 2.158 1.376 5.235 2.188 6.838.976 1.925 1.326 4.737 1.03 8.292-.346 4.186-.094 5.584 1.14 6.306 2.774 1.622 4.076 1.076 5.735-2.4zm-59.905-2.689c.232-4.212 3.521-22.046 5.242-28.422 1.861-6.895.975 6.592-.986 15-2.395 10.274-2.592 16.335-.556 17.117.795.305 6.195-.46 12-1.698 11.93-2.546 11.99-2.623 8.999-11.436-.857-2.523-1.696-8.276-1.865-12.785-.18-4.83-1.024-9.944-2.051-12.448C68.185 4.203 67.901 4 63.91 4c-2.306 0-4.732.54-5.392 1.2-.933.933-1.2.906-1.2-.122 0-1.061-.296-1.077-1.497-.08-1.898 1.575-5.503 13.125-5.503 17.632 0 1.881-.9 5.98-2 9.11-2.284 6.5-2.76 16.677-.75 16.016.696-.229 1.358-2.374 1.494-4.834zM55.334 9.81c-.009-.93.434-1.97.984-2.309 1.266-.782 1.266.542 0 2.5-.835 1.293-.971 1.266-.984-.191zM97.12 41.796c.183-2.847-.263-5.612-1.131-7-.789-1.263-1.714-5.864-2.055-10.225-.36-4.593-1.291-8.952-2.213-10.359-1.541-2.352-13.052-8.276-18.654-9.6-3.225-.762-3.154-1.01-1.25 4.388.825 2.338 1.5 7.316 1.5 11.06 0 3.746.498 8.077 1.107 9.625.61 1.548 1.397 5.028 1.75 7.733.354 2.705 1.206 5.105 1.893 5.334 1.802.598 1.555-2.554-.795-10.163-1.451-4.699-1.944-8.578-1.696-13.356l.35-6.733.2 7c.137 4.79.98 8.894 2.672 13 1.36 3.3 2.482 7.26 2.496 8.798.03 3.548 4.546 5.775 11.023 5.437l4.5-.235.303-4.704zm1.76-9.568c-.86-2.521-1.563-6.278-1.563-8.347 0-2.07-.45-4.041-1-4.381-1.917-1.185-1.122 10.34 1 14.5 1.1 2.156 2.079 5.626 2.175 7.71.175 3.787.175 3.787.562-.554.213-2.389-.316-6.406-1.175-8.928z" fill="#969696"/><path d="M57.318 118.067c0-.513-1.417-.893-3.149-.844-1.862.053-3.644-.587-4.36-1.567-.666-.91-1.724-1.656-2.351-1.656s-1.14-.498-1.14-1.107-.627-.866-1.393-.572c-.767.294-2.42-.558-3.675-1.893C39.6 108.67 37.904 108 35.104 108c-3.17 0-4.55-.699-7.678-3.89-2.098-2.14-4.108-5.178-4.468-6.75-2.52-11.02-3.317-12.763-6.18-13.529-1.562-.418-3.218-1.435-3.68-2.26-.648-1.159-1.352-1.267-3.088-.476-2.627 1.196-7.427-.242-8.287-2.484-.321-.836 1.347-3.31 4.068-6.03 4.2-4.201 4.554-4.923 3.961-8.08-.484-2.584-.114-4.378 1.452-7.032 1.957-3.317 2-3.809.608-7.138-3.792-9.076-.207-19.899 10.443-31.52C30.978 9.29 44 3.127 60.248.83c6.505-.92 8.57-.827 13.52.613 12.473 3.625 17.662 6.92 26.88 17.069 14.842 16.339 16.82 23.636 8.754 32.3-2.874 3.086-3.084 3.82-3.084 10.774 0 7.04.142 7.517 2.5 8.414 3.387 1.288 3.151 3.577-.5 4.85-1.65.575-3.055 1.632-3.122 2.348-.067.716-.296 3.327-.507 5.802-.537 6.28-.877 8.383-1.537 9.518-.314.54-.876 2.67-1.248 4.732-.403 2.233-1.245 3.75-2.081 3.75-.773 0-1.765.614-2.205 1.365-.939 1.602-5.654 4.08-9.531 5.01-1.503.36-4.203 1.931-6 3.493-5.972 5.187-8.562 6.129-17.519 6.371-2.887.079-5.25.507-5.25.952 0 .445-.45.809-1 .809s-1-.42-1-.933zm-14.15-22.198c2.973-6.064 5.728-10.088 8.7-12.704 3.276-2.883 4.216-4.345 3.805-5.916-.3-1.147-.031-2.91.598-3.917 1.005-1.611 1.064-1.546.488.543-.918 3.329.816 4.092 9.342 4.11 6.567.013 7.36-.198 8.085-2.156.478-1.292 1.073-1.734 1.47-1.092.366.593.289 2.098-.172 3.345-.687 1.857-.248 2.785 2.437 5.142 1.801 1.582 3.791 4.44 4.422 6.35.754 2.284 1.693 3.38 2.743 3.2 1.14-.195 2.114 1.302 3.4 5.226 1.564 4.771 1.714 2.771.178-2.375-.342-1.144-.158-1.627.47-1.239.567.35 1.326 1.982 1.687 3.625.36 1.644 1.284 2.989 2.052 2.989 1.085 0 1.179-.571.42-2.565C92.09 95.268 92.087 95 93.252 95c.513 0 1.218.9 1.567 2 .35 1.1 1.055 2 1.568 2 1.49 0 1.081-2.173-.818-4.34-1.611-1.841-1.615-1.95-.05-1.38 1.271.463 1.542.21 1.076-1.005-.466-1.214-.202-1.46 1.05-.98 2.284.876 2.101-.212-.5-2.98-2.173-2.314-1.28-3.369.958-1.132 1.749 1.75 2.836.038 1.418-2.232-.973-1.557-.965-1.906.038-1.705.693.14 1.302-.421 1.352-1.246.05-.825.441-2.756.868-4.29.582-2.09.315-3.301-1.063-4.824-1.959-2.165-3.146-2.106-9.897.489-6.529 2.51-11.183 2.095-14.577-1.298-2.322-2.322-2.926-3.813-2.938-7.25-.008-2.38-.346-4.787-.75-5.35-1.761-2.453-6.585-4.645-9.097-4.135-1.451.295-3.988.779-5.638 1.074l-3 .538 2.75-1.17c3.795-1.615 3.453-2.518-1.457-3.84-5.778-1.556-16.156-.3-22.001 2.662-2.6 1.317-6.428 2.664-8.509 2.993-2.08.33-4.171.837-4.646 1.129-1.009.62.594 16.36 2.064 20.272.31.825.71 2.619.888 3.986.179 1.367.778 2.636 1.332 2.82.643.215.582 1.017-.169 2.22-1.801 2.884-.063 3.571 2.19.866 1.951-2.343 2.654-1.608 1.453 1.52-.332.867-1.01 1.326-1.507 1.019-1.853-1.145-2.078 2.672-.256 4.349 1.027.946 1.868 2.282 1.868 2.97 0 2.782 2.093.987 3.498-3l1.498-4.25.322 3.344c.196 2.03-.293 4.024-1.247 5.078-1.715 1.895-2.085 4.078-.693 4.078.483 0 1.585-1.013 2.448-2.25.863-1.238 1.593-1.714 1.622-1.059.029.655-.398 1.47-.948 1.809-1.738 1.075-1.085 2.25 1.25 2.247 1.837-.002 3.05-1.633 6.6-8.878zm43.85-13.91c-.433-1.654-.17-1.926 1.383-1.433 1.461.464 1.917.124 1.917-1.427 0-1.4.47-1.856 1.5-1.46.95.364 1.5-.014 1.5-1.032 0-.884.675-1.607 1.5-1.607.95 0 1.5.956 1.5 2.607 0 1.762-.432 2.441-1.334 2.095-.733-.281-2.147.57-3.14 1.893-2.21 2.943-4.114 3.086-4.826.364zm-36.424-9.091l.56-3.632-2.97 1.12c-2.436.92-3.522.804-6.053-.649-3.51-2.014-4.762-1.571-2.705.956 1.226 1.507 1.184 1.633-.358 1.056-.962-.361-1.75-.194-1.75.371 0 .566-.505.716-1.123.334-.717-.443-.916-2.446-.55-5.537.46-3.889.239-5.054-1.126-5.913-1.908-1.201 13.39-.441 20.018.994 3.173.687 3.806.529 4.317-1.081.637-2.005 2.464-2.614 2.464-.821 0 2.572-2.224 4.934-4.646 4.934-2.375 0-2.528.259-1.954 3.316.516 2.752.171 3.729-2.03 5.75L50.033 76.5l.56-3.632zm-.35-6.279c1.49-1.796-.55-3.365-2.213-1.702-1.742 1.742-4.538 1.308-5.713-.887-1.12-2.093-3-2.72-3-1 0 3.826 8.431 6.596 10.926 3.589zM62.818 68c.34-.55 1.915-1 3.5-1s3.16.45 3.5 1c.374.605-1.009 1-3.5 1-2.49 0-3.874-.395-3.5-1zm4.836-5.567c-1.073-2.796 1.226-3.69 2.47-.96.955 2.095.893 2.527-.359 2.527-.83 0-1.78-.705-2.11-1.567zm19.91 39.076c-.517-2.707-2.255-4.511-2.232-2.318.026 2.541 1.223 5.78 1.966 5.322.414-.256.534-1.608.267-3.004zM61.64 94.394c-.404-1.052.472-1.394 3.572-1.394 2.774 0 4.107.437 4.107 1.345 0 .74.9 2.16 2 3.155 1.799 1.628 2 1.643 2 .155 0-.91.675-1.655 1.5-1.655.834 0 1.5-.889 1.5-2 0-1.588-.668-2.001-3.25-2.006-1.787-.003-4.41-.612-5.828-1.352-2.398-1.251-2.875-1.093-6.812 2.264-3.141 2.679-4.055 4.073-3.543 5.406.644 1.68.837 1.657 2.989-.364 1.265-1.189 2.06-2.788 1.765-3.554zm-5.885-4.292c-.628-.628-2.413 1.912-2.389 3.398.01.55.673.133 1.475-.927s1.213-2.172.914-2.471zM19.318 78.059c0-1.618-.495-3.247-1.1-3.621-.612-.378-.855-1.912-.547-3.454.453-2.263.241-2.69-1.151-2.326-1.361.355-1.673 1.498-1.543 5.644.09 2.859.204 5.536.253 5.948.048.413.988.75 2.088.75 1.547 0 2-.667 2-2.941zm-9.944.911c1.727-.924 4.944-5.832 4.944-7.543 0-.37-.74-.058-1.644.693-1.469 1.219-1.572 1.098-.972-1.128l.672-2.492-1.778 2.498c-.978 1.374-2.831 3.488-4.118 4.699-3.47 3.262-1.417 5.582 2.896 3.273zm94.32-12.095c.343-1.719.624-5.714.624-8.879 0-5.36-.187-5.823-2.75-6.781-1.512-.565-5.675-1.014-9.25-.998-3.804.017-8.105-.644-10.372-1.594-4.59-1.924-8.578-2.039-15.801-.455-7.381 1.617-7.646 2.248-1.585 3.77 2.892.726 5.778 1.731 6.414 2.235.714.566 3.693.326 7.812-.63C82.446 52.696 86.5 52 87.796 52c3.243 0 10.276 8.129 11.13 12.864.809 4.489 1.165 5.136 2.826 5.136.724 0 1.598-1.406 1.941-3.125zm-87.72-2.704c-1.883-2.08-2.291-4.206-.456-2.371 1.865 1.864 2.97 1.421 2.62-1.05-.493-3.468-4.544-3.605-5.84-.198-1.21 3.182.163 5.448 3.298 5.448 1.905 0 1.929-.114.377-1.829zm9.883-10.204c.88-.729 1.461-2.977 1.461-5.64 0-2.893 1.344-7.62 3.873-13.628 2.13-5.06 4.12-9.874 4.421-10.699.39-1.066.566-.921.609.5.033 1.1-1.501 5.792-3.41 10.426C29.186 43.728 27.271 53 29.081 53c.56 0 2.98-.89 5.378-1.978s5.597-1.988 7.11-2c2.632-.021 2.75-.237 2.75-5.054 0-2.767.948-7.83 2.107-11.25 1.159-3.42 2.456-8.243 2.882-10.718.768-4.457.776-4.465.893-.84.064 2.014-.777 6.514-1.87 10-2.287 7.297-2.744 17.247-.763 16.596.688-.226 1.361-2.176 1.497-4.333.135-2.158 1.194-8.648 2.352-14.423 3.545-17.674 3.7-18.179 3.308-10.74-.197 3.719-1.067 9.498-1.933 12.842-.867 3.344-1.44 8.177-1.275 10.74.298 4.614.335 4.657 3.801 4.594 3.623-.067 19.082-3.184 19.914-4.016.259-.26-.082-2.822-.757-5.696C73.8 33.851 72.848 27 72.36 21.5c-.487-5.5-1.612-11.71-2.499-13.801L68.25 3.898l-5.98.215c-6.683.242-7.292.704-9.979 7.58-1.033 2.644-1.89 4.132-1.903 3.307-.014-.825.869-3.47 1.961-5.877l1.986-4.376-3.258.64c-1.792.352-4.477 1.534-5.967 2.627C43.619 9.106 41.739 10 40.93 10c-2.139 0-5.443 4.637-6.683 9.38-.593 2.266-2.653 7.341-4.578 11.279-2.031 4.155-3.94 10.029-4.55 14-1.308 8.519-1.942 10.547-2.53 8.091-.718-3.005 2.629-17.015 5.312-22.234 1.41-2.74 3.378-7.24 4.375-10 .997-2.759 2.176-5.916 2.62-7.016.675-1.67.157-1.509-3.135.97-4.896 3.686-6.95 6.136-11.653 13.904-2.04 3.37-4.402 6.839-5.25 7.71-.847.871-1.51 2.221-1.47 3 .043.869.437.643 1.02-.584 1.015-2.136 1.061-2.495-.744 5.769-.356 1.634.115 4.652 1.151 7.364 1.738 4.55 1.795 4.591 5.668 4.072 2.152-.289 4.57-1.07 5.373-1.738zm82.905-7.19c2.055-2.934 1.936-7.345-.334-12.342-1.953-4.3-7.702-11.435-9.213-11.435-1.489 0-1.016 3.624 1.2 9.213 1.536 3.869 1.952 6.556 1.55 10.015-.437 3.78-.206 4.927 1.153 5.72 2.617 1.526 3.948 1.25 5.644-1.17zm-11.086-2.814c.361-1.808-.046-4.741-1.006-7.25-.888-2.317-1.713-6.238-1.835-8.713-.177-3.597-.138-3.72.195-.617.229 2.135 1.17 5.034 2.093 6.441.921 1.407 1.977 4.835 2.345 7.617l.67 5.059-.258-6c-.141-3.3-.824-8.7-1.517-12-.694-3.3-1.442-6.997-1.663-8.215-.224-1.234-.951-2.015-1.642-1.765-.682.247-1.915-1.006-2.74-2.785-1.151-2.483-3.263-4.105-9.086-6.977-4.173-2.059-9.055-4.036-10.85-4.395l-3.265-.653 1.758 3.395C72.012 9.3 72.864 14.03 73.287 20.5c.36 5.5 1.19 10.983 1.843 12.184.654 1.202 1.188 3.988 1.188 6.191 0 2.204.453 4.287 1.007 4.63 2.163 1.336 2.198-3.088.082-10.41-1.421-4.919-2.078-9.448-1.832-12.632l.383-4.963.18 5.628c.1 3.095.928 7.37 1.841 9.5.914 2.13 2.184 6.122 2.823 8.872 1.384 5.956 3.629 7.464 11.141 7.485 4.913.014 5.15-.11 5.733-3.022z" fill="#878787"/><path d="M57.318 118c0-.55-1.318-1-2.928-1-1.611 0-3.604-.675-4.429-1.5-.825-.825-1.982-1.5-2.571-1.5-.59 0-1.072-.498-1.072-1.107s-.627-.866-1.393-.572c-.767.294-2.368-.502-3.559-1.77-1.393-1.483-3.728-2.48-6.552-2.799-6.532-.736-10.495-5.387-13.081-15.354-1.826-7.037-2.296-7.856-4.908-8.555-1.588-.424-3.276-1.466-3.75-2.314-.679-1.212-1.3-1.309-2.9-.452-2.372 1.27-7.363-.347-8.255-2.672-.317-.827 1.33-3.284 3.97-5.925 4.1-4.1 4.453-4.83 3.862-7.98-.483-2.579-.114-4.376 1.44-7.01 1.99-3.372 2.012-3.734.487-7.547-3.624-9.057.02-19.344 11.271-31.81C30.778 9.459 44.437 3.106 59.933.93 68.58-.284 73.45.653 84.32 5.622c6.742 3.082 8.926 4.786 15.94 12.435C110.848 29.6 113.293 33.902 113.302 41c.006 4.897-.376 5.917-3.488 9.306-3.341 3.638-3.495 4.133-3.495 11.274 0 7.047.142 7.523 2.5 8.42 3.466 1.318 3.187 3.913-.5 4.65-1.744.349-3.068 1.28-3.162 2.225-.09.894-.286 3.2-.438 5.125-.519 6.594-1.075 10.008-1.737 10.67-.364.365-.663 1.687-.663 2.938 0 1.25-.457 2.557-1.016 2.902-.559.346-.757 1.047-.441 1.56.316.511-.026.93-.761.93-.736 0-2.063.847-2.95 1.883-.886 1.036-4.024 2.68-6.972 3.653-2.948.973-7.136 3.282-9.307 5.131-2.17 1.85-5.77 3.896-8 4.549-5.02 1.47-11.806 1.62-12.787.284-.415-.565-.742-.238-.75.75-.008.963-.466 1.75-1.016 1.75s-1-.45-1-1zm-15.44-16.085c.088-4.988 5.098-14.466 9.755-18.452C53.858 81.558 56.038 80 56.477 80c.439 0 .28-1.137-.353-2.527-.772-1.695-.82-2.859-.146-3.533.675-.674.979-.258.923 1.265-.075 2.06.506 2.337 6.24 2.98 7.054.792 11.177-.264 11.177-2.86 0-1.184.323-1.402 1.03-.695.639.638.702 1.92.167 3.367-.72 1.946-.25 2.949 2.813 6.013 2.034 2.034 3.97 5.143 4.334 6.957.552 2.763.89 3.084 2.144 2.043 1.668-1.384 1.575-1.527 3.914 5.99.77 2.475 1.445 3.742 1.5 2.815.054-.927-.34-2.84-.877-4.25-.536-1.41-.601-2.565-.145-2.565.457 0 1.234 1.384 1.726 3.075.492 1.692 1.344 2.93 1.894 2.75 1.088-.354 1.094-1.255.028-4.325-.6-1.725-.405-1.67 1.414.392 2.396 2.718 4.11 2.021 2.27-.924-1.529-2.448-1.544-3.291-.042-2.363.805.498.954.16.477-1.082-.568-1.482-.435-1.593.741-.616 2.257 1.873 2.812-.417.589-2.428-2.301-2.082-2.716-4.337-.453-2.459 2.073 1.72 3.186.346 1.678-2.069-.91-1.457-.923-1.893-.051-1.705 1.276.276 2.591-3.23 2.75-7.327.068-1.761-.66-2.988-2.294-3.862-2.039-1.091-3.228-.968-8.037.831-11.622 4.348-17.524 1.713-18.345-8.192-.428-5.161-.76-5.815-3.903-7.669-3.649-2.152-8.794-2.69-9.822-1.027-.34.55-1.604.952-2.809.894-1.957-.095-1.895-.224.576-1.2 1.522-.6 2.618-1.54 2.435-2.088-1.17-3.51-19.4-2.896-26.702.9-2.475 1.286-6.075 2.605-8 2.93-6.45 1.093-6.275.03-2.974 18.064.705 3.85 1.258 8.043 1.23 9.318-.036 1.575.39 2.148 1.331 1.787 1.126-.432 1.16-.174.187 1.387-1.843 2.95.113 3.804 2.272.993 1.424-1.853 1.915-2.071 1.932-.857.012.895-.954 2.276-2.147 3.068l-2.17 1.44 1.92 4.154c1.056 2.285 2.319 4.033 2.808 3.886.488-.148 1.713-2.272 2.72-4.722L34.26 91.5l-.335 3.772c-.185 2.074-1.101 4.617-2.036 5.65-1.264 1.396-1.392 2.07-.499 2.623.717.443 1.946-.224 3.043-1.651 1.013-1.317 1.85-1.858 1.863-1.203.012.655-.428 1.47-.978 1.809-1.496.924-1.206 2.793.341 2.2.737-.283 1.975-.114 2.75.376 2.309 1.46 3.406.46 3.47-3.16zm-2.56 2.203c0-.55.45-1.278 1-1.618.55-.34 1-.168 1 .382s-.45 1.278-1 1.618c-.55.34-1 .168-1-.382zm47.7-22.16c-.433-1.653-.17-1.925 1.383-1.432 1.461.464 1.917.124 1.917-1.427 0-1.4.47-1.856 1.5-1.46.969.371 1.5-.024 1.5-1.115 0-2.417 2.438-1.293 2.82 1.3.238 1.62-.077 2.015-1.25 1.564-.864-.331-1.57-.104-1.57.505S92.691 81 91.925 81s-1.652.675-1.968 1.5c-.818 2.131-2.312 1.856-2.94-.541zm-36.45-8.42c0-1.416.394-2.818.875-3.115 2.22-1.372.562-2.141-1.875-.87-3.729 1.945-5.511 1.816-8.615-.626-1.893-1.489-2.635-1.686-2.635-.7 0 .755.563 1.98 1.25 2.72 1.02 1.1.929 1.234-.5.732-.962-.34-1.75-.154-1.75.411 0 .566-.5.719-1.112.34-.717-.443-.885-2.392-.474-5.494.528-3.978.332-4.986-1.138-5.841-1.465-.853-1.164-1.034 1.724-1.034 4.132 0 17.61 1.68 20.279 2.527 1.331.423 2.017-.004 2.408-1.498.562-2.15 2.313-2.925 2.313-1.024 0 2.572-2.224 4.934-4.646 4.934-2.375 0-2.528.259-1.954 3.316.503 2.681.166 3.744-1.764 5.557l-2.386 2.24V73.54zm-.324-6.949c1.49-1.796-.55-3.365-2.213-1.702-1.79 1.79-4.854 1.288-5.423-.887-.555-2.123-3.29-2.811-3.29-.829 0 3.994 8.295 6.589 10.926 3.418zm13.824 1.19c1.618-.78 2.883-.78 4.5 0 1.976.953 1.701 1.086-2.25 1.086-3.95 0-4.225-.133-2.25-1.085zm3.917-4.446c-.911-.91-.844-3.333.093-3.333.417 0 1.321.9 2.008 2 1.016 1.627.999 2-.093 2-.738 0-1.641-.3-2.008-.667zm19.94 40.085c-.334-.87-.607-2.445-.607-3.5 0-1.055-.45-1.918-1-1.918-1.112 0-1.328 2.98-.393 5.418.334.87 1.057 1.582 1.607 1.582s.727-.712.393-1.582zm-25.901-8.8c-.114-.62 1.466-1.256 3.544-1.428 2.702-.224 3.75.082 3.75 1.095 0 .773.9 2.22 2 3.215 1.892 1.712 2 1.715 2 .048 0-1.11.525-1.56 1.418-1.218.779.299 1.637-.031 1.907-.734.821-2.14-.94-3.847-3.961-3.837-1.575.005-4.017-.581-5.426-1.303-2.382-1.221-2.892-1.032-7.232 2.677-3.79 3.24-4.437 4.245-3.437 5.34 1.024 1.124 1.602 1.007 3.437-.694 1.213-1.124 2.113-2.547 2-3.162zm-6.27-4.516c-.628-.628-2.413 1.912-2.389 3.398.01.55.673.133 1.475-.927s1.213-2.172.914-2.471zm2.09-8.909c-.307-.308-1.114 0-1.792.683-.98.988-.866 1.102.56.56.986-.376 1.54-.935 1.233-1.243zM19.509 77.5c-.225-1.925-.866-3.5-1.424-3.5-.592 0-.769-1.234-.425-2.956.498-2.487.32-2.86-1.125-2.355-.943.33-2.531 1.548-3.528 2.706L11.193 73.5l.65-2.5c.54-2.082-.027-1.747-3.392 2-4.193 4.669-4.623 6.276-1.823 6.819 1.61.312 4.924-2.517 7.471-6.378 1.125-1.704 1.21-1.481.702 1.826-.696 4.526-.09 5.733 2.875 5.733 1.972 0 2.192-.42 1.832-3.5zm84.185-10.625c.344-1.719.625-5.697.625-8.84 0-5.153-.25-5.828-2.547-6.874-1.4-.639-5.563-1.18-9.25-1.205-3.686-.024-8.503-.692-10.703-1.485-5.742-2.068-12.378-1.705-21.486 1.177-.817.259 1.658 1.529 5.5 2.822 6.838 2.302 7.152 2.32 14.792.788 7.534-1.51 7.9-1.496 10.5.43 3.337 2.472 7.07 7.852 7.807 11.253.965 4.456 1.291 5.059 2.73 5.059.776 0 1.688-1.403 2.032-3.125zM17.318 65.36c0-.352-.787-1.275-1.75-2.052-1.613-1.3-1.573-1.363.5-.792 1.799.494 2.25.21 2.25-1.413 0-1.118-.873-2.5-1.94-3.071-1.567-.839-2.242-.61-3.5 1.187-1.873 2.673-1.957 3.984-.36 5.581 1.255 1.254 4.8 1.668 4.8.56zm9.083-10.911c.505-.312.928-2.678.941-5.258.014-2.75 1.08-7.174 2.578-10.691 1.405-3.3 3.403-8.25 4.44-11 1.037-2.75 1.902-4.187 1.922-3.193.02.993-1.57 5.685-3.532 10.425C29.081 43.596 27.187 53 29.07 53c.566 0 2.992-.89 5.39-1.978 2.397-1.088 5.53-1.988 6.963-2 2.487-.021 2.633-.328 3.209-6.772.332-3.712 1.501-9 2.598-11.75 2.249-5.638 2.864-3.611.677 2.23-3.084 8.235-2.944 15.685.282 15.049 1.252-.248 1.555-1.262 1.31-4.381-.176-2.233.594-8.073 1.71-12.979C52.325 25.514 53.42 20.375 53.642 19c.254-1.573.449-1.017.524 1.5.067 2.2-.53 6.7-1.328 10-.797 3.3-1.465 8.363-1.484 11.25-.034 4.971.1 5.25 2.517 5.25 1.404 0 5.791-.696 9.75-1.546 3.958-.85 8.21-1.76 9.447-2.02 2.707-.568 2.988-4.114.845-10.649-.773-2.357-1.587-8.12-1.81-12.807-.528-11.174-2.927-16.549-7.285-16.322-6.848.356-8.77.886-10.22 2.814-1.194 1.588-1.397 1.65-.934.28.428-1.268.058-1.75-1.343-1.75-2.391 0-9.003 3.074-9.003 4.185 0 .448-.867.815-1.927.815-2.696 0-5.831 4.362-7.662 10.66-.855 2.94-2.69 7.376-4.077 9.86-2.988 5.345-5.305 13.5-5.322 18.73-.006 2.063-.462 3.75-1.012 3.75-1.346 0-1.265-1.587.516-10.185.834-4.023 2.675-9.565 4.093-12.315 2.98-5.782 7.586-17.638 7.058-18.167-.649-.649-7.726 5.466-10.827 9.356-1.671 2.096-3.946 5.611-5.056 7.811-1.11 2.2-2.745 4.828-3.636 5.84-2.325 2.64-2.575 12.184-.446 17.018 1.676 3.805 1.76 3.85 6.082 3.258 2.41-.33 4.795-.856 5.3-1.167zm82.36-7.672c3.182-4.542 1.288-12.529-4.54-19.15-2.24-2.545-4.66-4.627-5.38-4.627-.718 0-1.588-1.125-1.933-2.5S95.614 18 94.799 18c-.814 0-1.48-.597-1.48-1.326 0-.729-1.013-2.275-2.25-3.437-2.687-2.52-13.978-7.935-18.381-8.814l-3.13-.625 1.847 5.35c1.056 3.06 1.862 8.216 1.88 12.037.019 3.677.557 7.952 1.197 9.5s1.427 5.03 1.75 7.736c.322 2.706 1.149 5.106 1.836 5.333 1.745.576 1.61-4.484-.26-9.784-.831-2.355-1.308-4.485-1.059-4.734.76-.76 3.64 7.007 4.251 11.46.486 3.547 1.044 4.361 3.596 5.251 1.661.58 5.183 1.053 7.826 1.053 4.664 0 4.824-.1 5.437-3.365.442-2.358-.018-4.873-1.537-8.404-1.192-2.772-1.967-6.095-1.722-7.386.4-2.104.46-2.058.582.44.075 1.532.92 3.98 1.877 5.441.957 1.461 1.97 4.921 2.25 7.69.414 4.096.975 5.268 3.01 6.294 3.516 1.773 4.664 1.607 6.443-.933zm-8.427-5.945c-.008-3.118-.272-6.493-.585-7.5-.313-1.008.121-.707.965.668 1.734 2.828 2.06 8.748.604 11-.689 1.066-.974-.14-.984-4.168zM97.818 28c-.38-1.729-.482-3.351-.227-3.606.255-.255.75.974 1.102 2.731.834 4.168.026 4.976-.875.875zm-22.214-4.5c.007-2.75.202-3.756.432-2.236.23 1.52.224 3.77-.014 5-.237 1.23-.425-.014-.418-2.764z" fill="#777"/><path d="M57.318 118.19c0-.51-1.56-1.182-3.469-1.491-1.908-.31-4.48-1.505-5.715-2.656-1.235-1.15-2.823-1.87-3.529-1.6-.705.271-2.01-.618-2.9-1.975-1.251-1.91-2.479-2.468-5.433-2.468-2.967 0-4.783-.832-8.153-3.733-3.855-3.32-4.555-4.613-6.318-11.67-1.804-7.22-2.253-8.025-4.983-8.913-1.65-.538-3.35-1.57-3.78-2.295-.566-.958-1.454-1.06-3.253-.376-1.637.622-3.3.564-4.916-.172-4.156-1.894-3.92-3.764 1.026-8.118 4.381-3.856 4.573-4.245 4.002-8.136-.451-3.085-.114-4.877 1.378-7.306 1.832-2.984 1.87-3.523.51-7.376C8.114 39.5 12.22 29.036 25.019 16.19 33.709 7.466 50.919 1 65.449 1c6.571 0 8.922.525 16.423 3.665 8.96 3.75 10.55 5.02 22.32 17.822 9.438 10.267 11.631 19.29 6.49 26.71-1.45 2.091-3.025 3.803-3.5 3.803-.475 0-.864 3.825-.864 8.5 0 7.747.172 8.5 1.941 8.5 1.068 0 2.232.47 2.586 1.044.896 1.448-1.389 3.956-3.604 3.956-1.28 0-2.018.991-2.449 3.286-.339 1.808-.498 3.72-.354 4.25.144.53-.349 4.24-1.094 8.243-1.732 9.293-5.855 13.599-16.026 16.735-1.375.424-4.25 2.267-6.39 4.094-6.094 5.207-18.483 7.782-20.687 4.3-.727-1.147-.895-1.095-.907.283-.008.93-.466 1.97-1.016 2.309-.55.34-1 .2-1-.31zm-15.704-15.56c-.225-3.146 4.675-13.765 8.063-17.475 1.178-1.29 3.386-2.993 4.908-3.784 2.292-1.193 2.592-1.766 1.75-3.34-.56-1.045-.988-2.492-.953-3.215.035-.724.446-.37.913.787.698 1.726 2.033 2.224 7.448 2.78 7.138.73 10.565-.295 10.59-3.168.013-1.425.17-1.47.93-.269.56.884.54 2.147-.05 3.249-.764 1.429-.252 2.514 2.471 5.238 1.89 1.89 3.95 4.993 4.578 6.896.897 2.718 1.562 3.351 3.1 2.95 1.236-.324 1.958-.01 1.962.854.01 2.605 2.092 8.867 2.948 8.867.472 0 .62-1.012.328-2.25-.51-2.16-.473-2.174.94-.349 1.879 2.426 3.329.496 1.79-2.38-1.327-2.48-.211-2.676 1.546-.273 1.7 2.325 3.206.705 1.654-1.78-1.529-2.448-1.544-3.291-.042-2.363.805.498.954.16.477-1.082-.568-1.482-.436-1.593.741-.616.949.787 1.648.844 2.066.168.347-.562-.288-1.809-1.411-2.77-1.124-.962-2.043-2.155-2.043-2.65 0-.495.686-.33 1.524.365 2.056 1.706 3.19.354 1.703-2.028-.966-1.548-.938-1.818.148-1.402.928.356 1.542-.666 1.975-3.287.967-5.855.81-6.722-1.473-8.148-1.819-1.136-3.109-1.01-8.973.876C79.5 76.8 74.34 74.31 73.526 64.49c-.405-4.884-.807-5.697-3.7-7.485C68.043 55.902 65.399 55 63.95 55c-1.447 0-2.632-.415-2.632-.922 0-1.897-7.36-3.314-14.881-2.865-5.302.317-8.986 1.159-12.116 2.768-6.252 3.214-15.606 5.302-18.004 4.018-1.492-.798-2.202-.546-3.44 1.22C9.95 63.399 11.324 66 16.46 66c1.088 0 1.701-.446 1.364-.992-.337-.546-.169-1.783.374-2.75 1.226-2.185 1.495-1.486 3.173 8.242.664 3.85 1.572 8.496 2.018 10.325.445 1.828.564 3.966.263 4.75-.3.784-.09 1.425.467 1.425s.778.9.49 2c-.643 2.459 1.248 2.648 2.586.258.536-.958 1.339-1.377 1.784-.931.446.445-.262 1.618-1.572 2.606l-2.381 1.797 1.896 4.11c1.044 2.26 2.38 4.12 2.972 4.134.59.014 1.794-2.112 2.674-4.724l1.6-4.75-.361 3.852c-.2 2.118-1.095 4.661-1.99 5.65-1.971 2.179-.209 3.833 2.069 1.943 1.234-1.024 1.363-.927.783.587-.544 1.416-.329 1.674.977 1.173.92-.353 1.673-.175 1.673.396 0 .57 1.013.894 2.25.718 1.796-.256 2.209-.9 2.046-3.189zm45.975-20.683c-.09-1.21.35-1.646 1.296-1.283.96.369 1.433-.134 1.433-1.526 0-1.434.464-1.897 1.5-1.5.825.317 1.5.078 1.5-.531S93.993 76 94.818 76c.826 0 1.5.885 1.5 1.969 0 1.339-.48 1.784-1.5 1.393-.825-.317-1.5-.078-1.5.531S92.643 81 91.818 81s-1.5.402-1.5.893c0 1.803-2.593 1.854-2.729.054zM51.801 74.25c.35-.688.143-1.25-.459-1.25-.772 0-.79-.57-.059-1.934 1.597-2.985 1.276-3.242-1.956-1.57-3.241 1.676-7.185 1.201-9.09-1.094-1.993-2.401-3.235-1.534-1.53 1.068 1.378 2.103 1.395 2.384.115 1.893-.827-.317-1.504-.052-1.504.589s-.45.888-1 .548c-1.38-.853-1.258-5.841.177-7.276.901-.902.749-1.649-.655-3.2-1.779-1.966-1.776-2.024.1-2.024 2.844 0 18.593 1.99 20.635 2.608 1.195.361 2.054-.21 2.686-1.789.911-2.27.932-2.261.994.456.053 2.322-.442 2.876-3.033 3.394-2.762.553-3.036.92-2.538 3.411.394 1.967-.044 3.476-1.48 5.106-1.12 1.273-1.752 1.752-1.403 1.064zm2.487-4.75c0-.55-.437-.325-.97.5-.533.825-.97 1.95-.97 2.5s.437.325.97-.5c.533-.825.97-1.95.97-2.5zm-3.95-3.024c1.845-2.223.484-2.927-2.927-1.514-3.212 1.33-5.093.768-5.093-1.521 0-.793-.675-1.441-1.5-1.441-1.976 0-1.906 1.894.155 4.171 2.023 2.235 7.613 2.417 9.365.305zm13.73 1.237c1.541-.698 2.96-.687 4.5.034 1.948.912 1.646 1.049-2.25 1.02-3.874-.03-4.187-.176-2.25-1.054zm3.917-4.38c-.911-.91-.844-3.333.093-3.333.417 0 1.321.9 2.008 2 1.016 1.627.999 2-.093 2-.738 0-1.641-.3-2.008-.667zM57.318 56c1.959-1.266 3.282-1.266 2.5 0-.34.55-1.379.993-2.309.985-1.457-.014-1.483-.15-.19-.985zm30.63 46.75c-.331-1.238-.609-2.813-.616-3.5-.008-.688-.464-1.25-1.014-1.25-1.109 0-1.386 5.28-.333 6.333 1.438 1.438 2.536.553 1.964-1.583zM62.027 95c-.147-1.06.894-1.591 3.542-1.81 2.68-.222 3.75.085 3.75 1.075 0 .763 1.097 2.416 2.437 3.675 2.294 2.156 2.405 2.172 1.908.27-.388-1.483-.068-1.977 1.206-1.864.954.085 1.915-.356 2.136-.98.64-1.8-2.688-4.5-4.742-3.848-1.015.322-3.17-.1-4.788-.937-2.879-1.489-3.042-1.434-7.528 2.514-3.666 3.228-4.341 4.297-3.369 5.338.995 1.065 1.62 1.008 3.436-.316 1.22-.89 2.126-2.292 2.012-3.117zm-6.272-4.898c-.628-.628-2.413 1.912-2.389 3.398.01.55.673.133 1.475-.927s1.213-2.172.914-2.471zM57.818 82c.34-.55.168-1-.382-1s-1.278.45-1.618 1c-.34.55-.168 1 .382 1s1.278-.45 1.618-1zm-37.973-4.057c-.132-1.68-.755-3.57-1.383-4.2-1.437-1.437-1.49-3.743-.085-3.743.583 0 .806-.41.496-.91-.94-1.524-3.671-.578-5.731 1.985l-1.95 2.425.686-2.5c.582-2.126.03-1.826-3.688 2-2.958 3.045-4.09 4.904-3.5 5.75 1.667 2.387 4.621 1.243 7.746-3l3.13-4.25-.673 3.767c-.808 4.53-.206 5.733 2.868 5.733 1.978 0 2.289-.455 2.084-3.057zm83.843-10.193c.332-1.238.61-5.215.617-8.84.012-6.096-.177-6.676-2.534-7.75-1.4-.638-5.394-1.16-8.874-1.16-3.48 0-8.24-.675-10.579-1.5-5.012-1.768-9.416-1.812-17.182-.17-7.171 1.516-7.898 2.247-3.114 3.133 2.088.386 5.227 1.377 6.975 2.2 2.846 1.34 4.033 1.324 11.308-.16 7.539-1.538 8.31-1.54 10.633-.016 3.149 2.063 8.38 10.205 8.38 13.042 0 3.988 3.376 4.931 4.37 1.221zM27.396 48.459c.504-5.19 5.569-19.146 6.581-18.133.202.201-.808 3.023-2.244 6.27C28.788 43.256 27.3 53 29.228 53c.654 0 2.552-.704 4.216-1.565 1.665-.861 4.848-1.876 7.073-2.256l4.046-.69.294-6.646c.17-3.85.987-7.845 1.941-9.495.906-1.566 1.365-1.949 1.02-.85-3.02 9.62-2.892 16.935.286 16.283 1.312-.27 1.647-1.214 1.426-4.028-.159-2.023.613-7.632 1.715-12.465 1.103-4.833 2.178-10.138 2.39-11.788.346-2.704.398-2.638.533.671.083 2.02-.776 7.573-1.909 12.342-1.198 5.042-1.792 9.888-1.42 11.579.541 2.467 1.12 2.907 3.809 2.902 1.744-.003 4.97-.505 7.17-1.117 2.2-.611 6.025-1.4 8.5-1.752 4.004-.569 4.536-.95 4.823-3.447.177-1.544-.412-5.144-1.31-8-.988-3.139-1.485-7.366-1.258-10.686l.375-5.492.185 6.316c.102 3.473.73 7.298 1.397 8.5.667 1.201 1.454 4.398 1.75 7.105.296 2.706 1.1 5.106 1.788 5.333 1.702.562 1.564-5.128-.249-10.216-.776-2.179-1.254-4.119-1.062-4.31.833-.833 3.695 8.704 4.479 14.924C81.394 45.408 87.661 47 92.448 47c6.779 0 7.3-2.267 3.218-14-.287-.825.415-.15 1.559 1.5 1.282 1.849 2.083 4.584 2.087 7.128.007 4.453 1.048 5.842 5.15 6.872 2.058.517 2.981.16 4.243-1.642 3.743-5.343.809-14.426-7.153-22.15-2.604-2.525-6.658-6.821-9.01-9.547-3.43-3.979-5.83-5.584-12.163-8.136-4.338-1.75-8.714-3.076-9.724-2.949-1.01.127-2.641-.118-3.625-.544-.984-.426-3.684-.447-6-.045s-5.786.93-7.71 1.173c-1.925.243-4.738 1.094-6.25 1.891-1.514.797-4.118 2.165-5.789 3.04-3.704 1.942-5.685 4.836-7.548 11.026-.78 2.593-2.506 6.569-3.834 8.836-2.796 4.77-5.58 14.722-5.58 19.941 0 1.983-.45 3.606-1 3.606-1.36 0-1.261-1.126.998-11.345 1.076-4.865 2.978-10.476 4.229-12.469 1.962-3.128 4.3-8.747 6.47-15.55.527-1.651.343-1.728-1.627-.674-3.816 2.042-9.543 8.406-13.592 15.104-2.14 3.539-4.426 6.982-5.08 7.652-1.504 1.537-1.697 11.739-.303 16.024 1.426 4.385 3.37 5.285 8.327 3.853l4.077-1.177.578-5.96zm73.161-7.542c.035-2.43-.225-5.542-.578-6.917-.525-2.047-.38-1.956.804.5 1.657 3.44 1.91 7.36.608 9.417-.604.954-.876-.027-.834-3zm-6.16-11.5c.048-1.165.285-1.402.604-.605.29.722.254 1.585-.079 1.917-.332.332-.568-.258-.525-1.312zm-46-2c.048-1.165.285-1.402.604-.605.29.722.254 1.585-.079 1.917-.332.332-.568-.258-.525-1.312zm49-2c.048-1.165.285-1.402.604-.605.29.722.254 1.585-.079 1.917-.332.332-.568-.258-.525-1.312z" fill="#676767"/><path d="M57.318 118.059c0-.582-.96-1.059-2.132-1.059-2.477 0-8.868-3.705-8.868-5.14 0-.538-.483-.68-1.074-.314-.59.365-2.053-.226-3.25-1.313s-4.16-2.226-6.585-2.53c-6.748-.85-10.463-5.182-13.305-15.515-2.088-7.591-2.531-8.362-5.122-8.892-1.56-.32-3.048-1.133-3.307-1.809-.312-.812-1.894-1.068-4.667-.756-3.322.375-4.574.055-6.017-1.54-1.783-1.97-1.723-2.103 2.855-6.323 4.293-3.957 4.635-4.617 4.176-8.043-.343-2.553.107-4.867 1.423-7.322 1.794-3.348 1.82-3.89.398-8.081-.838-2.47-1.52-5.939-1.515-7.707.022-7.253 10.848-23.769 19.466-29.699C39.721 5.186 56.397.464 68 1.197c9.292.587 21.354 5.694 26.522 11.23 16.165 17.313 18.796 21.382 18.796 29.06 0 4.002-2.074 8.039-5.658 11.013-.7.58-1.33 4.307-1.504 8.893-.287 7.58-.202 7.928 2.145 8.796 1.344.498 2.637 1.098 2.873 1.334.85.85-2.142 3.477-3.96 3.477-2.057 0-3.453 3.762-2.602 7.015.285 1.09.103 2.24-.404 2.553-.507.314-.718.901-.467 1.306.25.405.005 2.512-.546 4.681-.55 2.17-1.047 4.602-1.105 5.405-.18 2.513-5.665 7.695-10.06 9.506-9.377 3.865-10.712 4.54-10.712 5.42 0 1.306-7.06 5.305-8.436 4.777-.631-.242-1.963.156-2.96.884-1.214.888-2.558 1.04-4.08.462-1.44-.548-2.67-.462-3.366.234-.796.795-1.362.431-2.064-1.323-.932-2.333-.97-2.341-1.03-.229-.063 2.149-2.064 4.446-2.064 2.368zm-14.932-14.186c.857-1.6.85-2.306-.026-2.847-1.584-.979 2.796-9.997 4.908-10.105 1.04-.053 1.137-.246.293-.586-1.8-.726 2.204-6.076 6.403-8.553 2.837-1.674 3.172-2.253 2.276-3.928-.578-1.08-.833-2.502-.566-3.16.268-.656.522-.395.565.58.104 2.34 3.998 3.73 10.394 3.71 5.498-.016 6.986-.568 8.04-2.984.36-.825.476-.19.258 1.41-.308 2.256.357 3.688 2.954 6.362 1.844 1.898 3.86 4.993 4.483 6.878.872 2.643 1.547 3.296 2.946 2.851 1.475-.468 1.936.138 2.46 3.232.951 5.635 1.845 6.711 4.426 5.33 1.675-.896 2-1.728 1.509-3.853-.604-2.607-.57-2.634.909-.712 1.811 2.355 3.618 1.2 2.05-1.31-.818-1.309-.695-2.076.513-3.205.873-.815 1.813-1.337 2.088-1.158.274.179.647-.117.827-.657.18-.54-.71-1.74-1.975-2.667-2.238-1.639-2.242-1.668-.137-1.053 2.343.685 4.082-.868 2.244-2.004-.83-.512-.826-.877.01-1.394.623-.386 1.407-3.011 1.741-5.835.571-4.82.45-5.208-1.981-6.315-2.143-.977-3.775-.799-9.468 1.032-8.827 2.838-12.917 2.051-15.46-2.976-.962-1.9-1.75-5.125-1.75-7.164-.001-3.342-.45-3.97-4.547-6.371-2.5-1.465-4.826-2.383-5.169-2.04-.343.343-1.467-.14-2.498-1.073-1.37-1.24-4.256-1.81-10.745-2.12-8.153-.39-9.423-.183-15.707 2.564-9.177 4.012-15.212 5.385-17.736 4.034-1.59-.851-2.313-.623-3.783 1.192-2.579 3.184-2.291 5.891.748 7.047 3.412 1.297 3.374 1.308 4.347-1.275.761-2.02.97-1.8 2.049 2.157 1.457 5.345 3.322 15.936 3.23 18.343-.036.962.243 1.751.621 1.752.379.001.733 1.287.787 2.857.13 3.74 3.55 11.082 5.176 11.115.702.014 1.553-1.36 1.891-3.055.412-2.056.879-2.656 1.405-1.805.467.756-.026 2.419-1.209 4.08l-1.997 2.804 2.318.858c1.274.471 2.992 1.11 3.817 1.421 3.001 1.13 4.954.678 6.068-1.404zM26.818 90c.34-.55.817-1 1.06-1 .242 0 .44.45.44 1s-.476 1-1.059 1c-.582 0-.78-.45-.44-1zm61.167-7.667c-1.201-1.2-.7-2.113 1.083-1.972.963.077 1.638-.424 1.5-1.111-.137-.688.425-1.25 1.25-1.25s1.5-.45 1.5-1 .675-1 1.5-1c.826 0 1.5.885 1.5 1.969 0 1.339-.48 1.784-1.5 1.393-.825-.317-1.5-.078-1.5.531S92.643 81 91.818 81s-1.5.45-1.5 1c0 1.138-1.337 1.329-2.333.333zm-52-10c-1.06-1.06-.773-5.15.414-5.883.595-.368.82-1.711.5-2.986-.777-3.093.792-3.33 11.92-1.798 8.087 1.113 9.126 1.072 10.25-.405 1.039-1.367 1.25-1.392 1.25-.152 0 1.985-2 3.891-4.084 3.891-.926 0-1.955 1.013-2.286 2.25-.856 3.194-.773 3.956.358 3.257.59-.365.718.093.316 1.14-.417 1.087-.824 1.294-1.074.546-.22-.663-.861-.921-1.423-.574-.644.398-.773-.154-.347-1.494.797-2.512.604-2.559-2.952-.714-2.757 1.43-7.768.597-9.07-1.51-1.04-1.683-2.254-.911-1.728 1.099.304 1.162.03 2-.653 2-.647 0-.898.45-.558 1 .7 1.132.175 1.342-.833.333zm14.353-5.857c1.845-2.223.484-2.927-2.927-1.514-3.212 1.33-5.093.768-5.093-1.521 0-.793-.675-1.441-1.5-1.441-1.976 0-1.906 1.894.155 4.171 2.023 2.235 7.613 2.417 9.365.305zm14.002 1.107c.554-.557 1.811-.513 3.196.11 2.125.958 2.062 1.021-.913.918-1.936-.067-2.836-.473-2.283-1.028zm4.162-4.8C67.1 61.383 66.957 60 68.212 60c.916 0 2.424 3.016 1.813 3.626-.187.188-.873-.192-1.523-.843zm19.27 38.872c-.95-4.515-2.454-5.702-2.454-1.937 0 3.972.94 6.438 2.164 5.681.524-.324.655-2.01.29-3.744zM62.286 94.75c.052-2.925 5.85-2.355 7.008.69.51 1.34 1.892 2.954 3.07 3.585 1.905 1.02 2.073.927 1.514-.834-.464-1.461-.19-1.942 1.048-1.836.922.08 1.857-.365 2.078-.989.64-1.8-2.688-4.5-4.742-3.848-1.015.322-3.182-.107-4.817-.952-2.894-1.497-3.088-1.442-7.3 2.057-2.38 1.977-4.486 3.74-4.679 3.92-.193.179.252.97.988 1.759 1.16 1.241 1.636 1.217 3.57-.185 1.227-.89 2.245-2.404 2.262-3.367zm-6.004-5.122c.02-.48-.64-.313-1.465.372-.825.685-1.484 2.202-1.464 3.372.033 2.005.118 1.983 1.464-.372.786-1.375 1.445-2.893 1.465-3.372zM75.818 89c.34-.55-.11-1-1-1s-1.34.45-1 1c.34.55.79 1 1 1 .21 0 .66-.45 1-1zm-8.5-1c0-.55-.476-1-1.059-1-.582 0-.78.45-.44 1s.816 1 1.058 1c.243 0 .441-.45.441-1zm-9-6c1.293-.835 1.267-.971-.19-.985-.93-.008-1.97.435-2.31.985-.782 1.266.542 1.266 2.5 0zm-38.495-5.25c-.35-8.252-.475-8.75-2.19-8.75-.927 0-2.826 1.013-4.22 2.25-1.394 1.238-1.93 1.463-1.192.5 2.688-3.505-.36-1.631-4.679 2.876-3.397 3.546-4.116 4.827-3.078 5.485 3.109 1.97 6.365.101 9.775-5.611 1.022-1.711 1.107-1.456.588 1.767C14.098 79.8 14.703 81 17.72 81c2.048 0 2.264-.438 2.103-4.25zm83.838-8c.308-1.237.862-5.223 1.232-8.857.628-6.176.52-6.714-1.674-8.25-1.616-1.132-4.531-1.657-9.373-1.687-3.865-.024-8.828-.692-11.028-1.485-4.872-1.755-10.602-1.854-17.673-.303-7.456 1.634-7.786 2.403-1.658 3.867 2.932.7 6.063 1.728 6.957 2.282 1.128.7 4.034.53 9.496-.557 6.097-1.213 8.36-1.306 10.044-.413 3.204 1.699 8.098 8.286 8.882 11.955 1.19 5.57 3.8 7.447 4.795 3.448zM25.318 54.672c1.375-.57 3.175-1.13 4-1.244.825-.115 3.525-1.148 6-2.296 2.475-1.149 5.527-2.098 6.782-2.11 1.254-.012 2.555-.735 2.889-1.606.453-1.18.801-1.27 1.368-.354.474.767 1.456.934 2.61.445 1.018-.431 3.201-.706 4.851-.611 1.65.095 7.05-.682 12-1.727l9-1.9-.118-5.67c-.144-6.88.585-6.63 1.47.504.385 3.109 1.213 5.42 2.038 5.695 1.108.368 1.288-.596.889-4.753-.291-3.029-.147-4.655.345-3.88.465.734.853 3.01.861 5.06.013 3.105.506 3.977 2.966 5.25 4.048 2.093 13.632 2.055 14.442-.057 1.04-2.71.658-6.796-.917-9.817-.831-1.594-1.337-3.073-1.125-3.286.995-.994 3.759 7.19 3.489 10.328-.25 2.9.143 3.785 2.178 4.912 3.86 2.137 6.517 1.763 7.822-1.102 2.885-6.333.113-14.52-7.189-21.224-2.558-2.348-4.65-4.551-4.65-4.894 0-.602-.982-1.726-6.572-7.526-4.277-4.438-16.312-8.87-24.723-9.105C55.18 3.402 44.84 5.729 42.87 8.914c-.38.615-1.044.9-1.476.633-1.345-.831-5.077 3.95-7.074 9.064-1.05 2.69-1.93 4.336-1.956 3.66-.026-.677.685-3.058 1.578-5.292.894-2.234 1.402-4.286 1.129-4.559-1.173-1.173-9.46 6.602-13.408 12.58-2.362 3.575-5.264 7.766-6.45 9.314-3.305 4.318-2.563 16.767 1.277 21.394 1.08 1.302 4.013.958 8.827-1.036zm-2.83-3.172c.016-1.1.39-3.125.83-4.5l.8-2.5.03 2.5c.016 1.375-.357 3.4-.83 4.5-.86 2-.86 2-.83 0zm4.988-4.5c0-1.375.227-1.937.505-1.25.277.688.277 1.813 0 2.5-.278.688-.505.125-.505-1.25zm-2.565-7.5c.532-3.724 6.357-15.884 7.204-15.037.209.209-.835 2.452-2.319 4.984-1.484 2.533-3.319 6.73-4.077 9.329-1.339 4.586-1.362 4.607-.808.724zm20.474-1.6c-.077-1.842 1.994-8.173 2.505-7.661.188.187-.284 2.348-1.048 4.8-.765 2.454-1.42 3.74-1.457 2.86zm5.103-1.9c.016-.825.39-2.625.83-4 .644-2.01.807-2.108.83-.5.016 1.1-.357 2.9-.83 4-.526 1.225-.848 1.419-.83.5zm-18.14-2.5c0-.55.437-1.675.97-2.5.533-.825.97-1.05.97-.5s-.437 1.675-.97 2.5c-.533.825-.97 1.05-.97.5zm44.594-2.039c-.965-2.514-.68-3.163.498-1.136.584 1.004.851 2.036.593 2.293-.257.258-.748-.263-1.091-1.157zm-24.545-4.044c.048-1.165.285-1.402.604-.605.29.722.254 1.585-.079 1.917-.332.332-.568-.258-.525-1.312zM53.55 22c0-1.925.206-2.712.458-1.75.251.963.251 2.538 0 3.5-.252.963-.458.175-.458-1.75z" fill="#4f4f4f"/><path d="M57.382 117.187c-.035-.722-.851-1.233-1.814-1.135-3.503.357-4.822-.1-7.522-2.604-1.513-1.403-3.136-2.314-3.606-2.023-.47.29-1.61-.306-2.532-1.326-.953-1.053-3.74-2.127-6.457-2.487-7.436-.986-11.188-5.88-14.117-18.41-1.095-4.687-1.58-5.365-4.213-5.891-1.636-.328-3.204-1.192-3.483-1.921-.362-.942-1.714-1.16-4.667-.756-3.473.476-4.487.2-6.155-1.678-1.675-1.885-1.755-2.329-.498-2.748.825-.274 3.142-2.259 5.148-4.409 3.236-3.468 3.588-4.352 3.12-7.833-.367-2.746-.007-4.716 1.203-6.561 1.62-2.474 1.626-3 .08-8.507-2.622-9.347-1.141-14.318 7.814-26.228 7.914-10.525 18.72-16.842 34.635-20.245C64.435.26 70.238.627 79.512 4.01c8.029 2.93 14.807 7.3 17.76 11.447.8 1.123 3.818 4.538 6.707 7.588 9.014 9.514 11.645 18.859 7.126 25.3-3.613 5.148-4.87 5.733-7.643 3.552C101.636 50.462 99.415 50 94.34 50c-4.195 0-8.922-.772-12.615-2.06-5.798-2.022-6.068-2.027-14.657-.309-8.143 1.63-10.357 2.667-7.63 3.576.617.205-3.394.192-8.913-.03-9.257-.371-10.486-.193-15.87 2.302-8.642 4.005-15.183 5.548-18.028 4.252-1.923-.876-2.602-.724-3.794.85-2.05 2.711-1.854 6.167.42 7.384 3.13 1.675 5.065 1.242 5.065-1.132 0-1.191.236-1.93.524-1.642.568.567 3.37 13.382 4.02 18.39C24.12 91.257 27.377 101 29.353 101c.531 0 .965.565.965 1.256 0 1.31 3.54 3.094 8.266 4.164 2.364.535 2.918.226 3.813-2.126.668-1.757.694-2.87.072-3.077-1.4-.467 3.079-10.165 4.706-10.193.758-.014 1.116-.651.812-1.444-.484-1.26 1.019-3.018 8.192-9.58 1.237-1.132 3.542-1.42 9.392-1.17 7.31.31 7.811.195 8.772-2 .943-2.158.986-2.11.59.659-.333 2.323.254 3.687 2.637 6.124 1.687 1.725 3.558 4.655 4.159 6.511.755 2.332 1.706 3.377 3.078 3.378 1.093 0 2.136.787 2.321 1.75.185.961-.172 1.748-.794 1.748-.712 0-1.017 1.574-.823 4.25.368 5.084 2.393 4.845 2.12-.25-.158-2.946-.072-3.104.545-1 .403 1.375 1.275 2.455 1.937 2.4.663-.055 1.88-.167 2.705-.25.825-.082 1.5-.852 1.5-1.709 0-.857.4-1.312.887-1.011 1.398.864 3.108-1.82 2.149-3.373-1.216-1.968-.152-4.039 1.708-3.325 1.224.47 1.45.12 1.01-1.562-.31-1.193-.128-2.439.408-2.77.536-.331.749-1.19.473-1.91-.276-.719.144-3.711.934-6.649 1.417-5.275 1.404-5.368-1.093-7.566l-2.529-2.225-5.01 1.975C90.499 73.111 86.028 74 83.32 74c-6.137 0-8.678-2.376-9.513-8.896-.324-2.532-.916-5.22-1.315-5.973-.743-1.4-6.173-4.583-9.567-5.607-1.041-.314-1.629-.835-1.306-1.158.323-.323 3.089.2 6.146 1.16 4.708 1.482 6.424 1.575 11.222.612C82.103 53.512 85.835 53 87.282 53c3.81 0 9.62 6.351 11.18 12.22 1.275 4.794 3.555 6.886 4.985 4.572.433-.7 1.066-3.754 1.406-6.783.91-8.102 1.557-8.565 1.008-.721-.449 6.423-.347 6.836 1.894 7.688 3.877 1.474 3.97 2.956.278 4.499-3.21 1.34-3.47 1.803-4.068 7.229-.351 3.188-.894 7.146-1.206 8.796-.311 1.65-.683 3.828-.825 4.84-.563 4.015-5.249 8.16-11.863 10.496-3.597 1.27-7.6 3.444-8.896 4.831-2.729 2.921-7.328 5.528-8.206 4.65-.331-.33-1.227-.083-1.991.55-1.89 1.57-8.884.983-10.34-.867-1.013-1.286-1.326-1.143-2.187 1-.553 1.375-1.034 1.91-1.07 1.187zm3.13-18.937c.826-.963 1.782-2.538 2.123-3.5.372-1.05 1.646-1.75 3.183-1.75 1.538 0 2.811.7 3.184 1.75.819 2.31 3.383 5.25 4.578 5.25.524 0 .693-.675.377-1.5-.354-.922.002-1.5.924-1.5 2.05 0 2.929-2.703 1.455-4.479-.663-.799-2.668-1.398-4.455-1.33-3.942.147-6.41-1.05-4.541-2.204.679-.42.925-1.264.547-1.875-.925-1.498-2.559-1.412-2.611.138-.024.687-2.274 2.97-5 5.073-2.727 2.103-4.958 4.492-4.958 5.31 0 .816.45 1.207 1 .867.55-.34 1-.141 1 .441 0 1.599 1.507 1.273 3.193-.691zm-5.229-5.184c1.755-3.28 1.101-4.725-.998-2.205-1.082 1.298-1.967 2.76-1.967 3.25 0 1.603 1.908.93 2.965-1.045zm20.844-4.141c-.197-.591-.786-1.075-1.309-1.075-.522 0-1.111.484-1.308 1.075-.197.591.392 1.075 1.308 1.075.917 0 1.506-.484 1.309-1.075zm-17.838-6.886c.81-.512 1.136-1.265.727-1.675-.41-.41-1.506.016-2.436.946-1.807 1.807-.725 2.269 1.71.73zm-38.118-5.706c.308-8.15-1.822-10.481-6.067-6.64-1.76 1.593-1.833 1.593-1.222 0 1.053-2.743-1.363-1.945-3.2 1.057-.926 1.513-2.793 3.713-4.15 4.89C2.708 78.085 3.303 80 6.886 80c2.337 0 3.581-1 6.843-5.5 1.331-1.836 1.404-1.652.887 2.25-.552 4.172-.508 4.25 2.407 4.25 2.844 0 2.978-.198 3.147-4.667zM92.318 64.5c0-.825-.45-1.5-1-1.5s-1 .675-1 1.5.45 1.5 1 1.5 1-.675 1-1.5zm-68.225-9.026c2.826-.839 7.52-2.635 10.432-3.99 2.911-1.355 6.53-2.469 8.043-2.474 1.513-.005 2.752-.347 2.755-.76.003-.412 2.543-.827 5.645-.921 3.102-.095 9.85-.965 14.995-1.934l9.355-1.762.18-4.566.18-4.567.38 4.851c.327 4.192.637 4.784 2.282 4.353 1.048-.273 2.406.106 3.018.844 1.737 2.093 11.12 3.722 14.354 2.492 2.065-.785 3.414-.674 5.613.463 4.47 2.312 6.744 1.88 8.556-1.624 3.128-6.048-.391-13.877-10.985-24.443-2.793-2.785-5.543-5.935-6.112-7-.568-1.065-5.068-3.944-10-6.397-8.359-4.16-9.557-4.475-17.71-4.664-4.81-.11-8.987.19-9.282.668-.296.478-1.217.609-2.048.29-.83-.319-5.428 1.317-10.218 3.634s-9.772 4.726-11.072 5.353c-3.423 1.65-10.917 10.316-13.74 15.885-1.336 2.637-2.8 4.795-3.252 4.795-3.277 0-3.153 15.285.166 20.35 2.038 3.11 1.86 3.086 8.465 1.124zM98.476 41c0-1.375.227-1.938.505-1.25.277.688.277 1.813 0 2.5-.278.688-.505.125-.505-1.25zM53.397 22.417c.048-1.165.285-1.402.604-.605.29.722.254 1.585-.079 1.917-.332.332-.568-.258-.525-1.312zm-21 75c.048-1.165.285-1.402.604-.605.29.722.254 1.585-.079 1.917-.332.332-.568-.258-.525-1.312zM88.318 82c0-.55.45-1 1-1s1 .45 1 1-.45 1-1 1-1-.45-1-1zm3.08-2.583c.047-1.165.284-1.402.603-.605.29.722.254 1.585-.079 1.917-.332.332-.568-.258-.525-1.312zm2.614-1.056c-.799-.8.104-2.361 1.365-2.361.518 0 .941.675.941 1.5 0 1.546-1.18 1.987-2.306.86zm-58.694-8.763c0-1.364.493-2.784 1.094-3.156.602-.372.89-1.749.64-3.06-.403-2.101-.09-2.378 2.655-2.351 1.711.017 6.444.463 10.518.992 5.271.684 7.794.64 8.75-.153.995-.825 1.343-.81 1.343.059 0 .645-1.575 1.831-3.5 2.635-1.925.805-3.503 1.794-3.508 2.2-.024 2.318-10.212 4.306-11.488 2.241-.338-.547-1.556-1.498-2.706-2.113-1.817-.973-2.026-.871-1.595.774.272 1.041-.112 2.46-.854 3.153-1.108 1.035-1.349.817-1.349-1.22zm14.066-1.633c1.064-.57 1.934-1.695 1.934-2.5 0-1.7-2.305-1.907-5.023-.452-1.501.803-2.115.596-2.97-1-1.032-1.928-5.007-2.884-5.007-1.204 0 2.156 4.998 6.095 7.816 6.16.724.017 2.186-.435 3.25-1.004zm19.028-5.352c-.71-.855-.81-1.67-.247-2.018.519-.321 1.226.153 1.572 1.054.848 2.21.138 2.727-1.325.964z" fill="#2e2e2e"/><path d="M52.438 116.207c-.682-.228-2.42-1.508-3.865-2.846-1.443-1.338-3.204-2.21-3.912-1.939-.709.272-1.947-.446-2.752-1.596-1.289-1.84-1.282-2.367.056-4.409.835-1.275 1.242-3.194.902-4.263-.78-2.461 2.26-8.958 4.529-9.679 1.028-.326 1.536-1.237 1.265-2.27-.595-2.277 5.415-8.216 6.514-6.438.585.948 1.21.872 2.702-.33 1.377-1.108 1.578-1.714.691-2.083-3.034-1.264-.695-1.83 6.298-1.523 5.234.229 8.048-.078 9.166-1 1.436-1.184 1.49-1.1.497.766-.964 1.81-.7 2.404 1.928 4.348 2.718 2.01 4.02 4.186 6.225 10.418.513 1.448.965 1.61 2.031.724 1.056-.876 1.514-.768 1.988.47.858 2.235.775 2.658-.383 1.943-.615-.38-1 1.295-1 4.358 0 3.045.485 5.171 1.25 5.48.82.33.707.531-.325.583-.867.043-2.667 1.247-4 2.674-2.65 2.837-7.897 5.966-9.324 5.56-.494-.14-1.62.076-2.5.48-2.651 1.218-9.098.986-9.1-.326-.002-2.068-1.986-2.516-2.76-.623-.706 1.73-3.45 2.41-6.12 1.52zM76.318 106c0-.55-.45-1-1-1s-1 .45-1 1 .45 1 1 1 1-.45 1-1zm-3.428-5.429c.785-.785 1.428-1.91 1.428-2.5 0-.589.536-.958 1.19-.821 1.674.351 2.22-3.052.77-4.798-.662-.799-2.463-1.452-4-1.452-4.08 0-6.491-1.053-4.802-2.098 1.022-.631 1.054-1.09.14-2.004-.913-.914-1.791-.465-3.83 1.958-2.994 3.558-3.71 3.76-5.825 1.644-.825-.825-1.82-1.5-2.211-1.5-1.263 0-3.368 3.442-3.364 5.5.004 1.73.336 1.595 2.463-1 1.353-1.65 2.462-2.41 2.464-1.691.003.764.526 1.01 1.255.589.688-.396.18.454-1.126 1.89-2.305 2.531-2.372 5.712-.12 5.712 2.1 0 6.087-3.322 5.578-4.648-.361-.941.348-1.352 2.335-1.352 3.207 0 6.464 3.843 5.465 6.448-.745 1.942.311 2.002 2.19.123zM76.318 88.5c0-.825-.675-1.5-1.5-1.5s-1.5.675-1.5 1.5.675 1.5 1.5 1.5 1.5-.675 1.5-1.5zm-48.285 15.015c-2.615-2.615-3.909-5.173-5.184-10.25-2.223-8.849-2.727-9.705-5.94-10.087-1.49-.177-2.964-.988-3.277-1.802-.403-1.05-1.472-1.318-3.69-.923-2.671.476-2.797.416-.866-.419 1.242-.536 2.817-2.213 3.5-3.725l1.242-2.75.5 3.97c.433 3.436.837 3.971 3 3.971 2.3 0 2.542-.44 3.022-5.5l.522-5.5.626 4c.344 2.2.885 5.8 1.202 8 .504 3.493 1.072 6.333 1.998 10 1.717 6.798 5.516 11.566 10.495 13.173l3.635 1.173-3.65.077c-2.891.061-4.374-.647-7.135-3.408zm60.285.926c0-.857.432-1.292.96-.966 1.296.801 5.04-1.63 5.04-3.275 0-.725.5-1.009 1.112-.63 1.568.968 2.913-1.623 2.238-4.312-.419-1.67-.13-2.258 1.105-2.258 1.034 0 1.561-.667 1.383-1.75-.158-.962-.005-2.2.34-2.75.626-.995 2.822-11.867 2.822-13.968 0-.605-1.279-1.856-2.843-2.78-2.687-1.588-3.124-1.572-8.01.284-2.843 1.08-7.11 1.964-9.483 1.964-5.83 0-8.213-2.68-9.12-10.262-.61-5.087-1.045-5.946-3.71-7.324-1.66-.859-2.791-1.79-2.512-2.069.279-.279 1.388-.036 2.464.54 1.42.76 4.32.592 10.577-.614l8.62-1.662 3.098 2.946c3.577 3.4 5.92 7.486 5.92 10.324 0 2.334 2.744 5.372 4.365 4.833.624-.207 1.419-1.69 1.766-3.295.628-2.899.632-2.9.75-.275.087 1.934.788 2.81 2.618 3.269 2.83.71 3.428 3.58.75 3.604-3.256.029-4.368 1.66-4.83 7.081-.71 8.327-1 10.409-1.594 11.446-.302.527-.848 2.207-1.213 3.733-.776 3.245-3.306 5.998-7.51 8.172-3.797 1.963-5.103 1.962-5.103-.006zM75.981 62.75c-.278-.687-.505-.125-.505 1.25s.227 1.938.505 1.25c.277-.688.277-1.813 0-2.5zm17.108 1.438c.218-.654-.317-1.188-1.187-1.188-.871 0-1.584.713-1.584 1.583 0 1.766 2.153 1.459 2.771-.395zM2.91 79.099c-1.127-1.244-1.353-2.128-.656-2.559.586-.362 1.065.021 1.065.851s.788 1.968 1.75 2.529c.963.56 1.258 1.033.655 1.05-.602.016-1.869-.825-2.815-1.87zM5.818 74c.995-1.1 2.034-2 2.31-2 .274 0-.315.9-1.31 2-.996 1.1-2.036 2-2.31 2-.276 0 .314-.9 1.31-2zm7.104-4.25c.341-.98.122-1.75-.498-1.75-.609 0-1.107-.636-1.107-1.413 0-1.16.546-1.207 3.044-.265 1.673.632 2.46 1.341 1.75 1.576-.712.234-1.857 1.141-2.546 2.014-1.12 1.421-1.189 1.404-.643-.162zm22.395-.222c0-1.996 1.684-2.794 2.332-1.105.298.776-.105 1.66-.895 1.963-.83.318-1.437-.044-1.437-.858zm5.175-1.842c-3.063-3.26-2.72-4.14.399-1.022 2.145 2.145 3.185 2.476 6.25 1.983 2.533-.407 3.21-.293 2.176.366-2.61 1.665-6.575 1.068-8.825-1.327zm11.414-2.057c.657-1.713-2.556-3.062-3.956-1.662-1.628 1.629-4.354 1.207-4.867-.753-.422-1.617.066-1.72 5.134-1.085 3.08.386 6.5.769 7.6.85 1.856.137 1.838.213-.25 1.052-1.237.498-2.25 1.369-2.25 1.937 0 .568-.436 1.032-.968 1.032-.533 0-.732-.617-.443-1.371zM36.818 62c-.34-.55.11-1 1-1s1.34.45 1 1c-.34.55-.79 1-1 1-.21 0-.66-.45-1-1zm-26.46-.846c-.022-.74.728-2.645 1.667-4.234 1.482-2.509 1.535-3.361.408-6.479-1.707-4.72-1.752-11.453-.106-15.605 1.938-4.884 9.198-14.887 13.87-19.108C33.84 8.825 48.601 2.878 61.54 1.493c5.459-.585 8.026-.312 13.983 1.486 11.595 3.5 15.997 6.444 25.718 17.204 12.098 13.392 14.684 20.896 9.583 27.81-3.347 4.537-4.512 5.115-6.915 3.432-1.203-.842-4.5-1.435-8.062-1.449-5.809-.023-8.176-.452-17.19-3.114-3.526-1.04-5.403-.946-12.25.618-4.449 1.016-8.088 2.122-8.088 2.459 0 .337-4.206.67-9.348.743-7.88.11-10.139.531-14.388 2.684-5.028 2.548-6.207 2.894-13.764 4.034-4.736.714-4.032.366 4-1.979 3.3-.963 7.575-2.51 9.5-3.438 4.682-2.258 11.204-3.787 19.04-4.465 3.553-.307 10.158-1.374 14.678-2.37 7.239-1.596 8.669-1.646 12-.42 7.85 2.891 10.716 3.434 14.854 2.813 2.907-.435 5.478-.13 8.094.964 3.815 1.595 3.845 1.59 6.08-1.201 4.368-5.456 1.883-13.602-6.924-22.696-2.927-3.023-7.036-7.513-9.13-9.977C87.7 8.384 75.71 3.323 65.737 3.118c-8.937-.184-16.805 1.31-20.404 3.871C43.78 8.095 41.847 9 41.036 9c-.81 0-2.01.648-2.668 1.44-.658.793-1.826 1.2-2.596.904-1.78-.683-12.105 9.086-15.454 14.623-1.375 2.274-3.739 5.75-5.253 7.725-2.445 3.19-2.712 4.272-2.391 9.7.199 3.359 1.077 7.796 1.952 9.858 1.338 3.154 1.365 3.75.173 3.75-.78 0-2.088 1.238-2.909 2.75-.82 1.513-1.51 2.144-1.532 1.404zm51.96-8.06c0-.499.9-.671 2-.384 1.1.288 2 .696 2 .907 0 .21-.9.383-2 .383s-2-.408-2-.906z" fill="#161616"/><path d="M64.068 116.284c-1.527-.232-2.75-1.054-2.75-1.85 0-.789-.675-1.434-1.5-1.434s-1.5.675-1.5 1.5c0 .992-.992 1.5-2.928 1.5-1.611 0-3.604-.675-4.429-1.5-.825-.825-1.934-1.5-2.464-1.5s-1.22-.667-1.534-1.483c-.313-.816-1.189-1.245-1.947-.955-2.235.858-4.034-2.065-2.749-4.467.598-1.117 1-3.284.893-4.813-.233-3.33 2.435-8.79 4.725-9.67.977-.374 1.4-1.255 1.047-2.176-.817-2.128 3.646-6.441 6.026-5.823 1.023.265 2.76-.205 3.86-1.046 1.727-1.32 1.795-1.666.5-2.533-1.072-.717.566-1.008 5.751-1.019 7.188-.015 7.287.021 11.245 4.1 2.196 2.263 4.526 5.894 5.178 8.07.92 3.071 1.591 3.848 3.005 3.478 1.93-.504 2.51.794.821 1.837-1.346.832-1.279 8.21.083 9.051.643.398-.17 1.432-2 2.545-1.695 1.03-3.083 2.32-3.083 2.864 0 1.49-5.653 4.11-7.41 3.436-.846-.325-2.257.128-3.135 1.007-.879.878-1.903 1.53-2.276 1.447-.373-.082-1.916-.337-3.429-.566zm12.25-9.662c0-1.398-2.749-4.234-3.407-3.515-.198.216.023 1.406.492 2.643.934 2.47 2.915 3.062 2.915.872zm-2.13-5.964c.612-.738.817-1.638.455-2-.362-.362-.149-.658.473-.658 1.66 0 3.195-3.393 2.237-4.944-.455-.736-2.56-1.629-4.68-1.986-2.911-.49-3.782-1.07-3.558-2.373.554-3.218-2.772-3.113-6.185.195l-3.257 3.157-1.908-2.108-1.907-2.107-2.27 2.639c-1.248 1.451-2.27 3.288-2.27 4.083 0 1.907 2.902 1.863 3.639-.056.316-.825 1.315-1.476 2.218-1.448 1.286.041 1.153.395-.607 1.622-1.237.864-2.25 1.997-2.25 2.52 0 1.71 2.957 3.95 4.2 3.183 2.713-1.677 4.8-3.894 4.8-5.1 0-.702 1.125-1.277 2.5-1.277s2.5.527 2.5 1.171.745 1.994 1.655 3c1.079 1.192 1.232 1.829.441 1.829-.667 0-.936.45-.596 1 .873 1.412 3.055 1.241 4.37-.342zm-21.795-1.933c-.123-1.196-1.495-.964-1.925.325-.22.66.14 1.02.8.8.66-.22 1.167-.726 1.125-1.125zm23.925-10.298c0-.932-.68-1.442-1.667-1.25-2.509.486-2.853 2.823-.416 2.823 1.228 0 2.083-.646 2.083-1.573zm-47.941 14.755C25.064 99.7 22.063 92.44 21.084 85.54c-.19-1.335-1.363-2.182-3.68-2.656-1.87-.383-3.808-1.423-4.305-2.311-.497-.888-1.438-1.303-2.092-.922-.985.574-.092-.72 3.21-4.651.23-.275.125.32-.236 1.322-1.468 4.08 3.952 7.664 6.992 4.624.739-.74 1.225.388 1.625 3.77 1.234 10.417 6.009 19.426 11.182 21.098 2.749.888 2.81.992.633 1.084-1.57.067-3.666-1.224-6.036-3.716zm59.941 2.422c0-.217 2.292-1.866 5.093-3.663 4.499-2.887 5.029-3.584 4.548-5.985-.426-2.133-.177-2.69 1.158-2.587 1.068.082 1.715-.614 1.738-1.87.021-1.1.28-2.45.576-3 .296-.55.63-2.55.744-4.447.113-1.896.462-3.696.776-4 .815-.79-.435 10.796-1.604 14.858-1.226 4.26-4.52 7.842-8.9 9.677-3.602 1.509-4.129 1.639-4.129 1.017zm-67.92-28.187c.047-1.165.284-1.402.603-.605.29.722.254 1.585-.079 1.917-.332.332-.568-.258-.525-1.312zm82.706-2.757c-.571-2.989 1.824-6.84 2.751-4.424.378.985 1.341 1.347 2.662 1.002 1.476-.386 1.935-.14 1.602.86-.256.771-1.33 1.552-2.384 1.736-1.054.184-2.425.983-3.045 1.775-.937 1.196-1.207 1.034-1.586-.949zM77.3 72.186c-1.665-1.348-2.366-3.209-2.733-7.25-.272-2.99-1.137-6.172-1.922-7.071-1.298-1.486-.672-1.775 6.854-3.161 5.041-.93 8.92-1.185 9.913-.654 2.84 1.52 7.855 7.88 8.452 10.718.316 1.503 1.031 3.567 1.589 4.587.717 1.313.694 1.657-.08 1.179-.602-.372-3.787.256-7.078 1.395-7.371 2.55-12.063 2.631-14.995.257zm19.465-4.271a1.117 1.117 0 0 0-1.532-.362 1.117 1.117 0 0 0-.362 1.532 1.117 1.117 0 0 0 1.533.362 1.117 1.117 0 0 0 .361-1.532zM77.318 64c0-1.1-.45-2-1-2s-1 .9-1 2 .45 2 1 2 1-.9 1-2zm16 .5c0-.833-.889-1.5-2-1.5-1.11 0-2 .667-2 1.5s.89 1.5 2 1.5c1.111 0 2-.667 2-1.5zm-56.92 3.917c.047-1.165.284-1.402.603-.605.29.722.254 1.585-.079 1.917-.332.332-.568-.258-.525-1.312zm6.532.764c-.278-.45.82-.624 2.441-.387 1.621.238 2.947.607 2.947.82 0 .761-4.892.369-5.388-.433zM13.318 68c0-.615-.45-.84-1-.5-.55.34-1 .141-1-.441 0-1.273 1.02-1.333 2.857-.169.946.6 1.022 1.067.25 1.544-.609.376-1.107.18-1.107-.434zm38.639-3.5c-.399-1.039.067-1.5 1.515-1.5 1.745 0 1.885.248.846 1.5-.684.825-1.366 1.5-1.515 1.5-.149 0-.53-.675-.846-1.5zm-8.639-1c0-1.651 1.761-1.938 3.834-.624 1.064.675.997.975-.332 1.485-2.587.993-3.502.768-3.502-.861zm-30.651-7.854c.88-2.815 1.301-3.236 1.995-1.996.611 1.092.27 2.18-1.116 3.567-1.994 1.994-1.995 1.993-.88-1.571zm14.464-.33c.722-.288 1.584-.252 1.916.08.333.332-.258.568-1.312.525-1.165-.048-1.402-.285-.604-.604zM68.318 55c-.901-.582-1.024-.975-.309-.985.655-.008 1.47.435 1.81.985.767 1.242.42 1.242-1.5 0zm-5.187-1.683c.722-.289 1.584-.253 1.916.079.333.332-.258.568-1.312.525-1.165-.048-1.402-.285-.604-.604zm40.341-2.055c-1.546-1.076-4.794-1.704-9.527-1.841-3.95-.114-8.911-.93-11.026-1.815C80.804 46.723 77.084 46 74.652 46c-4.71 0-17.332 2.819-17.336 3.872-.002.345-4.39.651-9.75.68-5.361.028-8.398-.124-6.748-.339 1.65-.214 3.45-.72 4-1.125.55-.405 2.959-.853 5.352-.996 2.394-.143 8.919-1.04 14.5-1.995 11.648-1.992 14.18-1.998 17.648-.042 1.512.852 5.465 1.425 10 1.45 4.125.02 8.98.653 10.79 1.404 3.046 1.265 3.47 1.196 5.75-.946 1.353-1.271 2.46-2.882 2.46-3.578 0-.697.432-1.534.96-1.86 1.818-1.124-.96 4.997-3.523 7.76-1.385 1.493-2.612 2.691-2.727 2.663-.115-.03-1.265-.788-2.556-1.686zM11.55 45c0-1.925.206-2.713.458-1.75.251.962.251 2.537 0 3.5-.252.962-.458.175-.458-1.75zm99.918-6.054c-.206-3.511-4.81-10.378-11.364-16.946-3.018-3.025-6.037-6.543-6.708-7.818C92.203 11.916 75.737 3.089 72.39 2.92c-.865-.043-1.091-.279-.503-.523 1.997-.83 14.907 4.741 20.166 8.702 2.88 2.168 5.88 5.17 6.667 6.671.788 1.501 3.308 4.529 5.6 6.729 5.101 4.897 8.253 10.755 7.706 14.326l-.41 2.674-.149-2.554zM11.922 37c1.337-5.354 10.596-18.39 15.98-22.497C31.048 12.105 44.466 5 45.85 5c2.446 0-2.88 3.067-12.628 7.27-4.075 1.757-11.597 10.134-14.8 16.48-1.18 2.337-2.504 4.25-2.943 4.25-.439 0-1.559 1.462-2.49 3.25-1.323 2.544-1.555 2.707-1.067.75zM56.068 2.338c.688-.278 1.813-.278 2.5 0 .688.277.125.504-1.25.504s-1.937-.227-1.25-.504zM66.318 2c-1.292-.835-1.266-.971.191-.985.93-.008 1.97.435 2.31.985.781 1.266-.542 1.266-2.5 0z" fill="#020202"/></svg>